<svg id="Capa_1" data-name="Capa 1" xmlns="http://www.w3.org/2000/svg" viewBox="0 0 1080 1080"><defs><style>.cls-1{fill:#f9e7d2;}.cls-2{fill:#ef5b0d;}</style></defs><circle class="cls-1" cx="526.33" cy="553.2" r="469.2"/><path class="cls-2" d="M763.32,663.36l0,0a131.73,131.73,0,0,1-29.66,21.13l-.31.15A176.73,176.73,0,0,1,684.82,700a1.87,1.87,0,0,1-.35,0,200.48,200.48,0,0,1-65.53-.18h-.11c-33.87-5.67-67.15-20.17-94.69-44.53C456,595,402.45,527.61,352.67,493.6c0,0-.13-.07-.2-.13A117.31,117.31,0,0,0,336.32,485C303,471,256,484.87,219.53,530.47c-3.11,3.88-12.79,1.68-14.05-2.23,11.45-45.21,32.24-73.5,49.22-90.06,13.51-13.2,24.62-19,26.77-20.05a3.52,3.52,0,0,0,.37-.19,143.48,143.48,0,0,1,55.28-14c19.92-.93,42.42,2.32,67,12.55,9.14,4.31,18.43,9.07,27.72,14.09a3.12,3.12,0,0,0,.35.2c7.32,4,14.64,8.15,21.89,12.48a679.1,679.1,0,0,1,67.35,45.44c15.81,12.2,30.66,22.64,44.63,31.53.13.12.3.18.45.3C746.75,632,794.28,422.89,794.28,422.89l0,0a1.51,1.51,0,0,0,.08.3C797.32,430.81,849.44,570,763.32,663.36Z"/></svg>