<?xml version="1.0" encoding="utf-8"?>
<!-- Generator: Adobe Illustrator 23.1.0, SVG Export Plug-In . SVG Version: 6.00 Build 0)  -->
<svg version="1.1" id="Capa_1" xmlns="http://www.w3.org/2000/svg" xmlns:xlink="http://www.w3.org/1999/xlink" x="0px" y="0px"
	 viewBox="0 0 1080 595.8" style="enable-background:new 0 0 1080 595.8;" xml:space="preserve">
<style type="text/css">
	.st0{fill:#491C0C;}
	.st1{fill:#EF5B0D;}
	.st2{fill:#888483;}
</style>
<path class="st0" d="M962.6,303.1l-0.5,0.8C962.3,303.6,962.4,303.3,962.6,303.1L962.6,303.1z"/>
<path class="st0" d="M857.3,355.5l-0.2,0.1c-0.9-0.4-1.8-0.9-2.6-1.4C855.4,354.7,856.3,355.1,857.3,355.5z"/>
<path class="st0" d="M950,127.5c3,3.5,5.9,7.1,8.7,10.9C956,134.6,953.1,130.9,950,127.5z"/>
<path class="st0" d="M738.8,117.8l-1.1,0.2L738.8,117.8L738.8,117.8z"/>
<path class="st0" d="M862.6,340.3l1.1,0.5L862.6,340.3z"/>
<path class="st0" d="M869.3,343.1L869.3,343.1c-0.3-0.1-0.7-0.2-1-0.3l-0.7-0.3c-0.6-0.2-1.2-0.4-1.7-0.7l-0.8-0.4l-0.7-0.3
	C866,341.9,867.7,342.5,869.3,343.1z"/>
<path class="st0" d="M738.8,117.9l-1.1,0.1L738.8,117.9L738.8,117.9z"/>
<path class="st0" d="M425.3,135.1c-0.5-0.9-1-1.8-1.4-2.7c2.4,6,5.9,11.5,10.4,16.1C430.7,144.5,427.6,140,425.3,135.1z"/>
<path class="st0" d="M645.3,97.2L645.3,97.2z"/>
<path class="st0" d="M959,138.6L959,138.6c-0.1-0.1-0.1-0.2-0.2-0.3C958.8,138.4,958.9,138.5,959,138.6z"/>
<path class="st0" d="M442,155.3c5.6,4.5,12.1,7.9,19.1,9.8C454.3,162.8,447.9,159.5,442,155.3z"/>
<path class="st1" d="M61.4,603L61.4,603L61.4,603L61.4,603z"/>
<path class="st1" d="M727.5,570.2L727.5,570.2c4.1,3.8,8.6,7.1,13.6,9.7l0.1,0.1c7,3.4,14.5,5.7,22.2,7h0.2c10,1.6,20.1,1.6,30-0.1
	l0,0c16.1-2.6,31.2-9.6,43.5-20.3c31.3-27.7,55.8-58.5,78.6-74.1l0.1-0.1c2.4-1.5,4.8-2.8,7.4-3.9c15.3-6.4,36.8-0.1,53.5,20.8
	c1.4,1.8,5.9,0.8,6.4-1c-5.3-20.8-14.8-33.8-22.6-41.3c-3.6-3.7-7.7-6.8-12.3-9.2l-0.2-0.1c-7.9-3.8-16.6-6-25.3-6.4
	c-10.5-0.4-21,1.6-30.7,5.8c-4.2,2-8.5,4.2-12.7,6.5l-0.2,0.1c-3.3,1.8-6.7,3.7-10,5.7c-10.7,6.3-21,13.3-30.9,20.8
	c-7.2,5.6-14,10.4-20.5,14.5c-0.1,0-0.1,0.1-0.2,0.1c-82.7,51.1-104.5-44.8-104.5-44.8l0,0c0,0,0,0.1,0,0.1
	C711.9,463.5,688,527.4,727.5,570.2z"/>
<path class="st1" d="M61.4,603L61.4,603L61.4,603L61.4,603z"/>
<path class="st1" d="M61.4,603L61.4,603L61.4,603L61.4,603z"/>
<path class="st1" d="M69.7,546.4c0-0.1,0-0.2,0-0.2V546.4z"/>
<path class="st2" d="M61.4,603L61.4,603L61.4,603L61.4,603z"/>
<path class="st0" d="M545.9,190.7L545.9,190.7L545.9,190.7z"/>
<path class="st0" d="M545.9,190.7L545.9,190.7L545.9,190.7z"/>
<path class="st0" d="M946.6,199.3l-4.5-1.9c-1.1-2.3-2.3-4.6-3.6-7.2l0-0.2c-0.4-0.9,1.9,1.2-2.6-5.6c0.8,1.1,6.3,8.7,9.2,12.7
	c0.1,0.1,0.1,0.2,0.2,0.2L946.6,199.3z"/>
<path class="st0" d="M946.6,199.3C947.6,199.7,955.6,211.5,946.6,199.3z"/>
<path class="st0" d="M114.3,227.2c4.3-22.4,37.4-61.5,108.3-61.5c109.2,0,121.6,115.2,12.1,145.1c7.4,19.6,15.5,42.9,25.7,61.5
	c5.9,10.6,14.5,22.7,22.6,26.1c2.5,1.2,3.4,4.3,1.5,5.6c-5,3.1-12.7,4.7-21,4.7c-9,0-17.9-1.9-23.2-6.5
	c-14.2-12.1-25.1-51.3-35.6-85.7c-7.9,1-15.9,1.5-23.8,1.6c-8,18.9-15.2,36.7-18.9,48.5c-2.8,9-6.8,22.7-7.4,26.7
	c-0.6,3.1-1.6,4-4.6,4c-9.3-2.5-25.1-11.2-25.1-24.5c0-28,72.7-157.8,72.7-157.8c4-6.2,8.4-8.1,15.2-8.1c7.4,0,17,4.4,12.7,13
	c-0.9,1.5-18.3,38.2-35,76.1c103.9-1.5,119.1-111.5,31.6-111.5c-54.1,0-78.6,44.4-81.7,62.1c-1,4.5-0.3,9.3,1.9,13.4
	c0.6,1.3-0.6,4.4-4.3,4.4C123.3,264.2,110.6,246.2,114.3,227.2z"/>
<path class="st0" d="M359.6,268.2c15.5,0,22.6,6.5,25.4,15.2c2.8-4.4,4.9-7.8,6.5-10.3c2.2-3.4,4.9-5,8-5c6.5,0,21.6,6.2,15.8,15.5
	c-7.7,12.4-37.4,78.3-30,78.3c5.3,0,22.3-18.6,39.6-37.9c2.5-2.5,4.6-3.7,6.8-3.7c4.3,0,7.1,5,3.4,9.6c-21,26.7-44.5,53.1-52.6,53.1
	c-6.8,0-29.4-8.7-29.7-24.8c-12.1,14-25.4,24.8-35.6,24.8c-13.6,0-28.8-9.6-28.8-25.2C288.4,326.3,317.8,268.2,359.6,268.2z
	 M323.1,362c25.4,0,66.2-76.4,42.1-76.4C336.1,285.6,308.2,362,323.1,362z"/>
<path class="st0" d="M487.6,358c0-16.8,37.7-65.8,27.5-65.8c-12.7,0-69.6,75.8-71.1,87c-0.3,3.1-1.5,4-4.6,4
	c-9.3-2.5-25.1-11.2-25.1-24.5c0-23.6,30.6-72.4,39-85.4c2.2-3.4,5-5,8-5c6.5,0,21.6,6.2,15.8,15.5c-4.3,6.8-16.1,31.1-24.4,54.4
	c17.9-25.8,61.6-69.9,77.9-69.9c10.8,0,21,10.3,21,21.7c0,12.4-31.9,62.4-31.9,69.9c0,1.5,0.6,2.2,1.9,2.2
	c5.3,0,22.3-18.6,39.6-37.9c2.5-2.5,4.6-3.7,6.8-3.7c4.6,0,7.1,5,3.4,9.6c-20.7,26.7-44.5,53.1-53.2,53.1
	C511.5,383.2,487.6,374.1,487.6,358z"/>
<path class="st0" d="M556.6,345.9c0-27,30.6-77.6,62.5-77.6c38,0,35.6,40.4,16.7,50.6c-0.8,0.4-1.6,0.6-2.5,0.6
	c-4.6,0-11.1-5.9-7.4-8.1c8-5.3,13.9-25.8,2.5-25.8c-13.9,0-39.3,35.1-39.3,59.9c0,5.9,2.5,16.5,17.9,16.5c16.7,0,33.7-18.6,51-37.9
	c2.5-2.5,4.6-3.7,6.8-3.7c4.6,0,7.1,5,3.4,9.6c-20.7,26.7-44.5,53.1-70.2,53.1C561.9,383.2,556.6,359.5,556.6,345.9z"/>
<path class="st0" d="M801.3,320.4c-2.1,0-4.2,1.2-6.6,3.5l-0.2,0.2c-17.3,19.3-34.3,37.9-39.6,37.9c-1.2,0-1.9-0.6-1.9-2.2
	c0-7.4,31.9-57.5,31.9-69.9c0-11.5-10.2-21.7-21-21.7c-15.5,0-55.1,39.1-74.5,65.2c18.5-47.2,64-135.4,65.3-137.9
	c4.3-8.4-8.3-13-15.2-13s-9.9,1.9-13.9,8.1c0,0-45.8,82.3-67.2,133.3c-2.6,6.3-4.9,12.1-6.7,17.2c-1.5,4.3-2.8,8.6-3.7,13.1
	c-0.3,1.5-0.4,3-0.5,4.5c0,13.3,15.8,22,25,24.5c3.1,0,4.3-0.9,4.6-4c1.5-11.2,58.5-87,71.2-87c10.2,0-27.5,49.1-27.5,65.8
	c0,16.2,23.8,25.2,30.6,25.2c6.6,0,22.2-15.5,38.4-34.8c4.9-5.9,10-12.1,14.8-18.3C808.4,325.4,805.9,320.4,801.3,320.4z"/>
<path class="st0" d="M801.3,320.4c-2.1,0-4.2,1.2-6.6,3.5c-3.1,8-4.8,15.6-4.8,21.9c0,0.8,0,1.6,0.1,2.5c4.9-5.9,10-12.1,14.8-18.3
	C808.4,325.4,805.9,320.4,801.3,320.4z"/>
<path class="st0" d="M1017.9,207.2c0-2.7-5.6-3.8-13.8-0.5c-2.7,1-10.1,0.4-18.8-1c-2.8-25.6-13.5-49-26.5-67
	c-0.1-0.1-0.1-0.2-0.2-0.3c-2.8-3.9-5.7-7.5-8.7-10.9c-66.1-76.8-160.4-63.5-212.3-48c0,0-9.4-4.9-22.3-11.1c-1.9-0.9-3.9-1.9-6-2.9
	l-20-9.2l0,0c-1.2-0.6-2.4-1.1-3.5-1.6c-0.1,0-0.2-0.1-0.3-0.1l-3.2-1.5l-2.6-1.2c-17.8-7.9-34.7-14.6-50.6-20.3
	c-6.3-2.2-12.5-4.3-18.5-6.2l-1.2-0.4c-0.1,0-0.2-0.1-0.3-0.1l-4.3-1.3c-0.1,0-0.3-0.1-0.4-0.1l0,0c-33.8-10.3-63-15.5-88.1-17.3
	C410.8-1.1,377.1,53,377.1,53l0,0c-12.9,16.7-19.9,37.2-19.9,58.3c0,0.7,0,1.4,0,2.1v0.3c0.4,15.9,4.8,31.5,12.8,45.2
	c0,0,0.1,0.2,0.3,0.6c0.1,0.1,0.2,0.3,0.3,0.4c8.3,12.6,19.1,23.5,31.7,31.9c10.2,6.3,21.3,10.8,33,13.4c15.6,3.5,31.4,3.8,46,2.5
	c2.1-0.2,4.2-0.5,6.3-0.7c6.2-0.8,12.1-1.9,17.7-3.1c9.6-2.5,22.8-6.6,40.6-13.1h0.1l0,0c1.5-0.5,3.1-1.1,4.6-1.7h0.1
	c58.1-26.1,97.4-42.1,119.5-50.8l5.2-2.4c2.4-0.9,4.7-1.8,6.9-2.6c3.3-1.2,6.6-2.3,9.8-3.3l0,0c14.9-4.9,30.1-8.9,45.5-11.9h0
	l1.1-0.2c0.9-0.2,1.8-0.4,2.7-0.5c34.5,16.3,155.5,98.1,206,106.1c1.1,5.6,1.8,11.2,2,16.9c0.1,1.6,0.1,3.3,0.1,4.9
	c0,40.1-21,77.3-55.5,97.9c1.6-2.7,3.1-5.5,4.4-8.3c6.9-14.8,9.2-30.3,5.2-42.7c-1.3-4.3-3.5-8.2-6.5-11.6
	c-6.6-7.5-17.3-12.2-32.9-12.2c-33.6,0-59.5,29.7-69.7,55.7c2.4-2.4,4.5-3.5,6.6-3.5c4.7,0,7.1,5,3.4,9.6
	c-4.8,6.2-9.9,12.5-14.8,18.3c0,0.2,0,0.4,0,0.6c0.8,13.9,7.8,34.2,41.3,34.2c19.1,0,36.4-9.3,49.6-22.8c10.7-0.4,24-3.9,39-14.5
	c16.9-10.4,31.2-24.5,41.8-41.3c0.2-0.3,0.3-0.5,0.5-0.8s0.3-0.5,0.5-0.8l0,0c11.7-18.6,20.3-42.6,23.1-73.4c0-0.6,0.1-1.2,0.1-1.8
	l0.6,0.5C996,227.1,1020.2,217,1017.9,207.2z M699.9,93.7c-15.9,6-34.3,13.9-61.8,26.7l-0.3,0.1l-0.3,0.1c-0.1,0-0.2,0.1-0.3,0.1
	l-0.5,0.3l-0.7,0.3l-1.2,0.6l-0.7,0.3c-14.9,6.9-67.7,30.7-106,40.8H528c-10.3,2.7-19.5,4.4-26.7,4.5h0c-14.4,1.5-28.2,1-40.1-2.5
	c-7-1.9-13.5-5.2-19.1-9.8c-2.8-2-5.4-4.3-7.8-6.8c-4.5-4.6-8-10.1-10.4-16.1c-3.9-9.8-5.3-22.1-2.6-37.4c1.1-4.4,2.7-8.6,4.8-12.6
	l0,0c0.6-1.5,20.4-49.6,99-50c13.9,0,27.9,1.3,41.6,3.8h0.1h0.2l0,0l5.5,1.2l18.3,4.4h0.1C616,48.8,658.9,63.1,708,90
	C702.8,92.3,699.9,93.7,699.9,93.7z M780.3,112.8l4.3-0.1l0,0h2.3c90.2-1.4,131.6,49.1,146.4,73.8l0,0c2.4,4,4,7.2,5.2,9.5
	C859.9,163.3,795.3,122.9,780.3,112.8z M857.1,355.6c-0.9,0.7-1.8,1.3-2.8,1.8c-4.7,2.9-9.5,4.6-14.1,4.6c-5.6,0-9.5-1.4-12.2-3.4
	c-4.8-3.6-5.8-9.3-5.8-13c0-8.7,3.1-18.3,7.7-27.7c1.5,17.7,11.3,29.7,24.4,36.3l0,0c0.9,0.5,1.9,0.9,2.8,1.3L857.1,355.6z
	 M869.3,343.1L869.3,343.1c-0.3-0.1-0.7-0.2-1-0.3l-0.7-0.3c-0.6-0.2-1.2-0.4-1.7-0.7l-0.8-0.4c-0.8-0.4-1.7-0.8-2.5-1.2l-0.5-0.3
	l-0.5-0.3l-0.5-0.3c-0.3-0.2-0.6-0.3-0.8-0.5c0,0,0,0,0,0c-0.3-0.2-0.6-0.4-0.8-0.5c-0.1,0-0.1-0.1-0.2-0.1l-0.2-0.2
	c-7.8-5.3-13.1-13.2-13.1-23c0-19.6,15.8-29.5,23.8-29.5C895.3,285.6,887,320.4,869.3,343.1z"/>
<path class="st0" d="M709.5,65.5l-20-9.2l0,0c-1.2-0.6-2.4-1.1-3.5-1.6C693.9,58.1,702.1,61.9,709.5,65.5z"/>
<path class="st0" d="M528,163.1c-10.3,2.7-19.5,4.4-26.7,4.5C510.3,166.7,519.2,165.2,528,163.1z"/>
<path class="st0" d="M566.8,36.1L566.8,36.1l0.3,0.1L566.8,36.1z M709.5,65.5c2,1,4,1.9,6,2.9l0.2-0.1L709.5,65.5z"/>
<path class="st1" d="M368.9,570.2L368.9,570.2c-4.1,3.8-8.6,7.1-13.6,9.7l-0.1,0.1c-7,3.4-14.5,5.7-22.2,7h-0.1
	c-9.9,1.6-20.1,1.6-30-0.1h0c-16.1-2.6-31.1-9.7-43.4-20.4c-31.2-27.7-55.8-58.5-78.6-74.1c0,0-0.1,0-0.1-0.1
	c-2.4-1.5-4.8-2.8-7.4-3.9c-15.3-6.4-36.8-0.1-53.5,20.8c-1.4,1.8-5.9,0.8-6.4-1c5.3-20.7,14.8-33.7,22.6-41.3
	c3.6-3.7,7.7-6.8,12.3-9.2l0.2-0.1c7.9-3.8,16.5-6,25.3-6.4c10.5-0.4,21,1.6,30.7,5.8c4.2,2,8.4,4.2,12.7,6.5c0.1,0,0.1,0.1,0.2,0.1
	c3.4,1.8,6.7,3.7,10,5.7c10.7,6.3,21,13.3,30.9,20.8c7.2,5.6,14,10.4,20.4,14.4c0.1,0,0.1,0.1,0.2,0.1
	c82.6,51.1,104.4-44.7,104.4-44.7l0,0c0,0,0,0.1,0,0.1C384.5,463.6,408.4,527.4,368.9,570.2z"/>
<path class="st0" d="M148.4,122.3c0.3-0.4,0.7-0.6,1.2-0.7c0.4,0,0.8,0.3,0.9,0.7c0.1,2.5,3.4,6.7,9.9,6.7c24.6,0,48.3-53,70-72.8
	c-1.1,0-2.2-0.1-3.4-0.1c-16.7,0-40,6.3-42.8,23c-0.4,1.9-0.1,3.9,0.8,5.7c0.3,0.5-0.3,1.8-1.8,1.8c-6.2,0-11.6-7.6-10-15.7
	c3.7-18.3,31.1-24,52.5-24c13.6,0,24.6,2.2,26.2,4.9c0.5,0.7,0.7,1.5,0.7,2.4c-0.3,6.6-18.7,50.7-20.9,62.3
	c9.4-15.4,32.3-52.2,42.4-62.7c3.3-3.4,5.9-4.7,11.9-4.7c6.5,0,9.3,3.3,7.8,7.8c-4.9,15.7-19.9,49.8-23.3,68.2
	c-1,6.6-1.5,14,2.8,19.4c0.7,0.9,0.7,2.8-1.6,2.8c-12.8,0-19.5-7.4-17.5-19.4c3-20.5,20.4-52.8,24.1-59.9c0.7-1.4,0.1-2.9-1-2.9
	s-2.1,0.5-3.4,2.2c-5.8,7.8-32.2,50-37.5,60.8c-3.4,7.4-4.6,8.4-8.4,8.4c-6.4,0-14.4-7.5-14.1-13.2c0.4-11.3,19.9-46.5,23.4-55.8
	c0.4-1,0.3-2.5-1.2-2.5c-2.5,0-4.7,2.8-8.6,8c-19.7,27.5-37.6,74.1-63,74.1C142,147,145.6,125.7,148.4,122.3z"/>
<path class="st0" d="M308.1,116.1c0.7-0.9,1.8-1.4,2.9-1.5c2,0,3,2.1,1.5,4.1c-8.8,11.3-19,22.5-22.4,22.5
	c-2.9,0-12.6-3.8-12.6-10.7c0-10,12.9-30.4,16.5-35.9c0.7-1.3,2-2.1,3.4-2.1c2.8,0,9.2,2.6,6.7,6.6c-3.3,5.3-15.9,33.2-12.8,33.2
	C293.5,132.1,300.7,124.2,308.1,116.1z M306.1,88.2c-2.8,0-7.9-2.6-7-5.3c1.7-4.9,3.6-9.7,5.7-14.4c0.9-1.6,2.6-2.5,4.4-2.4
	c4.6,0,10.7,4.6,8.8,7.4c-2.4,3.7-8.7,11.5-10.3,14C307.3,88,306.7,88.2,306.1,88.2L306.1,88.2z"/>
</svg>
