<svg xmlns="http://www.w3.org/2000/svg" viewBox="0 0 427.36 1078.43"><defs><style>.cls-1{fill:#fda016;}</style></defs><g id="Capa_2" data-name="Capa 2"><g id="Capa_1-2" data-name="Capa 1"><path class="cls-1" d="M223.41,0c.28,5.14.24,10.22,1.56,15.37,1.16,4.57.31,9.63.58,14.46a41,41,0,0,0,1.25,8.92c1.39,4.84,1.64,9.57-.21,14.25a12.13,12.13,0,0,0-.31,8.87,22.51,22.51,0,0,1,.85,7.43c-.09,4.13-.43,8.26-.86,12.36-.59,5.58-.86,11,1.48,16.4a12.44,12.44,0,0,1,1,6.32c-1.15,8.49-.25,17.22-2.93,25.54-1.11,3.45-1.85,7-.63,10.57a3.39,3.39,0,0,1,.2,1.6c-1.6,9.91.63,20-1.27,29.89-.27,1.39-.69,2.94-.33,4.22,1.27,4.55.65,8.92-.85,13.22a12.68,12.68,0,0,0,0,8.94,21.19,21.19,0,0,1,.75,11.13,24.66,24.66,0,0,0,.24,8.52,36.09,36.09,0,0,1-.16,14.42,39,39,0,0,0-.4,8c0,3.05.15,6.1.28,9.14.14,3.23.16,6.47.55,9.66.59,4.69.66,9.18-1,13.8a17.58,17.58,0,0,0-.36,8.42c.71,4,.6,7.84-1.16,11.55-1.51,3.18-2.39,6.56-1.3,9.93,1.2,3.71.5,7.15-.73,10.53a67,67,0,0,0-3.92,17.27c-.2,2.3-1.12,4.53-1.6,6.81-1,4.9-1.93,9.81-2.94,14.71-.4,1.93-.91,3.84-1.43,5.73-1.82,6.56-3.51,13.16-5.56,19.64-1.22,3.86-3,7.53-4.94,12.18,0,1.23.48,3.68-.11,5.84a27,27,0,0,1-3.82,8.72,20.54,20.54,0,0,0-4,8.67,6.35,6.35,0,0,1-.34,1.58c-6.26,13-9.79,27.37-19.51,38.62a10.49,10.49,0,0,0-2.06,3.13c-2.6,7.3-7.11,12.82-14.52,15.56-.69,4.59-1,8.67,1.35,12.76,2.76,4.8,3.34,10.22,2.77,15.68A26.84,26.84,0,0,0,160.51,513c2.08,5.43,1.6,11-.16,16.4a26.27,26.27,0,0,0-1.24,12.73,7.83,7.83,0,0,1,.12,2.68c-1.23,6.33-2.25,12.73-3.93,18.94-.92,3.39-3,6.46-4.76,10.06a7.5,7.5,0,0,0,.11,1.69c1.53,6.68-.28,12.46-4.79,17.44-2.46,2.72-4.44,5.63-5.09,9.31-.56,3.2,0,4.6,2.76,6.32a26.77,26.77,0,0,1,3.31,1.78c2.19,1.81,5.1,3.42,6.15,5.8,3.38,7.63,8.25,14.93,6.87,24.22,2.13,2.56,4.2,5.27,6.5,7.76a15.75,15.75,0,0,1,4,10.25,48.27,48.27,0,0,0,2.21,11c1.3,4.21,2,8.34,1.18,12.71a33,33,0,0,0,.31,13.89c.54,2.31-.27,4.93-.37,7.41-.13,3-.17,6-.22,9a14.11,14.11,0,0,1,.06,2.67c-1.25,5.41-2.28,10.91-4,16.18a30.4,30.4,0,0,1-10.41,14.78,8.45,8.45,0,0,0-3.54,7.43c.14,3.75,0,7.52,0,11.62,7.93,5.85,11.7,14.38,14.21,23.48,2.42,8.77,3,17.93,5.15,26.79.78,3.22.12,6.78.12,11.29,2.72,4.22,2.08,9.87,1.31,15.64-.55,4.24-.41,8.55-.77,12.82-.22,2.66-.17,5.59-1.31,7.87-1.72,3.43-2.46,7-3.56,10.6a39.82,39.82,0,0,1-4.48,9.71,19.14,19.14,0,0,0-3.4,10c-.16,5.14-.86,10-6,13-1,.59-1.4,2.3-1.74,2.91,4.54,5.69,8.62,10.85,12.75,16a6.2,6.2,0,0,0,2,1.72c4.54,2.21,7.7,5.77,10.18,10.08a16.43,16.43,0,0,0,7.6,6.61A21,21,0,0,1,198.27,954c2.34,5,6.71,7.74,11.77,10.6,1-2.2,1.93-4.08,2.75-6,.71-1.64,1.07-3.49,2-5,4.91-7.7,10-15.29,14.94-23a59.68,59.68,0,0,0,5.29-9.27c2.08-5,4.21-9.92,8.25-13.73a4.71,4.71,0,0,0,1-1.26q5.27-10.2,10.48-20.43a55.09,55.09,0,0,1,2.88-5.75c5.39-8,8.12-17.15,11.09-26.19.09-.27-.14-.65-.22-1-.31-.08-.71-.33-.92-.22-8,4.27-16.71,3.58-25.31,3.47-4.36,0-7.81-2.37-11.08-5-1.94-1.57-3.91-3.13-6-4.51-8.87-5.89-12.34-19.89-7.4-29.35a73.07,73.07,0,0,0,3.81-9.38c2.35-6.49,6.94-11,13.28-15.8,1.94-3.65,4.77-8.27,6.87-13.2a18.42,18.42,0,0,0,1-8.34,15.78,15.78,0,0,1,1.24-7.82c2.5-5.75,4.81-11.58,7.25-17.36a48.91,48.91,0,0,1,2.41-4.8c2.53-4.48,5.12-8.93,8-13.92l-8.16-2.31c-2.1-3.5-4.13-6.88-5.4-9-4.22-2.92-7.25-5.12-10.38-7.15A20.88,20.88,0,0,0,233,706a25.15,25.15,0,0,1-10.84-6.78c-3.15-3.43-6.81-5.64-11.7-5.79-3.58-.11-6.39-2.14-8.58-5-2-2.62-2.72-5.37-1.29-8.54,1.64-3.59,3.16-7.24,4.74-10.86a8.62,8.62,0,0,1,.52-.94c2.62-4.39,14.53-10.93,19.4-11,1.84,2.59,3.33,5,5.09,7.11,3.73,4.6,7.72,9,11.37,13.64a19.24,19.24,0,0,0,10.13,6.76,23.57,23.57,0,0,1,10.82,6.76,20,20,0,0,0,7.12,4.54c2.81,1.21,5.14,3.73,7.42,6,1.81,1.75,3.19,4,6.77,3.51,4.94-3.91,10.35-8,14.77-13.28,3.44-4.14,7.34-7.89,11.07-11.77,3.52-3.66,6.63-7.5,8-12.57a12.85,12.85,0,0,1,3.17-5.55c3.41-3.32,4.81-7.44,5.9-12.11-1-.89-2-1.85-3.14-2.72-3.52-2.79-7.18-5.41-10.57-8.34a25.07,25.07,0,0,1-5.78-6.32c-2.85-5.12-5-10.6-8.82-15.21-1.16-1.41-1.54-3.64-1.81-5.56a75.06,75.06,0,0,1,4.17-38.14,39.58,39.58,0,0,1,9.88-15.21c3.13-2.89,5.58-6.52,8.42-9.93-1.43-3.71-2.58-7.3-4.21-10.66a13.06,13.06,0,0,0-4-4.89c-4.87-3.43-7.27-8.21-8.76-13.76-.88-3.26-2.42-6.34-3.32-9.6A47,47,0,0,1,297,499.8c-.25-5-.42-9.91-1.86-14.87a39.16,39.16,0,0,1,.5-23.89c3.45-10.19,6.54-20.53,10.47-30.54,2.8-7.16,6.7-13.9,10.16-20.8a15.45,15.45,0,0,1,1.64-2.1c2.11-2.87,4.31-5.67,6.27-8.64,1.68-2.52,3.08-5.24,4.76-8.13-1.5-5.86-2.9-12-4.7-18a12.59,12.59,0,0,0-3.44-5.24A19.39,19.39,0,0,1,314.15,354a12.53,12.53,0,0,0-1.66-5,19.06,19.06,0,0,1-2.53-11.4c.69-6,.31-12.34,4.59-17,0-4.13-.26-7.91.05-11.65a93.47,93.47,0,0,1,15-43.77c4.07-6.31,7.53-13,10.77-18.68l-5-14c-4-2.19-6.94-6.75-8.75-12.21a6.69,6.69,0,0,0-4.1-4.68c-5.66-2.05-7.92-6.58-8.17-12.16a28.53,28.53,0,0,0-3.21-12.89c-1.13-2-.95-4.85-1.28-7.32-.48-3.71-.54-7.51-1.43-11.11a27.86,27.86,0,0,1,.38-13.85,50.2,50.2,0,0,0,1.83-14.35,18.11,18.11,0,0,1,1.73-7.78c4.28-9.49,8.52-19,15-27.35,1.31-1.69,2.23-3.68,3.43-5.47,3.22-4.82,4.17-9.73,1.44-15.21-1-2-1.14-4.5-1.67-6.78-.29-1.22-.24-2.68-.92-3.62a20.85,20.85,0,0,1-3.93-14.79c-9.88-3.86-11.07-12.66-12.88-21.12a40.41,40.41,0,0,0-1.66-6.67c-1.69-4.26-2.83-8.51-1.69-13.25A38.07,38.07,0,0,1,303.21,0h23.73c.36,1.57.83,3.13,1.06,4.72,1.57,11,3.61,21.84,9.95,31.34a7.2,7.2,0,0,1,.88,2.52c1.67,8.32,5.4,15.88,8.66,23.61.56,1.34,1.87,2.37,2.77,3.45.82-.46,1.25-.55,1.41-.81,4.9-8.12,10.38-15.92,13-25.24a70.57,70.57,0,0,1,3.52-8.41,45.73,45.73,0,0,0,2.64-5.87C373.2,16.9,375.38,8.44,377.62,0h3.24c-4.37,10.34-.86,19,9.79,23.91,3.15-2.63,3.57-6.27,3.7-10.07C394.54,8.27,391.8,4,388.41,0h16.18A70.57,70.57,0,0,1,403,7.83c-2.55,7.84-5.67,15.52-7.9,23.45-3.39,12-9,23.1-14.56,34.13-3.79,7.5-8.53,14.52-12.83,21.76-.36.61-.63,1.28-1.09,2.24,5.29,6.81,8.1,15.33,14.73,21.49,4.36,4,7.72,9,8.06,15.39a4.5,4.5,0,0,0,.68,2c2.29,3.9,2.43,8.14,2.44,12.51,0,3.36.74,6.72,1,10.09,1.05,12.78,1.44,25.48-3.94,37.62a38.41,38.41,0,0,0-2.47,8.73,77,77,0,0,1-5.87,19.52c-3.51,7.47-6.82,15.06-7.61,23.93,3,6.06,6.36,12.38,9.14,19,1.58,3.74,2.25,7.87,3.15,11.87.59,2.61.52,5.4,1.32,7.93,2,6.33,2.92,12.6.21,19.06,2.89,6.61,2.65,13.2.34,20-.77,2.27-.53,5-.29,7.46a22.05,22.05,0,0,1-1.56,11.61,20.53,20.53,0,0,0-1.72,9.94c.27,5.77-1.55,10.84-4.74,15.69a25,25,0,0,0-3.36,8.92c-1.1,5.63-3.18,10.28-9.11,12.22,5.45,10.29,6.45,21.29,7.65,32.37.92,8.54,3.08,16.93,4.54,25.42,1,6,1.82,12,2.74,18.06.41,2.65.55,5.42,1.45,7.91a23.27,23.27,0,0,1,.31,14.29c-.5,1.91-1.1,3.8-1.69,5.68-1.3,4.13-2.2,8.15-1.29,12.64,1.08,5.28-.36,10.23-3.49,14.8-1.79,2.62-2.87,5.75-4.11,8.72-2.1,5-4.09,10-9.13,12.94a5.79,5.79,0,0,0-2,2.45,44.1,44.1,0,0,1-10.26,13.73,8,8,0,0,0-1,1.73c2.1,3.75,4.46,7.56,6.38,11.58a37.31,37.31,0,0,1,2.28,7.58c.86,3.66,1.29,7.44,2.37,11A35.42,35.42,0,0,1,363,599.06a33.76,33.76,0,0,0,.84,10.59c1.05,4.53,1.6,9.08-.51,13.18-2.61,5-3,10.25-2.79,15.67.07,2.15,0,4.29,0,6.44,4.79,5.15,9.4,10.18,14.09,15.12,5,5.27,9.26,11,11.5,18a42.32,42.32,0,0,0,3.13,6.24,37.83,37.83,0,0,1,2.66,5.28c2.6,8,5,16,7.52,24,.9,2.91,2,5.76,2.7,8.72a94.73,94.73,0,0,1,1.93,11.08,22.07,22.07,0,0,0,2.44,8.71,18.43,18.43,0,0,1,1.77,14.09,9.76,9.76,0,0,0,.79,7.77,17.94,17.94,0,0,1,1.77,4.5c1.4,5.89,1.66,12,3.13,17.91,1,4.08-.64,8.82-1.2,14.17,3.68,5.18,3.08,11.72,1.89,18.41a24.3,24.3,0,0,0,.17,7c1.09,9.28,2.31,18.54,3.45,27.81a48.29,48.29,0,0,1,.37,5.38c.05,9.69.05,19.38.06,29.07a6.6,6.6,0,0,0,.09,2.14c2.44,6.65,1.68,13.34,1,20.19a160.86,160.86,0,0,0-.32,21c.1,3.18,1.35,6.3,1.74,9.49a51.2,51.2,0,0,1,.22,8.49c-.17,3.57-1.09,7.15-.92,10.69.5,10.4,1.4,20.78,2.1,31.17.21,3.05.24,6.1.41,9.15.6,11.27.76,22.59,2,33.78.9,8.06,1.92,16,1.12,24.13-.26,2.64.35,5.36.53,8.05.25,3.73.47,7.47.72,11.57h-6.89a50,50,0,0,0-1.58-7.71,10.57,10.57,0,0,0-3.48-5.09c-4.17-2.72-8.7-4.89-13.29-7.4-3.25,7.62-1.87,14.08,3.18,20.34h-5.88c-.48-5.76-.95-11.43-1.41-17.09-.15-1.79-.15-3.6-.41-5.37-3-20.8-3.68-25.49-1.33-41-3.51-5.81-4.59-12.14-1.18-18.63-4.21-7.48-4.61-15.17-2.66-23.15a14.8,14.8,0,0,0-.05-4.25c-.29-4.43-.62-8.87-1.07-15.22-2-3.62-1.54-9.2.09-14.92a38.89,38.89,0,0,0,.64-17.08c-1.42-8.86-2.8-17.7-.74-26.75.58-2.57-.18-5.81-1.28-8.32a14,14,0,0,1-1-9.9,16.23,16.23,0,0,0-.41-10,20.85,20.85,0,0,1,.17-14.78,8.37,8.37,0,0,0-.15-7.23,22.16,22.16,0,0,1-1.75-13.15c.73-5,0-9.85-.69-14.89-1-7.38-1.6-14.84-3.29-22.15a4.73,4.73,0,0,1,.05-2.15c1.43-5.3.52-10-2.15-14.92-1.38-2.54-1-6.34-.59-9.45A12.93,12.93,0,0,0,379,760c-1.19-2.56-2.39-5.49-2.26-8.2.4-8.14-2.25-16-2.17-24a16.62,16.62,0,0,0-1-4.69c-1.56-5.34-3.06-10.7-4.83-16a20.51,20.51,0,0,0-3.16-6.13c-2.4-3.06-4.44-6.12-3.76-10.35a28.55,28.55,0,0,1-11.84-14.53c-4.63,4.26-8.95,8-12.94,12a21.74,21.74,0,0,0-4.82,6.93,31.24,31.24,0,0,1-7.31,10.5c-2.52,2.52-4.63,5.44-7.07,8-2.2,2.34-4.53,4.56-6.92,6.69-4.14,3.68-8.38,7.24-12.81,11,4.3,5.74,6.08,11.91,7.87,18.13a18.89,18.89,0,0,1,.11,11.09,28.31,28.31,0,0,0-1.08,4.72,10.2,10.2,0,0,0,7,11.32c3.22,1.11,6.53,2,9.78,3,8,2.53,13.22,7.84,15.2,16,1.64,6.81,3.29,13.64,4.29,20.55.5,3.44-.24,7.13-.81,10.64-.67,4.06-1.88,8-2.66,12.08a31.81,31.81,0,0,1-8.74,16.92c-3.36,3.41-5.91,7.65-8.59,11.68a14.4,14.4,0,0,1-10.55,6.67c-1.88.26-3.66,1.25-5.47,1.93-2,.75-4,2-6,2.21a13.85,13.85,0,0,0-11.37,7.6c-1.89,4.43-3.84,8.83-5.65,13.28-2.09,5.13-4.27,10.24-6,15.49A17.66,17.66,0,0,1,270,923.2c-6.83,5.6-10.67,13.41-15.46,20.52a104.9,104.9,0,0,1-7.18,10c-2.17,2.53-3.9,5.06-4.45,8.41a20.71,20.71,0,0,1-6.35,12.22c-3.37,3.06-5.11,6.83-6.4,11.49,2.84,4.39,5.67,9.18,8.92,13.67a28.63,28.63,0,0,1,4.4,9.71,80.64,80.64,0,0,0,3.6,10.6c1.92,4.53,3.3,9.07,3,14.07a16.81,16.81,0,0,0,.85,5.79,30.69,30.69,0,0,1,.79,16,21.23,21.23,0,0,0,.26,9c.85,4.16.62,8.54.87,13.29h-7c-2.32-4.21-5.8-7.61-11.08-8.85-2.8,2.41-2.42,5.85-3,9l-2.44.18c-1.68-3.1-.75-6.3-.69-9.46,0-1.91.27-4.19-.62-5.68-3.41-5.72-4-11.8-3.15-18.67-6.26-5.19-7.7-12.37-7-20.26.17-2.1-.34-3.94-2.56-5a65.17,65.17,0,0,0-13.73,27.47A73,73,0,0,0,201,1078h-5.17c-.2-.4-.5-.71-.47-1a16.08,16.08,0,0,0-5.14-14.11c-3.58-3.48-6.82-7.3-10.3-11.08-5.91,10.49-.95,21.61,11.13,24.64.23-2.46.45-4.82.64-6.81,1.69,2.81,1.69,2.81.23,8.43h-8.37l-3.94-2.55-3.29,2.82-4.64-.3a21.56,21.56,0,0,1,.83-3.39,20.07,20.07,0,0,0,.83-12.67c-.92-4.16,0-8.18,1.4-12.15.87-2.53,1.87-5.17,1.93-7.77a29.69,29.69,0,0,1,3.94-13.84,22.52,22.52,0,0,0,2.91-10.24A18.16,18.16,0,0,1,188,1006.1c2.84-3.13,5.27-6.25,5.71-10.66.16-1.53,1.18-3,2-4.94-3.54-3.52-8.57-6.16-8.79-11.73-11.69-7-11.69-7-17.3-21.74-6.16-1.09-9.52-5.69-12.05-11.38a14.88,14.88,0,0,0-8.41-8,18.9,18.9,0,0,1-10.36-9.17c-1.31,3.15-2.39,5.68-3.42,8.23-1.43,3.55-3.11,6.84-6.66,8.85a9.68,9.68,0,0,0-2.5,2.73c-8.6,11.2-14.72,23.77-20.41,36.61a153.21,153.21,0,0,1-8.6,16.08,80.92,80.92,0,0,0-7.82,16.46,145.86,145.86,0,0,1-8.55,20.32c-6.44,12.73-10.14,26.39-14.68,40.55-5.44-1.44-11.7,2.24-17.6-2.2-1.83,1.43-3.76,3.36-6.6,1.68a12.46,12.46,0,0,1,2.69-8.4,8.75,8.75,0,0,0,1.91-6.51,20.31,20.31,0,0,1,3.78-14.28,18.87,18.87,0,0,0,3.36-10,19.27,19.27,0,0,1,4.39-11.93,19.88,19.88,0,0,0,4.53-10.74,30.39,30.39,0,0,1,4.8-12.37c3.84-6,6.92-12.55,10.25-18.9a11,11,0,0,0,1.09-3.6A24.9,24.9,0,0,1,85,967.53a14.68,14.68,0,0,0,2.59-5.76,25.7,25.7,0,0,1,5.69-10.84c1.51-1.67,2.44-3.88,3.55-5.9,1.8-3.27,3.26-6.76,5.36-9.83,4.24-6.22,8.58-12.33,14.13-17.59,2.43-2.31,3.41-6.14,5.16-9.47-1.26-1-2.18-1.78-3.18-2.44a24.38,24.38,0,0,1-10.24-13.45,16,16,0,0,0-5.15-8c-3-2.5-4.4-6-5.5-9.71s-2.18-7.19-3.46-10.73c-1.75-4.84-2.53-9.72-1.19-14.79a25.47,25.47,0,0,0,.59-10.62c-.42-2.75.16-5.72.67-8.53,1-5.47,2-11,3.46-16.31,1.43-5.16,3.44-10.15,5.28-15.19,1.29-3.54,2.72-7,4.1-10.54.46-1.17.67-2.61,1.49-3.44,5-5.06,6.15-12,9-18.13,1.74-3.68,2.53-7.8,3.84-12a35.7,35.7,0,0,0-3.7-3.89,13.36,13.36,0,0,1-5.29-7.87,10.7,10.7,0,0,0-4-6.17,36.06,36.06,0,0,1-5.46-5.91c-2.93-3.84-5.83-7.72-8.41-11.8a44.39,44.39,0,0,1-3.49-7.79c-1.41-3.65-2.84-7.32-3.93-11.08a24.86,24.86,0,0,1-1.25-7.8c.23-5.72,1.5-11.44,1.33-17.14-.25-8.47,2.54-16.25,4.28-24.29,2.19-10.1,6.8-19.27,11.13-28.52,1.1-2.34,3.34-4.15,5.2-6.39-.19-4.54-2.1-8-6.6-9.94-5.7-2.52-8.83-7-9.84-13.22a13.86,13.86,0,0,0-2.2-5.94c-4.07-5.39-5.69-11.13-3.62-17.78-.57-1.13-1.08-2.27-1.68-3.35a17.68,17.68,0,0,1-1.65-13c1.66-7.52,3.12-15.1,4.4-22.69,1.15-6.82,3-13.29,7.09-19a11.15,11.15,0,0,0,2-3.79c1.68-7.58,6.41-13.21,11.8-18.3,6.85-6.48,10.14-15.1,15-23.15-.94-1.51-1.5-3.13-2.63-4.11-5-4.31-7-9.82-7.35-16.2a25.55,25.55,0,0,0-.61-3.07c-9-4-7.07-13.35-9.26-20.84-2-1.62-3.94-3.23-5.91-4.78A16.58,16.58,0,0,1,91,408.69c-.73-2-2.5-3.78-4.09-5.37-1.11-1.1-2.73-1.7-4.1-2.55-6.53-4-7.3-5.43-7.3-13.45l-3.79-3.48a36.28,36.28,0,0,0-8.13,9.5,82.06,82.06,0,0,1-8,11.44,36.66,36.66,0,0,0-7.1,14.9,136.35,136.35,0,0,1-5.2,15.21c-3.13,8.22-6.45,16.36-9.62,24.56a8.35,8.35,0,0,0-.61,3.68c.73,6.86-1.23,13.15-3.76,19.35l-4.57,11.19A39.94,39.94,0,0,1,8,489.77c-2.54-1.14-3.24-3.65-4.14-6A52.39,52.39,0,0,0,.29,476.1c-1.06-7.14.86-13.79,4.43-20A76.17,76.17,0,0,1,11,447.4c2.6-3.31,4.7-6.85,5.23-11.06A22.7,22.7,0,0,1,21,425.08a44.89,44.89,0,0,0,8.31-18.51,26.72,26.72,0,0,1,3.07-7.38c6.54-11.36,13.21-22.64,19.85-34a26.85,26.85,0,0,0-7.72-12.28c-6.06-5.4-10-11.56-9.84-20.06,0-2.92-1.15-6-2.35-8.77-2.88-6.62-3.54-13.46-3.25-20.56a62.73,62.73,0,0,0-.69-10.13c-.54-4.36-.44-8.6,1.3-12.71a28.91,28.91,0,0,0,1.93-10.49,29.4,29.4,0,0,1,2.18-9.29c1.77-4.66,4.34-9,5-14.12.24-2,1.75-3.89,2.56-5.88a52,52,0,0,0,2.74-7.54,9.68,9.68,0,0,0-3-9.8c-3.22-3-6.1-6-6.31-10.82,0-1.25-1.19-2.59-2.13-3.63-3.51-3.87-5.13-8.56-6.35-13.5A41,41,0,0,0,24,188.5c-2.12-4.63-3.92-9.23-3.39-14.49a7.84,7.84,0,0,0-.94-4.13c-3.67-7-3.23-13.83,1-20.66A27.65,27.65,0,0,1,23.19,131a6.18,6.18,0,0,0,.59-3.12c-.31-5.07,1.57-9.51,3.76-13.87,3.71-7.38,7.54-14.7,11.16-22.13,4.15-8.54,2.39-15.38-5.22-21.16a10,10,0,0,0-.88-.62C28,67.24,25.1,63.41,26,57.5c-5.39-4.91-7.76-11-7.87-18.26a12,12,0,0,0-2.21-5.9,18.35,18.35,0,0,1-3.25-10.63A19.45,19.45,0,0,0,9.6,11.47C7.33,8,7.31,4,7.73,0H9.89c-.3,11.84,5.18,18.69,16.6,20.06l1.11-5.55.57,0,1.3,6.71c3-1.28,3.11-3.7,2.86-5.95-.53-4.93-2.86-8.72-7.54-10.89C21.92,3,19.16,1.46,16.36,0H33.61c1.67,7.33,3.29,14.66,5,22a9.59,9.59,0,0,0,1.86,3.77,24.34,24.34,0,0,1,5.11,11.67,17.31,17.31,0,0,0,1.54,5.11C49.74,47.3,52.54,52,55.4,56.9c.62-1,1.32-2,1.88-3q4.26-8.09,8.45-16.21c1.78-3.48,3.92-6.82,3.45-11.08A6.14,6.14,0,0,1,70.24,23c4.42-7,4.41-15.33,6.51-23H87.53c.43,2.72,2,4.36,5.26,5.05l3.37-5h6.47c-1.16,3.77-2,7.68-3.55,11.28a263.31,263.31,0,0,0-12,34.56c-2.57,9.37-6.21,18.38-12.87,25.81-.68.76-.93,1.9-1.63,3.4,1,1.61,2.13,3.37,3.22,5.15,1.4,2.28,3.09,4.44,4.08,6.88a20.58,20.58,0,0,0,6.13,8.69,16.62,16.62,0,0,1,6.42,11.46c1.27,12,2.37,23.93,3.38,35.91a43.19,43.19,0,0,1-2,18.59,13.49,13.49,0,0,0-.68,4.77c.1,5.56-1.72,10.56-4,15.5a42.3,42.3,0,0,0-3,8,77.71,77.71,0,0,1-5.82,17.29,43,43,0,0,0-2.28,7.16c-1,3.41-1.91,6.85-3,10.24-.52,1.68-1.28,3.29-1.69,4.32,4.13,5.24,8,9.89,11.57,14.81,2.08,2.9,3.42,6.31,5.31,9.35a38.61,38.61,0,0,1,5.88,16.06c1.51,13.54,2.8,27.09,4.11,40.65a7.49,7.49,0,0,1-.6,3.13c-1.3,3.54-2.32,7.24-4.12,10.51-4.07,7.37-5.25,15.61-7.49,23.5-1.25,4.38-.64,8.73,3.08,12.39a29,29,0,0,1,7.49,12.91,9.35,9.35,0,0,0,2.1,3.7c3.44,3.64,6.62,7.74,10.68,10.55,6.85,4.76,10.48,11.63,14.27,18.54a21.4,21.4,0,0,0,2.41,4.17,53.3,53.3,0,0,1,12.26,24.21c.59,2.59,1.5,5.07,4.3,6.79,4.27-5.41,8.35-10.62,12.47-15.79s8-10.3,9.76-16.83c.43-1.64,2-2.93,2.94-4.48a43.31,43.31,0,0,0,3.46-6.65c2.15-5.9,4.07-11.88,6-17.84a41.76,41.76,0,0,0,.9-4.2q1.26-5.75,2.55-11.49c.54-2.44,1-4.89,1.72-7.28A88.37,88.37,0,0,1,188,344.57a23.75,23.75,0,0,0,2.35-8.15,28,28,0,0,1,1.87-8.87,25.34,25.34,0,0,0,2.11-13.11A18.74,18.74,0,0,1,196.18,304a11.74,11.74,0,0,0,1.33-6.19,37,37,0,0,1,2.73-19.86c-.55-3.31-1.79-6.12-1.25-8.54a91.23,91.23,0,0,0,1.81-20.23c0-1.4.68-2.8.78-4.22.14-1.95.56-4.11-.07-5.84-1.89-5.13-1.67-10.26-.55-15.39a29,29,0,0,0,0-11.17c-.64-3.82-.27-7.82-.25-11.75,0-2.32.8-4.79.23-6.93a29.42,29.42,0,0,1,1.71-19.52,19,19,0,0,1,.19-12.16,15.12,15.12,0,0,0,0-9.52c-.62-1.95-.44-4.2-.43-6.31,0-3.58.2-7.16.24-10.73,0-4.09,0-8.18,0-12.27,0-3.57.77-7.3,0-10.66-1.05-4.37-1.47-8.43.6-12.73-4.67-5.48-4.15-11.53-2.09-17.82,1-3.05,2-6.23.76-9.48-1.3-3.56-.73-7,.06-10.59a16.6,16.6,0,0,0,.26-7.34,29.82,29.82,0,0,1-.48-11.17c.39-3.13.6-6.55-.26-9.51-1.25-4.31-1.74-8.37.09-12.5A23.09,23.09,0,0,1,198.7,6.32,6.81,6.81,0,0,0,196.45,0h10.79c3.87,2.9,7.58,6.15,13.61,6.79C220.13,4,219.61,2,219.1,0Zm152.1,215.59c.47,2.58-4,4-1.68,7.08,4.72-2.95,6.17-5.84,5.25-10.23l-3.75,3.35c.67-1.45,1.4-2.87,2-4.35a17.19,17.19,0,0,0,.49-13.08c-1.49-3.94-6.77-10.93-10.44-13.83-4,6.34-5,12.84-1.45,19.8,1.56,3,2.61,6.28,4,9.4.6,1.39,1.38,2.69,2.09,4.06ZM353.18,113.47c-4.88,8.37-9.3,15.34-13.07,22.64a88.21,88.21,0,0,0-5.57,14.53,34,34,0,0,0,.33,20.67c1.07,3.39,1.39,7,2.17,10.49.39,1.71.65,3.69,1.69,5,3.92,4.8,6.22,10,5.46,15.73,2.26,2.44,4,4.44,5.9,6.35s1.27,5.6,4.85,7.34c2.48-6.91,6.92-12.7,6.73-20.37-.08-2.94,1.18-5.92,1.89-8.87.43-1.74,1.17-3.41,1.42-5.16.89-6,1.62-12.07,2.29-17.15V150.75a15.48,15.48,0,0,1-3.73-9.33,37.23,37.23,0,0,0-1.89-8.83A87.9,87.9,0,0,0,358,123C356.76,120.13,355.17,117.35,353.18,113.47Zm-9.57,311.08c-2.12,6.5-3.71,12.39-5.95,18-3.45,8.65-7.57,17-11,25.7a49.61,49.61,0,0,0-3,20.08,6.81,6.81,0,0,0,1.12,3c3,5.32,4.62,10.89,3.2,16.43,1.36,3,3.07,5.3,3.46,7.83.81,5.38,4.3,8.78,7.6,12.61,3.59-3.1,6.07-6.47,7.05-10.88a23.32,23.32,0,0,1,1.83-5,84.29,84.29,0,0,0,7.21-21.92,28.76,28.76,0,0,0,.15-7.92,23.22,23.22,0,0,1,.82-10.07,20.16,20.16,0,0,0,1-7.26c-.55-10.28-3.49-20.1-6-30C350,430.86,347.92,427.65,343.61,424.55ZM136.83,727.89c2.07-4.15,4.52-7.65,5.59-11.53,1.79-6.48,4.23-13,3.31-19.93a7,7,0,0,1,.32-3.19c.94-2.53.29-4.86-.25-7.36-.71-3.27-1.58-6.77-1.1-10,1.08-7.31-3.77-12.86-4.93-19.44-.05-.31-.42-.57-.67-.83-5.68-5.81-8.1-13-8.51-21.16l-3.84-2.16A95.67,95.67,0,0,0,115.52,661a42.78,42.78,0,0,1-1.78,6.71c-1.61,4.15-2.44,8.14-.49,12.49.85,1.9.67,4.23,1.15,6.33.77,3.3,1.27,6.77,2.65,9.82C122.09,707.41,127.92,718.07,136.83,727.89Zm-80.2-524.7c1.44-3.77,2.59-7.14,4-10.4,2.38-5.44,4.7-10.83,4.33-17A20.69,20.69,0,0,1,66,170c1.92-8,4-16,5.79-24a25.15,25.15,0,0,0,.25-7.41c-.23-2.84-1-5.63-1.35-8.47a34.21,34.21,0,0,0-3.82-13.34,9.74,9.74,0,0,1-1.26-3.51c-.66-5.13-3.86-8.09-8.77-10.69-2.49,6.26-5.34,12.07-7.11,18.19C47,130,45,139.48,42.85,148.91a20.2,20.2,0,0,0-.56,7.4c1.31,8.31,3,16.56,4.56,25,4.67,3.36,6.18,8.12,6.37,13.6A11.21,11.21,0,0,0,56.63,203.19Zm79.27,584c-5.42,9.42-8,19.46-10.48,29.48a114.35,114.35,0,0,0-3.17,33c.23,4.79,1.29,9.54,1.92,14.32,1,7.22,2.31,14.18,10.3,17.89,3.41-6.94,6.85-13.79,10.13-20.71a13.64,13.64,0,0,0,1.62-5.62c0-6.77.69-13.49.38-20.33a189.72,189.72,0,0,0-1.8-20c-.84-5.62-.26-11.42-3.1-16.7a7.17,7.17,0,0,1-.43-3.17C141.25,791.75,139.59,789.21,135.9,787.22ZM355.29,276.47c-4.1,5.16-7.57,9.59-9.33,15.26-2.29,7.37-5,14.6-7.65,21.86-1.72,4.77-3.09,9.53-2.05,14.73a14.48,14.48,0,0,1-.35,5.34c-1.6,8.46.45,16.35,3.42,24.08,2.51,1.35,4.87,2.62,7.46,4,6.47-6.44,6.43-16.22,11.6-21.13l3.34-19.75c-2.65-5.63-3.26-12.24-.38-18.21-.76-4.07-2.09-7.47-1.83-10.74C360,286.36,357.77,281.83,355.29,276.47Zm-237,303.6c1.89-6.33,4.25-11.86,5-17.62.7-5.08,1.7-9.79,4.17-14.28a21.6,21.6,0,0,0,1.91-6c.84-4,1.45-8.07,2.19-12.11.31-1.75,1.37-3.67.94-5.2-1.46-5.15-.19-9.94,1.37-15.05l-4.32-8.61c-8.82,4.92-12.56,12.94-16.28,20.93a19.63,19.63,0,0,0-1.12,4.68c-.38,2.1-.76,4.21-1,6.34a34.76,34.76,0,0,0-.25,6.36c.42,4.82,1.27,9.61,1.58,14.43.42,6.43.47,12.88.7,19.32C113.38,576.16,114.74,578.26,118.32,580.07ZM63.83,337.92c.84-.81,1.37-1.09,1.53-1.51,2.44-6.13,4.87-12.27,7.18-18.45a20.43,20.43,0,0,0,.79-4.22c.46-3.19.94-6.37,1.3-9.57a62.1,62.1,0,0,0,.39-6.4c0-3.57,0-7.15-.17-10.72a36.63,36.63,0,0,0-1-6.23c-.67-2.86-1.54-5.67-2.32-8.5l1.25-.51c-5.56-3.92-3.77-11.75-9.49-16.66-.73,3.14-1.37,5.5-1.82,7.9-1,5.1-2,10.2-2.69,15.34a205.91,205.91,0,0,0-2.38,34.81,15.57,15.57,0,0,0,1.26,4.58c1.31,3.68,2.83,7.29,4,11C62.55,331.63,63.05,334.59,63.83,337.92ZM333.18,578.39a88.52,88.52,0,0,1-5.84,7.65c-3.13,3.26-5.13,6.8-5,11.45a9.23,9.23,0,0,1-1,4.15c-1.93,3.91-1.4,7.71.34,11.4A101,101,0,0,0,327,623c1,1.53,2.61,2.63,4.18,4.15l4.25-3c.61-12.41,3.42-24,3-35.91ZM272.57,845.86c7.2-2.42,10.93-7.17,13.36-12.85a10.18,10.18,0,0,0,0-7.21c-2.52-6.07-5.68-11.87-8.95-18.5-3.07,3.22-5.86,5.92-8.37,8.85a8.93,8.93,0,0,0-2,8.08C268.39,831.3,270.46,838.29,272.57,845.86ZM54.51,357.25c1.15,2.64,1.64,4.52,2.69,6,2.72,3.88,6.77,5.7,11.32,6.5,5.81,1,11.62,2.05,17.45,3a29.5,29.5,0,0,0,4.33,0,9.92,9.92,0,0,0,.35-2.17c-.76-9.74-10.28-18.15-19.88-17C65.69,354.17,60.74,355.8,54.51,357.25Zm364.12,690a14.39,14.39,0,0,0,2.17-8.65c-.11-3.68-.71-7.45-3.8-9.69-5.48-4-11.3-7.49-17-11.2-4.38,7.52-3.57,16.24,2.58,21.43,3.9,3.29,8.74,5.49,13.23,8.06C416.47,1047.61,417.52,1047.29,418.63,1047.29ZM144.29,470.35a74.73,74.73,0,0,0,1.54-8.2c.29-3.73-.64-7.18-4-9.43a42.33,42.33,0,0,0-15.63-6.84,27.54,27.54,0,0,0-5.06-.05c-.26,1.5-.34,2.39-.57,3.25-1.47,5.6.44,9.62,5.27,12.79A64.36,64.36,0,0,0,144.29,470.35ZM80.58,389.71c-.33,4,1.66,6.79,4.51,9.15,7.71,6.39,22.2,7.72,31.51,2.9-1.44-8.73-6.4-12.71-14.68-11.76-3.56.4-7.12,1.2-10.67,1.16S84.32,390.26,80.58,389.71ZM251.79,854c2.29,0,3.55.1,4.78,0a21.06,21.06,0,0,0,3.67-.79c9-2.6,10.68-5.49,8.33-14.5-1.56-6-3.3-12-5-18.18-5.39,4.6-8.64,8.55-9.32,12.74C253.17,839.91,252.63,846.66,251.79,854Zm-58,150c-5.89,4.16-8.5,9.3-8.47,15.77,0,9,4.76,15.26,11.89,20.8,1.59-2.58,3.05-4.61,4.16-6.82,1.31-2.6,2-5.39.84-8.29C199.53,1018.46,196.79,1011.51,193.83,1004Zm120-579.29c-2.27,3.67-4,6.14-5.37,8.77a8.84,8.84,0,0,0-.32,8.3,44.83,44.83,0,0,0,16.34,18.65c4.78-5.37,4.32-14.95-.55-20.23a56.88,56.88,0,0,1-5.45-7.24C317.05,430.71,315.89,428.31,313.86,424.67Zm-54,316c-7.85,3.1-10.2,13.09-6.88,19.39,3.11,5.89,8.25,10,13.29,14.47,3.48-4.62,5.54-8.93,3.73-14C267.46,753.44,263.37,747.16,259.85,740.67Zm32.56,55.06-11.92,5.74c-.91,10.36,4,17.57,9.61,25.46,1.84-3,3.29-5.18,4.6-7.48a41.61,41.61,0,0,0,2.9-5.73C300.33,806.62,298.84,801.32,292.41,795.73ZM134.48,635.8c-2.21,12.3,6.67,22.33,17.75,20.52-.57-1.62-1.12-3.21-1.67-4.79l.62-.36,5.2,7.06c.81-2.41,1.26-3.74,1.73-5.16l2.59,4.66c2.52-3.22,2.59-3.43,1.92-5.94a12.21,12.21,0,0,0-7.57-8.51C148.3,640.6,141.4,638.29,134.48,635.8ZM396.09,831.23c-3.9,4-4.08,8.59-3.28,13.19s10.84,13.82,15.82,15c3.16-2.42,3.85-6.16,4.56-9.78A8.74,8.74,0,0,0,409,840C404.87,837.25,400.77,834.4,396.09,831.23ZM279.27,743.4c7-2.67,10.63-8.17,9.81-14.67-.58-4.61-1.47-9.18-2.31-13.75a44.1,44.1,0,0,0-1.3-4.5c-3.58.6-5.89,2.52-8.18,4.54-3.66,3.24-5.41,7.23-4.16,12,1.17,4.47,2.85,8.79,4.33,13.27,4-.88,5.58-4.23,8.76-5.77Zm67-331.86c3.49-3.21,6.72-6.66,6.34-11.75-.61-8.08-4.21-14.93-9-21.23-7.35,3.93-9.82,8.83-8,16,1.35,5.43,4.15,10.17,7.59,14.77,4.88-3.12,4.12-8.52,5.84-13.34C350.66,402.08,348.19,406.68,346.29,411.54ZM314.13,156.89c-5.86,7.05-4.76,18.26,2.78,22.45,3.36,1.86,7.22,2.84,10.61,4.12,5.64-5.61,5.15-13.24-.54-17.21C322.64,163.22,318.43,160,314.13,156.89ZM139.94,533.54c-7.56,10.07-5.37,24,8,33.85,1.16-2.92,2.4-5.67,3.38-8.52a15.37,15.37,0,0,0-3.1-16.07C145.48,539.71,142.72,536.66,139.94,533.54ZM50.05,333.06c4.77-5.91,4.33-13.88-1.24-18.31-4-3.17-8.51-5.68-12.84-8.52C30,318.65,37.77,333.27,50.05,333.06ZM330.49,143.92c4.39-4.73,7.11-9.93,6.09-16.12-.91-5.58-3.58-10.67-6.21-15.72C317.18,120.53,317.09,134.78,330.49,143.92ZM98.91,407c.59,5.91,1.77,8.51,5.71,10.14,7.68,3.17,15.54,5.9,23.2,8.76,2.25-3.15,1.55-5.71-.15-7.93-2.7-3.53-5.66-6.84-8.52-10.26-5.31-.46-10.27-1-15.24-1.28A30.29,30.29,0,0,0,98.91,407ZM372.08,65.84c10.06-2.42,11.21-13.18,8.22-19.13-2.38-4.74-5.56-9.09-8.38-13.6-5.12,3.16-7.22,7.62-5.75,13.55C367.75,53.06,370,59.28,372.08,65.84Zm24.64,810.57c-2.93,5.75-2.93,11.05.71,15.61,3.08,3.86,7,7.1,10.67,10.43a5,5,0,0,0,6,.83c2.31-1.92,3.21-4.59,2.21-7.22a27.28,27.28,0,0,0-4.75-8.24C407.55,883.24,402.58,879.73,396.72,876.41Zm-67.15-301c2.52-2.49,2.64-5.31,2.51-8.23-.3-6.26-.53-12.52-.82-18.78-.07-1.52-.27-3-.48-5.26-2,1.65-3.56,2.81-5,4.09-8.37,7.43-10,16-4.81,26,.2.39.77.58,1.14.85l3.09-2.67a8,8,0,0,1-1.16,3.58c-.61,1.12-2.45,2-.77,3.58,3.55-.16,3.29-4.1,5.54-5.84C329.08,573.67,329.27,574.33,329.57,575.41ZM362.5,345.32c-5.89,3.86-9.08,10-7.22,14.95,2.12,5.68,5.85,10.48,9.37,15.32,6.83-4.22,9.35-8.89,7.4-14.38A47,47,0,0,0,362.5,345.32ZM308,710.72c4.76-1.51,8.61-3.92,9.75-8.7a30.61,30.61,0,0,0-2.36-20.25c-8,3.08-10.43,5.28-11.77,10.45C302.21,697.61,304.19,706.48,308,710.72ZM150.89,811c-2,4.31-2,4.63-1.39,7.62a19.91,19.91,0,0,0,7,11.82c4.32,3.43,8.91,6.53,13.49,9.85,3.05-8.54,1.08-15.55-5.65-20.36C160.1,816.93,155.69,814.18,150.89,811ZM361,274.18c-1.68,5.92,0,10.45,4.78,13.33a56.36,56.36,0,0,0,11.68,5.06c2.94.95,4.71-.26,6.09-3,1.53-3,1.25-6.78-1.41-8.82a53.75,53.75,0,0,0-10.44-6.4A12.77,12.77,0,0,0,361,274.18ZM402.4,755.42c2.54-8.17-1.5-17.06-9.28-20-4.44-1.71-9.15-2.69-13.75-4-1.84,7.78-.34,12.25,5.81,16,3.59,2.16,7.58,3.67,11.95,5.74.34-2.53.86-4.28.74-6a22.37,22.37,0,0,0-1.37-4.74l1.11-.33a41.3,41.3,0,0,1,1.62,5.18,39.91,39.91,0,0,1,.28,5.37C399.57,754.23,400.27,755.28,402.4,755.42ZM413.13,1003a66.24,66.24,0,0,0,1.95-7.9c.43-3.52-.36-7-3.38-9.16-4.76-3.33-9.85-6.21-14.85-9.32C391.76,987.29,399.18,999.43,413.13,1003Zm-15.7-66.77c-1.1,1.73-2.1,2.68-2.34,3.79-1.4,6.34-.64,12.12,4.84,16.49,3.82,3,8.23,4.85,12.74,6.4,3.75-6.18,3.31-11.68-1.65-16C406.87,943.29,402.34,940.09,397.43,936.27ZM368.06,325.6c-8.3,9.66-6.2,19.53,2.79,25.74l3.28-2.83c-.52,2.4-.89,4.1-1.25,5.78,2,1.37,3.48.91,4.74-.81,3-4.14,3.38-13.94.12-17.92C374.82,332,371.32,328.92,368.06,325.6ZM356,617.9c5-4.3,6.11-8.65,3.27-14A25.54,25.54,0,0,0,345,591a11.26,11.26,0,0,0-1.61,15C346.71,610.88,350.6,615.22,356,617.9ZM254,826.15c-9.2,5.78-15.25,14.47-22.8,21.75,3.07,3.87,6.58,5.8,10.89,6.19,6,.55,8-1.13,8.78-7.21C251.75,840,251.39,833,254,826.15Zm-42.16,175.91c1.43-1.19,3.16-2.12,4.17-3.56a15.63,15.63,0,0,0,2.49-13.23c-1.53-6.28-4.55-11.88-7.21-17.86C200.64,979.17,205.07,993,211.83,1002.06Zm192.28-209.8a11,11,0,0,0-2.4-16.94c-3-1.81-6.41-2.9-9.9-4.43l-2,5.08c-.43-2-.67-3-.84-4s-.26-1.94-.41-3.13c-3.89.52-2.87,3.52-3.85,5.64-.43-1.18-.85-2.36-1.41-3.94C381.21,778.16,390.78,787.85,404.11,792.26Zm1.39-18.38c1.07-7.08-.88-11.91-6.14-15.11-5.49-3.33-11.15-6.39-16.77-9.5a12.72,12.72,0,0,0-2.77-.81c-1.63,7,0,11.62,5.6,15.07,4.71,2.89,9.69,5.33,14.58,7.91C401.54,772.25,403.18,772.86,405.5,773.88ZM332.92,649.15c-4.9,6-5.49,8-4.25,14.26.56,2.81,1.09,5.63,1.84,8.39,1.64,6,6.75,7.37,11.3,3a9.92,9.92,0,0,0,1.06-13.24C339.9,657.37,336.43,653.49,332.92,649.15Zm-221-224.81c-3,8.13-.85,13.28,6.25,15.73,5.59,1.93,11.35,3.36,17.06,4.93a19.6,19.6,0,0,0,3.64.31c-.23-5.15-1.48-9.36-6.1-11.55C126,430.55,119.06,427.56,111.9,424.34ZM390,788.28c-4.14,4.83-4.77,7.74-2.36,11.85,4.15,7.07,11,10.62,17.86,14.17,4.51-6.37,4.54-10.81-.15-14.67C400.4,795.58,395.08,792,390,788.28ZM224.71,842.59l5.33,2c6.18-3.76,16.35-14.59,18.65-19.91-5.15.4-10.14.76-15.12,1.19-6.92.61-10,3.15-12.14,10.05ZM102.29,386c-.93-3.3-2.28-6-5.26-7.38A63.61,63.61,0,0,0,72.69,373c-1.39,3.18-.56,5.64,1.18,7.88C79.65,388.39,93.2,391,102.29,386Zm198.93,94.92c-2.84,5.92-3.14,9.51-.32,12.95,4.87,5.94,11.18,9.21,18.86,9.2,3.72-7.28,2.75-11-3.85-14.62C311.21,485.8,306.34,483.5,301.22,480.89ZM175,403.32c-6.56,3.3-9.31,8-8.48,14.73.8,6.38,1.86,12.73,2.86,19.09a22.3,22.3,0,0,0,1.09,3.24c6.42-7.21,6.94-15.69,8.06-23.94C179.22,411.59,176.84,407.55,175,403.32ZM114.91,864.87c3.3,1.89,1.65,6.88,6.28,7.47.2-1.33.7-2.52.47-3.55-1.11-5-4.08-8.41-9.12-9.56-6.26-1.43-12-3.51-16-10.72-.88,2.6-1.79,4-1.75,5.37a21.12,21.12,0,0,0,3.76,11.6c3,4.25,7.22,5.91,12.13,6.56,2,.27,3.82.53,5.49-.8C115.79,869.14,115.41,867.29,114.91,864.87ZM275.58,898.6c9.3-9.64,7.67-23.84-3.17-31-5.57,3.45-7.49,9.54-4.54,16.29C270,888.83,272.82,893.42,275.58,898.6ZM257.91,695.94c-1.38-2.93-3.42-4.25-5.74-4.47-6.23-.6-12.49-1.13-18.74-1.12a14.57,14.57,0,0,0-9.17,2.76,61.67,61.67,0,0,0,3.21,5.36,10.3,10.3,0,0,0,10.39,4.32A68.77,68.77,0,0,0,257.91,695.94ZM124.2,621.49c1.78,8.9,13.46,15.59,24,13.58.42-1.6.88-3.4,1.6-6.19.22,3.07.37,5.16.52,7.29,2.35.53,3.39-.58,4-3.37-1.24-2.47-2.61-5.56-4.28-8.47a5.65,5.65,0,0,0-6.88-2.88c-5.17,1.66-10.23,1.11-15.36.08A18.27,18.27,0,0,0,124.2,621.49Zm228.44,22.42,1.28.22c3.3-6.49,3.75-13.58.71-20-2.67-5.65-7.58-10.12-12.17-14.61-6.41,8.29-4.29,17.73,5.76,26.61.95-1.1,1.9-2.2,3.37-3.92-.53,3-.9,5.12-1.28,7.25l.86.21L354,634.3l1.06.37C354.25,637.75,353.45,640.83,352.64,643.91Zm60.62,340c4.39-7,4.32-12.13-.45-16s-10.65-6.05-16.25-8.57c-3.1,6.91-2.2,11.84,3,15.65C403.88,978.14,408.49,980.83,413.26,983.9ZM257.88,804.7c2.56-2.89,4.1-5.48,4.08-8.14a10.32,10.32,0,0,0-1.43-4.94c-1.1-1.87-13.22-9.63-15.75-10.56C238.4,791.7,243.93,801.91,257.88,804.7ZM39.4,260.35c-4.84,4.85-5.74,9.65-3.46,16.14s7.92,11.59,13.93,12.36c4.16-7.13,3.75-10.93-1.69-16.57a36.33,36.33,0,0,1-2.93-3.81C43.37,265.88,41.51,263.28,39.4,260.35Zm297.47-139.6c3.49,2,5.53.12,7.68-2,6.29-6.19,4.66-19.31-1-27.21C332.56,98.35,330.26,108.23,336.87,120.75ZM353.22,510c-4.48,3.66-5.34,7.79-5.21,12.19.1,3.21.46,6.42.86,9.6.56,4.33,1.26,8.64,1.94,13.2,8.45-4.92,12.17-13.79,9.08-21.66C358.15,518.88,355.64,514.75,353.22,510Zm30.6,181.69c-.14-5.65-1.52-9.88-4.16-13.43-7.29-1.42-19.92-1.08-24.25.58,1.6,4.42,4.33,7.89,8.86,9.41C370.38,690.27,376.73,691.08,383.82,691.67ZM97.8,547.73l1.44-5.08.72.12,1.29,6.1c3.71-1.9,2-5.27,3.52-7.73l1.38,7.71c2.86-5.82,2.61-7.76-1.45-12-5.1-5.32-11-10.09-10.91-19.22-4.81,7.09-4.73,9.08-4.9,17.1C88.75,541.64,90.68,544.75,97.8,547.73Zm42.94,38.34c5.83-6.81,6.49-10.19,2.61-17-2.9-5.07-6.45-9.77-9.76-14.71-8.17,7.49-6.27,21,2.93,24.73.68-1.59,1.36-3.17,2.16-5,1.69,3-.06,5-1.29,7.19C138.49,582.87,139.5,584.31,140.74,586.07ZM400,857.72c-3.5,2.95-5,6.06-5.17,10.06a6.45,6.45,0,0,0,2.89,6c4.46,2.93,9,5.72,14,8.85l3.63-7.49A32.56,32.56,0,0,0,400,857.72ZM330.55,439.28c4.44-4.45,5.57-8.58,3-12.71-3.47-5.56-7.58-10.73-11.39-16-8.6,5.6-6.79,15.51,1.93,23.45l3.26-2.54-1.5,5.53ZM77.82,150.74c-8.39,9.43-6.45,21.32,4,28.2C91,168.71,89.57,158.37,77.82,150.74ZM262.18,882.91c-4.92,5.41-6.54,11.29-3.8,17.55,2.32,5.31,5.71,10.17,8.66,15.29C275.93,908.64,271.16,893.11,262.18,882.91Zm74.2-62.76c.55-7.95-3-13.89-9.3-18-4.95-3.25-10.42-4.39-16-1.68-.33,6.18,2,10.33,7,11.55A49,49,0,0,1,336.38,820.15ZM141.59,492.55c-3.36,5.44-3.19,10.22-.81,15,3.12,6.26,8.74,9.94,14,14.14,4-6.78,3.43-13.06-1.83-18.59C149.57,499.48,145.7,496.3,141.59,492.55ZM343.07,216.93c2.86-5.49,2-9.24-2.64-11.29-7.21-3.18-15-4.33-22.65-5.73-2.13,10.22,4.87,16.53,16.51,15.33l.65-4.76.84,0,1.87,5.41c2.82-1.8,1.66-4.76,3.1-7.64C341.61,211.43,342.25,213.86,343.07,216.93ZM333,312.3c4.85-5.51,4.85-11.6,2.1-17.53-2.09-4.48-5.31-8.44-8.11-12.58-.31-.46-1.11-.6-1.66-.87-4.9,7.67-5,15.42-.15,21.71C327.56,306.13,330.22,309,333,312.3Zm64.47,686c-1.8,7,.07,12.26,4.68,16.63,4.36,4.14,9.79,6.2,15.94,8.39.27-2.86.57-5.11.66-7.38a7,7,0,0,0-3.14-6.48C409.77,1005.73,403.81,1002.19,397.47,998.31ZM202.81,279.82c-6.51,9.83-5.29,16.61,3.91,24.47l2.88-.59c.09,1.28.17,2.4.24,3.52l1,.68c.6-1.17,1.2-2.34,1.81-3.51a5.1,5.1,0,0,1,0,3.05c-.19.91-.3,1.83-.54,3.36,3.67-3.62,4.49-6,3.52-10.57C213.94,292,209.27,285.66,202.81,279.82ZM312.32,561.75c-12.09,11.43-10.32,25.84,2.81,31.47,2.79-3.17,3.56-5.43,2.69-9.68-1.19-5.78-2.59-11.52-4-17.26C313.5,564.79,312.87,563.36,312.32,561.75Zm54.83,130.48c-1.15,4.14-.54,7.16,2,9.55,5.43,5,11.51,9,18.78,10.9a17.82,17.82,0,0,0,3.43.22c1-8.36-1.37-12.63-8.65-15.42C377.77,695.57,372.64,694.06,367.15,692.23ZM339.22,291.88c4.78-3.55,5.63-5.11,4.53-9.35-1.47-5.7-3.23-11.32-5-16.94a40.47,40.47,0,0,0-2.22-4.84c-9.09,7.89-10.54,17.89-3.72,23.52l2.34-2c.84,2.31-.65,4.85,1.48,6.74l2.58-3Zm-186,539.18c-2.63,5.32-3.76,10.36-.28,14.69,4.47,5.55,10.4,9.53,16.58,13.15,2.08-3.95,2.08-3.95,1.27-7C168.29,842.4,161.3,836.69,153.21,831.06ZM254.3,933.76c9.66-6.23,7.8-25.76-1.79-33.12-3.72,4-5,7.15-4.22,12.62C249.27,920.35,251.7,927,254.3,933.76ZM43.64,57.93c2.71-7.38-.23-15.12-6.71-16.66-3.76-.89-7.73-.88-11.49-1.26C22.11,50.54,30.85,58.85,43.64,57.93Zm99,722c-1.45,2.18-.29,4,.74,5.93,4.79,8.7,13.53,10.22,22.06,12.09.21,0,.54-.41.8-.63C165.58,783,157.08,779,142.63,779.94Zm19.22,166.84c.73,3.38,2.67,5.56,5.89,6.36,5.88,1.45,11.78,2.81,17.7,4a26.88,26.88,0,0,0,5.24.05c-1.31-8.06-6.49-13.2-13.74-13.72-3.2-.23-6.43-.11-9.64-.08C165.05,943.44,163,944,161.85,946.78ZM132.66,469.33a10.62,10.62,0,0,0,2.55,10.4c4.38,5,9.07,9.64,13.77,14.31a51.91,51.91,0,0,0,5.6,4.26C157,487,145.83,472.53,132.66,469.33Zm53,562.32a46.8,46.8,0,0,0-4.08,5.35c-1.47,2.64-3,5.48-1.82,8.63a21.43,21.43,0,0,0,12.4,12.93c3.58-3.31,4-4.13,3.7-7.6C195.25,1043.43,191.63,1037.46,185.64,1031.65ZM358.37,83c3.37.65,5-1.27,6.06-3.59A41.36,41.36,0,0,0,367,71.8,18.81,18.81,0,0,0,363,54.87C352.58,61.5,351.06,70.69,358.37,83ZM210.1,105c-4.71,4.78-5.08,8-1.58,13,3.36,4.73,8,7.91,12.67,11.27C227.55,117.68,223.55,109,210.1,105ZM107.15,666.77c3.94-6.5,5-12.71.81-18.95-2.16-3.22-4.83-6.1-7.29-9.17a8,8,0,0,0-1.64,1c-5.81,6.41-4.77,16.22,2.37,22.36C103.13,663.51,104.92,664.93,107.15,666.77ZM18.41,20.51c-3.16,4.2-3.22,7.86-.2,11.25,4.68,5.25,10.68,7.63,17.63,7.68a6.26,6.26,0,0,0,2.24-.86c2-6.15,1.42-8.56-3.24-12.6.18,3.49,2.38,6.88-.49,11-.36-2.87-.58-4.78-.85-6.69-.59-4.13-2.69-6.89-7-7.78C23.77,21.89,21,21.15,18.41,20.51ZM222.14,951.85c-1.91,2-3.85,3.46-4.94,5.39s-2.15,4.52-1.7,6.47c1.41,6.21,3.54,12.26,5.41,18.42,6.52-2.69,8.2-5,8.25-10.91C229.23,964.08,225.55,958.35,222.14,951.85Zm133.8-693.62c3.83-4.39,6.69-9,5.16-14.38-1.59-5.57-4.48-10.77-6.88-16.32C343.86,236.47,347,248.5,355.94,258.23Zm-154,111c1.16-7.61-1.31-14.83-6.39-21.59l-3.3,1.73c-.22-1.16-.4-2.06-.62-3.19-6.24,7.77-6.14,15.86,0,20.29l3.25-4c.58,3.33-2.25,5.42-.79,8.5l3-4.84,1,.45c-.89,2.25-1.74,4.51-2.7,6.73-.76,1.75-1.17,3.33,1.12,4.49ZM110.58,708.34c-2.41-7.34-12.75-19.18-20-23.14C83.68,699.94,97,710.49,110.58,708.34ZM345.85,528.29c-10,3.75-14.82,16.72-9.73,25.38l4.88-4.5c-1.79,3.74-3,6.34-4.26,8.93l.85.46,4.81-5.67,1.89,1.37C349.17,545.73,348.16,537.15,345.85,528.29ZM158.61,777.65c-1.28-5.75-3.89-9.49-8.48-11.41-6.22-2.61-12.58-4.9-19-7.35-1.11,5.54.32,9.88,4.56,12.42C142.56,775.4,150.12,777.18,158.61,777.65ZM127,725.72a13.13,13.13,0,0,0-6.36-9.76c-4-2.5-15.46-4.58-20.84-3.75a8.71,8.71,0,0,0,3.57,8.37A30.39,30.39,0,0,0,127,725.72ZM37,285.86c-4.51,4.56-5.1,9.1-1.57,14.12,3.83,5.43,9.31,8.55,15.26,11.15,2.85-6.89,1.78-12.23-3.08-16.38C44.12,291.75,40.56,288.83,37,285.86Zm349.4-137.43c3,2.46-.83,7.31,3.63,9.11,2.42-7.55-.12-13.76-6.45-15.37-4.81-1.22-9.78-1.82-14.61-2.69-2,5.73-1.56,8.89,1.85,10.8a53.26,53.26,0,0,0,15,5.58C386.06,153.17,386.22,150.91,386.41,148.43Zm6.19,661.21c-4.07,11.84,4,23.75,16.34,24.08a83.34,83.34,0,0,0,.37-9.86,6.33,6.33,0,0,0-2.48-3.9C402.34,816.49,397.66,813.27,392.6,809.64ZM157.77,669.77c3.78,2,1.87,7.64,6.81,9.1V672.5l1-.1c.6,2.92,1.21,5.84,2,9.67,3.28-7.05,1.15-14.8-4.7-17.64s-12.37-4.33-19.63-5.85c1.48,9.46,8.37,12.88,15.45,17.6Zm-56.32,14.39c.15-2.66.27-4.89.41-7.47,2.61,3,1,6.42,1.8,9.69l3.2-.54c.23-11.12-5.93-19-12-27C85.22,667,89.73,681.31,101.45,684.16Zm199.7-81.4c-2.1,5.14-3.83,10.29.11,15.16,4.48,5.52,10.55,7.45,17.51,7C319.63,617.72,313.3,609.9,301.15,602.76ZM306.88,1.15c-.16,3.48-.54,5.63-.31,7.72,1.09,10.06,8,15.05,18.81,16.66-.51-2.7-1-5.22-1.43-7.69a4.69,4.69,0,0,0,.9-.6,11.63,11.63,0,0,0,.81-1.16C321,9.56,314.13,6.19,306.88,1.15Zm5.25,482.27c4.56-5.65,4.6-8,.61-12.4-1.31-1.44-3.05-2.51-4.32-4-2.09-2.4-4-5-5.89-7.53-.6-.79-1.07-1.68-1.66-2.63-3.27,4.09-4.17,6.73-4.31,11-.1,3.13.87,5.58,3.5,7.35C304.05,477.86,308,480.59,312.13,483.42ZM139.75,741.09c-1.36-2.53-1.93-4.47-3.18-5.75-2.91-3-6.39-5.38-10.55-6-5.76-.91-11.6-1.31-17.93-2,.59,3.33,1.87,5.72,4.5,7.17,6.13,3.37,12.49,6.25,19.53,7C134.31,741.73,136.57,741.28,139.75,741.09ZM174.56,937.5a11.21,11.21,0,0,0-9.73-8.69c-7.07-.85-14.26-.74-21.4-1-.21,0-.42.47-.63.72,3.19,6.07,9.74,9.73,14.87,8.24,1.59.87,2.4,3.68,5,2.56-.23-1.48-.43-2.71-.72-4.51C170.14,941.88,170.78,942,174.56,937.5Zm-44.26-50c-2.48-5.1-3.29-6-8-7.92-6.13-2.44-12.33-4.7-18.51-7a12.33,12.33,0,0,0-2.52-.37c.31,6.48,1.68,9.83,5.69,12.11C114.24,888.49,122,889.25,130.3,887.54Zm192.91-70.39c-5.19,7-2.89,20.63,4.49,28.55,4.93-5,6.8-10.82,4.79-17.67C331.06,823.13,329.19,818.54,323.21,817.15Zm-117.28-488,3.2-3.66c1.34,3-1.15,3.8-2.86,5.62l2.2,2.76c7.9-8.2,3.65-23.37-7.62-30.74-5.13,8.54-4.31,15.06,2.71,21.42l2.37-1.85ZM67.32,349.57c-3.35-8.41-10.25-10.73-18-11.68A7.7,7.7,0,0,0,47.37,350C51.82,355.18,62.14,355.12,67.32,349.57ZM414.51,945.78c1.93-.48,1.83-2,1.78-3.42-.32-10.5-8.84-21.09-20.1-24.54.67,8.2,1.23,16.06,9.12,21,.76-1.39,1.34-2.45,2-3.69,1.56,2.59-.58,6.49,4,7.47V935.5a10.31,10.31,0,0,1,1.84,5C413.44,942.29,412.2,944.49,414.51,945.78ZM332.39,800.72c-.41-7.8-5-13.07-12.81-15.54-6.82-2.18-10.79-1.06-15.13,4.34a8.76,8.76,0,0,0,6.09,4.56c5.17,1.28,10.26,2.94,15.37,4.48C327.9,799.16,329.86,799.87,332.39,800.72ZM64.28,1058.46c5.14-4,7-7.83,5.6-12.51-1.72-5.61-4.52-10.77-7.43-16C54.48,1037.69,55.43,1051.37,64.28,1058.46ZM366.56,236.57c5.54-6.19,3.26-24-3.65-30.55C354.79,215,356.45,230,366.56,236.57Zm-.35,54.16c-4.26,4.27-4.6,8-.78,11.49A51,51,0,0,0,375.62,309c3.1,1.66,5.95.64,7.47-1.91,1.77-3,1.38-6.88-1.52-8.56C376.53,295.64,371.19,293.24,366.21,290.73ZM151.9,543.35c6.23-8.61.88-22.19-11-27.48-.64,1.54-1.88,3.11-1.79,4.6a27,27,0,0,0,1.77,8.79A36.55,36.55,0,0,0,151.9,543.35Zm52.67,475.76c3.74-4.71,6.59-9.1,5.11-14.29-1.55-5.4-4.25-10.48-6.46-15.74-6.46,3.52-8.8,9.33-6.12,15.48C199.15,1009.29,201.79,1013.76,204.57,1019.11ZM372.44,503.7c2.34-2,3.26-4.12,3.09-6.54-.53-7.74-1.81-15.26-7.07-21.45-1.48-1.73-2.91-3.55-5.68-3.9-1.47,4-3.57,7.8-1.53,11.91,2.58,5.2,5.62,10.19,8.74,15.77a25.74,25.74,0,0,1,1.79-2.26,5.57,5.57,0,0,1,1.19-.75l.48.61-2.56,4.43ZM33.06,112.92c-6.43,5.6-8.06,11.91-5.47,19.28,1.43,4.07,3.67,7.36,8.43,7.62,4.15-4.2,5.13-10,2.53-15.95C37,120.27,35,116.84,33.06,112.92Zm353.27,65,1.79.28a67.62,67.62,0,0,0,2.52-7.47,7.82,7.82,0,0,0-3.23-8.52,68.29,68.29,0,0,0-16-8.07c-2.65,5.41-2.49,7.91,1.23,11.32s7.6,6.33,11.7,9.71l2.14-5,.85.22Q386.84,174.11,386.33,177.87Zm-239,582.34c1.51-5-.29-8.65-3.94-11.52-4.36-3.44-9.51-4.89-14.94-5.37a34.43,34.43,0,0,0-4.59.19C126.2,753,136.1,760,147.29,760.21Zm71.23-554.78c3.92-9.6-4.47-22.91-15.12-24.79-2.62,5.71.7,17.34,5.8,20.08l2.35-1,3.94,5.27c.4-2.75.68-4.67,1-6.91C218.72,200.17,217.66,202.75,218.52,205.43Zm24.95,742.2c5-8.3,4.36-25.28-.85-30.84C233.53,924.65,233.8,937.48,243.47,947.63ZM135,906.36c-.73-12.25-10.12-16.85-22.29-14.65C113.62,901.86,123.72,908.49,135,906.36ZM339.47,629.81c-7.36,4.33-7.67,13.34-3.85,17.59,2.35,2.62,5,5,7.46,7.37,5.19-3.93,6.72-10.2,3.73-14.82C344.59,636.51,342,633.3,339.47,629.81ZM157.65,455.12c8.95-6.49,11.73-25.14,5.53-34.27-3.49,2.07-5.07,5.25-5.76,9.15C156,438.2,157.06,446.34,157.65,455.12Zm-76-161.39c-4.52,7.48,0,19.76,9.11,25a23.39,23.39,0,0,0,2.3-2.84c3.82-6.38,2.59-12.45-3.42-16.8C87,297.21,84.32,295.52,81.65,293.73ZM385,135.82c.5-4.58-.58-8-4.12-9.78-5-2.52-10.45-2.65-15.93-3-.21,2.21-.36,3.76-.62,6.56-1.13-2.76-1.8-4.38-2.66-6.49-.66,7.72,3.83,13.29,10.78,13.48C376.54,136.75,380.62,136.14,385,135.82ZM296.81,698.38c-8.3,6.34-9.43,19.06-2.9,26.85,4.91-1.09,6.81-4.77,7.51-9.23C302.43,709.63,301.42,703.72,296.81,698.38ZM411,920.87c3.33-4.85,3.06-10-1-13.65s-8.45-6.93-12.68-10.37C392.18,905.25,399.59,918.67,411,920.87ZM335.69,199.68l1.33-.25a7.06,7.06,0,0,0,.41-2.38,12.3,12.3,0,0,0-9.77-10.26c-4.44-1.08-8.93-2-13.64-3-1.8,4.27-.47,8,2.58,11.14a14.61,14.61,0,0,0,10.46,4.39l2.4-2.83c.7,1.17,1.27,2.13,2.16,3.6.63-2.4,1.06-4.06,1.74-6.64ZM108.35,527.57a17.28,17.28,0,0,0-.5-11.57,22.93,22.93,0,0,1-1.1-14.71c.75-3.17,1.33-6.39,2.1-10.18-7.28,5.45-10.48,10.77-10.39,17.39a51.33,51.33,0,0,0,1.09,10.13A10.93,10.93,0,0,0,108.35,527.57ZM202.53,4.69c-2.48,4.17-2.64,10.07,0,13.67,2.93,4,6.63,6.9,11.79,6.69,5.32-7.65,3.6-14.29-4.29-17.63C207.6,6.37,205,5.59,202.53,4.69ZM378.09,711.33c-.88,7.53.6,12.27,4.74,14.89,4.84,3,10.26,4.45,16,5.57,1.23-6.44-1.42-10.7-6.21-13.48C388,715.66,383.07,713.69,378.09,711.33ZM87.5,969.38c-8.59,7.86-6.48,21,2.48,31.91,4-2.83,5.41-6.8,4.15-11.3C92.22,983.13,89.79,976.41,87.5,969.38ZM52,231c.73,5.19,3.19,8.75,7.61,10.71,4.08,1.82,8.25,3.44,12.45,5,1.21.44,2.66.19,4.22.26-.31-3.17-.56-5.82-.8-8.24C69.85,233.24,57.76,229.24,52,231ZM221.25,105.49c1.95-7.79-4.32-18.33-13.39-23.38-3.72,2.41-4.94,5.88-4.26,10.16.75,4.64,3.33,7.64,8.14,9.35.54-2.16,1-3.94,1.5-6.09,1.46,2.8-.81,6.12,2.41,8.35,2.08-2.94.12-6.27,1.62-9.12C219.28,98,216.57,102.82,221.25,105.49ZM169.88,818.63c1.47-6.29-1-14.1-6-16.77-4.09-2.18-8.74-3.3-13.33-5C150.06,806.46,157.47,814.61,169.88,818.63ZM368,255.82c-.83,1.41-1.69,2.75-2.41,4.16s-1.47,3.18-2.09,4.55c3.35,5.32,9.62,8.11,17.73,8.14C384.61,262.79,378.61,254.71,368,255.82ZM206.25,141.1c-4,9.35-1.44,16.31,7.09,20.46l2.37-2.65c.13,2,.23,3.57.38,5.86l2.72-3.27c.21,1.61.42,3.16.73,5.41,3.43-7.71,2.18-14.08-3.39-18.6C213.1,145.84,209.8,143.67,206.25,141.1Zm27,794.61c-4.61,1.16-6,4.55-6.59,8.36a27.69,27.69,0,0,0,2.14,15.69c.67,1.49.81,3.43,2.65,4.21C241,952.61,239.28,945.51,233.21,935.71Zm128.32-482c-1.66,4.7-2.36,8.92.8,12.55s7,7.05,10.48,10.52c4.41-4,5.42-12.5,2.24-16.29a6.26,6.26,0,0,0-2.08-1.65C369.29,457.08,365.57,455.46,361.53,453.66ZM44.61,76.13c1.63,9,14.41,16.07,24,13.66.08-7.14-3.59-12-10.14-12.87C53.93,76.35,49.28,76.38,44.61,76.13Zm55.9,911.16c3.92-6.6,4.55-12.34,1.73-18.39-1.59-3.41-2.92-6.94-4.44-10.39a34.55,34.55,0,0,0-1.91-3.24c-4.5,4.66-6.7,9.57-4,15.41C94.33,976,97.28,981.13,100.51,987.29ZM318,135.1c-7.19,11.44-4.88,20.89,5.65,25.44,4.81-2.5,6.13-6.93,3.16-12C324.18,144.06,321.13,139.86,318,135.1Zm-75,899.46-19.46-9.79c-3.37,9.66,3.08,17.78,13.56,17.53.28-2.22.57-4.49.9-7.13,3.58,3.17-1.81,8.27,3.18,10.65C244.29,1042.5,241.69,1038.75,243,1034.56ZM149.68,692.9c-2.34,8.13.78,13.77,5.83,19.43l2-4.34.69.12.37,7.34,1.3.19c.9-2.66,1.79-5.31,2.84-8.44,2.77,4.21-2.83,8.14.5,12.07,3.48-2.89,3.05-6.84,3.57-10.4a7.12,7.12,0,0,0-3.4-7.36C159.09,698.7,154.68,696,149.68,692.9Zm157.61-67.45c3.41,11.36,13.72,17.3,22.61,13.63.42-2.43.87-5,1.32-7.65C324,626,315.47,628.3,307.29,625.45ZM310.83,871c8.73-2.43,14.75-11.8,14.16-21.31a16,16,0,0,0-3.69-9.35c-.69-.83-1.95-1.17-2.92-1.72-2.36,2.13-2.14,4.52-2,6.82a48.45,48.45,0,0,1-4.54,23C311.47,869.21,311.22,870,310.83,871ZM338.67,61.42c-.13-3.7,1.12-7.63-2.17-10.16-4.55-3.5-9.69-6-15.63-5.82-2,5.23-1.44,9.39,1.86,12A19.75,19.75,0,0,0,338.67,61.42ZM222.18,63.21c-1.77-8.25-2.62-9.74-7.76-15.3-2.18-2.37-4.53-3.39-7.83-2A11.05,11.05,0,0,0,205.18,48a27.78,27.78,0,0,0-1,3.36c2.36,6.58,6.32,11.38,11.89,14.16a16.62,16.62,0,0,0,1.75-2.42,8.85,8.85,0,0,0,.55-2.6c.12-.83.16-1.67.24-2.5l1.13.18a26.56,26.56,0,0,1-.39,5.07,29.15,29.15,0,0,1-2.25,4.8C220.56,66.92,220.56,66.92,222.18,63.21ZM72.8,1038.91c5.22-6.62,3.47-21.13-3.74-31C61.84,1015,63.62,1029.71,72.8,1038.91ZM323,694.19c5.88-2.69,7.71-5.59,7-10.94-.5-3.7-1.07-7.41-1.9-11a57.13,57.13,0,0,0-2.41-6.75c-3.45,1.13-5.17,3.28-5.56,6a41.19,41.19,0,0,0-.46,11.07C320.15,686.35,321.75,690,323,694.19ZM59.73,92.06c-.08,6.56,1.9,10.22,6.89,11.81,5.2,1.64,10.66,2.5,16.48,3.81-.66-5.35-3.15-8.82-5.88-12.12a4.83,4.83,0,0,0-2.78-1.48C69.7,93.33,64.94,92.76,59.73,92.06ZM327,353.45c.19-10.64-5.23-18.19-11.16-25.75C308.46,339.09,313.42,351,327,353.45ZM374,113.83l1-.5,2.62,9.14c1.92-6-1.69-13.61-6.56-14.24-4.16-.53-8.45-.11-12.37-.11-2.82,4.35-3.06,6.77-.52,9,3.3,2.83,7,4.92,11.59,3.36.26-1.26.47-2.3.76-3.74l2.65,5.35C374.78,117.84,374.78,117.84,374,113.83Zm2.93-98c-6.28,8.43-3.5,18.84,6.22,24.72a29.08,29.08,0,0,0,2.7-3.86c2.81-5.8,2.14-9.64-1.67-13.2C381.67,21.19,379.48,18.58,376.89,15.83ZM112,510.27c8.56-6.26,13-22.62,8.74-31C113.92,482.73,108.33,502,112,510.27Zm241.12-121c8.77-5.63,7.12-16.68-.77-25.75C344.11,371.48,344.32,378.5,353.12,389.28ZM104.68,806c-4.54,4.91-6.45,9.85-4.41,15.76a14,14,0,0,0,10.8,9.8C115.79,821.28,110.12,814.06,104.68,806Zm4,159.53c3.45-3.18,4.77-6.69,3.68-10.57-1.72-6.13-3.92-12.12-6.08-18.64-3.59,2.77-6,5.67-5.94,9.69C100.53,953.31,102.54,960.05,108.7,965.48Zm40.63-99.56c-6.91,6.66-4.47,21.55,3.69,30.05C158.23,888.92,156.58,872.62,149.33,865.92Zm-97.75-598c5.23-7.67,2.36-18.32-6.54-24.29C37.47,250,41.26,264.05,51.58,267.9Zm148,80.72,3.75,4.24c3.59-3.81,5.15-7.76,3.41-12.56-2.07-5.74-6.07-10-10.44-14.06-6,7.38-5.1,13.63,2.31,18.8l3.05-1.84C200.75,345.56,200.24,346.88,199.57,348.62ZM23.44,152.82c-5.66,13.47,2,24.46,15.45,22.84C38,165.27,29.21,160.48,23.44,152.82Zm237.22,633.9c1.23-4.06,3.42-7.37,1.07-10.54a152.78,152.78,0,0,0-12-13.81L244.88,770C247.73,778,253.43,782.57,260.66,786.72Zm73-365.94c4.56-3.86,6-6.4,4.87-10.14a67,67,0,0,0-7-14.81C322.37,401.89,323.27,412.06,333.66,420.78Zm-189,493.67,1.14-1.09c1.56,1.7,3.1,3.41,4.66,5.1,1.42,1.53,2,4.52,5.29,3-2.93-6.56-6.32-9.32-12.65-10.32-4.07-.63-8.15-1.25-12.25-1.77a33.44,33.44,0,0,0-4.14,0c2.3,8.49,6.85,12.07,15,12.1-.09-1.43-.18-2.87-.28-4.57,3,1.46,3.87,5.87,8.49,4.51Zm59.69-891.6c-2,4.54-2.81,8.18,0,11.1,3.88,4.12,8.3,7.73,12.45,11.52,5.44-5.28,5.82-8.15,1-12.59C213.9,29.29,209.29,26.47,204.38,22.85ZM78,131.94c-3.31,7.79,3.32,18.84,13.11,21.86C95.86,144.67,91.1,136.73,78,131.94ZM78,1014.76a4.76,4.76,0,0,0,5.9-1.72c1.64-2.2,3-4.75,2-7.48-1.76-5-3.93-9.84-5.91-14.7C70.87,994.09,72.33,1006.48,78,1014.76ZM321.06,473.87c2.92-5.67,2-11-3.18-14.55-4.65-3.15-8.79-6.65-11.9-11.32-.13-.19-.65-.1-1-.14-2.33,4.08-2.45,4.91-.58,8.33C308.43,463.52,313.6,469.76,321.06,473.87ZM116.65,948.36c7.45-5.56,7.81-16.35,1.38-26.22-4.64,2.7-6,4-6.4,7.23A25.48,25.48,0,0,0,116.65,948.36Zm-47-756c-2.34-.87-3.7-.06-4.84,1.64-3.62,5.36-2.58,16.53,2.1,21.18a13.83,13.83,0,0,0,2.6,1.66C76,210,75.4,200.65,69.68,192.34Zm174,878.13c2.79-10.33-2.55-18.54-13.41-22.09-3,5.85-2.16,11.3,2.77,15.22C236.22,1066.1,239.84,1068,243.7,1070.47Zm-14.23-52.3c-4-1.23-1.24-5.37-3.53-7-3,.82-.71,3.84-2.59,5.62-.83-2-1.58-3.84-2.37-5.78-2.11,1.91-2.14,1.92-1.87,2.85a11.11,11.11,0,0,0,5.63,6.84c4.22,2.33,8.48,4.58,12.76,6.8a23.11,23.11,0,0,0,3.29,1.11c2.81-9.94-3.29-18.54-11.32-16.56Zm-15.09-790.9c4.36-6.26,3.47-12.71-1.12-17.28-2.54-2.53-5-5.15-7.52-7.68a27.19,27.19,0,0,0-2.31-1.88c-3.1,7.52-1.47,14.28,4.46,19.5l2-1.28c1,2-1.25,4.32,1.67,5.63.6-.95,1.19-1.91,2.11-3.39C214,223.44,214.17,225.35,214.38,227.27Zm151.45,88.27c2.53,5.58,9.75,13.15,15.39,16.48,5.38-8.6-1.8-20.72-13.16-21.67C367.34,312,366.59,313.78,365.83,315.54Zm-336-137.92c-2.94,6.15-2.45,8.63,2.25,12a32.69,32.69,0,0,0,14.41,5.52c1.52-3.32,1.29-6.46-.88-8.77C41.41,181.93,36.44,178.46,29.83,177.62ZM355.67,431c-2.2,11.87,2.71,19.15,13.12,20.06,1.94-3.49,1.68-7.18.5-10.81a7.07,7.07,0,0,0-2.56-3.86C363.24,434.33,359.48,432.77,355.67,431Zm-15.61-59.38c1.4-4.55.86-7.29-2.51-9.26a57.49,57.49,0,0,0-20-6.87c1,4.17,2.2,7.58,5.39,9.95C327.44,368.74,336.64,372.05,340.06,371.58ZM307.64,517.72c-1.86,6.47-.08,10.82,5.07,11.63s10.16.77,15.23,1.11c1.25-3.41,1.09-6-1.8-7.47C320.43,520.13,314.66,517.3,307.64,517.72ZM165.09,697.6l.88,0a13.12,13.12,0,0,0,.66-2.77c.19-7.77-8.39-17.15-17.39-19.07-3.46,6.73-.93,12.53,6.89,15.88l1.61-1.09c1.24,1.79,2.31,3.36,3.7,5.36l2.4-4.22ZM353,592.63c5.69-5.18,5.43-10.87-.57-14.19-3.34-1.84-7.13-2.88-10.56-4.22-3.87,5.91-3.67,8.35,1.06,11.86C346.19,588.49,349.73,590.51,353,592.63Zm-29.82-75.14c.95-6,0-9.16-3.95-10.76-4.9-2-10-3.39-15-5-2.76,7-1.61,10.17,4.54,12.14C313.46,515.34,318.35,516.29,323.19,517.49ZM363,519.3c7.84-6.49,6.35-18.78-3.07-25.35C354.65,503,355.81,512.58,363,519.3ZM112.17,783.53c-6.77,11.09-3.24,26.52,6.65,31.43,2.28-3.63,2.14-7.19.48-11.15-2.25-5.4-4-11-5.92-16.57C113,786.26,112.74,785.27,112.17,783.53Zm94.24-663.15c-2.69,5.71-3.9,11.12-.48,16.53,1.41,2.23,3.16,4.8,6.63,3.28l1.79,2.68,2.12-1.83,2.73,3.45C218.42,133.86,214.6,126.25,206.41,120.38ZM314.33,25.26c-3,12.72,3.21,16,15.5,16.36.45-1.95.92-4,1.31-5.71C328,30.6,323,27.47,314.33,25.26ZM280.81,846.55a9.19,9.19,0,0,0-4.23,6.55c-1.42,7.36-.28,14.24,4.75,20.11a17.36,17.36,0,0,0,2.85,2.14C287,866.66,285.66,855.38,280.81,846.55ZM198.26,971.6c-2.11-4.61-6-7.09-8.48-10.45-10-2.4-10-2.4-13.09-1.24C177.26,970,186.47,975.35,198.26,971.6Zm17.48-725.8c4.26-7.36-.18-16.12-9.91-20.63-.59.56-1.26,1.13-1.85,1.78s-1.36,1.63-1.9,2.28c-.41,7.1,3.6,14.15,7,12.53.65-1.2,1.31-2.42,2.16-4,.78,2.78-.84,5.44,1.6,8,.64-2.32,1.16-4.18,1.68-6.05l.82.12ZM43.45,122.8c4.72-7.28,3.58-17.75-2.8-25.62C32.44,104.23,33.76,116.29,43.45,122.8Zm66.94,476.76c3.64.21,5.85,1.92,6.52,5.41l5.3.69c-3.47-9.36-13.56-13.87-26.13-12.11-.46,6.44,3.19,10.17,9.55,9.85l-.44-3.48.78-.17,3.54,5.08,5.39-.32Zm261.05,74.21c-3.29-8.25-7.71-11-15.49-9.87-3.15.44-4.59,2-4.93,5.4-.3,2.93.87,5,3.76,5.67C360.28,676.32,365.75,676.38,371.44,673.77ZM210,246.69l-8.07,4.85c.37,8.15,6.74,10.15,11.4,13.69C220.12,259.43,217.23,249.63,210,246.69ZM33.34,195.33c-2,5.33-1.24,9,2.35,12.38,2.74,2.58,6.18,3.57,9.74,4.12a21.18,21.18,0,0,0,4.35-.2C49.62,202.44,45.93,198.88,33.34,195.33ZM135.58,598.76c2.84-8.35.22-16.06-7.54-22.84C120.59,584.89,123.15,593,135.58,598.76Zm264.77,442.48c-3.24,10.28,2.78,17.82,14.3,19,2.13-7,1.34-9.45-4.31-13C407.18,1045.25,404,1043.39,400.35,1041.24ZM301.16,587.06c-2.45,3.52-2.44,6.27-.86,8.92A26.93,26.93,0,0,0,316,608.34c1.7-4.93.41-8.87-2.94-11.91C309.42,593.12,305.33,590.3,301.16,587.06ZM182.08,401.75l1.1.25c.42,4,.42,4-1.14,8.25-.69,1.87-.69,1.87,1.13,4.11,6-14.23,4.2-20.86-3.28-28.37-5.81,6.47-5.38,16.3.93,22.76C181.23,406.46,181.66,404.11,182.08,401.75ZM344.9,276.08c4.17-4.71,7.53-8.57,5.83-13.79-1.52-4.68-4.22-9-6.47-13.58-5,3.93-5.4,8.68-4.14,13.57C341.22,266.58,343,270.7,344.9,276.08ZM99.17,830.32c-4.67,11.83,2.12,22.95,13.23,22.16C112,842.88,106,836.75,99.17,830.32ZM379.36,192c6.18-7.09,3.19-15.72-7.73-22.31C367.19,176.07,367.45,182.23,379.36,192ZM211.53,178.6l2.15-2.44c.1,2.1.18,3.75.29,6.11l3-4.16c-.15,3-.24,4.95-.38,7.87,2.73-4.47,3.49-7,2.2-9.82a43.57,43.57,0,0,0-12.29-15.78C201.36,168.82,202.72,173.47,211.53,178.6ZM159.22,872.4c5.88-7.75,2.87-16.72-7.57-22.57C147.18,856.55,150.53,866.54,159.22,872.4ZM36.41,397.76c-3,3.14-5.25,6-5.22,10.08.06,7.11,2.44,13.56,5.52,20.51,3.56-4.35,4.74-8.71,3.82-13.42C39.45,409.35,37.9,403.87,36.41,397.76Zm-5-338c2.4,8.41,14.43,13.72,23.64,10.86-.23-2.11-.46-4.31-.72-6.73C46.73,61.74,39.36,61,31.41,59.73ZM218.77,833c3.39-2.82,6-6,9.45-7.59,3.56-1.69,7.83-1.89,12-2.79-4.8-6-11.33-7-20.56-3.35C217.59,823.58,216.81,828.17,218.77,833Zm-126-254.36c4.83,10.82,12.73,14.59,19.83,9-5.87-5.24-9.66-13-18.79-13.88C93.49,575.46,93.15,577,92.82,578.59ZM81.13,44.64C85.47,37,83.61,28.77,76.4,22.73,69.6,30.31,71.74,40.86,81.13,44.64Zm2.81,289.17c4.74-6.07.16-21-7-25.87C73,317.08,75.69,326.85,83.94,333.81ZM81.08.37c-6.44,8.41-3.12,22,6.09,28.56,2.25-2.41,2.17-5.42,1.29-8.11C86.32,14.2,83.77,7.72,81.08.37ZM75.89,199.6c4.5-3.34,5.61-4.76,5.16-8-1-6.8-4.06-12.6-8.62-18.05-2.34,4.38-3,6.09-2.43,9.15C71.08,188.46,72.58,194.12,75.89,199.6ZM44.56,213.8c-1.66,4.87-.38,8,4.15,10.47a20.33,20.33,0,0,0,13.36,2c.84-5.52-.86-8.68-5.67-10C52.64,215.2,48.74,214.64,44.56,213.8Zm9.85,184.44c8-7.59,7.56-21.49-.53-27.1C49.28,380.14,51.64,388.89,54.41,398.24Zm135.1-5.1c3-5.78,4.5-11.33,2.09-17.81l-6-6C180.36,377.67,181.81,386.16,189.51,393.14ZM85.8,131.75c2.94-3.61,4.94-7.34,2.42-11.12A17.33,17.33,0,0,0,76,112.77c-2.33,4.42-2.17,8.27,1.25,11.56C79.93,126.91,82.86,129.22,85.8,131.75ZM205.39,262.93c-2.43,3.32-4.26,6.51-2.54,10.12a28.57,28.57,0,0,0,8.58,10.49c5.25-3.1,6.44-8.32,2.71-12.47C211.56,268.21,208.49,265.78,205.39,262.93ZM154.12,732c1.42-1.91,2.81-3.53,3.91-5.32a5.17,5.17,0,0,0-.42-6.47c-2.73-3.22-5.56-6.36-8.41-9.59C143.64,717.94,145.28,725.14,154.12,732ZM343.25,82.11c.34-3.22,1-6,.79-8.77-.13-1.76-1.07-4.2-2.43-5a30.2,30.2,0,0,0-13.06-3.72c.91,7.46,2,9.56,6,12.49l1.73-2.2c.32,1.72.6,3.2.92,4.91ZM71.18,36.85C65.5,44.94,66.44,55,73.3,63c4.34-3.83,4.83-8.73,3.26-13.74C75.25,45.11,73.09,41.17,71.18,36.85Zm31.15,533.27c3.2-9.85-.61-17-10-18.85a16.17,16.17,0,0,0,3.05,15.6C97.09,569,98.68,571.29,102.33,570.12Zm-80-130.34c-1.56,6.64-1.64,8.7.6,13.16,4.47,8.93,5.7,18,2.38,27.58-.57,1.64-1.58,3.55-.63,5.44.44,0,.75.06.78,0,4.13-9,8.21-18.11,3.34-28.23a3.17,3.17,0,0,1-.38-1.55C28.79,450.17,24.63,446,22.29,439.78Zm70-157.5c2.5-11.37-4.4-19.22-15.26-18.47C78,273.22,85.3,277.11,92.31,282.28ZM319,302.85c-5.32,10.86-2.44,21.85,6.34,25.13C327.26,318.74,324.72,310.74,319,302.85ZM282.68,793.09c9.49-.17,15.37-5.39,21.1-11.65C294.09,776.8,284.58,782.12,282.68,793.09Zm-28-76.71c3.15,5.4,6.31,7.42,10.19,6.68,4.37-.84,9.33-6.08,10.35-11.1C267.76,710.8,261.23,713.42,254.67,716.38ZM29.17,416.06C24.56,426,24,437,28.78,441.75c5.52-3,7.1-5.31,5.81-10C33.22,426.75,31.25,422,29.17,416.06ZM109.63,633.6c2,3.67.5,6.56-1.14,9.76l1.62,2.28a21.65,21.65,0,0,0-1.46-24.3c-7.59,5.87-8.11,14.06-1,19.71ZM35.53,159.76c2.57-10.54-4.36-16.4-9.67-23.39C20.61,145.11,25.12,153.73,35.53,159.76ZM88.35,262.83c1.53-5.55,0-9.09-5.21-10.6-4.36-1.26-9-1.54-14.63-2.44C73.11,259,80.27,261.53,88.35,262.83Zm-15.14,66.1c-4.87,8.84-.5,18.94,9.55,22.29C84,341.84,79.58,335.08,73.21,328.93ZM242,705.9c2.27,4.6,6,5.74,10,5.16,5.23-.76,10.34-2.26,15.74-3.49-1-3.15-2.92-4.2-5.36-4.43C255.56,702.5,248.85,702.73,242,705.9Zm-9.34,91.42c-6.24,4.21-9.9,8.88-10.35,16.14l14.81,3C233,808.35,233,808.35,232.61,797.32ZM350.3,96.9c4.39-3,5.75-4.79,5.44-8.24a39.56,39.56,0,0,0-3.52-13.29C344.53,79.8,343.87,87.27,350.3,96.9Zm-66.17,666c-.65,4.34,2,7,4.9,9.32,4.32,3.45,9.08,3.54,14.1,1.65C300.06,767,293,762.93,284.13,762.86ZM116.6,608.92c-.43,2.8-.12,5.28,2.4,6.19,6.23,2.25,12.64,2.33,19.38,1.19C134.79,609.64,127.2,607.19,116.6,608.92ZM46.31,386.83c-6.73,7.11-6.37,17.3.58,25.15C52,403.54,48.93,395.51,46.31,386.83Zm8.58,689.42c5.78-8.31,2-16.15-.29-24.49C47.62,1058.64,47.86,1069.12,54.89,1076.25ZM309.06,845.63l-1.58-.21c-2.81,6.9-5.72,13.75-8.32,20.72-.52,1.4.15,3.25.29,5,4.59-1.25,4.9-1.48,7.61-7.86C309.49,857.58,311.48,851.77,309.06,845.63ZM261.21,733.5c1.16,4.55,2.57,8.61,6.2,11.47,5.62-4.74,6.31-10.18,2.51-18.14C266,727.45,263.33,729.77,261.21,733.5Zm-29.77-47.86-.11-1c-3.52-.3-7.07-.45-10.56-1s-7-1.37-10.91-2.18l-5.31,5.74a13.4,13.4,0,0,0,12.29,3C221.8,689.11,226.58,687.22,231.44,685.64ZM238.69,790c-6.68,11.94-5.84,17.1,3.73,25.72V799.88ZM67.41,73.24c1.76-8.78.52-15.52-4.11-22a29.59,29.59,0,0,0-2.39,2.21c-3.76,4.55-3.79,7.94,0,12.44C62.71,68.06,64.66,70.15,67.41,73.24Zm218.44,673.6a112.33,112.33,0,0,0,15.28,13.83c1.89-8.29-6.54-19-13.15-17.08C287.5,744.34,286.85,745.33,285.85,746.84Zm4.34,89.72c-.52,2-1.34,3.59-1.32,5.2.08,4.62.33,9.26.86,13.85.23,1.95,0,4.29,2.24,6.22,2.73-6,4.75-11.78,3.87-18.19C295.44,840.69,294.22,838.21,290.19,836.56ZM22.65,479.91c3.71-8.29,1.67-21.87-3.91-26.76V476.3Zm326-58c3.16,5.44,7.84,6.9,13.33,6.73.62-6.26-2.38-10.44-9.32-13C349.58,416.45,348.77,418.84,348.66,421.89ZM83.07,281.65c-.65,7.19,4.61,14.1,11.92,15.68C97.6,290.27,92.45,283.49,83.07,281.65ZM305.35,839c3.22-8.45,7.52-16.61,5.86-26.06L301,800l-1.19.68c.81,1.85,1.51,3.75,2.46,5.53.66,1.25,1.84,2.24,2.44,3.51a55.45,55.45,0,0,1,3.92,9.3c1.25,4.63-.79,8.73-3.23,12.21Zm-153-404.44c-3.45,3.71-6.59,6.92-5.65,10.85,1.2,5,0,11.09,5.54,15.33C154.46,451.81,152,443.74,152.34,434.56Zm207-35c2,5.55,3.87,10.56,5.79,15.78L370,416.9C372.12,407.49,367.6,399.91,359.33,399.59ZM50.3,104.81c3-10.5.83-17-5.88-18.18C42.83,92.7,44.88,99.36,50.3,104.81Zm78.84,828.71c4.85-7.5,2.36-14.68-6.47-19.91C122,918.25,124.73,926.93,129.14,933.52ZM93,567.63a11.43,11.43,0,0,0-.49-2.23c-2.58-4.73-3.61-9.63-2.15-15a5.14,5.14,0,0,0-2.32-5.9C81.42,552.81,83.15,561.51,93,567.63Zm27.5,226.69c5.51-8.27,4.79-15.77-1.89-19.77C116,780.91,116.66,787.8,120.46,794.32ZM207.31,63.94c-4.12,7.52-2.57,12.57,4.12,15.66.38-1,.73-2,1.13-3s.82-1.92,1.3-3a6,6,0,0,0,1.51.7,9.58,9.58,0,0,0,2.18-.4ZM345.89,229.12c2.5-7.45-4.62-11.82-13.82-8.49C334.62,226.59,338.84,229.18,345.89,229.12ZM223.82,669.06a113.5,113.5,0,0,0,16,11.52c-2.21-5.45-8.07-12.74-13.53-17ZM369,102.81c-.49-4.19-2.37-6.81-6-8.09-5,3.78-5.37,4.72-4,9.86C362.29,104.45,365.68,105.43,369,102.81ZM249.54,806.88c-5.77,4.67-4.69,9.64,2.73,13.39.48-4,1-8,1.46-12.18ZM130.75,486l-5.19-3.77c-.48,5.84-3.19,10.54-1.62,16.11C129.23,494.64,130.24,492.81,130.75,486ZM274.26,794l7.88-12.28c-3.86-1-6.84-.81-8.74,2.08S270.93,790.08,274.26,794ZM347,559.85c-4.67,7.62-4.09,11.13,2,13.46C353,567.35,352.65,564.65,347,559.85Zm-15-20.61c-5.79-5.11-8-5.37-11.44-1.76.52,4,.52,4,3.8,6.47ZM140.72,882.68,139,883c.23,2.38-.26,5.2.85,7.06,1.94,3.25,4.86,5.92,7.37,8.84A21.85,21.85,0,0,0,140.72,882.68Zm158.77-44.26c2.43-5.57,2.15-9.67-1-14.39C293.5,828.23,293.71,831.23,299.49,838.42Zm29.77-505.56c3.92-7.59,3.21-13.19-2-17.83C327.15,321,327,326.54,329.26,332.86ZM16.53,485.72c-1.17-.15-1.88-.2-2.58-.35s-1.69-.41-2.37-.59c-1.44-4.27-1.44-4.27-4.65-4.12-.62,6.88,3.59,10.06,11.59,8.51ZM96.61,588.93c-3.61-5.49-6.88-10-6.41-16,.06-.66-1.18-1.41-2-2.33C86,579.74,88.55,585.57,96.61,588.93ZM202.76,977.74c-4-.71-7.43-1.13-10.68,1.36.41,2.78,2,4,4.37,3.94C199.59,982.93,201.44,980.93,202.76,977.74Zm-187.3-506c2.47-6.31,2.17-10.63-.84-15.11C14.21,461.69,10.57,466.45,15.46,471.74Zm339.36,185c3.2-.18,5.64.43,8.06-1-1.44-3.41-2.93-6.22-7.14-7.36C355.42,651.32,355.16,653.72,354.82,656.78ZM5.52,468.72l5-17C5.93,457,3,462,2.94,468.72ZM119.07,597.06l7.3,8.1,4.56-1.22C128.24,599.07,124.36,597.11,119.07,597.06ZM327.61,851.37c6.39-3.75,9.65-11.7,8.39-17.53Zm-.46-511.46c1.26,11.89,2,13.75,6.26,15.48A26.4,26.4,0,0,0,327.15,339.91Zm-41.23,541c5.19-4,6-9.82,2.32-17.13C287.43,869.82,286.71,875.14,285.92,880.94ZM229.15,997.2c2.7,4.45,4.76,7.85,6.94,11.46C239.11,1004.35,236.73,1000.22,229.15,997.2Zm-114.38-173L113,834.33l4.6,2.67C118,832.24,118,828.27,114.77,824.17ZM380.25,470.9c-.51,4.85-.09,9.54-2.68,13.64-.38.61.52,2,1,3.56C382.49,481.81,383.05,475.83,380.25,470.9ZM171,445.69c4.62-4.62,7.95-9.78,7.75-16.51C177.5,435.34,171.89,439.43,171,445.69Zm106.57,319-1.12-.42c-2.45,3.52-5.48,6.81-4.35,12.14l4.23-2.17C276.74,771.05,277.15,767.88,277.56,764.72ZM346.4,235.6c-3-.6-5.3-2.12-7.46.21a7.8,7.8,0,0,0,4.06,6.91ZM146.9,732.86a17.56,17.56,0,0,0,3.79,11.88C153.33,739.11,152.72,736.91,146.9,732.86Zm-31.85-23,1.08-.92c-1.85-5.53-4.68-10.29-10.53-12.7ZM10.46,469.5,13,455.9C7.29,461.48,6.55,465,10.46,469.5ZM131.29,787.21c3.42-5.32,3.17-7.12-1.44-11A12.85,12.85,0,0,0,131.29,787.21ZM302.73,813c-2.4,5.08-2.08,6.44,2.53,10.08C306.79,818.94,305.92,815.75,302.73,813ZM217.56,86.87c3.59-6.27,3.54-9-.64-11.66C218.07,79.29,213.6,82.68,217.56,86.87ZM273.42,704.8c-4-4.66-8.32-6-13.38-4.71l11,6ZM164.51,860.73c-.88,5.09-1.68,9.7-2.55,14.69C166.77,871.33,167.5,867,164.51,860.73Zm60.2-179.81c-7.12-3.8-8.27-4-12.22-1.64C218.55,682.22,220.8,682.52,224.71,680.92ZM2.22,472.58c.69,4.65,1.25,5,7.36,5.17C8,472.57,7.19,472,2.22,472.58Zm124.46,284c-2,7.17,1,13.68,5.65,14.87a58.9,58.9,0,0,1-3.62-6.89A70.61,70.61,0,0,1,126.68,756.62ZM355,395c3.39-2.93,6.33-5.66,6.53-10.93l-8.07,8.58a6.55,6.55,0,0,0,.39,1.07A12.52,12.52,0,0,0,355,395Zm12.66,268.08c4.33,8.25,5.49,9.65,8.91,10.62C374.59,669.39,373.41,665.12,367.62,663.06ZM55.7,323.23c-.52,4-2.87,7.82-2,12.37C57.51,332.45,58.22,328.21,55.7,323.23Zm152,346.67,9.22-3v-3.51C211.49,664.27,210.63,664.84,207.67,669.9ZM163.14,883.31c5-5.88,6.46-9.95,5.59-15.69-1,5.23-2.51,9.54-7,12.12C162.18,880.91,162.55,881.84,163.14,883.31ZM334.93,378.76c-2.12-.85-3.58-2.37-5.8-1.93-.73,3.49.61,5.67,3.31,7.92C333.34,382.6,334.05,380.88,334.93,378.76ZM336.56,91.9c1.65-2.2,2.75-3.65,4.18-5.54l-7.81-3.54ZM318.56,829c0-2.11-.08-4.22,0-6.32s1.77-4.34-.6-6.32C315,821.42,315,824,318.56,829ZM222.13,670.4c1.31,6.13,3.53,7.7,10,7.82ZM145.57,905.69c-2-5.66-2.74-6.5-7.11-8.86C141.26,904.14,141.94,905,145.57,905.69ZM389.08,695.14c.91-4.17,0-7.34-3.81-10.27.41,3.56.74,6.37,1.08,9.32ZM114.62,621c.46,4.91,1.82,7,5.81,9.2C120,626.34,119.27,622.83,114.62,621Z"/></g></g></svg>