<svg xmlns="http://www.w3.org/2000/svg" viewBox="0 0 661.94 663.76"><defs><style>.cls-1{fill:#491c0c;}</style></defs><g id="Capa_2" data-name="Capa 2"><g id="Capa_1-2" data-name="Capa 1"><path class="cls-1" d="M634.86,382.25l1.49-10.39a4.29,4.29,0,0,1,5.17-3.81l6,.85a4.26,4.26,0,0,1,3.92,3.79l8.29-2.3-.83,5.77-1.66-.62-6.3,1.76-.34,2.36,5.93.85,1.8-.36-.77,5.36-1.62-.86-19.24-2.76Zm4.89-4.14,6.61.95.58-4.09a1.82,1.82,0,0,0-1.64-2.15l-2.79-.4a1.83,1.83,0,0,0-2.18,1.61Z"/><path class="cls-1" d="M639.06,323l-.63-13.51,4.87-.23-.54,1.74.33,7,5.06-.24-.21-4.57-.7-1.67,5.49-.26-.54,1.73.21,4.57,5.07-.24-.33-7-.7-1.68,4.86-.23.64,13.52-1.76-.53-19.41.91Z"/><path class="cls-1" d="M645.1,252.59a1.82,1.82,0,0,0-1.44,2.29l.79,3.32a4.3,4.3,0,0,1-3.41,5.45l-4.3,1a4.3,4.3,0,0,1-5.5-3.33l-2.07-8.74,4.74-1.13-.21,1.81,1.32,5.54a1.81,1.81,0,0,0,2.31,1.4l1.18-.27a1.83,1.83,0,0,0,1.44-2.3l-.79-3.32a4.3,4.3,0,0,1,3.41-5.45l4.3-1a4.3,4.3,0,0,1,5.5,3.33l2.08,8.74-4.75,1.13.21-1.8-1.31-5.55a1.82,1.82,0,0,0-2.32-1.4Z"/><path class="cls-1" d="M619.3,208.26l-4.45,2-5.82-13,4.44-2,.13,1.81,1.36,3,15.43-6.92,1.33-1.27,2.22,4.94-1.83.15-15.44,6.92,1.36,3Z"/><path class="cls-1" d="M586.81,155.09l-1.18,1.53-2.55-3.68,14.69-19,3.08,4.44-1.64.67-1.28,1.67,3.69,5.32,2-.61,1.2-1.3,3.09,4.44Zm10.55-7.75-2.17-3.12-3.86,5Z"/><path class="cls-1" d="M550.89,114.15,547,110.39l1.64-.82,10.41-10.78a1.83,1.83,0,0,0,0-2.71l-1.6-1.55a1.83,1.83,0,0,0-2.71.07l-10.4,10.79-.77,1.67-3.89-3.76,1.64-.82,11.52-11.94a4.29,4.29,0,0,1,6.42-.16l3.88,3.73a4.3,4.3,0,0,1,.06,6.43l-11.51,11.94Z"/><path class="cls-1" d="M505.3,76.12l-8.82-5.69a4.29,4.29,0,0,1-1.31-6.29l3.26-5.06a4.27,4.27,0,0,1,5.08-2l1.37-8.49,4.9,3.15L508.52,53l-1,6.46,2,1.3,3.24-5,.43-1.79,4.54,2.93L516.26,58,505.73,74.33Zm-1.72-6.18,3.61-5.61-3.46-2.23a1.83,1.83,0,0,0-2.65.59l-1.52,2.37a1.82,1.82,0,0,0,.55,2.65Z"/><path class="cls-1" d="M448,43.46l-.14,1.92-4.16-1.65,1.71-24,5,2-1,1.47-.14,2.09,6,2.39,1.33-1.62.28-1.75,5,2Zm4.49-12.29-3.53-1.4-.45,6.29Z"/><path class="cls-1" d="M389.46,28.17l.91-1.6-4.48-9.09-1.45,8,.3,1.82-5.33-1,.91-1.6,3.45-19.13-.29-1.81,5.32,1-.91,1.6-.71,3.93,4.49,9,2.15-11.88-.3-1.82,5.33,1-.91,1.6-3.45,19.12.29,1.82Z"/><path class="cls-1" d="M335.51,18l.07,4.87L321.34,23l-.07-4.87,1.72.59,3.32-.05L326.05,1.8,325.42.08,330.83,0l-.59,1.74.25,16.91,3.32,0Z"/><path class="cls-1" d="M277.58,27.87,264.33,30.6l-1-4.78,1.8.27L272,24.67l-1-5-4.48.92-1.54.95-1.11-5.38,1.8.26,4.47-.92-1-5L262.25,12l-1.55.95-1-4.77L273,5.44l-.25,1.82,3.92,19Z"/><path class="cls-1" d="M206.39,39.64,204.9,36l12-4.92,1.48,3.63Z"/><path class="cls-1" d="M164.36,70.79,165.85,72l-3.74,2.45L143.5,59.27l4.53-3,.62,1.66,1.64,1.32,5.41-3.55-.55-2-1.28-1.24,4.53-3ZM156.9,60l-3.18,2.08,4.89,4Z"/><path class="cls-1" d="M104,101.89a1.81,1.81,0,0,0,2.7,0l2.45-2.38a4.28,4.28,0,0,1,6.42.12l3.09,3.16a4.29,4.29,0,0,1,0,6.43l-6.43,6.28-3.4-3.49,1.65-.75,4.08-4a1.82,1.82,0,0,0,0-2.71l-.84-.87a1.82,1.82,0,0,0-2.71,0l-2.44,2.39a4.3,4.3,0,0,1-6.43-.13L99,102.8a4.29,4.29,0,0,1,0-6.42l6.43-6.28,3.4,3.48-1.65.75-4.08,4a1.82,1.82,0,0,0,0,2.71Z"/><path class="cls-1" d="M78.42,153.36l1.84.57-2.55,3.67-23-7.08,3.08-4.45,1.21,1.3,2,.61,3.68-5.32L63.46,141l-1.65-.67,3.08-4.44Zm-11-7.16-2.17,3.12,6,1.87Z"/><path class="cls-1" d="M32.69,193.87l17.79,7.82,1.83.14-4.23,9.61a4.29,4.29,0,0,1-6,2.28l-12.58-5.53a4.29,4.29,0,0,1-2.37-6l4.23-9.61Zm13.79,10.64-13.17-5.8-1.66,3.78a1.82,1.82,0,0,0,1,2.52l9.64,4.24a1.82,1.82,0,0,0,2.53-1Z"/><path class="cls-1" d="M32.37,257.51l-3,13.19-4.75-1.1,1-1.52,1.58-6.85-4.94-1.13-1,4.45.22,1.81-5.35-1.24,1-1.52,1-4.46L13.12,258l-1.57,6.84.22,1.81L7,265.55l3-13.18,1.55,1,18.93,4.36Z"/><path class="cls-1" d="M23.44,314.3l-.38,10.49a4.3,4.3,0,0,1-4.75,4.34l-6-.22A4.26,4.26,0,0,1,8,325.56l-8,3.15.21-5.83,1.72.45L8,320.92l.09-2.38-6-.23-1.76.55.2-5.41,1.71.68,19.42.72ZM19,318.94l-6.67-.25-.15,4.12a1.82,1.82,0,0,0,1.86,2l2.81.11a1.82,1.82,0,0,0,2-1.83Z"/><path class="cls-1" d="M27,383.76a4.3,4.3,0,0,1-3.84,5.16L9.62,391a4.29,4.29,0,0,1-5.22-3.75L3.58,382a4.29,4.29,0,0,1,3.83-5.16L21,374.69a4.29,4.29,0,0,1,5.21,3.75ZM8.36,385.05a1.83,1.83,0,0,0,2.2,1.59L21,385a1.82,1.82,0,0,0,1.62-2.17l-.34-2.2a1.83,1.83,0,0,0-2.2-1.58l-10.4,1.62A1.82,1.82,0,0,0,8,382.86Z"/><path class="cls-1" d="M34.05,446.63,30.35,448,26,435.68l3.71-1.31Z"/><path class="cls-1" d="M66.74,492.49a4.29,4.29,0,0,1-1.67,6.2l-5.2,3a4.29,4.29,0,0,1-6.23-1.57l-2.88-4.93-5.16,3-1.19,1.4L41.68,495l1.8-.35,16.78-9.81,1.18-1.41Zm-6.54-2.78-5.76,3.38,2.08,3.55a1.81,1.81,0,0,0,2.62.67l2.43-1.42a1.83,1.83,0,0,0,.71-2.62Z"/><path class="cls-1" d="M82,549.62l-.92,1.6-3.51-4.12,1.71-.66,14.77-12.63.92-1.59,3.52,4.11-1.72.66Z"/><path class="cls-1" d="M127,571.12a4.29,4.29,0,0,1,6.39-.7l4.16,3.4a4.29,4.29,0,0,1,.59,6.4l-8.69,10.64a4.29,4.29,0,0,1-6.39.69l-.45-.36L121,593.11l-.63,1.73-4.19-3.42,1.58-1,1.57-1.92-.47-.39a4.3,4.3,0,0,1-.6-6.4Zm2.23,3.88-6.67,8.16a1.83,1.83,0,0,0,.25,2.7l1.72,1.4a1.82,1.82,0,0,0,2.69-.29l6.67-8.16a1.82,1.82,0,0,0-.25-2.69l-1.72-1.41A1.83,1.83,0,0,0,129.22,575Z"/><path class="cls-1" d="M178.15,601.33l4.73,2.62-1.37,1.22-7.26,13.11a1.82,1.82,0,0,0,.72,2.61l1.95,1.07a1.82,1.82,0,0,0,2.6-.77l7.26-13.11.3-1.81,4.73,2.62-1.37,1.22-8,14.51a4.29,4.29,0,0,1-6.16,1.83l-4.71-2.61a4.3,4.3,0,0,1-1.72-6.19l8-14.51Z"/><path class="cls-1" d="M231.93,625.51l12.91,4-1.45,4.66-1.44-1.1-6.7-2.09-1.51,4.84,4.36,1.36,1.82-.09-1.64,5.25-1.45-1.1-4.36-1.36L231,644.74l6.7,2.09,1.82-.09L238,651.4l-12.92-4,1.1-1.47L232,627.34Z"/><path class="cls-1" d="M287.53,643.5l.54-4.85,14.15,1.59-.54,4.84-1.63-.81-3.3-.37-1.88,16.81.41,1.8-5.38-.61.81-1.65,1.88-16.81-3.3-.37Z"/><path class="cls-1" d="M346.22,640.92l13.48-1.06.38,4.86-1.75-.48-7,.55.4,5.05,4.56-.35,1.65-.76.43,5.48-1.75-.48-4.56.36.4,5,7-.55,1.66-.75.38,4.86L348,663.76l.48-1.78L347,642.6Z"/><path class="cls-1" d="M410,632.41l-1.05-1.61,4.32-1.2,13.11,20.12-5.21,1.45L421,649.4l-1.16-1.75-6.23,1.73-.09,2.09.84,1.57-5.22,1.45Zm3.85,12.51,3.66-1L414,638.61Z"/><path class="cls-1" d="M471.11,630.4,462.39,613l-1.33-1.27,9.38-4.72a4.31,4.31,0,0,1,6.09,2.07l6.16,12.28a4.29,4.29,0,0,1-2,6.12l-9.38,4.71Zm-3.85-17,6.46,12.86,3.68-1.85a1.81,1.81,0,0,0,.83-2.57l-4.72-9.41a1.83,1.83,0,0,0-2.57-.88Z"/><path class="cls-1" d="M511.9,581.53l10.74-8.23,3,3.87-1.73.54L518.3,582l3.08,4,3.63-2.79,1-1.53,3.34,4.36-1.73.55L524,589.38l3.09,4,5.57-4.27,1-1.53,3,3.87-10.74,8.23-.57-1.75-11.82-15.42Z"/><path class="cls-1" d="M554.92,543.43l7-7.84a4.3,4.3,0,0,1,6.42-.33l4.49,4a4.24,4.24,0,0,1,1.18,5.31l8.18,2.67-3.87,4.36-1-1.44-6.23-2-1.58,1.78,4.47,4,1.7.69-3.59,4-.89-1.61-14.52-12.92Zm6.37-.76,5,4.44L569,544a1.82,1.82,0,0,0-.18-2.7l-2.1-1.87a1.82,1.82,0,0,0-2.7.13Z"/><path class="cls-1" d="M596.4,487.59a4.3,4.3,0,0,1,6.24-1.53l11.81,7a4.3,4.3,0,0,1,1.63,6.22l-2.76,4.62a4.29,4.29,0,0,1-6.24,1.53l-11.81-7a4.3,4.3,0,0,1-1.63-6.22Zm15.21,10.9a1.82,1.82,0,0,0-.68-2.62l-9-5.39a1.83,1.83,0,0,0-2.64.64L598.11,493a1.82,1.82,0,0,0,.68,2.62l9.05,5.39a1.83,1.83,0,0,0,2.64-.64Z"/><path class="cls-1" d="M631.16,434.76l3.68,1.35-4.5,12.21L626.66,447Z"/></g></g></svg>