<svg xmlns="http://www.w3.org/2000/svg" viewBox="0 0 972.54 538.44"><defs><style>.cls-1{fill:#3b2532;}</style></defs><g id="Capa_2" data-name="Capa 2"><g id="Capa_1-2" data-name="Capa 1"><path class="cls-1" d="M99.92,14.14,105.4,0c10.55-.18,17.46,5.93,25,9.67,18.25,9.07,35.85,19.41,53.9,28.89,10.26,5.4,20.88,10.12,31.6,15.28l-7.2.72c3.18,6.28,8.52,9.93,13.8,13.34,13.85,8.94,27.92,17.53,41.91,26.25,18,11.24,35.65,23.23,54.2,33.53,25.8,14.32,52.37,27.22,78.46,41,27.27,14.4,54.33,29.18,81.54,43.7,18,9.6,36,19.32,54.2,28.44,10.76,5.37,13.37,4.49,21.72-3.68,1.2-1.18,2.25-2.53,3.48-3.93-16.66-9-33-17.7-49.14-26.7-40.59-22.65-80.87-45.86-121.7-68.06-27.06-14.72-54.86-28.09-82.34-42.06-5.77-2.93-11.56-5.82-18.64-9.39,12.88.53,22.46,6.91,32.31,11.36,25.71,11.61,51.25,23.75,76,37.22,45,24.48,89.44,50.08,134.13,75.18,2.23,1.25,4.59,2.28,8,4,3.55-3.85,7.07-7.53,10.44-11.35,11.8-13.36,23.23-27.08,35.45-40,6.52-6.92,14.16-12.87,21.74-18.67,3.68-2.81,8.38-4.29,12.7-6.41,8.28,5,16.9,8.17,22.23,16.09l-13-4.42c-12.65,28-30.71,51.73-52.2,73.63-16.42,16.74-34,32.33-47.28,52-8.52,12.57-17.67,24.72-26.87,36.8-12.45,16.36-20.22,35-28.64,54.28l25.59,9.95c7.55-4,7.92-4,11.87-10.07,6.9-10.53,13.94-21,20.21-31.89,13.92-24.23,30.08-46.69,49.51-66.85,14.47-15,28.49-30.48,42.71-45.74.89-.95,1.79-1.9,2.7-2.83s1.78-1.77,2.67-2.65l2.39,2.09C583.22,267,541.12,317.94,510.46,379l15.5,7.07c2.85-3.07,5.26-5,6.85-7.48,6.79-10.56,12.81-21.66,20.09-31.86,14.35-20.13,27.84-41.18,44.46-59.31,19.67-21.48,40.26-42,57.18-65.86,8-11.26,16.69-22,22.88-35.89L661,173.54l-14.37,19.4,8.9-27.81c12.71,9.41,25.46,18.78,38.11,28.28,1.16.87,1.7,2.56,2.53,3.87L682.56,190c-1.56,1.52-3.3,2.48-3.89,3.92-9.27,22.52-24.81,40.54-40.94,58.26-15.5,17-30.61,34.42-45.54,51.95-22.28,26.15-40.79,54.82-56.88,86.2l23.1,6.57c8.9-12.77,17.28-25.39,26.28-37.55,11.08-15,22.21-30,34.19-44.22,10.6-12.61,22.72-23.93,33.6-36.32,19.5-22.18,37.27-45.59,48.37-73.29l-5-8.8c7,5,14.55,9.38,21,15,41.19,35.41,82.22,71,125.45,103.94,20.12,15.34,37,34.22,54.23,52.76,12.4,13.38,25.27,26.34,38.23,39.17a79.09,79.09,0,0,0,13.54,10.17c25.78,16.29,29.07,37.55,18.75,67.16-1.57,4.5-3.93,8.75-5.3,13.31-7.24,24.19-23.89,36.71-48.55,38.48-16.87,1.21-33.83,1.77-50.75,1.75-39.25-.06-77.84-5.54-116.29-13.41-55.65-11.4-109.68-28.45-163.8-45.16-31.59-9.75-62.6-21.37-93.93-32-35.45-12-70.88-24.13-106.49-35.66-35.23-11.4-70.69-22.08-106-33.16-8.29-2.6-16.34-6-24.72-8.27Q198.18,356.65,145,343c-23.19-6-46.49-11.5-69.65-17.56-17.81-4.65-33.93-13.19-49.82-22.33-20.27-11.66-27.7-29.61-25-51.73,2.33-19,9-36.84,24.63-49,18-13.93,25-32.94,27.86-54.17,1.34-10.06,3.61-19.6,8.1-28.71,1.72-3.48,2.4-7.46,3.7-11.16Q80.86,62.84,97,17.32c.49-1.37,2.17-2.32,3.3-3.47-1.72,5.8-4.44,11.58.14,18.42C111,39,122.39,46.17,133.68,53.49c65.85,42.72,132.61,83.83,201.82,121,49.67,26.7,98,55.87,147,83.91,6,3.46,12.06,6.94,18.24,10.12,14.91,7.68,24.92,4.76,34.23-9.77a32.47,32.47,0,0,0,1.65-3.4c-2-6.72-7.34-9.47-12.89-12.26-22.89-11.48-46-22.67-68.46-34.86-30.55-16.54-60.53-34.11-91-50.85-46.76-25.72-93-52.33-136.89-82.71-28.2-19.52-55.84-39.88-86.62-55.25-10-5-20.79-8.59-31.28-12.65-1-.39-2.5.49-3.48.71ZM40.65,252.7l-8,8.37c11.77-.42,18.93-3.79,29.31-13.4L40.09,253l18.73-10.63c-4.92-3.21-9.4-.55-13.85.39-5,1.05-10,2.32-15.51,3.62l-9.58,9.9c5-.39,7.48-.35,9.82-.81C33.39,254.72,37,253.63,40.65,252.7Zm494.26,157,5.92,7.6c4-1.06,7-1.79,9.85-2.61s5.84-1.66,8.71-2.64c2.45-.83,4.84-1.87,7.89-3.07-5.24-4.14-9.54-2.15-13.71-1.62-6.39.82-12.76,1.76-19.13,2.65l17.64-8.81c-13.86-5.22-25.41-.6-38.77,4.16C524.59,410,524.59,410,534.91,409.66ZM888.1,521.58c-3.07-2.27-6.2-4.46-9.19-6.84s-5.75-4.51-10.21-3.48c13.95,18.92,13.95,18.92,20.58,20.11q-.24-4.41-.48-8.79l9.21,9.78,9.94-1.61c-6.13-8-11.16-14.82-16.58-21.35-2.39-2.87-5.65-3.45-9.43-.42C884.08,513.37,886.09,517.48,888.1,521.58ZM35.62,276.78c2.43,4.08,5,8.12,7.26,12.27,3,5.3,5.67,10.73,8.65,16,1.71,3,3.94,5.44,8,3.73-6.59-19.43-16.7-35.57-26.1-41,.79,3.32,1.44,6.06,2.1,8.8-2.45-2.87-5-5.64-7.33-8.62-2.9-3.74-5.64-7.57-12.26-8,5.61,11.85,10.62,22.8,16,33.57,2.53,5.1,6.25,9.08,13.74,8.74-3-5.71-5.84-10.57-8-15.72C36.41,283.57,36.27,280.06,35.62,276.78Zm41.32,35c5.47,2.87,7.84,11.44,17.62,9.15-7.63-12.16-14.72-23.52-21.88-34.84-1.63-2.58-3.74-4.31-7-3l6.86,21.24c-2.8-3.78-5.72-7.48-8.36-11.37-3.15-4.63-5.91-9.53-9.15-14.09-.88-1.24-2.86-1.68-4.34-2.49,4.54,12.88,10.54,24.23,16.7,35.49,1.95,3.57,4.75,5.86,9.19,4ZM588.19,471.53a47.74,47.74,0,0,1-3.88-4.81C576,453.4,567.86,440,558.53,424.85l-6.95-1.45,24.68,49,10,2.85c.7-1.83,1.16-3,1.62-4.27,4.79,3.35,7,11.29,15.52,8.45q-10.33-21.21-20.62-42.29c-2.37-4.83-5.48-8.62-12.74-7.53,5.17,10.73,10.22,20.83,14.91,31.1C586.52,464.11,587.14,467.92,588.19,471.53ZM79.06,89.57c9.23,6.35,17.86,12.93,27.08,18.54q59,35.87,118.2,71.23c24.55,14.7,49,29.54,74,43.57,34.77,19.56,70.1,38.08,104,59.26,17.61,11,35.94,20.94,54.31,30.67,9.06,4.8,19,8,29,12.2l14.14-22.83c-6-3.76-11.3-7.34-16.86-10.51-6-3.43-12.35-6.29-18.38-9.69-36.64-20.67-73.16-41.56-109.86-62.13-53.36-29.9-107-59.22-160.18-89.5-31.67-18-62.58-37.42-93.78-56.29-4.65-2.82-9-6.14-14.37-9.84Zm-11.36,34c-6.14,8.87-8,12.2-6.59,19.23,1.15,5.74,3.53,11.89,7.23,16.3a67.6,67.6,0,0,0,17,14q55.91,33.44,112.21,66.2c43.54,25.25,87.51,49.74,132.71,71.93a584.52,584.52,0,0,0,62.51,26.16c23.68,8.39,47,17.74,70.33,26.6l4.24-3.25c-1.55-2.51-2.59-5.48-4.66-7.29a125.05,125.05,0,0,0-15.44-11.92c-30.48-19.28-62.89-35.06-94.79-51.76s-63.81-33.51-95.29-51c-37.18-20.66-73.58-42.75-111-63-23.4-12.68-46.32-25.69-66.14-43.66C76.57,128.94,72.27,126.71,67.7,123.61ZM482,330.33c-4-2.4-7.23-4.55-10.64-6.28-12-6.08-24.33-11.48-36-18.12-24.87-14.15-49.25-29.17-74.09-43.38-38.77-22.17-77.76-44-116.66-65.93-21.14-11.94-42-24.39-63.51-35.69-30.06-15.81-59-33.22-85.46-54.63-5.26-4.25-11.41-7.42-17-11-9,11.37-9,20.6.5,29.34a164.61,164.61,0,0,0,23.87,18.06c19.12,12,38.46,23.67,58.07,34.82,52.44,29.82,104.92,59.58,157.68,88.83,44.38,24.6,89.17,48.47,133.81,72.63,6.33,3.42,12.8,6.6,19.76,10.18C475.78,342.32,478.7,336.65,482,330.33Zm34.2-49.63c-9.48-4.27-16.91-7.74-24.44-11-17.55-7.57-35-15.3-51.14-25.73-48.43-31.34-97.37-61.78-147.92-89.7-63-34.81-125.56-70.55-185.47-110.64-3.77-2.52-8-4.31-12.64-6.73C93.13,44.47,92,50.76,90.68,57.65c3.09,2.55,5.88,5.27,9.06,7.4,12.26,8.23,24.48,16.56,37,24.34,52,32.25,105,62.85,158.58,92.55C351.48,213.08,406.9,245.51,462.83,277c12.72,7.16,24.75,16.44,41.32,17.15Zm209.47-56.6c-5.57,10.33-10.5,19.37-15.35,28.46-16.65,31.17-36,60.18-62.25,84.43-16.23,15-31.59,31.06-44.17,49.47a164.18,164.18,0,0,0-14.43,24.87l26.28,7.47c3.28-4.43,7.09-8.2,9.27-12.75,8.42-17.67,21.76-31.17,35.72-44.35,24-22.68,47.72-45.69,63.36-75.43,7.65-14.53,15.36-29.06,19.67-45.78ZM316.34,312.47c.33-.8.67-1.59,1-2.38-5.83-3.61-11.47-7.61-17.54-10.75-23.48-12.15-47.35-23.55-70.61-36.1-59.91-32.33-120.08-64.29-174.72-107L48.08,178.7c4.36,4,7.83,8,12.07,10.93,21.48,14.7,42.69,29.89,64.9,43.42,23.32,14.2,47.88,26.35,71.49,40.1a160.87,160.87,0,0,0,38.15,16.5c24.78,6.86,49.47,14.05,74.21,21.07C311.35,311.41,313.86,311.89,316.34,312.47ZM682.8,434.6c2.46-2.44,5.32-4.53,7.2-7.28,10.35-15.15,22.79-28.39,35.7-41.35,7.6-7.62,13.88-16.61,20.27-25.34,4.6-6.29,8.47-13.12,12.54-19.79,6.32-10.36,13.23-20.44,18.6-31.28C781.84,300,788,290.74,789,279.26c-6.46-6.24-12.52-12.68-19.84-17.09-7.27,15.3-12.77,30.62-21.27,44-19.73,31.17-39.91,62.12-68.42,86.57-10.45,9-18.2,20.51-24.06,34Zm-99.92-26.89c8.4-11.23,16.51-21.38,23.86-32,12.12-17.59,25.48-34.08,40.92-48.85,30.46-29.15,53.39-63.66,72.36-101.12-.39-9.26-6.7-13.12-14.3-16.61-1.28,2-2.34,3.35-3.09,4.86C692.14,235,679.89,254.82,664,272.31c-18.13,19.91-36.17,39.92-53.69,60.36s-33.55,41.79-44.73,66.72C569.86,404.74,576.05,405.3,582.88,407.71Zm255.69-85.54c-5.11-10.36-10.4-16.64-21.82-15.76-2.51,3.46-5.78,7-7.92,11.12-3.39,6.52-5.69,13.62-9.05,20.16-15.89,30.9-32.84,61.14-54.66,88.39-4.46,5.58-8.19,11.75-12.7,18.3l17,8.62c-6,2.91-10.38,4.85-14.6,7.12s-8.35,4.73-12.32,7.4c-1.42,1-2.26,2.78-4.15,5.23,10.92-1.75,25.41-10.51,35.12-20.46l6.82-1.44c5.64-6,10.37-11.73,15.87-16.63,18.46-16.44,33.44-35.22,42.1-58.68C824.91,357.61,831.86,339.81,838.57,322.17Zm-187,102c2.53-4.38,5.45-9.58,8.52-14.69,4-6.65,7.46-13.75,12.31-19.71,6.55-8.07,14-15.46,21.41-22.77,25.59-25.16,46.71-53.54,62.39-85.86,3.18-6.55,5.86-13.33,8.36-19.09-4.75-10.27-4.75-10.27-15.93-16.36-.81,1.46-1.75,2.87-2.42,4.4-5.8,13.07-11.09,26.4-17.43,39.2C719,309,704,324.69,688.54,340.08Q666,362.64,644.14,385.9C635,395.68,628,407,621.92,420.33,631.2,423.32,639.23,427.78,651.54,424.17Zm161-123.33c-2.95-9.23-9.52-13.51-19.17-15.37-6.5,13.37-13.16,26-18.89,39-10.07,22.92-24.54,42.81-41.18,61.19-10.48,11.59-21.8,22.4-32.66,33.65-4.86,5-7.93,10.51-2.69,17.37l25.82,7.34c13.23-17.33,27-34,39.24-51.74C782.64,363.73,797.2,332.24,812.53,300.84ZM187.51,278c-46.75-30.65-97.07-55.48-140.95-92.89l-9,31.62c8.73,8.88,17.71,17.71,29.83,22.23,13,4.86,26.07,9.71,39.35,13.78,19.18,5.88,38.63,10.86,57.84,16.62C172.39,271.66,179.88,275.05,187.51,278Zm657.85,47.41c-5.33,15.05-10,30.39-16.15,45.14C817.82,398,804.12,424,779,441.93c-3.76,2.68-6.34,5.94-4.43,11.25L794,458.7a45.56,45.56,0,0,0,4.38-4.07c7.06-8.75,14.14-17.5,21-26.4,5.56-7.19,11.16-14.39,16.21-21.94,10.51-15.72,15.28-34,21.84-51.44C862.9,340.41,859.52,334,845.36,325.37Zm14.55,140.9c6.61-1.79,12-4.4,15.51-9.85,11.16-17.24,19.94-35.55,23.85-55.84,3-15.33-3.95-29.24-19.19-38.42-.54,4.68-1.57,8.85-1.39,13a60.78,60.78,0,0,1-8,33.65q-13.19,23.09-26.16,46.31c-1.39,2.48-2.48,5.13-4.22,8.78ZM562.59,228.19c17.86-19.75,35.24-37.45,48.81-58.27,3.46-5.31,5.41-11.75,7.23-17.91.67-2.26-1-5.22-1.69-8-19.43,7-68.18,56.86-73.36,74.65ZM867.27,345.56c-5.5,7.62-8.79,15.19-9.64,23.44-3.34,32.2-20.07,56.66-43.93,77.05-3.45,2.95-6.67,5.65-5.51,11.76,5.7,7.36,14.12,4.85,20.92,4.69,3.82-5.85,7-11,10.44-15.93,5.66-8.2,11.83-16.07,17.1-24.52,6.42-10.28,13.16-20.65,15.34-32.81,2-11,2.83-22.29,4.26-34.14Zm50.83,53.71c-4.72-4.72-8.05-9.06-14.08-12.11,2,29.56-14.6,51.8-25.43,76,11.58,3.28,13.51,3.13,24.56-1.76C914.43,442.64,918.79,421.86,918.1,399.27ZM935,456.12c4.27-10.51,4-20.9,4.38-31.28.42-10.09-6-14.11-14.7-19.16-2,11.05-3.31,20.77-5.58,30.27s-9.69,17.13-9.48,27.84C918.36,461.69,927.71,463.64,935,456.12Zm-402-38.3c8.11,16.51,15,30.8,22.2,45,.91,1.82,2.81,3.27,4.52,4.52,2.69,2,5.44,2.26,8.45-1.88L543.84,420.9ZM309.36,344.9c6.92-2.37,14-4.5,20.78-7.22s14.57-3.31,22.54-10.34c-7.1-.56-12-2.13-16.15-1-13.6,3.52-28,5.25-40.89,14.71ZM533.74,457.22c-7.62-15.94-14.59-30.24-23.51-43.52-2.26-3.36-5.15-5.55-10.07-4,5.94,12.75,12,25.16,17.53,37.82C520.45,453.85,524.85,456.84,533.74,457.22ZM354.1,358.14,397.49,344,382,339.61c-13.21,3.64-27.77,5.3-41,14.81Zm-216.82-52c-.52.86-1.05,1.72-1.57,2.59L156,340.29c4.61,1.3,8.58,3.8,13.67,2.84C161.12,325,153,313.87,144,308.13,142.08,306.92,139.53,306.77,137.28,306.13Zm73.14,13.68c12.87,3.87,13.85,4.35,18,2.37,12-5.75,23.81-11.86,36.08-18-9.81-3.56-10-4-17.76-.83C235.18,308.09,224,313.61,210.42,319.81ZM699.78,508.13l-21.36-43.69c-2.62-1-3.8-1.62-5-1.8s-2.47.14-5.18.35l19.35,41.66ZM516.24,412.77c7.12,14,14,27.45,20.77,40.9,2.51,5,5.17,9.72,13.07,10.5-6.29-18-16-32.78-23.51-48.46ZM201.84,288.5a16.11,16.11,0,0,0-16.63-1.81c-11.3,4.84-22.27,10.47-34,16.07,5,5.85,10.08,5.79,14.9,3.53C177.79,300.81,189.23,294.82,201.84,288.5ZM945.29,423.2c-1.41,12.12-2.64,22.69-3.91,33.7,9.87-2.45,15.85-8.21,19.47-16.62C960.31,430.6,955,425.45,945.29,423.2Zm-772.72-107c6,9.5,11.71,18.56,17.52,27.55a26.65,26.65,0,0,0,4.89,6c3.69,3.11,7.78,5,12.34,1.47-5.89-8.69-11.54-16.85-17-25.15C186.28,319.93,181.32,315.65,172.57,316.18Zm-.85-5.42,11.27,1,40.41-16.53C203.11,289.75,187.09,298.6,171.72,310.76ZM651.66,493.51c-6.37-12.95-12.54-25.84-19-38.56-2.55-5-6-9.34-14.51-9.31,8.47,15.56,16.23,30,24.21,44.37C644.16,493.29,647.35,494.62,651.66,493.51ZM715.29,512c-1.68-7.52-17.12-38.36-21-41.88-2.48-2.27-5.4-3.33-9.6-2.62,7.31,14.89,14.15,28.83,20.91,42.62ZM362.9,359.6c12,6.07,14.49,6.87,21.26,4.51,10.15-3.54,20.12-7.61,30.24-11.48-2.61-4.41-6.25-5.64-10.34-4.55C390.74,351.65,377.5,355.49,362.9,359.6ZM252.83,328.05c4.26,3.88,8.56,4.4,12.78,2.83,12.38-4.59,24.64-9.52,37.72-14.61C291.39,310,279.22,313,252.83,328.05ZM602.27,441.72c8.46,14.92,16.62,29.59,25.13,44.06a7.15,7.15,0,0,0,8.71,3.24c-7.48-13.95-14.76-27.78-22.32-41.45C611.72,443.83,609.26,439.8,602.27,441.72ZM444.73,425.37c.39-.7.79-1.39,1.18-2.08-3.22-6.61-6.46-13.21-9.67-19.83s-6.41-13.28-9.21-19.1l-11.09-1.61a290.58,290.58,0,0,0,21.3,38.78C438.54,423.57,442.17,424.13,444.73,425.37Zm-73.52-88.32c-10.62-6.87-19.08-1.84-27.47.64s-16.54,5.77-27.47,9.66l15.48,4.41ZM96.85,287.75l12.56,3.57,40.31-21C128.24,265.5,114.65,279.33,96.85,287.75Zm226.83,35.69c-3.43-5.89-7.38-5.07-11-3.9-10.66,3.45-21.26,7.11-31.81,10.9-2.48.9-4.67,2.61-8,4.53L286,338.71ZM762.43,521.89l2-2.56c-6.64-10.7-13.21-21.44-19.93-32.08-2.07-3.27-4.22-6.87-9.9-5.07C737.31,494.7,746.82,504,750,517ZM610.11,482.37l9.07,2.58c-7.31-14.42-14.85-29.43-22.56-44.36-1.7-3.3-4.55-4.88-8.71-3.46Zm27-32.49-1.74,1.47c7.34,14.61,14.55,29.27,22.16,43.73.93,1.77,4,2.44,8.91,5.26-7-17.4-12.49-31.87-21.29-44.77C643.45,453,639.87,451.74,637.15,449.88ZM244.3,298.6c-3.56-3.48-7.61-2.31-11-1.14-12.22,4.13-24.29,8.7-36.39,13.18-.59.22-.89,1.21-1.58,2.2l7.92,5.93ZM950.22,483.89c8.65-9.63,10.85-16.48,9.26-27.84-.05-.37-1-.61-1.79-1-1.31,2.58-2.53,5-3.68,7.29l-5.31-2.65c-5.45,11.07-10.73,21.76-17.06,34.62C943.18,489,944.92,479,951.4,472.11,951,476.11,950.66,479.58,950.22,483.89Zm-101,16c3.95,4.24,7.41,3.19,10,.87,10.21-9.06,20.2-18.38,27.49-30.58-4.22.46-8.82.87-11.5,3.35C866.19,481.93,857.84,491.05,849.21,499.9ZM745.57,519.4c-2.89-13.47-16.67-38.75-21.47-39.24l-4.5,3.41c5.57,10.26,10.8,20.56,16.78,30.41C737.81,516.35,741.71,517.23,745.57,519.4Zm-610-185.23c3.05,1,7,2.33,13.76,4.6l-23.48-36.44-12.23-3.48C121.07,310.91,127.62,321.46,135.53,334.17Zm93.62,24c-7.77-10.88-13.94-19.78-20.4-28.47-3.31-4.46-7.25-8.28-14.93-6.55,7.39,11.05,14.3,21.39,20.63,30.84Zm-91.93-58.93c2,.22,4.33,1.2,6,.53,13-5.36,25.83-11,41.71-17.9-5.4-1.53-7.78-3.06-9.74-2.63C161.12,282.24,148.38,288.21,137.22,299.21Zm306.29,62.24c-12.34,4.39-24.28,6.18-36.52,14.25,19.45,4.94,33.46-5.05,51.6-8.79Zm421.43,141.4c8.93.57,8.82.41,11.69-1.67,7.74-5.63,20.55-22.79,23-31C890.8,472.22,888.58,474.29,864.94,502.85ZM468.81,399.74l-2.32,1.69c6.18,13.57,13.64,26.5,21.43,39.23,1.58,2.59,4.26,4.33,8.57.83C489.63,429.37,482.85,417,475.63,405,474.26,402.69,471.13,401.46,468.81,399.74ZM514.37,451c-7.81-17.53-13.68-32.35-24.63-44.33-1.05-1.16-3.45-1.1-7.27-2.18l23.16,43.26ZM127.92,330.81c-6.58-10.8-12.29-20.5-18.36-30-2.6-4.07-6.21-7.12-11.25-6,5,9.59,9.84,19.31,15.07,28.81C116,328.46,120,331.73,127.92,330.81ZM682.88,503c-8-14.79-15.06-28.19-22.53-41.36-1.2-2.11-4.23-3.18-6.41-4.74l-1.6,1.48,19.19,41.79a50,50,0,0,0,5.2,2.24C677.91,502.73,679.23,502.63,682.88,503ZM118.26,292.77c5.27,4.22,9.26,3.28,13.36,1.13q11-5.76,22.07-11.34c3.74-1.89,7.58-3.59,11.37-5.38-3.4-2.36-6.37-2.88-8.85-2C143.26,279.7,129.21,282,118.26,292.77Zm128.92,41.41,21.74,32.48,12.83,3.65L260.54,338Zm189.34,23.73c-4-1.12-6.1-2.48-7.86-2.11-10.94,2.36-21.86,4.91-32.66,7.84-3.34.91-6.3,3.2-12,6.19l18.91,2ZM701.17,472.53c6.9,13.12,13.08,25.08,19.49,36.91,2,3.66,5.14,5.62,9.93,3.86-6-11.85-11.73-23.56-17.83-35.08C710.93,474.77,708.11,471.83,701.17,472.53Zm-302-94c8.42,14.64,14.16,27.09,22.39,38.11,1.26,1.7,4.27,2.09,7,3.34-1.85-8.22-16.77-36.66-21.17-40.2C406.33,378.87,404.28,379.21,399.15,378.5Zm459.59,92.09c-4.34-2-7.51-.49-10.07,1.22-9.63,6.44-18.88,13.37-25.81,23.47,9.78,2.23,9.94,2.39,15.52-3.21C845.08,485.33,851.48,478.29,858.74,470.59Zm-378.53-33c-12.69-28.78-16.83-34.67-28.89-40.18,6.48,13.15,12.46,25.3,18.64,37.83ZM262.89,364.87c-8.47-12-15.32-22.32-22.89-32.07-2.06-2.65-6.26-4.85-10.59.05C240.73,342.51,242.82,360.66,262.89,364.87Zm-20.16-38,39.7-17.05c-6-4.59-11.43-3.08-16.51-.87-9.86,4.27-19.53,9-29.24,13.67-.41.2-.41,1.28-.7,2.33ZM459.34,431.36l2.3-1.81c-3.59-7.72-6.84-15.62-10.89-23.1-3.82-7.06-5.87-16.05-18.27-19.15,8.33,15.35,15.44,28.61,22.76,41.74C455.9,430.21,457.94,430.6,459.34,431.36Zm-114.7-40L328,356.84l-11.67-3.32L335,384.17c.45.74.87,1.5,1.36,2.22C338.69,389.88,341.77,391.8,344.64,391.34ZM794.13,525.52C787.68,514.4,782,504.3,776,494.34c-2.18-3.64-5.67-5.18-10.9-4.22,5.79,10.56,11.31,20.82,17.06,31C784.24,524.81,787.77,526.28,794.13,525.52Zm-16-2.32c-5.66-13.16-12.31-25.09-21-35.82-1.14-1.41-4.12-1.32-7-2.13,6,11.39,11.42,21.71,16.89,32C769.15,521.12,771.32,524.89,778.13,523.2ZM68.63,275.89c3.54,3.4,6.52,3.62,10.06,1.89,11.56-5.69,23.2-11.22,34.94-16.88-3.59-3.62-7.67-2.48-11.8-1.2C90.07,263.35,78.16,266.68,68.63,275.89ZM83.68,281l9.93,3.32,35-18.07C111.9,265.73,97.61,271.06,83.68,281Zm71.91,30.28c5.82,9.19,10.35,16.41,14.94,23.58,1.85,2.91,3.84,5.72,5.76,8.58,2.59,3.86,6.17,5.11,11,4.64C174.85,323.8,167.71,315.06,155.59,311.32Zm238.9,97.44c-10.15-27.07-17.43-36.92-26.82-38.34,6.18,11.34,11.62,22.08,17.88,32.31C387.25,405.52,391.44,406.79,394.49,408.76Zm491.07,90.71c7.35,1.24,9.87.48,14.49-5.72,4.86-6.53,9.38-13.32,13.86-20.12.82-1.24.79-3,1.24-4.95C906.15,471.06,906.15,471.06,885.56,499.47ZM333.92,357.58c13.69,27.07,20.41,36.09,28.86,38.67-2.88-13.66-12.41-22.95-19.19-33.65C342.28,360.54,338.66,359.94,333.92,357.58ZM809.41,495.29c14.06-7.51,24.41-16.47,30.23-25.78-10,1-14.17,3.55-35.74,21.77Zm-698.18-168c-7.45-12.55-13.5-22.89-19.71-33.14-1.92-3.17-4.84-4.78-8.75-4,4.18,12,14.69,31.34,19.25,34.37C103.88,325.84,106.46,326,111.23,327.34Zm274,48.75c4.89,12.31,15.34,31,19.8,34.53,1.49,1.18,3.72,1.44,8.24,3.08-6.91-12.49-12.47-22.67-18.19-32.77A9.12,9.12,0,0,0,385.27,376.09Zm89.23-1.35c-7.06-5.72-13.92-3.91-20.5-1.83s-14.19,1.36-20.13,7.88L447,384.52ZM212.18,327.81c7.21,9.67,13.62,18.35,20.15,26.94,1.29,1.7,2.85,3.56,4.71,4.36s4,.11,6.73.08c-6.35-9-11.81-16.78-17.4-24.51C223.31,330.44,220.25,326,212.18,327.81Zm596.16,200,1.57-2.33c-6.88-9.74-13.66-19.55-20.79-29.11-.94-1.26-3.68-1.18-6.72-2.05,4.09,12.33,11.27,21.53,17.83,31C801.5,527.08,805.57,527,808.34,527.77ZM463.19,392.32l30.41-11c-13.83-5.48-25.36,1.42-37.46,4.68-.53.15-.77,1.37-1.52,2.82Zm-164-43.72c7.87,12.15,14.84,22.9,21.82,33.65,2,3.07,4.52,4.69,9.06,2.79-6.21-12.3-14.56-22.65-22.3-33.35C306.52,349.92,302.89,349.85,299.22,348.6ZM795.94,463.3c-8.15-1.07-12.21.31-25.18,9.35-3.51,2.44-8.34,4.25-8.22,10.16C772.8,481.38,788.21,472.23,795.94,463.3Zm-481-81.21c-5.05-7.92-8.57-14.4-13-20.16-4.25-5.48-7.67-12.3-18-15.4,8.53,13.15,15.38,24.14,24.09,33.82C308.9,381.35,311.09,381.19,314.92,382.09ZM490.2,399.27c13.47,4.66,26.31,2.35,38-5.73-2.22-3.4-5.53-3.75-9-3-5.86,1.24-11.72,2.58-17.48,4.2C498.46,395.64,495.38,397.2,490.2,399.27Zm299.48,90.89c11.18-1.67,30.53-14.56,34.75-22.23C813.71,469.52,799.09,478.58,789.68,490.16Zm-65.6-41.88c-9-.45-24.9,5-33.87,10.77-.49.31-.41,1.52-.74,2.9l4.91,3.94A165.16,165.16,0,0,0,724.08,448.28ZM379.42,402.79c-6.95-13.09-13.11-24.72-19.35-36.3-.35-.65-1.37-.93-2.58-1.7l-4,1.75C361.66,386.74,369,397.42,379.42,402.79ZM877.15,534.46c-4.79-11.57-12.93-23-18.43-26.34-1.5-.93-3.74-.66-7.89-1.27C858,518.33,863.87,527.78,877.15,534.46ZM91.51,256.8a40.72,40.72,0,0,0-35.82,14.34C64,273.33,64,273.33,91.51,256.8ZM690.87,439.7A93.17,93.17,0,0,0,656,450.63C667.53,456,674.14,454,690.87,439.7Zm249.52,23.5c-9.77,9.58-16.56,21.11-21.76,33.69C931.87,489.59,936.08,476.37,940.39,463.2ZM930.67,465c-9.87,2.4-12.06,9.62-15.75,15.16s-9.67,10.21-9.91,20.1C917.06,490.21,923.77,479,930.67,465Zm-119.06,0c-5.08.52-7.52,0-9,1-8.38,5.75-16.55,11.83-24.71,17.91-.21.16.44,1.49.7,2.27C787.27,485,795.53,479.82,811.61,465Zm-64.85,11.93c6.8,2.62,6.91,2.78,9.8.85,7.89-5.26,15.68-10.67,25.07-17.08-4-.37-6.91-1.56-8.7-.63C763.81,464.75,754.55,469.37,746.76,476.91Zm167,55,8-4.55c-7.78-7.93-14.55-14.92-21.49-21.74-.52-.52-2.22.16-5.2.48ZM471.38,395c6.63,7,12.65,1.4,18.62-.68,6.13-2.13,12.13-4.62,19.83-7.59C498,384.45,485.58,387.36,471.38,395ZM938,525.27l5.93-2.82c-5.46-7.86-9.74-16-18-20.56-1.41-.78-3.71.05-8,.25Zm-127.3-23.76c4.55,7.34,8.8,14.21,13.06,21.06.91,1.47,1.58,3.33,2.89,4.25,2.15,1.51,4.73,2.39,8.58,4.23C824.59,509,819,502.12,810.74,501.51Zm-12-5.71L796,497.92c6.41,9.55,12.7,19.19,19.37,28.56,1,1.37,3.77,1.45,8,2.94C815.06,516,808.75,504.5,798.78,495.8Zm-66.56-21.25c9.74.1,22.32-7.07,32.79-17.55-1.31-.45-2.8-1.53-3.58-1.15A146.78,146.78,0,0,0,732.22,474.55Zm-95.35-44.4c-10.66-4.76-20.71-1.26-30.69,2.53-.52.2-.73,1.23-1.3,2.26l9.87,2.81Zm295.21,97.09c-8.88-15.45-14.72-21.37-22.86-23.5,3.82,9.54,7.69,14.51,19.63,25ZM293.26,375c-1.86-10-17.08-30.32-25.94-35.2C275.75,353.21,282.62,365.42,293.26,375ZM957.4,485.1c11.83-10.76,14.1-27.37,6.85-41.36C966.29,457.27,962.21,469.84,957.4,485.1ZM639.56,444.56c-.11,1.05-.21,2.11-.32,3.16,3.25.3,6.85,1.65,9.69.71,7.81-2.61,15.3-6.17,25.38-10.39C660,436.34,649.69,440.18,639.56,444.56ZM738.69,451c-14.57,1.46-24.66,7.17-30.56,16.08C716.38,467.12,716.38,467.12,738.69,451Zm107.75,80.33,2.52-2.09c-5.83-8-11.58-16-17.59-23.85-.77-1-2.93-.94-6.15-1.86C831.62,515,835,526.36,846.44,531.35Zm-5-26.25-2.82,1.58c3.23,4.94,6.28,10,9.76,14.79,3.28,4.47,5.6,10.57,14.3,10.16C856,521.29,850,512.21,841.43,505.1Zm-.55-6.34c9.89-7.69,19.91-15.26,26.25-26.44C855.05,477.74,848,488.29,840.88,498.76ZM82.67,251.89C69.05,249.62,51.92,257,45.31,267c5.29,2.21,7.83-2.23,11.25-4.17A139.56,139.56,0,0,1,69,256.06C72.77,254.44,76.85,253.63,82.67,251.89Z"/></g></g></svg>