<?xml version="1.0" encoding="utf-8"?>
<!-- Generator: Adobe Illustrator 23.1.0, SVG Export Plug-In . SVG Version: 6.00 Build 0)  -->
<svg version="1.1" id="Capa_1" xmlns="http://www.w3.org/2000/svg" xmlns:xlink="http://www.w3.org/1999/xlink" x="0px" y="0px"
	 viewBox="0 0 1038.8 871.5" style="enable-background:new 0 0 1038.8 871.5;" xml:space="preserve">
<style type="text/css">
	.st0{fill:#602112;}
</style>
<g>
	<g id="Capa_1-2">
		<path class="st0" d="M519.7,387.9c1.8-2.5,2.9-3.9,4-5.4c-0.5-1.8-0.9-3.4-1.2-4.4c1.3-6.1,2.5-11.8,3.7-17.4h-0.1
			c0.9-3.6,1.6-7.2,2.8-12.3c-0.5-3.1,0.1-7.5,2-12c0.9-1.9,0.8-4.2,0.9-6.3c0.4-5.1,0.6-10.4,2.5-15.2c0.6-2.9,1.1-5.7,1.7-8.5
			c1.2-5.9,2.6-11.7,3.5-17.7c1.7-3.5,3.6-6.9,1.9-10.8c1.6-5.1,3.1-10,5-16.3c-1.1-5.5,2.5-11.4,4.7-17.7c0.9-2.4,1-5.1,1.4-7.2
			c1.4-4,2.3-7.6,3.9-11c3.2-6.5,3.6-14.2,9.1-19.6c0.2-2.2,0.5-4.3,0.8-6.9c3.5-2.4,4.7-6.3,6.2-10.4c2.3-6.4,5.3-12.8,11.4-17.2
			c1.3-9.3,7.3-16,14-22.8c2.7-6.3,6.7-12,11.8-16.6c3.5-4.6,6.3-8.2,9.1-11.7l4.5-2.6c0.3-3.8,3-5.9,5.8-8.2
			c3.2-2.7,5.9-6.2,9.5-10.2c4.4-1,8.5-4.6,12.8-8.1c5.8-4.6,12-8.7,18.4-12.3c3.4-2,6.7-4.5,10.3-6.2c3.3-1.7,6.8-3.1,10.5-4.1
			l3.7-3l10.8-1.7c2.8-4.8,8.4-3.2,12.7-5c2.6-1.1,5.6-0.9,8.4-1.2c3.7-0.4,7.5-0.5,11.2-1.1c4.4-0.7,8.7-1.6,13.2-0.1
			c2,0.7,4.6,0,6.8-0.5c4-1,8.1-1.2,12.1-0.7c5.6,0.6,11.4,0.2,17,0.1c3.9,0,7.8-0.3,11.7-0.2c1.4,0,2.7,0.7,3.9,1.1
			c1.7-0.6,3.3-1.6,4.9-1.6c4.7,0,21.2,4,26.1,6.1c4.7-0.5,9.7-0.7,13.3,3.8l2.5-0.3l16.6,8.5c0.8,2.9,4.5,3.5,7.4,4.3
			c2.8,0.6,5.3,2,7.3,4.1c2.1,2.3,4.5,4.1,7.8,3.7c0.6,1,1.1,1.7,0.9,1.4c3.6,1.9,6.2,3.2,8.6,4.7c1.6,1,3.1,2.2,4.4,3.6
			c2.3,2.4,4.4,4.9,7.4,6.8l1.1,4.9l3.6,0.5l-0.6,0.6l9.5,10.1l1.1-1c0.3,1.2,0.5,2.4,0.8,3.4c6.3,1.9,6.1,8.7,9.7,12.6
			c3.8,4,6.2,8.9,8.4,14.7l2.2,1.3c2.6,7.8,10.7,13.2,9.8,21.5l6.4,14.9c0.1,3.1-3.2,3.8-1.5,6.5l2.3-1.1c2.2,2,1.2,4.5,1.2,6.8
			l3.5,21.4l-0.9,0.3l2.4,2.8v23c1.1,2.6,1.3,6.5,0.9,10.8c-0.7,5.8-0.9,11.7-0.6,17.5c0.5,7.6-0.7,15-1.9,22.3
			c-0.3,1.7-1.3,3.2-1.6,4.9c-1.1,3.4-2.1,6.7-3.2,10.1c-0.7,2.2-0.9,4.6-1.9,6.6c-2.6,4.7-1.6,10.9-6.3,14.1
			c-1.4,5.7-1.8,11.1-5.6,15.7c-2,2.4-4.3,5.3-4.5,9.1c-0.1,1.4-1.5,2.8-2.4,4.1c-2,3.1-4.1,6.2-6.5,9.9c-4.2,2.2-6.2,6.9-8.4,11.8
			l-4.7,2.3c-8.3,11-17.9,21-28.5,29.8c-2,1.8-4.3,3.2-6.7,4.4c-7.6,3.1-13.7,8.4-20,13.3c-1.6,1.2-3.4,1.9-5.4,2.1
			c-0.7,1.2-1.3,2.4-1.5,2.8l-9.9,6.8l-2.6,0.6c-3.1,2.4-5.4,4.3-7.8,6c-6.6,4.7-14.1,7.4-21.5,10.5c-2.9,1.2-5.4,3.3-8.3,4.7
			c-7,3.4-14.1,6.6-21.2,9.9c-1.3,0.6-2.8,1.1-3.8,2c-5.3,5.3-13.3,4.9-18.8,9.4l-2.5-3.2l-2.1,4.5c-4.8,2.9-4.8,2.9-8.5,2.7
			c-2,1-4.1,1.8-6.2,2.6c-7.5,2.2-14.9,4.7-22.5,6.3c-5.7,1.2-10.8,4.6-16.9,4.5c-1.5,0-3,1.1-4.4,1.8c-4.7,2.2-9.5,3.9-14.8,4.3
			c-2,0.2-3.9,1.5-5.9,2.2c-5.5,1.7-11,3.4-16.5,5c-4.9,1.4-9.8,2.7-14.6,4.3c-3.7,1.1-7.4,2.2-11,3.5c-1.6,0.6-3.6,1.1-4.7,2.3
			c-2,2.2-4.3,3-7.1,3.2c-2.8,0.2-5.3,0.3-7.4,2.6c-0.6,0.6-2,0.5-3,0.9c-2,0.7-4.2,1.2-5.9,2.4c-3.6,2.6-7.2,4.5-11.7,3.9
			c-1.6,2.7-0.5,4.7,1,6.5c0.9,1.1,2,2.1,3.2,2.8c6.2,3.5,10,9.6,15,14.4c3,2.8,5.4,6.3,8.5,10.1c4.1,1.4,6.6,5.3,8.7,9.9l7.6,1.1
			c0.7,1.8,1.4,3.8,2.2,5.7l0.5-0.3l7.5,9.5l-0.2,0.1c2,1.9,4,3.8,6,5.7c2.2,2.1,4.4,4.2,6.7,6.1c3.8,3.2,7.7,6.3,11.2,9.9l3.8,0.9
			c2.6,3.2,5.2,6.5,8,9.7c1.2,1.4,2.6,3.1,4.1,3.9c3,1.5,5.6,3.1,6.3,5.3c10.5,5.8,19,12.2,26.3,21.5l2.6,0.9l-0.3,0.4l14.3,11.7
			l0.1-0.2c2.6,1.7,5.2,3.4,7.8,5.1c3.8,2.5,7.5,5.1,11.2,7.6c0.6,0.3,1.3,0.7,1.9,1c4.8,4.5,10.5,7.7,16.1,11.1
			c1.8,1.1,3.1,2.8,5.1,4.7l3.3,1.1l2,5.7l4.3,1.5l1.3,3.5c5.3,1.7,6.1,6.6,7.8,10.8c1.8,4.4,2.9,8.8,1.4,12.1
			c0.1,10.1-0.6,18.4-6.1,26c-2.7,3.8-5.4,7.8-6.5,12.7c-0.3,1.4-1.7,2.7-2.8,3.7c-1.7,1.5-3.4,3.3-5.4,4.1c-4.7,1.8-9,4.6-14.4,4.4
			c-4.8-0.1-9.6,0.2-14.4,0c-2.5-0.1-4.9-0.7-7.2-1.8l-4,1.7l-2.7-1.6c-0.4,0-0.7,0-1,0.1c-2.5,1.1-5.4,0.9-7.7-0.6
			c-5-3.4-10.9-4.1-16.5-6.8l-3.3-6.6l-4.2-0.9l-12.8-12.5c-5.9-0.9-9.6-6.5-12-13.2l-5.3-1.5l-4.2-7.8c-6.5-2.1-7.9-8.5-11.2-14.2
			l-7.5-5.6c-0.5-1.8-1-3.3-1.5-5.1l-4.1-0.5c-0.6-1.5-1.3-3.3-1.7-4.3c-8.9-7.5-13.4-17.8-22.1-25.8l-3.4-0.7c-2.6-3-3.9-7.9-9-7.2
			l-10.4-15.5l-8.6-7.7l-4.1,0.9l-8-10.6l-3.4-0.6l-8.9-8.1l-0.2,0.2l-8.8-7.4l-0.2,0.3l-9-8c-0.1,0.2-0.2,0.4-0.3,0.5l-15.8-8.1
			c0.1-0.2,0.2-0.4,0.3-0.6l-13.1-4.8c-1.2,0.9-2.3,1.8-3.4,2.9c-4,4.8-7.9,9.7-11.8,14.5c-2.6,3.2-4.8,6.4-7.8,9.3
			c-5.3,5.1-9.4,11.4-14,17.1c-1.3,1.6-2.9,3.1-4.1,4.8c-4.7,6.6-9.1,13.6-14.2,19.8c-4.1,5-6.8,10.8-11.5,15.5
			c-3.2,3.5-5.8,7.6-7.6,12c-2.1,4.6-5.8,8.5-8.6,12.8c-1.3,2.1-2.2,4.4-2.8,6.8c-2.4,3.3-4.8,6.7-7.4,9.9c-2.5,3.2-5.2,6.2-7.9,9.3
			l-3.8-0.4c-0.3,2.4-0.5,4.8-0.8,7.2l-12.8,14.3c-0.1,0.3-0.3,1.7-0.5,2.6l-4,6.2l-8.6,9.6l-8.1,5.7l-2.6,0.4c-0.2,1-0.4,2-0.6,2.9
			l-12.6,6.8l-13.5,3.3h-11.7l-2.6-1.5l-3.4,0.9l-16.8-12.5c-1.4-2.6-3.7-6.2-5.2-10.1c-2.7-6.5-5.1-13.2-7.1-19.9
			c-0.9-3.1-0.9-6.5-2.2-9.7c0.3-8.9,0.5-17.8,0.9-26.8c0.2-1.6,0.6-3.1,1.3-4.6c0.8-2.3,1.8-4.6,3.1-6.8c1.3-3,2.7-6.1,4-9.1
			c1-2.5,2.4-4.8,4.1-6.8c-0.2-1.4-0.3-2.8-0.5-4.5c5.2-6.7,9.6-14.4,17.7-18.5c0.3-1.9,0.5-3.5,0.7-4.9l14.9-13.8l-0.7-2.9
			c4.8-4.5,10.5-8.5,14.4-13.8c4.5-6.1,11.1-9.9,15-16.5c1.7-2.9,5-4.9,7.3-7.7c4-4.8,8.5-8.9,14.5-13.4l3.9-1.2l0.4-2.6
			c4-3.3,9.6-4.9,11.6-10.9l9.1-1c-0.8-1.3-1.4-2.3-2.2-3.6l4.3-7.1c5.2-2.6,9.7-6.1,12.2-11.9c-1.5-0.6-2.8-1.2-4-1.7
			c-1.3-0.5-2.9-0.6-4-1.4c-5.5-4.2-12.1-4.1-18.5-5.1c-7.2-1.2-14.3-3.1-21.4-4.6c-1-0.2-2.1-0.9-3.1-0.7
			c-4.6,0.6-9.2-0.4-13.1-2.8c-6.6,1.4-12.6-0.4-18.7-1.1c-3-0.4-5.8-1.5-8.9-0.7c-1.6,0.4-3.5-0.2-5.2-0.5c-4.5-0.8-9-1.9-13.4-3.3
			l-4.2,1.1c-2.7-1.9-6.1-2.8-9.4-2.4c-3.2,0.2-6.5-1.3-9.8-2.2c-3.6-0.9-7.2-2-10.8-3c-0.7-0.1-1.4-0.3-2.1-0.5
			c-7.2-2.9-14.3-6.2-21.7-8.7c-6.6-2.2-13.4-3.9-19.8-6.8c-3.1-1.4-6.1-3-9.2-4.4c-1.4-0.7-2.9-1.5-4.5-1.7
			c-3.3-0.3-6.4-0.9-7.8-3.6l-12-3.9l-17.8-11c-5.6-1.2-10.7-4.9-14.8-10.5l-3.6-0.7c-0.4-1-0.9-1.9-0.9-1.8l-7.9-4.4
			c-7.4-2-12.4-7.1-17.1-13.2c-4.4-0.9-7.6-3.5-10.4-7.4c-2.2-3.1-5.8-5.1-8.4-7.9c-4.4-4.9-8.5-10-12.7-15.1
			c-3.2-4-6.3-8.1-9.4-12.2l-6.2-8.1c-0.5-3.1-1.6-6.6-5.2-8.5c-0.7-2.4-1.3-4.7-2-6.9c-0.3-1-0.6-2.1-1.1-3c-2.3-4-4.7-8-7.2-12.1
			c-0.4-2.8-0.8-5.8-1.2-8.5l-4.3-3.7c-0.3-2.4-0.7-5-1.1-8.5c-2.4-3.2-3.6-7.2-3.3-11.2c0.2-2.3-1.2-4.8-2.1-7.1
			c-1.7-4.4-1.6-9.3,0.1-13.7l-1.7-3.2c-0.2-3.2-0.4-6-0.5-8.9c-0.1-1.4-0.1-2.9,0-4.3c0.3-6.2,0.8-12.4,1.2-18.6
			c0.3-3.4,0.5-6.8,1.1-10.1c1.1-6.6,2.5-13.2,3.1-20l3.2-3.8v-8.9c2.6-3.7,5.7-7.1,4.3-12.2l3.2-3.5l-0.5-0.2
			c1.7-4.9,2.8-10,5.1-14.5c2.2-4.4,1.7-10,6.5-13.3c-0.2-1.1-0.4-2.3-0.4-2.7c3.1-5.3,5.8-10,8.5-14.6c0.6-0.9,1.2-1.8,1.9-2.6
			c6.8-8,13.7-16.1,20.5-24.1c1.6-1.9,3.1-3.8,5.7-4.7c1.5-0.5,2.8-1.6,3.6-2.9c2.9-4.8,8-6.8,11.8-10.5c1.5-1.5,3.3-2.6,5-4
			c0.6-0.4,1-1.2,1.6-1.4c4.3-1.1,7-4.8,10.7-6.9c7.3-4.3,14.8-8.4,22-12.5l3.6,0.9c0.6-1.1,0.9-2.6,1.8-3.1c3-1.5,6.1-2.9,9.2-4.1
			c0.8-0.3,2,0.1,2.6-0.4c5.8-4.5,13.3-4.8,20.1-8.2c2.8,0.2,6.5,2.2,9.2-1.3l3.6,1.3l3.2-2l3.8,1.7l3.9-2c6.5,3.2,13.5,0.3,20.5,1
			l3.7,2.6l6.4-1.5l2.6,4.1l3.1-2.8c6.9,1,13.7,3.7,20.9,4.5l3.1,4.1c0.9-1.1,1.4-1.9,2-2.7l7.3,1.3c7.5,3.1,14.7,7,23.4,9.6l8,4.7
			c1.5,4,6,4.3,11.3,3.9l11.7,9.5l9.7,5.6c3,4.8,9.4,7.8,11,12.8c3.4,3,5.9,5,8.1,7.2c5,5.1,9.8,10.5,15.1,15.4c0.5,1.3,1,2.6,1.5,4
			l5.1,2.8c1.8,3.3,3.4,6.7,5.5,9.7c1,1.5,2.9,2.5,4.7,3.9c2.6,3.4,5.1,7.3,8.2,10.6c2.2,2.3,2.7,5.5,5.4,7.6
			c2.1,1.7,2.8,5.2,4.8,9.1c2.2,2.6,7.4,4.8,6.8,10.8l8.2,11.9l-0.5,0.3c1.8,3.4,3.5,6.8,5.7,10.9v4c3.6,3.3,5.8,7.2,5.3,10.9
			c2.7,6,4.9,10.8,6.9,15.7c2.2,5.3,4.1,10.6,6.1,15.9c1.1,2.9,2.2,5.9,3.3,8.5c1,3.3,1.8,6.4,3,9.3c2.3,5.6,2.6,11.4,3.1,17.3
			c0.3,2.3,0.8,4.5,1.5,6.7c0.5,1.7,1.3,3.4,1.5,5.1c0.6,4.4,1,8.8,1.3,13.2c0.2,4.1,0,8.2,2,12c0.6,1.1,0.2,2.8,0.4,4.2
			C518.7,384.6,519.1,385.6,519.7,387.9z M914.4,378.2l0.3-0.5c3.1-3.4,6.2-6.7,8.1-8.8c3-4.6,5.1-7.8,7.2-11.1
			c0.8-1,1.3-2.1,1.7-3.3c0.6-3.2,2.3-6.1,4.8-8.2c3.3-6.8,6-12.4,9.1-18.9c-0.5-2.8,1-6.2,2.8-9.5c1.1-2,2-4.2,2.7-6.4
			c1.7-5.3,3.3-10.7,4.9-16.1c0.4-1.4,1.1-2.8,0.9-4.1c-0.5-6,0.1-12,1.7-17.8c0.1-0.9,0.2-1.8,0.1-2.6c0-2.4,0-4.9,0-7.3h-0.1
			v-11.2c-0.5-3.1-1.1-5.3-1.1-7.6c-0.2-7.5-0.1-15-0.2-22.5c0-0.5-0.1-1.1-0.2-1.6c-0.9-5.8-1.7-11.5-2.5-16.7
			c-1-4.1-1.9-7.6-2.8-11.1c-0.6-2.5-2.3-4.8-2.9-7.3c-1.5-6.2-3.8-12.2-6.9-17.8c-5.3-9.8-10.4-19.7-16.7-28.9
			c-3.7-5.4-7.3-11-9.8-15l-10.3-11c-5.6-1.5-9.2-7.4-12.8-13.1l-4.7-1c-1.3-1.4-2.6-2.7-3.8-4.1c-3.7-0.8-7.5-1.3-9.8-4.8
			c-0.4-0.4-0.8-0.7-1.3-0.9c-3.3-1.6-6.6-3-9.8-4.7c-6.8-3.4-13.6-7-20.5-10.4c-3.5-1.7-7.2-3.1-10.8-4.6c-1.1-0.6-2.3-0.9-3.6-0.9
			c-4.9,0.5-9.4-1.4-14-2c-2.6-0.3-5.4-1-7.9-0.5c-6.1,1.2-12.3,0.1-18.4,0.3c-5.9,0.2-11.7,0.2-17.6,0.3c-2.7,0.1-5.3,0.4-7.5,0.6
			l-3.3-2.4l-2.2,2c-5.4,0.3-10.5,0.1-15.4,1c-6.8,1.2-13.7,0.2-20.5,2.2c-4.3,1.3-8.8,1.8-13,3.3c-2,0.7-3.9,1.8-6,2.2
			c-4.6,0.9-8.5,3.4-12.7,5.1c-3.7,1.5-7.3,3.5-11.1,5.4c-2.8,2.2-5.6,4.9-9,6.8s-7.2,2.9-11.2,4.4c-1,6.9-8.1,6.2-11.8,9.9
			c-2.8,3.1-5.6,6.2-8.5,9.2l-0.1-0.1l-7.4,7.4c-4.2,5-8.7,10-12.8,15.1c-4.1,5.1-7.1,11.7-13.1,15.1c-0.3,1.7-0.6,3.1-0.9,4.3
			l-3.7,2.8c-0.9,5.7-5.7,8.7-8.2,11.7c-2.5,5.3-4.8,9.2-6.1,13.5s-5.9,7.4-4.8,13.1c1.6,0.6,3.2,1,4.9,1.4c6.9,0.9,13.5,3.2,19.4,7
			c1.2,0.8,2.5,1.4,3.8,1.9c5.8,2.2,11.9,3.9,17,7.8c0.9,0.6,1.9,0.9,3,1c4.8,0.4,8.8,2.9,12.8,5.2c7.7,4.4,15.5,8.9,23,13.7
			c4,2.6,7.6,5.7,11.4,8.6c2.3,1.7,4.7,3.2,6.8,5.1c14.4,13.3,28.4,27.1,40.6,42.6c3.1,4,6,8.1,9.8,13.2c3.2,1.4,4.5,6.1,7.5,9.3
			c9.1,9.9,13.8,22.4,19.7,34.2c2.7,5.4,5.4,10.8,8.2,16.2c1.5,3,3.5,5.9,4.7,9c3.8,10.5,7.4,21.1,11,31.8c0.7,2,0.7,4.2,1.4,6.2
			c2.1,6.3,4.3,12.6,6.4,18.9c0.3,0.9,0.4,1.7,0.5,2.6c0.4,4.4,0.7,8.9,1.1,13.3c0.3,3.1,0.8,6.3,1.2,9.6h7.5c0.6-1,1.1-1.9,1.6-2.8
			c8.8-2.9,15.7-10.3,25.4-9.8l2.1-3.7l4.6-1.5c4.6-6.1,12.3-7.2,18.3-12.7c1.2-5,6.8-5.1,11.3-6.9l3.3-4.8c6.3-2,10.7-8.2,16.9-9.6
			c2.6-2.1,5-3.6,6.8-5.5c2-2.1,3.6-4.7,5.4-7.1c1.1-0.7,2.9-1.2,3.4-2.2c1.5-3.3,4.5-4.3,6.9-6.1L914.4,378.2z M92,315
			c2.1,2.7,1.6,5.8,0.9,9c-0.3,1.6-0.7,3.4-0.2,4.7c2.1,5.3,1.9,10.9,2,16.4c0,3,1,6,2.9,8.4c1.4,1.7,2.1,4,2.8,6.2s0.7,4.6,1.6,6.7
			c1.6,3.8,3.5,7.3,5.1,10.5c-0.4,1.8-0.7,3-0.8,3.4c3.8,5.8,9.1,9.9,8.9,17c4.5,2.9,7.2,7.2,8.5,12.8c4.2,0.9,5.2,4.7,7.1,7.8
			l7.3,9.2c5.1,3.3,5.1,3.3,6.8,6.6c6,7.1,12.8,10.4,15.4,18.1l4.8,0.5l17.3,14.9l3-0.2l10.8,7.4c2.2-3,2.1-3,2.6-6.3
			c0.3-2.1,0.9-4.1,1.8-6c2.3-4.9,5-9.7,7.3-14.7c2.2-4.7,4.1-9.5,6-14.3c1.5-3.8,2.9-7.6,4.5-11.6l14-24.2
			c0.8-9.9,9.1-17.3,13.9-26.7c0.3-1.6,0.9-3.2,1.5-4.7c6.2-11.4,15.5-20.3,24-29.9c3.7-4.1,7.7-8.1,10.7-12.7
			c1.9-2.9,3.7-5.6,5.8-6.6c2.4-3.4,3.6-6.8,6-8c3.7-1.8,5.5-4.9,7.8-7.7c1.6-1.9,3.6-3.4,5.4-5.1c1.6-1.4,3-2.8,4.4-4.4
			c2.6-3.1,4.7-6.8,7.7-9.4c7.5-6.3,15.3-12.1,23.2-17.9c6.1-4.4,12.5-8.3,18.6-12.6c1.9-1.5,3.7-3.1,5.4-4.9
			c7.5-4.6,15.5-8.7,23.3-12.8c0.9-0.5,1.8-1.2,2.6-1.9c6.2-4.7,12.7-8.7,20.1-8.7c8-6.4,17.7-7.7,26.1-12.6
			c-0.9-1.8-1.6-3.9-2.9-5.5c-2.3-3-4.8-5.7-7.3-8.5c-2.4-2.7-5-5.1-4.8-8.9l-4.3-2.1c-4.8-8.5-12.7-13.3-19.7-19l-4.6-7.2
			c-6.6-2-8.7-8.6-13.7-13l-4-0.5c-8.7-7.8-18.8-13-29.1-17c-0.4-1.3-0.7-2.1-1.1-3.2l-3.1,2.2l-5.2-3.7c-6.7,0.5-11.2-4.4-17.4-6
			l-4.4,0.2c-1.9-0.8-3.8-1.4-5.8-2c-3.3-0.7-6.6-1.2-10-1.8c-6.1-1-12.4-1.2-18.2-3.5c-0.7-0.3-1.7,0.2-2.6,0.2
			c-1,0.1-2.1,0.1-3.1,0c-4.6-0.7-9.1-1.6-13.7-2.1c-2.7-0.3-5.4,0.2-8.2,0.4c-5.3-1.5-10.3,1-15.1,2.2c-6.7,1.7-13.1,4.9-19.6,7.5
			c-6.3,2.5-12.5,5-20.2,8.1c-2.8,2.7-18.6,12.1-23.6,13.7c-5.2,7.1-13.1,10.5-19.9,15.4l-1.6,3.3l-0.5-0.5l-12.4,11.7l0.4,0.4
			l-6.4,6.8l-0.5-0.4L114,212.1c-0.8,4.7-2.1,9.4-3.8,13.9c-2.3,6.1-4.9,12.1-7.7,19.1v3c-1.3,3.2-2.3,5.7-3.4,8.4h-2.1
			c2.3,5,0.5,9.5-0.5,13.8c-1.7,6.4-2.6,13-2.8,19.6c0,2.8-0.7,5.5-1.2,9.4C94,303.5,92.7,308.8,92,315L92,315z M301.7,477.6
			c-2.9,6.1-5.5,11.5-8.2,17.3c-1.8,6.7-3.7,13.9-5.6,21.1c3.1,2.8,5.3,2.6,7.7-0.9c2.2-3.2,3.2-6.8,4.7-10.4c2.5-6,6-11.6,9.2-17.4
			c1.3-2.3,3-4.4,4.3-6.7c1.6-2.9,3-6,4.7-9.6c0.9-2.5,1.9-5.8,3.3-8.8c2.3-4.8,4.7-9.5,7.3-14.1c1.3-2.1,2.7-4.1,4.3-6
			c2.6-3.2,4.5-5.7,6.5-8.1c3-3.6,6-7.1,9-10.6c1-1.2,2.6-2.2,3.2-3.6c1.5-3.5,3.4-6.1,7.7-6c0.4,0,0.7-0.9,1.1-1.2l3.1,2.8
			c-12.9,16.7-28.5,31.1-36,51.2c-1.8,3.2-4.3,6.3-5.1,9.8c-0.8,3.3-2.3,6.3-4.5,8.9c-0.9,1.1-2,2.3-2.2,3.6
			c-0.9,4.7-3.6,8.5-5.7,12.6c-2.2,4.3-3.6,8.9-6.8,12.6c-1.6,1.9-1.7,4.6-0.8,7.2l3.6,2.2c1.1-0.3,2.2-0.9,3.1-0.8
			c6.7,1.2,13.3,2.4,19.9,4c5,1.2,9.9,2.5,15.1,2c0.7,0,1.3,0,1.9,0.2l2.8,3.7l2.6-2.9c6.1,0.6,11.3,1.3,16.6,1.6
			c4.5,0.2,8.9,0.6,12.6,3.5c8.1-2.1,15.3,0.9,22.5,3.1c2.2-0.1,4.4,0,6.6,0.3c3.5,0.6,6.9,1.3,10.4,2c3.5,0.7,6.9,1.3,10.3,2.3
			c4.4,1.3,8.7,3,12.9,4.7c1.3,0.5,2.5,1.4,3.5,2.4c1,1.2,1.9,2.4,2.7,3.7c4.7-2.3,7.8-4.5,8.9-9c3.7-1.9,6.2-5.4,6.7-9.5l9.6-7.8
			l4.5-9c3.7-2.9,6.6-4.5,8.5-6.9c3.5-4.4,6.4-9.3,9.7-14.3v-3.2c3.1-4.5,3.5-6.1,4.2-10.4c0.6-2.8,1.3-5.5,2.3-8.1
			c2.4-7.6,6.6-14.6,6.4-23c0-3.4,0.6-6.8,1.6-10c1.1-3.6,1.6-7.3,1.4-11.1c-0.1-4.1,0-8.1,0-12.9c-0.4-0.8-1.5-2.3-1.8-4
			c-0.8-3.7-1.2-7.4-1.2-11.1c0-5-0.6-10-2.1-14.8c-1.2-4.5-2-9-1.2-13.7l1.9,2c0.4-1.5,0.7-2.5,1-3.5l-5-3c0.4-1.9,0.7-3.6,1-5.3
			c-1-7.6-6-14.9-1.4-22.7c-1.3-1.2-2.3-2.2-3.4-3.1l0.9-3.3l-2.6-1.4c-1.4-6.4-2.8-12.9-4.2-19.4l0.7-0.3l-2.1-2.4
			c-2-5.2-3.6-9.4-5.4-14c-12.1-4.2-19.8,3.1-27.6,10.9c-3.8-2-7,0-10.3,1.9c-2.8,1.6-5.8,2.8-7.9,3.8l-9.6,7.4
			c-3.4,3.5-5.6,6.2-8.3,8.5c-3.8,3.2-7.8,6.1-11.8,9.1c-3.1,2.3-6.2,4.7-9.3,7l-0.5-0.6c-0.4,1.3-0.9,2.6-1.3,3.9
			c-2.7,2.1-5.2,4.4-7.4,7c-2.6,2.8-5.3,5.6-7.9,8.4c-1.7,3.1-4.6,5.2-7.3,7.6c-3.3,2.9-6.3,6.1-9,9.5c-4.1,5-8,10.3-12,15.5
			c-1.8,2.9-3.8,5.5-5.8,8.1c-1.6,2.1-3.1,4.3-4.8,6.4c-2.2,2.8-4.2,5.8-6.9,8.1c-2.4,1.9-4.3,4.2-5.6,6.9c-0.4,0.8-0.9,1.5-1.5,2.2
			c-3.7,5.3-8,10.3-10.2,16.4c-2.1,2.6-4.5,5.1-5.8,8c-1.7,4-4.7,7-7.2,10.4c-1.7,2.4-3.8,4.5-6,7l-1.7,0.4
			C302.4,474.3,301.9,476.3,301.7,477.6z M495.2,517.3c1.6,1.3,3.3,2.5,5,3.6c5.8,3.2,11.7,6.1,17.4,9.4c6,3.5,11.8,7.4,17.5,11.4
			c1.8,1.4,3.5,3.1,4.8,5c4,5.2,7.9,10.5,11.9,15.7c0.2,0.2,0.6,0.1,1.2,0.2c0.5-0.7,1-1.3,1.7-1.8c7.4-4.2,14.4-9.1,21-14.4
			c5.1-4.1,9.4-9.3,16.2-10.9c5.7-5.7,12.8-8.2,20.4-9.8c3.6-2.5,7.5-4.6,11.5-6.4c3.4-1.4,7.3-1.7,10.8-2.7c3.2-1,6.2-2.5,9.4-3.5
			c6.5-2.1,13.1-4,19.7-6.2c4.3-1.4,8.4-3.3,12.6-5c-0.5-5.8-1-11.8-1.5-17.9l-2.4-0.9l-6-14c-3-4.6-6.4-10-9.8-15.4
			c-4.3-6.8-8.7-13.5-13-20.3s-8.6-13.5-13-20.3c-1.1-1.8-2.5-3.4-4-4.9c-9.3-8.9-18.2-18.2-25.5-28.8c-3.4-4.8-7.8-8.4-12.2-11.7
			c-6.2-4.6-12.1-9.5-17.8-14.6c-4.5-4.1-9.3-7.7-15-10.2c-2.4-1.1-4.7-2.4-6.9-3.9c-2.5-1.6-4.8-2.9-8.2-1.4
			c0.1,9.5-5.5,18-4.5,27.7c0,0.4-0.1,0.7-0.2,1c-1.8,6.7-3.2,13.5-4.7,20.2c-1.6,7.6-2.3,15.3-3.1,23c-0.2,1.4-0.5,2.8-0.9,4.1
			c-0.6,3-1.5,5.9-1.8,8.9c-0.6,6.5-0.9,13.1-1.1,17.8c-2.1,5.9-3.6,10.2-5.1,14.4c0.3,1.3,0.5,2.5,0.7,3.5
			c-1.7,4.5-4.3,8.5-3.7,13.2c-1,2-2.3,3.8-2.9,5.8c-1.6,5.2-2.8,10.6-4.2,15.9c-0.4,1.2-0.9,2.3-1.5,3.4
			c-2.7,5.6-5.4,11.1-8.4,17.1L495.2,517.3z M789.4,462.7c-0.3-2.1-0.5-3.6-0.8-5.1c-0.5-3.3-1.4-6.7-1.6-10
			c-0.6-11.8-4-23.1-6.8-34.5c-3.5-13.9-9.2-27.1-16-39.6c-5.7-10.4-10.8-21.2-15.2-32.2c-3.1-7.8-7.6-15-13.3-21.1
			c-4.2-4.4-7.9-9.2-9.5-14.6c-2.3-2.1-4.2-3.7-5.8-5.5c-6.4-7.2-12.4-14.6-18.9-21.6c-5.3-5.7-11.2-11-16.8-16.5
			c-1-1-1.7-2.4-2.9-3.2c-3-2.1-6.3-3.7-8.5-6.9c-0.9-1.2-2.4-2-3.8-2.8c-1.2-0.8-2.9-1.1-3.7-2.1c-4.2-5-10.5-7-15.7-10.5
			c-5.6-3.7-11.8-6.6-18-9.4c-4.3-2-8.9-3.5-13.4-5.3c-1.2-0.5-2.7-0.6-3.4-1.4c-2.6-3-6.2-3.3-9.4-4.7l-12.8-6.1
			c-3.1-0.8-5.5-1.1-7.5-1.9c-4.4-1.8-8-1.1-10.4,2.9c-1.6,3.1-3.2,6.2-4.9,9.6c-0.4,1.6-0.7,3.5-1.3,5.4c-0.6,2-2.1,3.9,0.1,6.5
			c1.9-0.2,4.1-0.5,6.4-0.6c3.2-0.1,6.5-0.6,9.6-0.1c11.8,2.2,22.8,6.8,33.7,11.7c0.8,0.4,1.4,1.1,2.2,1.5c1.6,1,3.3,1.9,5.1,2.7
			c13.4,4.5,24.7,12.8,36,20.9c4.1,2.9,7,7.4,12.5,8.1c0.5,0.1,1.1,0.9,1.4,1.5c3.2,5.9,8.7,9.7,13,14.5c2.3,2.7,4.2,5.8,6.8,8.2
			c9.9,9.2,17.9,19.8,24.8,31.4c3.3,5.6,7.5,10.6,11.2,15.9l0.7-0.4l0.7,5.2c3.5,3.6,6.5,7.6,9.1,12c3.8,6.8,7,14,10.9,20.7
			c2.2,3.8,4.3,7.4,3.7,11.3c4.4,8.5,5.7,17.4,8.5,25.3l-2.7,4.1l4.3,2.3c0.9,4,2.1,7.9,2.7,12c1.2,8.5,2.2,17,3.2,25.5
			c0.3,2.2,0.3,4.5,1.8,6L789.4,462.7z M219.6,487c0.4-0.6,0.7-1.2,1-1.9c1.4-9.7,2.1-19.6,7.4-28.3c0.1-0.3,0.2-0.7,0.3-1
			c1.2-3.1,2.1-6.4,3.6-9.4c1.9-3.7,3.4-7.4,3.1-11.7c-0.1-1.7,0.6-3.4,0.9-4.9l4.4-0.7c1.1-3.3,1.9-6.5,3.2-9.4
			c2.9-6.6,6.1-13.1,9.3-19.9c-0.2-1.3-0.5-2.8-0.9-4.8l5.9-3.4l9-15.2c-0.4-1.2-0.9-2.3-1.2-3.5c-0.3-1.2-0.4-2.3-0.6-3.9l8.9-2
			c3.2-4.8,6.7-10.2,10.4-15.4c1.3-1.6,2.7-3.2,4.3-4.6l-0.2-0.1c2.6-4,5.2-7.9,8.2-12.4l2-1.5c0.9-0.6,1.7-1.2,1.9-1.4
			c1.3-3.7,2.3-6.6,3.3-9.5h4.6c5.1-4.7,8-11.4,15.2-13.5c2.9-8.2,9.5-13,16.2-17.6l2.3,0.5c2.8-3.6,4.7-7.1,7.5-9.6
			c4.9-4.4,10.3-8.3,15.4-12.4c1.2-0.8,2.4-1.6,3.6-2.3c2.3-1.4,4.8-2.3,7.5-1.2c0.2,0.1,0.6-0.3,1.1-0.6l-0.4-3.4
			c7.6-5,15.1-9.9,22.6-14.6c1.7-1,3.7-1.4,6.5-2.4c0.7-2,3.2-3.1,6.2-3.4c0.9,0,1.8-0.2,2.6-0.5c6-2.6,12.1-5.1,16.6-7.1
			c5.2-0.7,8.9-1.3,12.6-1.7c3.7-0.4,7.2-0.4,11.4-0.7c-3.1-5.3-6-10.2-9-15.4c-1.6,0.4-3.2,0.9-4.8,1.5c-6.2,2.7-12.5,5.3-18.6,8.2
			c-8.1,3.8-16.1,7.7-24.1,11.6c-2.4,1.2-4.8,2.3-7.2,3.4c-1.3,0.6-2.6,1.2-3.8,1.9c-3.6,2-7.2,3.9-10.6,6.1
			c-3.7,2.3-7.9,4.3-10.9,7.4c-3.2,3.3-7,5.7-10.6,8.4c-4.7,3.5-9.9,6.4-14.6,9.8c-4.7,3.3-9.2,6.8-13.6,10.4
			c-1.9,1.5-3.2,3.7-4.8,5.5c-2.4,2.8-4.5,6.1-7.4,8.4c-5.7,4.6-11,9.6-15.8,15.2c-3.3,3.7-6.1,7.7-9.2,11.6c-1.6,2.1-3.8,3.8-5.1,6
			c-3.1,5.5-7.9,9.4-12.1,14.3c-0.3-1.4-0.5-2.6-0.8-3.9c-4.3,1.4-1.2,4.4-1.8,6.1c-2.9,3.6-5.2,7.3-8.2,10.3
			c-3.2,3.1-6.4,6.1-7.2,10.9l-2.7-1c-0.8,2.1-1.7,3.9-2.1,5.8c-1,5.4-3.6,10-6.4,14.6c-2.9,4.9-6,9.7-8.3,14.9
			c-2.6,5.9-5.2,11.7-9.3,16.7c-0.3,2.2-0.9,4.3-1.7,6.4c-0.9,2.1-2.5,4-3.3,6.1c-3.9,11-8.7,21.6-14.2,31.9
			c-2.4,4.5-3.4,9.5-3.1,14.5l7.3,6.9L219.6,487z M643.6,377.1c4.4,1,8.1,2.5,11.7,2.3c3.3-0.2,6.6-0.2,9.9,0.1
			c10.8,1.1,21.6,1.7,32.5,2.5c1.4,0.1,2.9,0,4.3,0c6.8,0.2,13.5,0.4,20.3,0.6c4.8,0.1,9.6,0.2,14.4,0.2c1.9,0,3.9-0.1,5.2-1.7
			c-2.1-7.1-11.8-23.1-16.9-28.1c-6.3-1.5-12.8,1.6-19-2.1l-1.9,3c-0.2-0.4-0.4-0.9-0.6-1.2h-26.2v-7.2l3.2-0.3l-0.9-1.9l14.6-33.6
			c-5.1-7.3-11.7-13.8-18.5-20.1c-0.4-0.4-1.3-0.1-2.1-0.2c-0.5,0.9-1.4,1.5-1.4,2.3c-0.3,4.7-3.2,8.3-4.8,12.4
			c-2.7,6.8-5.6,13.5-7.6,20.5c-1.8,6.1-3.6,12.2-6.4,17.9c-0.7,1.8-1.3,3.7-1.8,5.6c-0.5,2-1.2,4-2,6
			C646.1,361,645,368.7,643.6,377.1L643.6,377.1z M597,364c6,7.3,12.1,14.8,18.3,22.1c3.4,4.2,7,8.1,10.8,11.8
			c7.1,6.5,13,14.2,17.5,22.7c0.5,0.9,1,1.8,1.6,2.7c3.5,4.9,7.3,9.6,10.5,14.8c5,8.2,11.4,15.6,14.3,25
			c7.3,9.9,10.8,21.2,11.4,33.5l3.6,3.7l10.9-2.6c0.7-1.5,1.3-3,1.5-3.5c-0.6-4.4-1.1-8-1.7-11.4c-0.3-2.1-0.9-4.1-1.8-6
			c-4-7-7-14.4-9-22.2c-0.3-1.4-0.9-2.7-1.6-3.9c-3.4-5.4-7.3-10.5-10.4-16c-4.4-8.1-9.6-15.9-15.5-23c-3-3.5-5.1-7.8-7.8-11.5
			c-4.4-5.9-9.6-11.4-13.6-17.6c-3.6-5.7-8.6-9.9-13.3-14.4c-5-4.9-11.3-8.2-15.3-14.5c-2.6-4.1-7.5-7.2-12-9.6
			c-8.2-4.4-15.1-10.7-23-15.6c-1.4-0.8-2.7-1.8-3.7-3c-4.1-4.8-10-6.8-15.4-9.3c-2.8-1.3-5.7-2-8.5-0.1c-0.6,3.8-1.2,7.5-1.8,11.1
			l3.8,6c0.8-0.7,1.4-1.2,2.1-1.9c4.7,1.2,8.7,3.8,12.6,6.7c1.3,0.9,2.5,2.4,3.9,2.7c4.4,0.9,7,4.1,9.9,6.8c4,3.8,8.1,7.5,12,11.5
			C589.8,361.4,592.6,363.7,597,364L597,364z M588.1,283.4c-2-4-2.7-6.8-2.7-12c-0.1-8.5,0.1-17.1,0-25.7c-0.1-2-0.3-4.1-0.6-6.1
			c-6.5-3.9-12.5-0.1-19.2-0.7c0.1,2.3,0.3,4.7,0.7,7c1,3.8,1.2,7.8,0.6,11.6c-0.5,2.8-0.4,5.7,0.4,8.4c2,6.5,2.9,13.3,2.6,20
			c0,1.4,0.2,2.9,0.4,4.3c0.9,7.6,1.9,15.2,2.7,22.8c0.3,2.7,0.7,5.3,3.7,7.4c5.5-3.1,11.2-6.2,16.9-9.5c1.8-1,3.6-2.2,5.3-3.4
			c5.4-3.6,10.8-7.3,16.2-11c0.5-0.3,1-0.4,1.5-0.5c5.3-1.5,10.6-3.1,15.9-4.6c0.9-0.2,1.7-0.5,2.5-1c6.7-4.8,14.2-8,21.7-11.4
			c1.6-0.9,3.1-1.9,4.6-3c-8.6-4-14-10.9-21.8-14.4c-3,1.2-5.9,2.1-8.6,3.5c-6.2,3.1-12.3,6.5-18.5,9.7c-3.3,1.7-7.1,2.9-9.9,5.2
			C598.1,283.7,593.3,284,588.1,283.4z M279,393.3h3.4c16.6,0,33.2,1.5,49.5,4.4c2.6,0.5,5.3,1.2,7.9-1.1c0.1-1.6,0.3-3.4,0.3-5.1
			c0-10,0-20-0.3-30c-0.1-3.1-0.9-6.1-1.4-9.1l-0.9,0.1c0.2-1.6,0.3-3.2,0.5-4.9c-2.2-3.4-2.4-7.2-2.3-11.2c0.2-8-0.6-16.1-2.5-23.9
			c-0.4-1.8-0.4-3.9-1.9-4.5l-10.9,9v2.6l-9.6,11.1l-1.8-1.1c0,3,0,6,0,8.9c0,3.2,0.9,6.6,0.1,9.6c-1.2,4.9-0.7,9.5-0.2,14.3
			c0.5,4.4,0.6,8.8,0.9,12.4c-3.8,4.8-7.9,4.8-12.3,4.1c-6.8-1.1-13.7-2.1-20.5-3.1c-4.4,5.3-9.1,9.7-10.3,16.9l8.3,0.9l1.7,2.9
			C277.5,395.3,278.1,394.5,279,393.3z M637.7,370c1.2-4.7,1.9-9,3.4-13.1c5.5-15.5,10.9-31,16.8-46.3c3-7.6,3.2-16.5,10-22.4
			c0.1-0.1,0.1-0.3,0.3-1l-2-3.5l-16,5.2c-4.3,5.4-10.9,6.7-17.6,7.8l-3.8,3l-5,0.6c-2.1,1.3-3.8,2.7-5.8,3.4
			c-2.8,1-5.5,2.5-7.7,4.5c-3.2,2.7-6.8,5.3-10.7,6.8c-6.2,2.4-10.8,7-16.5,11.1l4.8,4.6c5.8-0.2,10.5-2.6,14.9-5.3
			c3.8-2.4,7.4-5,11.1-7.4c4.7-3,9.7-5.1,15.5-5.5c2.4,2.9,1.9,6.2,1.2,9.3c-0.8,3.7-2,7.2-3.1,10.8c-2.5,7.8-5,15.6-7.4,23.2
			C624,362,629.6,366.6,637.7,370z M380.2,633.8c-0.7,4.5-0.3,9.1,1.3,13.3c2.5,7.2,5.7,14.2,6.4,22c0.1,0.5,0.3,1,0.5,1.5
			c1.5,5.1,3,10.3,4.3,15.4c4,16.2,6.4,32.8,11.7,48.7c1.3,3.8,0,6.2-4.4,8.7c-1.2-1.4-2.4-2.8-3.5-4c1.7-7.9-19-88.9-23.8-95.5
			l-7.1,6.1c0.6,2.6,1.2,4.9,1.8,7.3c1,3.8,2.2,7.5,3,11.3c1.5,7.2,2.7,14.4,4,21.6c1.2,6.7,2.6,13.3,3.7,20
			c0.5,2.5,0.2,5.3,1.3,7.3c1.9,3.4,2,7.1,2.8,10.8c1.4,7,2.9,13.9,4.5,20.8c0.5,1.7,1.1,3.4,1.9,5c0.5,1.3,0.9,2.7,1.2,3.7l-2,5.1
			c2.3,2.3,3.9,1.2,5.1-0.5c2.9-4,5.7-8.1,8.7-12c2.5-3.4,5.2-6.6,7.8-9.9l1.2,0.4c-0.2-2.4-0.1-4.9-0.6-7.3
			c-0.9-4.2-2.3-8.2-3.4-12.4c-1.2-4.1-2.6-8.2-3.4-12.4c-1.5-8.5-2.7-17.2-4-25.9c-0.7-4.4-1.2-8.8-1.8-13.3
			c-0.5-3.3-0.9-6.7-1.4-10c-1.2-3.1-2-6.3-2.6-9.6c-0.9-6-1.3-12.1-2.2-18c-0.3-1.9-1.4-3.8-2.2-6L380.2,633.8z M728.4,771.9
			c2.5,6.3,7.8,6.2,12.6,7.8c8.6-8.6,16.8-17.2,25.4-25.3c8.6-8.1,18.2-15.6,26.4-24.3c-7.4-12.8-19.8-19.5-30.3-28.5l-6.2,0.6V724
			l-4.5,1.1c-2.1-4.9-2.4-7.1-1.9-12.3c0.6-6,1.2-12,1.8-18c-4.1-2-6.5-5.8-11.3-6.8c-0.3,6.6-0.6,12.8-0.8,19
			c-0.2,6.2-0.1,12.5-0.3,18.7s-0.6,12.3-0.9,18.4c3.9,0.7,6.8-0.5,8.2-3c3.2-5.2,8.6-7.9,12.6-12.2c3.6-3.9,8-6.8,13-8.7
			c1.4-0.4,2.9-0.7,4.4-0.9c0.7,4.8-0.1,5.9-3.8,8.3c-4.8,3.2-9.9,6.3-14,10.4c-2.9,2.9-5.5,6-9,8.2c-1.8,2.2-3.8,4.1-5.8,6
			c-4,4.1-8.1,8-11.8,12.3C730.4,766.8,729.5,769.7,728.4,771.9z M300.5,449.4c-2.4-6.1-4.5-11.3-6.5-16.4s-5.3-10.1-5.4-16.5
			c2-0.2,3.7-0.5,5.4-0.6c8.2-0.3,16.4-0.5,24.6-0.7c4.1-0.1,8.2-0.6,12,1.7c0.9,0.6,2.4,0.2,3.9,0.3c3.2-3.4,7.2-6,7.8-11.1
			c-9.1-1.3-17.5-2.6-26-3.5c-11-1.2-22-2-33-2.9c-0.7-0.1-1.4,0-2.1,0.2c-3.9,1.6-7.7,0.7-11.6,0.1c-2.1-0.3-4.2-0.2-6.5-0.4
			l-2.6,4.3c2.7,4.1,5.3,7.2,7.1,10.8c1.4,2.4,3.1,4.7,5.1,6.7c6.4,7.4,13.2,14.5,17.1,23.8c1.6,3.8,3.4,7.4,6.4,10.4
			c1.2,1.2,1.8,3,2.4,4.7c0.7,1.6,0.9,3.5,3.1,3.8l5.2-5.5c1.2-1.9,1.9-3.2,2.7-4.4c3.9-5.7,8.3-11.1,11.6-17.2
			c1.5-2.8,3.1-5.5,5-8.1c1.4-1.8,3.1-3.5,2.3-6.1c-7.3-1.3-27.2-0.9-31.1,0.9c1.2,2.5,2.2,5.2,3.7,7.5c3.4,5.4,3,11.5,3.9,17.4
			c0.1,0.7-0.6,1.5-1.1,2.5L300.5,449.4z M751,399.8c-12.7,7.5-21.8,17.8-32,26c-1.6,2.2-2.7,4.8-4.6,6.1
			c-5.6,3.8-10.5,8.4-15.6,12.8c-1.7,1.4-3.1,2.9-2.5,5.7c3.3,1.2,6.6,2.6,10,3.5c5.8,1.5,11.7,2.8,17.5,4.1
			c3.6,0.9,7.3,1.8,10.9,2.7c3.4,0.9,6.8,1.7,11.2,2.8l20,3.9c1.1-5.9-1-10.8-1.8-15.8c-0.8-5.3-1-10.6-2.1-15.8
			c-1-4.9-2.7-9.7-4.3-15.1c-1.7,0.7-3.1,1-4.1,1.8c-3.7,3-7.4,6.1-10.9,9.4c-1.7,1.5-3.4,3.1-2.8,6.2c2.2,0.5,4.5,1,6.7,1.7
			c1.9,0.5,3.7,1.3,5.4,2.3c2.5,1.7,2.4,3,0.1,6c-1.8-0.3-3.7-0.6-5.4-1c-4.7-1.1-9.4-2.2-14-3.4c-2.6-0.6-4.8-1.6-5.3-4.6
			c-0.5-3,1-5,3.3-6.8c8.2-6.4,16.3-13,24.7-19.7C753.8,408.6,752.4,404.4,751,399.8L751,399.8z M344.5,297.1
			c4.2,2.8,8.2,5.1,11.8,7.9c5.8,4.5,12.7,7.3,19.1,10.4c4.5,2.2,8.9,4.4,13.1,7c4.2,2.6,8.7,4.9,13.1,7.3c1.3,0.6,2.7,1.1,4.1,1.4
			c2-3.2,1.2-6.5,1.1-9.6c-0.2-7.1-1.4-14.4-0.4-21.4c1-7,0.8-13.8,0.4-20.7c-0.2-2.7-0.7-5.5,0-8c1.6-5.7-0.1-11.8,2.4-17.3
			c0.2-0.5-0.5-1.5-0.9-2.8c-7.3,2.2-13.9,6.1-19.3,11.4c0.7,2.3,1.7,4.1,1.7,5.9c0.2,5.7,0.1,11.4,0,17.1c0,3.2-0.2,6.4-2.5,9.6
			c-2.8-0.2-5.9,0.1-8.7-0.7c-4.7-1.4-9.3-3.6-13.9-5.5c-2.9-1.2-5.7-2.6-8.6-3.9C353,289.6,347.2,291,344.5,297.1z M647.8,387.1
			c4.1,6,8,11.4,13.6,15.2c7-0.4,13.7-1.1,20.5-1.3c6.9-0.2,13.9-0.1,21.2-0.1c0.5,2.6,1,4.7,1.2,6L683,436.1c1,3.8,2.4,6.5,5.5,8.9
			c8.2-8.8,16.4-17.1,26.2-23.6c2.4-2.6,5-4.9,7.6-7.3c1.2-1.1,2.8-1.8,3.6-3.1c4.4-6.9,11.2-10.9,17.8-15.1
			c1.3-0.9,2.5-1.8,4.7-3.4c-2.7-0.7-4.3-1.4-6-1.6c-8.7-0.7-17.4-1.2-26.1-1.7c-8.9-0.5-17.8-0.9-26.7-1.3
			c-4.3-0.2-8.6-1.3-12.8-0.8c-5.8,0.7-11.3-0.5-17-0.9c-2.7-0.2-5.3-0.3-8-0.2C650.7,386,649.6,386.6,647.8,387.1z M410.3,604.6
			c0.8,4.8,1.5,9.5,2.4,14.1c0.8,3.8,2,7.5,2.8,11.4c1,4.8,0.7,9.9,2.9,14.6c1.1,2.6,0.8,5.5-0.8,7.8c0.8,1.3,1.5,2.6,2,4
			c1.7,5.8,0.7,12.1,3,17.8c0.1,0.3-0.1,0.7,0,1.1c0.2,2.8,0.1,5.7,0.6,8.5c1.5,6.6,2.2,13.4,2.3,20.1c0,3.2,0.8,6.5,3.8,8.9l6-9.6
			l0.2,0.1l4.9-9.6c-4.3-33.3-8.6-67.7-13-102h-4.1C421.2,597.9,416,601.2,410.3,604.6z M254.5,446.3c3.1,2.9,6.2,5,7.5,8.6
			c-3.1,6.4-6.5,7.4-15.6,5.7l-13.9,4.6c-0.7,3.3-5.5,5.6-2.8,10.6c21.4-1.9,42.7-4.8,64.5-7.7c-0.8-1.8-1.2-2.9-1.8-4
			c-2.7-4.8-5.2-9.7-8.2-14.4c-3.6-5.7-7.2-11.5-11.5-16.7c-5.3-6.4-10-12.9-13.7-20.3c-0.4-0.9-1.2-1.6-2.6-3.2
			c-6.1,7.9-7.7,17.1-11.9,25.2L254.5,446.3z M553,574.3c-2,2.3-4.2,4.4-5.8,6.8c-2.7,4.3-5.6,8.2-10.1,10.8c-2.3,1.3-3.7,3.3-3.4,6
			l13.1,7.9l10.6,4.4c2.8-3.8,5.9-7.3,8.2-11.2c4.3-7.2,10.4-12.6,16.7-17.8c0.9-0.7,2.2-0.8,3.4-1.1c0.3-0.9,0.5-1.9,0.9-3.1
			c3-1.6,6-3.2,9-4.7s6.4-2.8,10-4.4c-1.1-2.9-1.9-5.1-2.8-7.4l-1,0.7l-10-9.2l-5.1-1.8c-4.4,3.8-8.7,7.5-13.1,11.2
			c-1,0.7-2.1,1.3-3.3,1.7c-2,0.8-4,1.5-5.8,2.2C561.7,569.9,557.5,572.4,553,574.3z M718.8,710c0.2-7.8,0.4-14,0.6-20.2
			c0.3-7,0.7-14,1.1-21.5l-8.1-7.3l-0.2,0.3l-9.2-5.4c-0.8,5.6-1.4,10.7-2.1,15.2c0.3,2.1,0.6,3.8,0.6,5.5c0.1,3.7,0.1,7.5,0.1,11.2
			c0,4.5-0.1,8.9-0.2,13.4c-0.1,4.9-0.3,9.8-0.4,14.7c-0.1,3,0,6,0,9.8c1.5,8-0.6,16.8-0.7,26l12.5,10.6c1.8-5.5,3.5-10.2,3.3-15.6
			c-0.2-5.4,0.5-10.7,1-16c0.4-4.5,0.9-9.1,1.5-14.3l1.7-1.6L718.8,710z M517.7,594.6c-1.4-6.8-2.7-12.7-3.7-18.7
			c-0.4-2.6-1.2-5.3,1.4-7.6c3.7,1.2,4.6,4.2,5.1,7.4c0.4,2.8,0.7,5.7,1.1,8.5c0.4,2.1,0.9,4.2,3.2,5.3c5-3.8,6.8-10.9,12.8-12.3
			l8.1-9.1c-3.1-5.2-5.9-10.1-8.8-14.9c-0.4-0.6-1-1.1-1.6-1.5c-4-3.2-8-6.7-12.2-9.6c-3.9-2.7-8.2-5-12.4-7.3
			c-2.3-1.3-4.8-2.2-7-3.7c-4.4-2.9-9-5.1-14.2-5.1c-8.1,7.6-8.1,7.6-8.4,11.6c4.1,1.2,8.3,2.1,12.2,3.7c5.1,2.1,10,4.7,14.9,7.1
			c0.8,0.4,1.5,1,2.1,1.6c4.8,3.9,9.7,7.9,14.5,11.8c1.2,1,2.7,2,3.5,3.3c0.6,0.9,0.2,2.3,0.3,3.6l-3.9,1.2
			c-6.5-4.5-12.5-9.4-20-13.9c0,8.1-0.2,15.2,0.1,22.2c0.3,7.1,1,14.2,1.7,21.2c0.2,1.8,0.3,3.9,2.9,4.8L517.7,594.6z M455.8,676.1
			c1.1-2.7,2.2-4.7,2.8-6.9c0.5-1.8,1.2-4,0.7-5.6c-4-14-2.8-28.6-5.8-42.7c-1.4-6.8-1.3-13.8-2.3-20.7c-1.2-7.8-2.8-15.4-4.3-23.1
			c-0.2-1-1-1.8-1.5-2.8l-3.8,0.7l1.1,1.2l-11.1,9.2l2.7,3.3c0.2,3.6-0.1,6.6,0.7,9.2c2.2,7.4-0.4,15.4,3.1,22.6
			c-0.9,6.8,3.6,13.1,2,20c2.7,7.1,0.1,14.8,2.9,22.1c1.7,4.5,1.1,9.8,1.7,14.8c0.3,2.4,0.7,4.8,1.2,7.6l5.1-2.7l0.9-4.4
			L455.8,676.1z M354.2,333.4c6.7-1,11.5,1.7,16.4,4.2c7.5,3.7,15.2,7,23.1,10.5l8.4-8.3l-4.3-4.9c-2.9-1-5.1-1.4-6.8-2.5
			c-4.8-3-8.7-7.5-15-7.4c-6.4-3.8-13.1-7.2-19.3-11.4c-5.3-3.6-11.1-6.1-16.7-9.6c-2.3,7.1,1.7,12.9,1.8,18.9l-1.4,1.8
			c0.9,3.4,1.7,5.9,2,8.5c1,7.6,1.7,15.2,2.7,22.9c1.5,11.5,2.1,23.1,1.8,34.7c-0.1,2.6-0.9,5.1-1.4,8.4c6.2-1.6,7.9-6.5,9.8-9.3
			c-0.6-9-1-16.8-1.5-24.6c-0.4-5.7-1.1-11.3-1.6-17c-0.3-2.8-0.6-5.7-0.6-8.5C351.5,337.1,352.4,334.7,354.2,333.4z M354,759.6
			c-1.7-0.5-3.4-0.6-4.8-1.3c-4.5-2.5-8.9-5.2-13.3-7.8c-4-2.4-7.9-4.9-12-7.1c-1.6-0.9-3.5-1.3-6.1-2.2c-0.3,4.7-0.5,8.5-0.7,12.3
			l0.6-0.1c1,3.4,1.9,6.8,2.6,9.3c3.7,7.7,7.1,14.7,10.3,21.4l12.1,5.1l20.3-0.9c-0.1-0.3-0.1-0.6-0.2-0.9l8.8-4.3
			C369.2,772.2,361.5,765.8,354,759.6z M470.9,292.4c-9.1-7.1-17.6-14.3-26.7-20.5c-9.1-6.3-16.4-15.1-27.1-19.9l-2.4,3.6
			c0.2,2.7,0.7,4.8,0.3,6.6c-2,8.3-1.5,16.6-1,25c0.1,2.6-0.1,5.3-0.5,7.9c-0.3,2.4-1.1,4.9-1.1,7.3c0.2,8,0.6,16,1.1,24
			c0,0.8,0.6,1.5,1.1,3.1l4.9-3.9c-2.3-7.1-2.3-7.1-0.8-14.1s3-13.9,4.3-20.9c0.7-4,1.1-8.1,1.6-11.6c2.8-2.8,5.5-2.8,8.7-1.9
			c2.2,4,7.9,5.2,8.4,9.4l17.2,12.7C462.8,297,467.4,296.7,470.9,292.4z M760.7,476.2v-1.6c-1.7-0.7-3.5-1.4-5.3-1.9
			c-3.6-0.9-7.2-1.4-10.8-2.2c-6.9-1.6-13.6-4-20.7-5.2c-8.4-1.5-16.5-4.4-24.8-6.7c-1.6-0.4-3.2-1.8-5.6-0.1
			c2.1,5.3,4.3,10.5,6.3,15.8c0.9,2.3,1.5,4.7,1.8,7.1c0.4,4.6,1.7,9,3.8,13.1l12.2-4.2c1.3-0.5,2.7-1.3,4-1.3
			c7.4-0.3,14.1-3.4,20.9-5.8c1-0.4,2-1.3,2.9-1.2C751.6,482.3,755.4,477.5,760.7,476.2L760.7,476.2z M684.5,641.8
			c-1.9,4.5-1.5,8.2-1.4,11.9c0.1,9.6-0.4,19.2-0.5,28.8c-0.1,7.5,0.2,15,0,22.4c-0.1,4.8-0.8,9.6-1,14.4c-0.2,4.4,0,8.9,0,13.3
			l11.3,13.6c3.5-6.3,0.2-13,2.7-17.8c-0.4-3.3-1-5.8-1-8.2c-0.1-6.2,2.1-12.3,0.3-18.5c-0.1-0.7,0-1.4,0.1-2.1
			c0.1-4.6,0.2-9.3,0.3-13.9c0.1-8.4,0.2-16.7,0.3-25.1c-0.1-2.7,1.2-5.3,3.5-6.8c0.2-0.2,0.3-0.6,0.5-1.1c-0.3-0.7-0.6-1.4-0.6-1.2
			c-3.3-1.5-5.8-2.2-8-3.7C688.7,646.2,686.9,644,684.5,641.8z M466.7,552.3c1,8.8,2,17.2,3,25.7c0.3,2.5,0.4,5,0.7,7.4
			c0.7,4.9,1.5,9.8,2.1,14.7c0.5,3.4,0.3,6.9,1.3,10c1,3.4,1.7,6.9,2,10.4c0.4,3.5,1.2,7,2.4,10.3c0.9,2.3,2.9,4.1,4.5,6.4
			c0.8-0.6,1.6-1.1,2.4-1.8c5.5-4.4,8-9.8,6-17c-1.5-5.5-2.7-11.1-3.9-16.7c-0.5-2.1-0.7-4.2-1-6.3c-0.6-4-0.6-8.3-2-12.1
			c-3.3-9-4.7-18.2-5.4-27.7c-0.2-3.3-0.2-6.8-1.9-9.7C471.6,544.8,470.9,545.2,466.7,552.3z M347.3,672c0.6,1.7,1.5,3,1.6,4.3
			c0.6,7.2,6.2,12.9,5.7,20.4c0,0.3,0.4,0.6,0.4,1c0.5,1.9,1,3.7,1.5,5.6c0.5,2.1,0.7,4.2,1.4,6.2c1.4,4.4,3.3,8.7,3,13.5
			c-0.1,0.9,0.5,1.7,0.8,2.5c0.9,2.9,1.8,5.7,2.6,8.6c0.7,2.6,1.2,5.1,1.7,7.2l13.5,10.8c0.2-1.7,0.5-2.6,0.4-3.4
			c-0.6-4.6-1.2-9.2-2.2-13.7c-1.6-7.6-4.1-15-5.7-22.7s-1.6-15.9-4.8-23.4c-0.3-1-0.4-2.1-0.4-3.2c-0.4-8.8-3.4-17.1-5.8-25.4
			c-0.3-0.7-0.8-1.4-1.3-1.9l-3.2,1.4L347.3,672z M418.3,729.6c3.3-3.5,4.8-6.3,3.8-10c-4-13.8-4.6-28.1-6.2-42.3
			c-1-9-2.3-18-4-26.9c-0.6-3.4-1.7-6.5-0.1-9.7c-3.3-6.1-5.3-12.3-4-19.6c-3.3-2.4-1.1-7.5-4.9-10.1l-8.9,7.5
			c4,4.1,3.3,8.9,3.6,13.5c0,0.5,0.1,1.1,0.2,1.6c2.8,17.2,5.6,34.5,8.5,51.7c1.3,7.9,3.6,15.7,4.4,23.7c0.6,5.3,2.8,9.9,4.1,14.8
			C415.3,725.7,416.9,727.3,418.3,729.6z M646.9,606.5l-1.7,0.6c-1.8,26.2,1.4,52.7-3.3,78.8c4.1,4.4,7.9,8.7,12.7,13.4
			c0.7-2.6,1.4-4,1.5-5.5c0.5-5.8,0.9-11.7,1.1-17.6c0.2-5.3,0.1-10.7,0.4-16c0.4-7.6,2.3-15.2,0.7-22.9c-0.2-0.9-0.2-1.8,0.1-2.7
			c2.2-5.1-1.1-10.1,0.1-14.2L646.9,606.5z M667,625.9l-1.4,0.4c-0.3,1.5-0.5,3-0.5,4.5c1,11.8,0.7,23.6-0.7,35.3
			c-0.3,2.3-0.9,4.7-0.5,6.9c1.3,7-1.1,13.7-1.3,20.6c-0.1,4.6-1.2,9.1-1.6,13.6c0,1.5,0.1,3,0.5,4.5l4.6,2.6l2.5,3.8l6.5,4.2
			l1.5-12.4c0-25-0.8-50.1,0.8-75.6L667,625.9z M637,670.2c0.3-8.4,0.7-16.5,0.9-24.7c0.1-8.4,0-16.8-0.1-25.2
			c-0.1-8.2-0.2-16.3-0.3-24.7c-5.6-1.6-6.9-8.5-13.5-8.9c-0.2,1.6-0.3,3.2-0.3,4.8c0.4,5.3,1,10.5,1.5,15.8
			c0.3,3.2,0.3,6.4,0.5,9.6c0.1,1.8,0.2,3.5,0.5,5.3c1.2,7.6,2.3,15.2,0.9,22.9c-0.2,0.9-0.2,1.8-0.2,2.7c0.3,6.2,0.6,12.4,1,18.6
			c0.2,2.4,0.6,4.8,0.9,7c3.8,2,6.9,3.9,11.1,2.1L637,670.2z M228.8,491.7c3.4,1.7,5.8,3.7,8.6,4.4c4.8,1.1,9.5,2.6,14.6,1
			c8.3-2.6,16.7-4.9,25.1-7.3c4-1.2,8.1-2.6,12.8-4.1c1.6-2.4,4.4-5.2,3.9-9.8c-7.2,0.5-14.1,0.9-21,1.6c-3.8,0.3-7.7,1-11.5,1.5
			l0.1,0.8l-4.1-0.6c-9.1,3.9-19,2.4-28.2,3.9C227.2,486.6,227.6,489.6,228.8,491.7z M604.8,586.4c6.1-1.7,8.7-5.9,11.2-8.2
			c-1.2-2.4-2.1-4.2-3-5.9c-3.4,1.2-6.2,1.9-8.6,3.2c-7,3.9-13.8,8.1-20.7,12.3c-0.8,0.6-1.6,1.4-2.1,2.3c-3.2,4-6.3,8.1-9.7,12.4
			l-7.6,11.7c0.4,1,1,2.6,1.3,3.6l8.9,5.4c1.3-2,2.7-4,4-6c2.1-1.3,3.6-3.4,5.2-5.2c2.9-3.1,5.9-6.1,8.9-9.2
			c0.5-0.5,0.9-1.1,1.3-1.6C597.7,596,601.5,590.8,604.8,586.4L604.8,586.4z M474.4,648.5c-1.5-6.6-3-12.2-4-18
			c-1.7-10.9-1.7-22-5.3-32.6c0.5-6.8-1.5-13.3-2.3-19.9c-0.6-5.8-0.6-11.6-1-17.4c0-0.4-0.6-0.8-1.4-1.7c-3,3.3-7.6,4.7-8.5,9.3
			c4.4,19.1,6.5,38.1,8.7,58.6c0.5,2.4,1.4,6.2,2,10c0.6,3.8,0.6,7.8,1.1,11.7c0.4,2.7,0.2,5.7,2.6,7.7
			C471.2,655.3,471.4,650.2,474.4,648.5L474.4,648.5z M341.2,728.4c5.4,1.6,9.6,4.7,15.5,5.7c-0.4-2.7-0.4-4.7-1.1-6.5
			c-3.3-8.3-3.2-17.4-6.6-25.8c-2.5-6.2-3.8-12.9-5.6-19.4c-0.5-1.9-1.1-3.8-3.4-3.9c-2.9,3.7-5.7,7.2-8.3,10.7
			c-2.4,3.2-3.7,6.6-1.2,10.4c3,4.5,4.4,9.7,5.9,14.8C337.8,719.2,339.6,723.8,341.2,728.4z M422.4,244.4c2,2.4,2.8,3.7,4,4.7
			c5.5,4.2,11.1,8.2,16.5,12.5c3.8,2.9,7.4,6.1,11.1,9.2c0.9,0.8,1.7,2,2.8,2.5c7.8,3.2,12.6,10.3,20.3,15.2c2.3,0.7,5.1,0,7.5-1.2
			l-10.4-19.1h-3.3l0.3-0.7l-10.1-6.6c-2.1-1.6-4.3-2.9-6.7-4.1c-6.4-2.8-12.1-7-16.8-12.2c-0.9-1.1-1.6-2.3-2.3-3.6L422.4,244.4z
			 M628.9,257.1c-0.8-0.9-1.2-1.5-1.7-1.8c-8.7-4.1-17.3-8.3-26-12.2c-2.7-1.2-5.7-2-9.2-0.9c1.2,11-0.6,22,0.9,32.9
			c4.4,1.4,7.6-0.9,10.3-2.7c5.1-3.5,10.5-6.5,16.2-8.9C622.7,262.1,626.3,260.8,628.9,257.1L628.9,257.1z M794.1,739.5
			c-9.3,5.4-36.6,32.2-39.8,39.2c1.9,0.5,3.7,1.2,5.5,1.4c3.7,0.2,7.3,0.1,12.3,0.1l9.4-4.6l12.8-24.1
			C793.4,748.1,797.4,743.8,794.1,739.5z M731.1,746.7c0.2-3.8-0.4-7.4,0.7-10.4c1.7-4.7,1.8-9.5,1.6-14.2
			c-0.4-12.9-0.9-25.8,0.9-38.8c-2.3-1.7-4.1-3.9-7.2-4c-0.6,4.5-1.4,8.7-1.8,12.9c-0.1,2.1,0.1,4.3,0.4,6.4
			c0.1,1.4,0.7,2.8,0.6,4.2c-0.7,5.8-0.7,11.6-1.3,17.3c-1.5,14-1.7,28.1-4.3,42c-0.3,1.6,0.1,3.3,0.2,5.8c0.8-0.6,1.6-1.2,2.3-1.9
			c3.4-5,6.7-10.1,10.1-15.2L731.1,746.7z M387.5,352.7c-13.9-7.5-22.9-11.2-27.9-11.5c-1.5,3.2-1,6.6-0.4,9.9
			c1.3,7.4,2.3,14.7,1.8,22.2c-0.2,2.3,0.5,4.7,1,8.4c2.7-3,4.4-4.9,6.2-6.8c3.5-3.6,6.9-7.4,10.7-10.8
			C382.5,361,385.8,357.8,387.5,352.7z M564.7,288.9c-0.6-2.9-1.4-5.8-1.9-8.8c-0.5-3.2-0.6-6.4-1-9.5c-0.6-4.2-1.3-8.4-2.1-12.6
			c-0.2-0.9-1-1.5-1.6-2.3l-0.9,0.3c0.2,1.8,0.3,3.6,0.5,5.4l-4.1,5.7c0.4,1.3,0.9,2.4,1,2.8c-2.9,12.7-5.5,24.6-8.3,36.6l18,6
			c2-6.1,2.3-11.4,0.5-16.9C564.2,293.8,564.7,291.5,564.7,288.9z M485.9,546.8c-2.4,3.9-0.9,7.3-0.1,10.7c0.9,4,2,8,2.7,12
			c0.6,3.3,0.5,6.8,1.4,10c3.1,11.6,6,23.2,6.5,35.2c0.1,1.8,0.4,3.9,3.5,4.7c0.3-2,0.5-4,0.6-6c-0.4-11.8-1-23.5-1.4-35.3
			c-0.2-6.6,0-13.1,0-19.6l4.4-3.9C498.1,550.2,492.3,548,485.9,546.8z M718.5,343.8c-0.4-6.4-13.7-24.7-20.1-27.2
			c-1,2.2-1.9,4.5-2.9,6.7c-2.2,5.1-3.4,10.7-7.1,15.3c-1.2,1.5-1.6,3.8-2.4,5.7C692.8,346.3,714.4,345.8,718.5,343.8z M615.9,589.2
			c-3.8,0.8-3.5,3-3.5,5.1c0,2.8,0.2,5.7,0.2,8.5c-0.2,9.4-0.5,18.8-0.9,28.3c-0.2,4.4-0.4,8.8-0.6,13.3c-0.2,6.8,0.6,13.4,8.3,16.9
			c0.5-0.9,1.1-1.7,1.1-2.5c0.3-4.1,0.6-8.2,0.6-12.2c-0.1-7.8-0.4-15.7-0.6-23.5c0-1.1,0.4-2.4-0.1-3.2c-2.4-4.1-1.3-8.7-1.9-13
			C617.9,601.1,617.7,595.2,615.9,589.2L615.9,589.2z M592.2,613.1c0.9,8.7,1.7,17.4,2.6,26.2c3.7,1.3,5.2,5.2,9.3,4.7
			c0.3-1,0.5-2.1,0.7-3.2c0.3-6-0.8-12.1,1.1-18c0.2-0.9,0.2-1.8-0.1-2.6c-1.2-5-1.3-10.3-0.3-15.3c0.4-2.2,0.6-4.6-1.8-6.7
			L592.2,613.1z M433.5,313.1c5.2-3.8,11.3-6.1,16.8-10.7l-8-7.2c-0.1-0.9-0.2-1.9-0.4-3.1l-3.1,0.5l-7.9-6.8
			c-0.7,1.6-1.5,2.6-1.5,3.4c-0.1,6.1-1.8,11.9-3.7,17.7c-1.3,4-0.9,8.2,0.2,12.5C430,318.5,431,314.9,433.5,313.1z M301.9,339.6
			c-2.8,1.9-5.2,3.2-6.6,5.9c-1.8,3.4-4.1,6.6-6,10c-2.3,4.1-5.7,7.6-6.9,13c6.5,1.1,12.7,3.4,19.5,3.1
			C303.4,360.9,303.7,350.6,301.9,339.6L301.9,339.6z M369.3,764.3c5.9,2.4,4.9,9.4,8.8,12.9l6.5-4.3c0.6-3.7-1.9-5.7-3.5-8.1
			c0.1-1.7,0.2-3.4,0.4-5.8l-3.8,2.8c-3.3-4.9-7.9-8-14.1-7.8c-0.9-2.6-1.6-4.8-2.3-7.1c-4-2.9-8.1-5.6-13.5-7
			c-0.7,2.2-1.2,4.2-2,6.6l8.1,5.4c4.1,2.8,8.3,5.5,12.4,8.5C367.5,761.4,368.3,763,369.3,764.3z M665,409.5l12.1,18.4
			c5.6-1.5,14.9-13.2,15.8-20.3L665,409.5z M614.4,349.2c6.2-13.8,8.1-21.7,6.3-26.2c-3.7,1.1-18.9,10.3-21.6,13.1
			c1.6,5.9,9.8,5.5,10.9,11.7L614.4,349.2z M375.1,270.3l-10.3,9.2c7.3,7.1,14.5,9.7,19.4,7.5v-17.6c-0.3-0.4-1.2-1.2-1.8-1.8
			L375.1,270.3z M467.4,256.2c0.5-5.6-0.6-8.5-4-13c-1.4-2-2.7-4.1-3.8-6.3c-1-1.8-1.9-3.5-3.5-3.4c-2.4,1.6-4.1,3-6.1,3.9
			c-2,0.9-4.6,0.7-6.2,3.6C451.3,246.3,458.4,252.3,467.4,256.2L467.4,256.2z M285.3,494.7c-4.8,1.7-9.1,3.3-13.4,4.8
			s-9,1.6-13.2,5.3l21.9,8.1C283.3,507.1,284.9,501,285.3,494.7L285.3,494.7z M315.3,731c1.6,1.3,2.7,2.5,4,3.1c3,1.5,6.1,2.7,9.2,4
			s5.7,3.4,9.2,3.6c-0.3-8.3-7.6-13.3-19.9-13.9L315.3,731z M247.2,460.5l3.6-7.9l-1.5-5c-1.4-0.3-2.8-0.8-4.2-1.4
			c-1.3-1-2.6-2-3.8-3.2c-3.1,3.8-5.5,7.3-5.1,12.6l8,0.4C245.2,457.3,246,458.6,247.2,460.5z M330.3,724c1.8-3.8-0.2-6.7-1.5-9.7
			c-1.3-3-2.7-6.2-4.2-9.7l-3.7,4.7c-0.9,3.7-1.8,6.9-2.6,10L330.3,724z M584.9,621.9c-3.2,2.4-5.2,4.9-4.7,8.9l6.1,2.1
			C587.9,628.8,587,625.4,584.9,621.9z"/>
		<path class="st0" d="M914.8,173.6l5.1,1c2.2,15.2,8.5,29.5,5.6,43.6l2.2,13.1c-2.5,4.3-0.9,9.1-0.5,13.8c0.1,2.8,0,5.6-0.2,8.4
			c-0.1,2.1-0.1,4.2-0.3,6.3c-0.2,2.4-0.1,5.1-0.9,7.3c-2,5.3-0.6,11.9-5.8,16.3c-2.7-0.6-3.5-2.7-3.1-5.1c0.4-3,1.4-5.9,1.9-8.9
			c0.5-3.1,0.8-6.3,1.1-9.4c0.1-0.7-0.1-1.4,0-2.1c2.4-14.5-1-29.1-0.1-43.7c0.2-2.8-0.7-5.6-1-8.4c-0.1-0.5-0.4-1.1-0.3-1.5
			c1.3-4.8-0.9-9.1-2.3-13.5C914.7,186.2,913.9,177.8,914.8,173.6z"/>
		<path class="st0" d="M638.4,147.7c1.4-2.9,3.2-7.3,10.1-6.3c-1,2.3-1.7,4.2-2.7,6c-3.9,7-9.6,12.4-15.3,17.8
			c-2.3,2.2-4.2,4.8-5.6,7.5c-3.4,6-6,12.5-7.7,19.2l-6.3-2.3c0.7-2.8,1-5,1.8-7.1c1.6-4.1,3.5-8.2,5.4-12.2c0.3-0.6,0.5-1.5,1-1.9
			c4.8-3.4,6.7-9.2,11-12.9C632.5,153.2,635,150.9,638.4,147.7z"/>
		<path class="st0" d="M622.4,195.6c0.2-5,2.9-8.4,5.9-11.7c5-5.6,9.7-11.4,14.5-17c2.8-3.2,6.3-5.7,8.5-9.5
			c1.2-2.2,3.9-3.2,6.2-2.3v7c-9.9,11.6-21.9,21.3-30.5,34.2c-0.9,0.1-1.9,0.1-2.8,0C623.5,196,622.9,195.8,622.4,195.6z"/>
		<path class="st0" d="M898.8,230.9l5.1-1.6c0.6,2.5,1.2,4.6,1.7,6.7l-2.2,2.1l2.6,2.1c-0.4,1.6-0.9,3.3-1.4,5.4
			c0.9,4.1,1.6,8.5-0.4,13.1c-1.2,3-0.6,6.6-1.2,9.9c-0.4,2.4-0.7,5-3.5,6.4c-2.9-0.9-3.8-3.4-3-5.9c3.5-12.1,1.8-24.4,2-36.6
			C898.6,232,898.7,231.4,898.8,230.9z"/>
		<path class="st0" d="M122.9,363.5c-1.9-3.7-4.1-8.2-6.3-12.6c-2.8-5.2-4.3-11-4.3-16.9c0-3.6-0.5-7.1-1.3-10.6
			c-0.9-4-1-7.8,1-11.7c-2.1-2.7-1.8-5.8-1.1-9c1.1-5.2,2.1-10.5,3.3-16l4.6-2.4c3.1,2.9,2,6,0.7,8.9c-2.5,5.9-3.5,12.4-2.8,18.8
			c0.3,3.4,1,6.7,1.3,10.1c0.6,4.9,0.9,9.9,1.5,14.9c0.2,2.6,0.8,5.3,1.7,7.8c4.1,10.1,9,19.8,16.6,27.9c1.8,2,3.5,4,5.1,6.2
			c1.9,2.5,2.2,5.1-0.3,8.2c-2.1-1.5-4.6-2.6-6-4.4c-3.6-4.8-6.8-10-10.2-14.9C125.4,366.2,124.2,364.8,122.9,363.5z"/>
		<path class="st0" d="M140.4,352c-3.5-3.3-4-7.4-4.3-11.5c-0.4-4.8-0.7-9.5-1.2-16c1.4-5.8,0.1-13.7,3.3-21.8l4.8,3
			c-2.3,13-1.6,25.5,0,38.1C143.3,346.6,144.8,350.1,140.4,352z"/>
		<path class="st0" d="M366.2,412.2l-2.7-1.4c-0.2-1.6-0.3-3.2-0.5-4.8c7.6-9.3,16.6-17.2,25.7-24.9c2.3-1.9,4.1-4.4,6.2-6.5
			c1.7-1.8,3.6-3.4,5.6-4.9c1.9-1.4,3.9-2.4,6.1-3.7c1.1-4.2,4.7-5.8,7.3-7c2.4-2.2,4-3.9,5.7-5.3c3.4-2.9,6.9-5.7,10.3-8.6
			c4.6-3.9,9.7-7.3,15-10.1c6.6-3.5,12.5-8.1,19-11.8c6.2-3.5,12.7-6.5,19.1-9.5c1.2-0.6,2.7-0.4,4.9-0.6c-0.7,2.8-1.2,5.1-1.8,7.7
			c-8.8,1.3-15.3,6.5-22.1,11.1c-3.4,2.3-7.2,3.8-10.8,5.7c-1.5,0.6-2.9,1.4-4.3,2.2c-6.5,4.3-13,8.8-20.1,13.6
			c-3.5,4.2-7.2,9.4-12.8,12.8c-4,2.4-7.7,5-10.5,9c-1.1,1.5-3.1,2.4-4.5,3.7c-6.8,6.5-13.7,12.9-20.5,19.5
			C375.8,402.8,371.2,407.4,366.2,412.2z"/>
		<path class="st0" d="M467.1,382.7c3.1,0.8,4.1,2.7,4.6,5.1c1.2,5.4,2.4,10.8,3.8,16.1c0.6,2.3,1.5,4.6,2.7,6.7
			c1.5,5.5,3.2,11,4.3,16.5c0.9,4.9,1.5,9.8,1.8,14.8c0.1,1.6-0.5,3.4-0.9,5.1c-3.5-0.6-3.9-3-4.5-5.2c-1-4-1.7-8-2.8-12
			c-1.3-4.6-2.8-9.2-4.2-13.8c-0.3-0.6-0.6-1.3-0.7-2c-0.2-7.7-3.7-14.5-6.1-21.5C463.7,389,464.2,385.7,467.1,382.7z"/>
		<path class="st0" d="M460.3,440.8c-5.9-12.2-13.2-23.1-17.3-35.9l3.8-5.8c1.4,1.8,2.6,2.8,3.2,4.2c4.6,9.5,9,19,13.5,28.4
			C465.5,435.9,465.1,437.4,460.3,440.8z"/>
	</g>
</g>
</svg>
