<?xml version="1.0" encoding="utf-8"?>
<!-- Generator: Adobe Illustrator 23.1.0, SVG Export Plug-In . SVG Version: 6.00 Build 0)  -->
<svg version="1.1" id="Capa_1" xmlns="http://www.w3.org/2000/svg" xmlns:xlink="http://www.w3.org/1999/xlink" x="0px" y="0px"
	 viewBox="0 0 550.8 1080" style="enable-background:new 0 0 550.8 1080;" xml:space="preserve">
<style type="text/css">
	.st0{fill:#5F1812;}
</style>
<g>
	<g id="Capa_1-2">
		<path class="st0" d="M343.6,0c0.3,5.2,0.2,10.2,1.6,15.4c1.2,4.6,0.3,9.6,0.6,14.5c0.1,3,0.5,6,1.3,8.9c1.4,4.8,1.6,9.6-0.2,14.3
			c-1.2,2.8-1.3,6-0.3,8.9c0.7,2.4,1,4.9,0.9,7.4c-0.1,4.1-0.4,8.3-0.9,12.4c-0.6,5.6-0.9,11.1,1.5,16.4c0.9,2,1.2,4.2,1,6.3
			c-1.2,8.5-0.3,17.3-2.9,25.6c-1.1,3.5-1.9,7-0.6,10.6c0.2,0.5,0.3,1.1,0.2,1.6c-1.6,9.9,0.6,20-1.3,29.9c-0.4,1.4-0.5,2.8-0.3,4.2
			c1.3,4.6,0.7,8.9-0.8,13.3c-1.1,2.9-1.1,6.1,0,8.9c1.2,3.6,1.5,7.4,0.8,11.2c-0.4,2.8-0.3,5.7,0.2,8.5c0.9,4.8,0.9,9.7-0.2,14.4
			c-0.4,2.6-0.5,5.3-0.4,8c0,3,0.1,6.1,0.3,9.2c0.1,3.2,0.2,6.5,0.6,9.7c0.6,4.7,0.7,9.2-1,13.8c-0.8,2.7-0.9,5.6-0.4,8.4
			c0.9,3.9,0.5,7.9-1.2,11.6c-1.5,3.2-2.4,6.6-1.3,9.9c1.2,3.7,0.5,7.2-0.7,10.5c-2.1,5.6-3.4,11.4-3.9,17.3
			c-0.2,2.3-1.1,4.5-1.6,6.8c-1,4.9-1.9,9.8-2.9,14.7c-0.4,1.9-0.9,3.8-1.4,5.7c-1.8,6.6-3.5,13.2-5.6,19.7c-1.2,3.9-3,7.5-4.9,12.2
			c0,1.2,0.5,3.7-0.1,5.9c-0.8,3.1-2,6.1-3.8,8.7c-2,2.5-3.4,5.5-4,8.7c0,0.5-0.2,1.1-0.3,1.6c-6.3,13-9.8,27.4-19.5,38.7
			c-0.9,0.9-1.6,2-2.1,3.1c-2.6,7.3-7.1,12.8-14.5,15.6c-0.7,4.6-1,8.7,1.4,12.8c2.8,4.8,3.4,10.2,2.8,15.7c-0.5,4.3,0,8.7,1.5,12.7
			c2.1,5.5,1.6,11-0.2,16.4c-1.4,4.1-1.9,8.5-1.2,12.8c0.2,0.9,0.2,1.8,0.1,2.7c-1.2,6.3-2.3,12.8-3.9,19c-0.9,3.4-3,6.5-4.8,10.1
			c0,0.6,0,1.1,0.1,1.7c1.5,6.7-0.3,12.5-4.8,17.5c-2.5,2.7-4.4,5.6-5.1,9.3c-0.6,3.2,0,4.6,2.8,6.3c1.1,0.5,2.2,1.1,3.3,1.8
			c2.2,1.8,5.1,3.4,6.2,5.8c3.4,7.6,8.3,15,6.9,24.3c2.1,2.6,4.2,5.3,6.5,7.8c2.5,2.8,3.9,6.5,4,10.3c0.3,3.7,1,7.4,2.2,11
			c1.3,4.2,2,8.3,1.2,12.7c-0.9,4.6-0.8,9.3,0.3,13.9c0.5,2.3-0.3,4.9-0.4,7.4c-0.1,3-0.2,6-0.2,9c0.1,0.9,0.1,1.8,0.1,2.7
			c-1.3,5.4-2.3,10.9-4,16.2c-1.9,5.9-5.5,11-10.4,14.8c-2.4,1.7-3.7,4.5-3.5,7.4c0.1,3.8,0,7.5,0,11.6c7.9,5.9,11.7,14.4,14.2,23.5
			c2.4,8.8,3,18,5.1,26.8c0.8,3.2,0.1,6.8,0.1,11.3c2.7,4.2,2.1,9.9,1.3,15.7c-0.6,4.2-0.4,8.6-0.8,12.8c-0.2,2.7-0.2,5.6-1.3,7.9
			c-1.7,3.4-2.5,7-3.6,10.6c-1,3.4-2.6,6.7-4.5,9.7c-2,3-3.2,6.4-3.4,10c-0.1,5.1-0.9,10-6,13c-1,0.6-1.4,2.3-1.7,2.9
			c4.5,5.7,8.6,10.9,12.8,16c0.5,0.7,1.2,1.3,2,1.7c4.6,2.2,7.7,5.8,10.2,10.1c1.8,3,4.4,5.3,7.6,6.6c4.7,2.1,8.4,5.8,10.5,10.4
			c2.4,5,6.7,7.7,11.8,10.6c1-2.2,1.9-4.1,2.8-6c0.7-1.6,1.1-3.5,2-5c4.9-7.7,10-15.3,14.9-23c2-2.9,3.8-6,5.3-9.3
			c2.1-5,4.2-9.9,8.3-13.8c0.4-0.4,0.7-0.8,1-1.3c3.5-6.8,7-13.6,10.5-20.5c0.8-2,1.8-3.9,2.9-5.8c5.4-8,8.1-17.2,11.1-26.2
			c0.1-0.3-0.1-0.7-0.2-1c-0.3-0.1-0.7-0.3-0.9-0.2c-8,4.3-16.7,3.6-25.3,3.5c-4.4-0.1-7.8-2.4-11.1-5c-2-1.6-3.9-3.1-6-4.5
			c-8.9-5.9-12.4-19.9-7.4-29.4c1.5-3,2.8-6.2,3.8-9.4c2.4-6.5,6.9-11.1,13.3-15.8c1.9-3.7,4.8-8.3,6.9-13.2c1-2.7,1.3-5.5,1-8.3
			c-0.3-2.7,0.2-5.4,1.2-7.8c2.5-5.8,4.8-11.6,7.3-17.4c0.7-1.6,1.5-3.3,2.4-4.8c2.5-4.5,5.1-9,8-13.9l-8.2-2.3l-5.4-9
			c-4.2-2.9-7.3-5.1-10.4-7.2c-1.5-1-3.1-1.8-4.8-2.4c-4.1-1.3-7.9-3.6-10.9-6.8c-3.1-3.4-6.8-5.7-11.7-5.8c-3.6-0.1-6.4-2.1-8.6-5
			c-2-2.6-2.7-5.4-1.3-8.5c1.6-3.6,3.2-7.3,4.7-10.9c0.2-0.3,0.4-0.6,0.6-0.9c2.6-4.4,14.5-11,19.4-11c1.8,2.6,3.3,5,5.1,7.1
			c3.7,4.6,7.7,9,11.4,13.7c2.5,3.3,6.1,5.7,10.1,6.8c4.2,1.2,7.9,3.6,10.8,6.8c2,2,4.5,3.5,7.1,4.5c2.8,1.2,5.1,3.7,7.4,6
			c1.8,1.8,3.2,4,6.8,3.5c5-3.9,10.4-8,14.8-13.3c3.4-4.1,7.3-7.9,11.1-11.8c3.5-3.7,6.6-7.5,8-12.6c0.6-2.1,1.7-4,3.2-5.5
			c3.4-3.3,4.8-7.5,5.9-12.1c-1-0.9-2-1.8-3.1-2.7c-3.5-2.8-7.2-5.4-10.6-8.4c-2.2-1.9-4.4-3.9-5.8-6.3c-2.9-5.1-5-10.6-8.8-15.2
			c-1.2-1.4-1.5-3.6-1.8-5.6c-1.9-12.9-0.5-26,4.2-38.2c2.1-5.8,5.5-11,9.9-15.2c3.1-2.9,5.6-6.5,8.4-9.9c-1.4-3.7-2.6-7.3-4.2-10.7
			c-0.9-1.9-2.3-3.6-4-4.9c-4.9-3.4-7.3-8.2-8.8-13.8c-0.9-3.3-2.4-6.3-3.3-9.6c-1-3.2-1.6-6.6-1.9-9.9c-0.3-5-0.4-9.9-1.9-14.9
			c-2.3-7.8-2.1-16.2,0.5-23.9c3.5-10.2,6.5-20.6,10.5-30.6c2.8-7.2,6.7-13.9,10.2-20.8c0.5-0.7,1-1.4,1.6-2.1
			c2.1-2.9,4.3-5.7,6.3-8.6c1.7-2.5,3.1-5.3,4.8-8.1c-1.5-5.9-2.9-12-4.7-18c-0.7-2-1.9-3.8-3.4-5.3c-4-3.5-6.4-8.4-6.7-13.7
			c-0.2-1.8-0.8-3.5-1.7-5c-2-3.5-2.9-7.5-2.5-11.5c0.7-6,0.3-12.4,4.6-17c0-4.1-0.3-7.9,0-11.7c1.3-15.6,6.4-30.7,15-43.8
			c4.1-6.3,7.5-13,10.8-18.7c-1.8-5-3.2-8.9-5-14c-4-2.2-7-6.8-8.8-12.2c-0.5-2.1-2-3.9-4.1-4.7c-5.7-2.1-7.9-6.6-8.2-12.2
			c0-4.5-1.1-8.9-3.2-12.9c-1.1-2.1-1-4.9-1.3-7.3c-0.5-3.7-0.5-7.5-1.4-11.1c-1.1-4.6-0.9-9.4,0.4-13.9c1.3-4.7,1.9-9.5,1.9-14.3
			c0-2.7,0.6-5.4,1.7-7.8c4.3-9.5,8.5-19.1,15-27.4c1.3-1.7,2.2-3.7,3.4-5.5c3.2-4.8,4.2-9.8,1.4-15.2c-1-2-1.1-4.5-1.7-6.8
			c-0.3-1.2-0.3-2.7-0.9-3.6c-3.2-4.2-4.6-9.5-4-14.8c-9.9-3.9-11.1-12.7-12.9-21.2c-0.4-2.3-0.9-4.5-1.7-6.7
			c-1.7-4.3-2.8-8.5-1.7-13.3c-4.3-6.5-6.5-14.1-6.3-21.9h23.8c0.4,1.6,0.8,3.1,1.1,4.7c1.6,11,3.6,21.9,10,31.4
			c0.5,0.8,0.8,1.6,0.9,2.5c1.7,8.3,5.4,15.9,8.7,23.6c0.6,1.3,1.9,2.4,2.8,3.4c0.8-0.5,1.3-0.6,1.4-0.8c4.9-8.1,10.4-16,13-25.3
			c1-2.9,2.2-5.7,3.5-8.4c0.9-2,2.1-3.8,2.6-5.9c2.3-8.4,4.5-16.9,6.8-25.3h3.2c-4.4,10.4-0.9,19,9.8,23.9c3.1-2.6,3.6-6.3,3.7-10.1
			c0.2-5.6-2.6-9.9-6-13.9H525c-0.4,2.6-0.9,5.3-1.6,7.8c-2.5,7.9-5.7,15.5-7.9,23.5c-3.4,12.1-9,23.1-14.6,34.2
			C497,73,492.3,80,488,87.3c-0.4,0.6-0.6,1.3-1.1,2.3c5.3,6.8,8.1,15.3,14.7,21.5c4.4,4.1,7.7,9,8.1,15.4c0.1,0.7,0.3,1.4,0.7,2
			c2.3,3.9,2.4,8.1,2.4,12.5c0,3.4,0.7,6.7,1,10.1c1.1,12.8,1.4,25.5-3.9,37.7c-1.2,2.8-2,5.7-2.5,8.7c-1.1,6.8-3.1,13.3-5.9,19.6
			c-3.5,7.5-6.8,15.1-7.6,24c3,6.1,6.4,12.4,9.1,19c1.6,3.7,2.3,7.9,3.1,11.9c0.6,2.6,0.5,5.4,1.3,7.9c2,6.4,2.9,12.6,0.2,19.1
			c2.9,6.6,2.7,13.2,0.4,20c-0.8,2.3-0.5,5-0.3,7.5c0.5,3.9,0,7.9-1.5,11.5c-1.4,3.1-2,6.6-1.7,10c0.3,5.8-1.5,10.9-4.8,15.7
			c-1.7,2.7-2.8,5.8-3.4,8.9c-1.1,5.6-3.2,10.3-9.1,12.2c5.5,10.3,6.5,21.3,7.6,32.4c0.9,8.5,3.1,17,4.5,25.5c1,6,1.8,12.1,2.7,18.1
			c0.4,2.6,0.5,5.4,1.5,7.9c1.6,4.6,1.7,9.6,0.3,14.3c-0.5,1.9-1.1,3.8-1.7,5.7c-1.3,4.1-2.2,8.2-1.3,12.7
			c1.1,5.3-0.4,10.2-3.5,14.8c-1.8,2.6-2.9,5.8-4.1,8.7c-2.1,5-4.1,10-9.1,13c-0.9,0.6-1.6,1.5-2,2.5c-2.5,5.2-6,9.9-10.3,13.7
			c-0.4,0.5-0.7,1.1-1,1.7c2.1,3.8,4.5,7.6,6.4,11.6c1,2.4,1.8,5,2.3,7.6c0.9,3.7,1.3,7.5,2.4,11c1.3,4.5,1.7,9.2,1.3,13.8
			c-0.3,3.6,0,7.1,0.8,10.6c1,4.5,1.6,9.1-0.5,13.2c-2.6,5.1-3,10.3-2.8,15.7c0.1,2.2,0,4.3,0,6.5c4.8,5.2,9.4,10.2,14.1,15.1
			c5,5.3,9.3,11,11.5,18c0.9,2.2,1.9,4.3,3.1,6.3c1,1.7,1.9,3.5,2.7,5.3c2.6,8,5,16,7.5,24.1c0.9,2.9,2,5.8,2.7,8.7
			c0.9,3.7,1.5,7.4,1.9,11.1c0.2,3,1,6,2.4,8.7c2.5,4.3,3.1,9.4,1.8,14.1c-0.8,2.6-0.5,5.4,0.8,7.8c0.8,1.4,1.4,2.9,1.8,4.5
			c1.4,5.9,1.7,12,3.1,17.9c1,4.1-0.7,8.8-1.2,14.2c3.7,5.2,3.1,11.7,1.9,18.4c-0.3,2.3-0.2,4.7,0.2,7c1.1,9.3,2.3,18.6,3.5,27.8
			c0.2,1.8,0.4,3.6,0.4,5.4c0,9.7,0,19.4,0.1,29.1c-0.1,0.7-0.1,1.4,0.1,2.1c2.4,6.7,1.7,13.4,1,20.2c-0.6,7-0.7,14-0.3,21
			c0.1,3.2,1.3,6.3,1.7,9.5c0.3,2.8,0.4,5.7,0.2,8.5c-0.2,3.6-1.1,7.2-0.9,10.7c0.5,10.4,1.4,20.8,2.1,31.2c0.2,3,0.2,6.1,0.4,9.2
			c0.6,11.3,0.8,22.6,2,33.8c0.9,8.1,1.9,16,1.1,24.2c-0.3,2.7,0.4,5.4,0.5,8.1c0.3,3.7,0.5,7.5,0.7,11.6h-6.9
			c-0.3-2.6-0.9-5.2-1.6-7.7c-0.6-2-1.8-3.8-3.5-5.1c-4.2-2.7-8.7-4.9-13.3-7.4c-3.3,7.6-1.9,14.1,3.2,20.4h-5.9
			c-0.5-5.8-1-11.4-1.4-17.1c-0.1-1.8-0.1-3.6-0.4-5.4c-3-20.8-3.7-25.5-1.3-41c-3.5-5.8-4.6-12.2-1.2-18.7
			c-4.2-7.5-4.6-15.2-2.7-23.2c0.2-1.4,0.2-2.8,0-4.3c-0.3-4.4-0.6-8.9-1.1-15.3c-2-3.6-1.5-9.2,0.1-14.9c1.5-5.6,1.7-11.4,0.6-17.1
			c-1.4-8.9-2.8-17.7-0.8-26.8c0.6-2.6-0.2-5.8-1.3-8.3c-1.5-3.1-1.9-6.6-1-9.9c0.9-3.3,0.8-6.8-0.4-10.1
			c-1.7-4.8-1.7-10.1,0.2-14.8c1-2.3,1-5-0.2-7.3c-1.9-4.1-2.5-8.7-1.7-13.2c0.7-5,0-9.9-0.7-14.9c-1-7.4-1.6-14.9-3.3-22.2
			c-0.2-0.7-0.2-1.4,0-2.2c1.4-5.3,0.5-10-2.1-15c-1.4-2.5-1-6.3-0.6-9.5c0.4-2.6,0-5.3-1.2-7.7c-1.2-2.6-2.4-5.5-2.3-8.2
			c0.4-8.2-2.3-16-2.2-24.1c-0.1-1.6-0.4-3.2-1-4.7c-1.6-5.3-3.1-10.7-4.8-16c-0.7-2.2-1.8-4.3-3.2-6.1c-2.4-3.1-4.4-6.1-3.8-10.4
			c-5.5-3.4-9.7-8.5-11.9-14.5c-4.6,4.3-9,8-13,12c-2,2-3.7,4.4-4.8,7c-1.7,4-4.2,7.6-7.3,10.5c-2.5,2.5-4.6,5.4-7.1,8
			c-2.2,2.3-4.5,4.6-6.9,6.7c-4.1,3.7-8.4,7.3-12.8,11.1c4.3,5.8,6.1,11.9,7.9,18.2c1.1,3.6,1.2,7.5,0.1,11.1
			c-0.5,1.5-0.9,3.1-1.1,4.7c-0.8,5,2.2,9.8,7,11.3c3.2,1.1,6.5,2,9.8,3c8,2.5,13.2,7.9,15.2,16c1.6,6.8,3.3,13.7,4.3,20.6
			c0.5,3.4-0.2,7.1-0.8,10.7c-0.7,4.1-1.9,8-2.7,12.1c-1.1,6.4-4.2,12.4-8.7,17c-3.4,3.4-5.9,7.7-8.6,11.7
			c-2.3,3.7-6.2,6.2-10.6,6.7c-1.9,0.3-3.6,1.3-5.5,1.9c-2,0.8-4,2-6,2.2c-4.9,0.4-9.2,3.2-11.4,7.6c-1.9,4.4-3.8,8.8-5.6,13.3
			c-2.1,5.1-4.3,10.3-6,15.5c-0.9,3.3-2.8,6.3-5.4,8.5c-6.8,5.6-10.7,13.4-15.5,20.5c-2.2,3.5-4.6,6.8-7.2,10
			c-2.2,2.5-3.9,5.1-4.5,8.4c-0.6,4.7-2.9,9-6.4,12.2c-3.4,3.1-5.1,6.8-6.4,11.5c2.8,4.4,5.7,9.2,8.9,13.7c2.1,2.9,3.5,6.2,4.4,9.7
			c1,3.6,2.2,7.2,3.6,10.6c1.9,4.5,3.3,9.1,3,14.1c-0.1,2,0.2,3.9,0.8,5.8c1.7,5.2,2,10.7,0.8,16c-0.6,3-0.5,6.1,0.3,9
			c0.9,4.2,0.6,8.6,0.9,13.3h-7c-2.3-4.2-5.8-7.6-11.1-8.9c-2.8,2.4-2.4,5.9-3,9.1l-2.4,0.2c-1.7-3.1-0.8-6.3-0.7-9.5
			c0-1.9,0.3-4.2-0.6-5.7c-3.4-5.7-4.1-11.8-3.2-18.7c-6.3-5.2-7.7-12.4-7.1-20.3c0.2-2.1-0.3-3.9-2.6-5
			c-6.7,7.9-11.4,17.4-13.7,27.5c-2.5,10.3-2.7,21-0.6,31.4H316c-0.2-0.4-0.5-0.7-0.5-1c0.7-5.3-1.2-10.6-5.1-14.1
			c-3.6-3.5-6.8-7.3-10.3-11.1c-5.9,10.5-1,21.6,11.1,24.7c0.2-2.5,0.5-4.8,0.6-6.8c1.7,2.8,1.7,2.8,0.2,8.4h-8.4l-3.9-2.6l-3.3,2.8
			l-4.6-0.3c0.2-1.2,0.5-2.3,0.8-3.4c1.6-4,1.9-8.5,0.8-12.7c-0.9-4.2,0-8.2,1.4-12.2c0.9-2.5,1.9-5.2,1.9-7.8
			c0.2-4.9,1.6-9.6,4-13.9c1.8-3.1,2.8-6.6,2.9-10.3c0-4.4,1.6-8.6,4.4-11.9c2.8-3.1,5.3-6.3,5.7-10.7c0.1-1.5,1.2-3,2-5
			c-3.5-3.5-8.6-6.2-8.8-11.7c-11.7-7.1-11.7-7.1-17.3-21.8c-6.2-1.1-9.5-5.7-12.1-11.4c-1.6-3.7-4.6-6.6-8.4-8
			c-4.5-1.6-8.2-4.9-10.4-9.2c-1.3,3.2-2.4,5.7-3.4,8.3c-1.4,3.5-3.1,6.8-6.7,8.9c-1,0.7-1.9,1.7-2.5,2.7
			c-8.6,11.2-14.7,23.8-20.4,36.7c-2.5,5.5-5.4,10.9-8.6,16.1c-3.2,5.2-5.8,10.7-7.8,16.5c-2.3,7-5.2,13.8-8.6,20.3
			c-6.4,12.8-10.1,26.4-14.7,40.6c-5.4-1.4-11.7,2.2-17.6-2.2c-1.8,1.4-3.8,3.4-6.6,1.7c-0.2-3,0.8-6,2.7-8.4
			c1.5-1.8,2.2-4.2,1.9-6.5c-0.6-5.1,0.8-10.2,3.8-14.3c2.1-3,3.2-6.5,3.4-10.1c0.1-4.4,1.6-8.6,4.4-12c2.5-3.1,4.1-6.8,4.5-10.8
			c0.7-4.4,2.3-8.7,4.8-12.4c3.8-6,6.9-12.6,10.3-18.9c0.6-1.1,0.9-2.3,1.1-3.6c0.7-5,2.8-9.7,6.2-13.5c1.3-1.7,2.2-3.7,2.6-5.8
			c1-4,3-7.7,5.7-10.9c1.5-1.7,2.4-3.9,3.5-5.9c1.8-3.3,3.3-6.8,5.4-9.8c4.2-6.2,8.6-12.3,14.1-17.6c2.4-2.3,3.4-6.1,5.2-9.5
			c-1.3-1-2.2-1.8-3.2-2.4c-4.9-3.1-8.5-7.9-10.2-13.5c-0.9-3.1-2.7-5.9-5.2-8c-3-2.5-4.4-6-5.5-9.7s-2.2-7.2-3.5-10.7
			c-1.8-4.8-2.5-9.7-1.2-14.8c0.9-3.5,1.1-7.1,0.6-10.6c-0.4-2.8,0.2-5.7,0.7-8.5c1-5.5,2-11,3.5-16.3c1.4-5.2,3.5-10.2,5.3-15.2
			c1.3-3.5,2.7-7,4.1-10.6c0.5-1.2,0.7-2.6,1.5-3.4c5-5.1,6.2-12.1,9-18.2c1.7-3.7,2.5-7.8,3.8-12.1c-1.1-1.4-2.4-2.7-3.7-3.9
			c-2.7-1.9-4.5-4.7-5.3-7.9c-0.6-2.5-2-4.7-4-6.2c-2-1.8-3.9-3.7-5.5-5.9c-2.9-3.8-5.8-7.7-8.4-11.8c-1.4-2.5-2.6-5.1-3.5-7.8
			c-1.4-3.7-2.8-7.3-3.9-11.1c-0.8-2.5-1.2-5.2-1.2-7.8c0.2-5.7,1.5-11.5,1.3-17.2c-0.3-8.5,2.5-16.3,4.3-24.3
			c2.2-10.1,6.8-19.3,11.2-28.6c1.1-2.3,3.3-4.2,5.2-6.4c-0.2-4.6-2.1-8-6.6-10c-5.7-2.5-8.8-7.1-9.9-13.2c-0.3-2.1-1-4.2-2.2-6
			c-4.1-5.4-5.7-11.2-3.6-17.8c-0.6-1.1-1.1-2.3-1.7-3.3c-2.2-4-2.8-8.6-1.7-13c1.7-7.5,3.1-15.1,4.4-22.7c1.2-6.8,3-13.3,7.1-19
			c0.9-1.1,1.6-2.4,2-3.8c1.7-7.6,6.4-13.2,11.8-18.3c6.9-6.5,10.2-15.1,15-23.2c-0.9-1.5-1.5-3.1-2.6-4.1c-5-4.3-7-9.8-7.4-16.2
			c-0.1-1-0.3-2.1-0.6-3.1c-9-4-7.1-13.4-9.3-20.9c-2-1.6-3.9-3.2-5.9-4.8c-2.6-2-4.5-4.7-5.6-7.7c-0.7-2-2.5-3.8-4.1-5.4
			c-1.1-1.1-2.7-1.7-4.1-2.6c-6.5-4.1-7.3-5.4-7.3-13.5l-3.8-3.5c-3.2,2.7-6,5.9-8.1,9.5c-2.3,4-5,7.9-8,11.5
			c-3.5,4.4-5.9,9.5-7.1,14.9c-1.4,5.2-3.2,10.3-5.2,15.2c-3.1,8.2-6.5,16.4-9.6,24.6c-0.5,1.2-0.7,2.4-0.6,3.7
			c0.7,6.9-1.2,13.2-3.8,19.4l-4.6,11.2c-5.8,0-11.5-1.3-16.7-3.7c-2.5-1.1-3.3-3.6-4.1-6c-1-2.6-2.2-5.2-3.6-7.6
			c-1.1-7.1,0.9-13.8,4.4-20c1.9-3.1,4-6,6.3-8.8c2.6-3.3,4.7-6.9,5.2-11.1c0.5-4.1,2.2-8,4.8-11.3c4.2-5.5,7-11.8,8.3-18.5
			c0.6-2.6,1.7-5.1,3.1-7.4c6.5-11.4,13.2-22.7,19.9-34c-1.4-4.7-4.1-9-7.7-12.3c-6.1-5.4-10-11.6-9.9-20.1c0-2.9-1.1-6-2.3-8.8
			c-2.9-6.6-3.5-13.5-3.2-20.6c0-3.4-0.2-6.8-0.7-10.1c-0.5-4.4-0.4-8.6,1.3-12.7c1.3-3.4,2-6.9,1.9-10.5c0.2-3.2,0.9-6.3,2.2-9.3
			c1.8-4.7,4.3-9,5-14.1c0.3-2,1.8-3.9,2.6-5.9c1.1-2.4,2-5,2.8-7.6c1-3.6-0.2-7.4-3-9.8c-3.2-2.9-6.1-6-6.3-10.8
			c0-1.3-1.2-2.6-2.1-3.6c-3.5-3.9-5.1-8.6-6.3-13.5c-0.6-2.5-1.3-4.9-2.4-7.2c-2.1-4.6-3.9-9.2-3.4-14.5c0.1-1.4-0.3-2.9-0.9-4.1
			c-3.7-7-3.2-13.9,1-20.7c-1.2-6.2-0.3-12.6,2.6-18.2c0.5-1,0.7-2,0.6-3.1c-0.3-5.1,1.6-9.5,3.8-13.9c3.7-7.4,7.6-14.7,11.2-22.2
			c4.2-8.6,2.4-15.4-5.2-21.2c-0.3-0.2-0.6-0.4-0.9-0.6c-4.7-2.9-7.5-6.7-6.7-12.6c-5.4-4.9-7.8-11-7.9-18.3
			c-0.2-2.1-0.9-4.2-2.2-5.9c-2.2-3.1-3.3-6.8-3.3-10.6c0.2-4-0.9-7.9-3.1-11.3C127.3,8,127.3,4,127.7,0h2.2
			c-0.3,11.9,5.2,18.7,16.6,20.1l1.1-5.6h0.6l1.3,6.7c3-1.3,3.1-3.7,2.9-6c-0.5-4.9-2.9-8.7-7.6-10.9c-2.9-1.4-5.6-2.9-8.4-4.4h17.3
			c1.7,7.3,3.3,14.7,5.1,22c0.3,1.4,1,2.7,1.9,3.8c2.7,3.4,4.5,7.4,5.1,11.7c0.2,1.8,0.8,3.5,1.5,5.1c2.6,4.8,5.4,9.4,8.2,14.4
			c0.6-1,1.3-2,1.9-3c2.8-5.4,5.7-10.8,8.4-16.2c1.8-3.5,3.9-6.8,3.5-11.1c0-1.3,0.3-2.5,1.1-3.5c4.4-7.1,4.4-15.4,6.5-23.1h10.8
			c0.4,2.7,2,4.4,5.3,5.1l3.4-5.1h6.5c-1.2,3.8-2,7.7-3.6,11.3c-4.8,11.2-8.8,22.8-12,34.6c-2.5,9.4-6.2,18.4-12.9,25.9
			c-0.7,0.8-0.9,1.9-1.6,3.4c1,1.6,2.1,3.4,3.2,5.2c1.4,2.3,3.1,4.4,4.1,6.9c1.2,3.4,3.4,6.4,6.1,8.7c3.6,2.8,5.9,6.9,6.4,11.5
			c1.3,12,2.4,24,3.4,36c0.7,6.3,0,12.6-2,18.6c-0.5,1.5-0.7,3.2-0.7,4.8c0.1,5.6-1.7,10.6-4,15.5c-1.3,2.6-2.3,5.2-3,8
			c-1.2,6-3.2,11.8-5.8,17.3c-1,2.3-1.7,4.7-2.3,7.2c-1,3.4-1.9,6.9-3,10.3c-0.5,1.7-1.3,3.3-1.7,4.3c4.1,5.2,8,9.9,11.6,14.8
			c2.1,2.9,3.4,6.3,5.3,9.4c3.1,4.9,5.2,10.3,5.9,16.1c1.5,13.6,2.8,27.1,4.1,40.7c0,1.1-0.2,2.1-0.6,3.1c-1.3,3.5-2.3,7.3-4.1,10.5
			c-4.1,7.4-5.2,15.6-7.5,23.5c-1.3,4.4-0.6,8.7,3.1,12.4c3.6,3.6,6.2,8,7.5,12.9c0.4,1.4,1.1,2.6,2.1,3.7
			c3.4,3.6,6.6,7.8,10.7,10.6c6.8,4.8,10.5,11.6,14.3,18.6c0.6,1.5,1.5,2.9,2.4,4.2c6.1,6.9,10.3,15.2,12.3,24.3
			c0.6,2.6,1.5,5.1,4.3,6.8c4.3-5.4,8.4-10.6,12.5-15.8s8-10.3,9.8-16.9c0.4-1.6,2-2.9,2.9-4.5c1.3-2.1,2.5-4.4,3.5-6.7
			c2.2-5.9,4.1-11.9,6-17.9c0.4-1.4,0.7-2.8,0.9-4.2c0.8-3.8,1.7-7.7,2.5-11.5c0.5-2.4,1-4.9,1.7-7.3c0.9-3.8,2.1-7.5,3.5-11.2
			c1.3-2.6,2.1-5.3,2.4-8.2c0.1-3,0.8-6,1.9-8.9c1.9-4.1,2.6-8.6,2.1-13.1c-0.4-3.6,0.2-7.2,1.8-10.5c1-1.9,1.5-4.1,1.3-6.2
			c-0.9-6.8,0-13.6,2.7-19.9c-0.5-3.3-1.8-6.1-1.3-8.5c1.4-6.7,2-13.5,1.9-20.3c0-1.4,0.7-2.8,0.8-4.2c0.1-2,0.6-4.1-0.1-5.9
			c-1.9-5.1-1.7-10.3-0.5-15.4c0.7-3.7,0.7-7.5,0-11.2c-0.6-3.8-0.3-7.8-0.3-11.8c0-2.3,0.8-4.8,0.2-6.9c-1.7-6.5-1.1-13.4,1.7-19.6
			c-1.3-4-1.2-8.2,0.2-12.2c1-3.1,1-6.4,0-9.5c-0.6-2-0.4-4.2-0.4-6.3c0-3.6,0.2-7.2,0.2-10.8c0-4.1,0-8.2,0-12.3
			c0-3.6,0.8-7.3,0-10.7c-1.1-4.4-1.5-8.4,0.6-12.8c-4.7-5.5-4.2-11.5-2.1-17.8c1-3.1,2-6.2,0.8-9.5c-1.3-3.6-0.7-7,0.1-10.6
			c0.6-2.4,0.7-4.9,0.3-7.3c-0.9-3.7-1-7.5-0.5-11.2c0.4-3.1,0.6-6.6-0.3-9.5c-1.3-4.3-1.8-8.4,0.1-12.5c-2.7-4.6-3.7-10-2.9-15.3
			c0.4-2.4-0.5-4.8-2.3-6.3h10.8c3.9,2.9,7.6,6.2,13.6,6.8C340.3,4,339.8,2,339.3,0H343.6z M495.9,215.9c0.5,2.6-4,4-1.7,7.1
			c4.7-3,6.2-5.9,5.3-10.2l-3.8,3.4c0.7-1.4,1.4-2.9,2-4.4c1.9-4.1,2.1-8.8,0.5-13.1c-1.5-3.9-6.8-10.9-10.5-13.9
			c-4,6.4-5,12.9-1.5,19.8c1.6,3,2.6,6.3,4,9.4c0.6,1.4,1.4,2.7,2.1,4.1L495.9,215.9z M473.5,113.6c-4.9,8.4-9.3,15.4-13.1,22.7
			c-2.3,4.7-4.1,9.5-5.6,14.6c-2,6.8-1.9,14,0.3,20.7c1.1,3.4,1.4,7,2.2,10.5c0.4,1.7,0.7,3.7,1.7,5c3.9,4.8,6.2,10.1,5.5,15.8
			c2.3,2.4,4,4.4,5.9,6.4s1.3,5.6,4.9,7.4c2.5-6.9,6.9-12.7,6.7-20.4c-0.1-2.9,1.2-5.9,1.9-8.9c0.4-1.7,1.2-3.4,1.4-5.2
			c0.9-6,1.6-12.1,2.3-17.2V151c-2.3-2.6-3.6-5.9-3.7-9.3c-0.3-3-0.9-6-1.9-8.8c-1-3.3-2.2-6.5-3.6-9.6
			C477.1,120.3,475.5,117.5,473.5,113.6z M463.9,425.2c-2.1,6.5-3.7,12.4-6,18c-3.5,8.7-7.6,17.1-11,25.7c-2.4,6.4-3.4,13.3-3,20.1
			c0.1,1.1,0.5,2.1,1.1,3c3,5.3,4.6,10.9,3.2,16.5c1.4,3,3.1,5.3,3.5,7.8c0.8,5.4,4.3,8.8,7.6,12.6c3.6-3.1,6.1-6.5,7.1-10.9
			c0.4-1.7,1-3.4,1.8-5c3.4-6.9,5.8-14.3,7.2-22c0.4-2.6,0.5-5.3,0.1-7.9c-0.5-3.4-0.2-6.8,0.8-10.1c0.8-2.3,1.1-4.8,1-7.3
			c-0.5-10.3-3.5-20.1-6-30.1C470.3,431.5,468.2,428.3,463.9,425.2z M257,729c2.1-4.2,4.5-7.7,5.6-11.5c1.8-6.5,4.2-13,3.3-20
			c-0.1-1.1,0-2.2,0.3-3.2c0.9-2.5,0.3-4.9-0.3-7.4c-0.7-3.3-1.6-6.8-1.1-10c1.1-7.3-3.8-12.9-4.9-19.5c-0.1-0.3-0.4-0.6-0.7-0.8
			c-5.7-5.8-8.1-13-8.5-21.2l-3.8-2.2c-5.3,8.9-9.1,18.6-11.2,28.7c-0.4,2.3-1,4.5-1.8,6.7c-1.6,4.2-2.4,8.2-0.5,12.5
			c0.9,1.9,0.7,4.2,1.2,6.3c0.8,3.3,1.3,6.8,2.6,9.8C242.2,708.4,248,719.1,257,729z M176.7,203.5c1.4-3.8,2.6-7.1,4-10.4
			c2.4-5.4,4.7-10.8,4.3-17c0.1-2,0.4-3.9,1-5.8c1.9-8,4-16,5.8-24c0.4-2.5,0.5-5,0.2-7.4c-0.2-2.8-1-5.6-1.3-8.5
			c-0.3-4.7-1.6-9.2-3.8-13.4c-0.6-1.1-1.1-2.3-1.3-3.5c-0.7-5.1-3.9-8.1-8.8-10.7c-2.5,6.3-5.3,12.1-7.1,18.2
			c-2.7,9.3-4.7,18.8-6.8,28.2c-0.6,2.4-0.8,4.9-0.6,7.4c1.3,8.3,3,16.6,4.6,25c4.7,3.4,6.2,8.1,6.4,13.6
			C173.2,198.3,174.5,201.3,176.7,203.5z M256,788.4c-5.4,9.4-8,19.5-10.5,29.5c-2.7,10.8-3.7,21.9-3.2,33.1
			c0.2,4.8,1.3,9.6,1.9,14.3c1,7.2,2.3,14.2,10.3,17.9c3.4-7,6.9-13.8,10.1-20.7c0.9-1.7,1.5-3.7,1.6-5.6c0-6.8,0.7-13.5,0.4-20.4
			c-0.2-6.7-0.8-13.4-1.8-20.1c-0.8-5.6-0.3-11.4-3.1-16.7c-0.4-1-0.5-2.1-0.4-3.2C261.4,792.9,259.7,790.4,256,788.4z M475.6,276.9
			c-4.1,5.2-7.6,9.6-9.4,15.3c-2.3,7.4-5,14.6-7.6,21.9c-1.7,4.8-3.1,9.5-2,14.7c0.2,1.8,0.1,3.6-0.4,5.4
			c-1.6,8.5,0.5,16.4,3.4,24.1l7.5,4c6.5-6.4,6.4-16.2,11.6-21.1l3.3-19.8c-2.6-5.6-3.3-12.3-0.4-18.2c-0.8-4.1-2.1-7.5-1.8-10.8
			C480.3,286.8,478.1,282.2,475.6,276.9z M238.4,580.9c1.9-6.3,4.3-11.9,5-17.6c0.7-5.1,1.7-9.8,4.2-14.3c0.9-1.9,1.6-3.9,1.9-6
			c0.8-4,1.4-8.1,2.2-12.1c0.3-1.8,1.4-3.7,0.9-5.2c-1.5-5.2-0.2-10,1.4-15.1l-4.3-8.6c-8.8,4.9-12.6,12.9-16.3,21
			c-0.6,1.5-0.9,3.1-1.1,4.7c-0.4,2.1-0.8,4.2-1,6.3c-0.3,2.1-0.4,4.2-0.3,6.4c0.4,4.8,1.3,9.6,1.6,14.5c0.4,6.4,0.5,12.9,0.7,19.3
			C233.5,577,234.8,579.1,238.4,580.9L238.4,580.9z M183.9,338.4c0.8-0.8,1.4-1.1,1.5-1.5c2.4-6.1,4.9-12.3,7.2-18.5
			c0.4-1.4,0.7-2.8,0.8-4.2c0.5-3.2,1-6.4,1.3-9.6c0.2-2.1,0.4-4.3,0.4-6.4c0-3.6,0-7.2-0.2-10.7c-0.2-2.1-0.5-4.2-1-6.2
			c-0.7-2.9-1.5-5.7-2.3-8.5l1.3-0.5c-5.6-3.9-3.8-11.8-9.5-16.7c-0.7,3.1-1.4,5.5-1.8,7.9c-1,5.1-2,10.2-2.7,15.4
			c-1.8,11.5-2.6,23.2-2.4,34.9c0.2,1.6,0.6,3.1,1.3,4.6c1.3,3.7,2.8,7.3,4,11C182.6,332.1,183.1,335.1,183.9,338.4z M453.5,579.2
			c-2.2,2.9-3.8,5.5-5.8,7.7c-3.1,3.3-5.1,6.8-5,11.5c0,1.4-0.3,2.9-1,4.2c-1.9,3.9-1.4,7.7,0.3,11.4c1.6,3.4,3.3,6.8,5.3,10
			c1,1.5,2.6,2.6,4.2,4.2l4.3-3c0.6-12.4,3.4-24,3-36L453.5,579.2z M392.8,847.1c7.2-2.4,10.9-7.2,13.4-12.9c0.9-2.3,0.9-4.9,0-7.2
			c-2.5-6.1-5.7-11.9-9-18.5c-3.1,3.2-5.9,5.9-8.4,8.9c-2,2.2-2.7,5.2-2,8.1C388.6,832.5,390.7,839.5,392.8,847.1z M174.6,357.8
			c1.2,2.6,1.6,4.5,2.7,6c2.7,3.9,6.8,5.7,11.3,6.5c5.8,1,11.6,2.1,17.5,3c1.4,0.1,2.9,0.1,4.3,0c0.2-0.7,0.3-1.4,0.4-2.2
			c-0.7-9.7-10.3-18.1-19.9-17C185.8,354.7,180.8,356.3,174.6,357.8z M539,1048.8c1.6-2.6,2.4-5.6,2.2-8.7c-0.1-3.7-0.7-7.5-3.8-9.7
			c-5.5-4-11.3-7.5-17-11.2c-4.4,7.5-3.6,16.3,2.6,21.5c3.9,3.3,8.8,5.5,13.2,8.1C536.8,1049.1,537.9,1048.8,539,1048.8L539,1048.8z
			 M264.4,471c0.7-2.7,1.2-5.4,1.5-8.2c0.3-3.7-0.6-7.2-4-9.4c-4.7-3.3-10-5.7-15.6-6.9c-1.7-0.2-3.4-0.2-5.1,0
			c-0.3,1.5-0.3,2.4-0.6,3.3c-1.5,5.6,0.4,9.6,5.3,12.8C251.6,466.3,257.9,469.2,264.4,471z M200.7,390.3c-0.3,4,1.6,6.8,4.5,9.2
			c7.7,6.4,22.2,7.7,31.6,2.9c-1.4-8.8-6.4-12.7-14.7-11.8c-3.6,0.4-7.1,1.2-10.7,1.2S204.4,390.8,200.7,390.3z M372,855.2
			c2.3,0,3.5,0.1,4.8,0c1.2-0.2,2.5-0.4,3.7-0.8c9-2.6,10.7-5.5,8.3-14.5c-1.6-6-3.3-12-5-18.2c-5.4,4.6-8.6,8.6-9.3,12.8
			C373.4,841.1,372.9,847.9,372,855.2z M314,1005.4c-5.9,4.2-8.5,9.3-8.5,15.8c0,9,4.8,15.3,11.9,20.8c1.6-2.6,3.1-4.6,4.2-6.8
			c1.3-2.6,2-5.4,0.8-8.3C319.7,1019.9,317,1013,314,1005.4z M434.1,425.3c-2.3,3.7-4,6.1-5.4,8.8c-1.5,2.5-1.6,5.7-0.3,8.3
			c3.6,7.6,9.3,14.1,16.4,18.7c4.8-5.4,4.3-15-0.5-20.3c-2-2.3-3.8-4.7-5.5-7.3C437.3,431.3,436.2,428.9,434.1,425.3z M380.1,741.7
			c-7.9,3.1-10.2,13.1-6.9,19.4c3.1,5.9,8.3,10,13.3,14.5c3.5-4.6,5.5-8.9,3.7-14C387.7,754.5,383.6,748.3,380.1,741.7z
			 M412.7,796.9l-11.9,5.8c-0.9,10.4,4,17.6,9.6,25.5c1.8-3,3.3-5.2,4.6-7.5c1.1-1.8,2.1-3.7,2.9-5.7
			C420.6,807.8,419.1,802.5,412.7,796.9L412.7,796.9z M254.6,636.7c-2.2,12.3,6.7,22.4,17.8,20.5c-0.6-1.6-1.1-3.2-1.7-4.8l0.6-0.4
			l5.2,7.1c0.8-2.4,1.3-3.8,1.7-5.2l2.6,4.7c2.5-3.2,2.6-3.4,1.9-6c-1-3.9-3.8-7.1-7.6-8.5C268.4,641.5,261.5,639.2,254.6,636.7z
			 M516.4,832.4c-3.9,4-4.1,8.6-3.3,13.2c0.8,4.6,10.8,13.8,15.8,15c3.2-2.4,3.8-6.2,4.6-9.8c0.9-3.8-0.8-7.7-4.1-9.7
			C525.2,838.5,521.1,835.6,516.4,832.4z M399.5,744.4c7-2.7,10.6-8.2,9.8-14.7c-0.6-4.6-1.5-9.2-2.3-13.8c-0.4-1.5-0.8-3-1.3-4.5
			c-3.6,0.6-5.9,2.5-8.2,4.5c-3.7,3.2-5.4,7.2-4.2,12c1.2,4.5,2.8,8.8,4.3,13.3c4-0.9,5.6-4.2,8.8-5.8
			C404.3,738.3,402.2,741.1,399.5,744.4L399.5,744.4z M466.6,412.1c3.5-3.2,6.7-6.7,6.3-11.8c-0.6-8.1-4.2-15-9-21.3
			c-7.4,3.9-9.8,8.9-8,16c1.4,5.4,4.1,10.2,7.6,14.8c4.9-3.1,4.1-8.5,5.8-13.4C471,402.7,468.5,407.3,466.6,412.1z M434.4,157.1
			c-5.9,7.1-4.8,18.3,2.8,22.5c3.4,1.9,7.2,2.8,10.6,4.1c5.6-5.6,5.2-13.3-0.5-17.2C442.9,163.5,438.7,160.3,434.4,157.1
			L434.4,157.1z M260.1,534.3c-7.6,10.1-5.4,24,8,33.9c1.2-2.9,2.4-5.7,3.4-8.5c2.2-5.5,0.9-11.8-3.1-16.1
			C265.6,540.5,262.9,537.4,260.1,534.3z M170.1,333.5c4.8-5.9,4.3-13.9-1.2-18.3c-4-3.2-8.5-5.7-12.8-8.5
			C150,319.1,157.8,333.8,170.1,333.5L170.1,333.5z M450.8,144.1c4.4-4.7,7.1-9.9,6.1-16.1c-0.9-5.6-3.6-10.7-6.2-15.8
			C437.5,120.7,437.4,135,450.8,144.1L450.8,144.1z M219,407.6c0.6,5.9,1.8,8.5,5.7,10.1c7.7,3.2,15.6,5.9,23.2,8.8
			c2.2-3.2,1.5-5.7-0.2-8c-2.7-3.5-5.7-6.9-8.5-10.3c-5.3-0.5-10.3-1-15.3-1.3C222.3,407.1,220.6,407.3,219,407.6z M492.4,65.9
			c10.1-2.4,11.2-13.2,8.2-19.2c-2.4-4.8-5.6-9.1-8.4-13.6c-5.1,3.2-7.2,7.6-5.8,13.6C488.1,53.1,490.4,59.4,492.4,65.9z
			 M517.1,877.7c-2.9,5.8-2.9,11.1,0.7,15.6c3.1,3.9,7,7.1,10.7,10.5c1.6,1.6,4,1.9,6,0.8c2.3-1.6,3.2-4.6,2.2-7.2
			c-1.1-3-2.7-5.8-4.8-8.3C527.9,884.5,522.9,881,517.1,877.7z M449.9,576.3c2.5-2.5,2.6-5.3,2.5-8.3c-0.3-6.3-0.5-12.5-0.8-18.8
			c-0.1-1.5-0.3-3-0.5-5.3c-2,1.7-3.6,2.8-5,4.1c-8.4,7.4-10,16.1-4.8,26.1c0.2,0.4,0.8,0.6,1.1,0.8l3.1-2.7
			c-0.1,1.3-0.5,2.5-1.2,3.6c-0.6,1.1-2.5,2-0.8,3.6c3.6-0.2,3.3-4.1,5.5-5.8C449.4,574.5,449.6,575.2,449.9,576.3z M482.8,345.8
			c-5.9,3.9-9.1,10-7.2,15c2.1,5.7,5.9,10.5,9.4,15.3c6.9-4.2,9.4-8.9,7.4-14.4C490.3,355.9,487,350.4,482.8,345.8z M428.3,711.8
			c4.8-1.5,8.6-3.9,9.8-8.7c1.6-6.8,0.7-14-2.4-20.3c-8,3.1-10.4,5.3-11.8,10.5C422.5,698.6,424.5,707.5,428.3,711.8z M271,812.2
			c-2,4.3-2,4.6-1.4,7.6c0.9,4.6,3.3,8.8,7,11.8c4.3,3.4,8.9,6.5,13.5,9.9c3.1-8.6,1.1-15.6-5.7-20.4
			C280.2,818.1,275.8,815.4,271,812.2z M481.3,274.6c-1.7,5.9,0,10.5,4.8,13.4c3.7,2.1,7.6,3.8,11.7,5.1c2.9,1,4.7-0.3,6.1-3
			c1.5-3,1.3-6.8-1.4-8.8c-3.2-2.5-6.7-4.7-10.5-6.4C488.7,273.1,484.8,273.1,481.3,274.6L481.3,274.6z M522.7,756.5
			c2.5-8.2-1.5-17.1-9.3-20.1c-4.4-1.7-9.2-2.7-13.8-4c-1.9,7.8-0.3,12.3,5.8,16c3.6,2.2,7.6,3.7,12,5.8c0.3-2.5,0.9-4.3,0.7-6
			c-0.3-1.6-0.7-3.2-1.4-4.7l1.1-0.3c0.7,1.7,1.2,3.4,1.6,5.2c0.2,1.8,0.3,3.6,0.3,5.4C519.9,755.3,520.6,756.4,522.7,756.5
			L522.7,756.5z M533.5,1004.5c0.8-2.6,1.5-5.2,2-7.9c0.4-3.5-0.4-7-3.4-9.2c-4.8-3.3-9.9-6.2-14.9-9.3
			C512.1,988.7,519.5,1000.9,533.5,1004.5L533.5,1004.5z M517.8,937.7c-1.1,1.7-2.1,2.7-2.3,3.8c-1.4,6.3-0.6,12.1,4.8,16.5
			c3.8,3.1,8.2,4.9,12.7,6.4c3.8-6.2,3.3-11.7-1.7-16C527.2,944.7,522.7,941.5,517.8,937.7L517.8,937.7z M488.4,326.1
			c-8.3,9.7-6.2,19.6,2.8,25.8l3.3-2.8c-0.5,2.4-0.9,4.1-1.3,5.8c2,1.4,3.5,0.9,4.8-0.8c3-4.1,3.4-14,0.1-18
			C495.1,332.5,491.6,329.4,488.4,326.1z M476.3,618.8c5-4.3,6.1-8.7,3.3-14.1c-2.9-6-8.1-10.6-14.3-12.8c-4.3,3.9-5,10.3-1.6,15
			C467,611.8,470.9,616.1,476.3,618.8z M374.2,827.3c-9.2,5.8-15.3,14.5-22.8,21.8c3.1,3.9,6.6,5.8,10.9,6.2c6,0.5,8-1.1,8.8-7.2
			C372,841.3,371.6,834.2,374.2,827.3z M332,1003.5c1.4-1.2,3.2-2.1,4.2-3.6c2.8-3.8,3.7-8.7,2.5-13.3c-1.5-6.3-4.6-11.9-7.2-17.9
			C320.8,980.6,325.3,994.4,332,1003.5z M524.5,793.4c4.2-4.5,3.9-11.5-0.6-15.6c-0.6-0.5-1.2-1-1.8-1.4c-3-1.8-6.4-2.9-9.9-4.4
			c-0.6,1.7-1.1,2.9-2,5.1c-0.4-2-0.7-3-0.9-4s-0.3-1.9-0.4-3.1c-3.9,0.5-2.9,3.5-3.9,5.6c-0.4-1.2-0.9-2.4-1.4-3.9
			C501.5,779.3,511.1,789,524.5,793.4L524.5,793.4z M525.8,775c1.1-7.1-0.9-11.9-6.1-15.1c-5.5-3.3-11.2-6.4-16.8-9.5
			c-0.9-0.4-1.8-0.7-2.8-0.8c-1.6,7,0,11.7,5.6,15.1c4.7,2.9,9.7,5.3,14.6,7.9C521.9,773.4,523.5,774,525.8,775L525.8,775z
			 M453.2,650.1c-4.9,6-5.5,8-4.3,14.3c0.6,2.8,1.1,5.6,1.8,8.4c1.6,6,6.8,7.4,11.3,3c3.7-3.5,4.1-9.2,1.1-13.3
			C460.2,658.3,456.7,654.4,453.2,650.1z M232,425c-3,8.1-0.9,13.3,6.3,15.8c5.6,1.9,11.4,3.4,17.1,4.9c1.2,0.2,2.4,0.3,3.7,0.3
			c-0.2-5.2-1.5-9.4-6.1-11.6C246.1,431.2,239.2,428.2,232,425z M510.3,789.4c-4.1,4.8-4.8,7.8-2.4,11.9c4.1,7.1,11,10.6,17.9,14.2
			c4.5-6.4,4.5-10.8-0.1-14.7C520.8,796.7,515.4,793.2,510.3,789.4z M344.9,843.8l5.3,2c6.2-3.8,16.4-14.6,18.7-19.9
			c-5.1,0.4-10.1,0.8-15.1,1.2c-6.9,0.6-10,3.2-12.1,10.1L344.9,843.8z M222.4,386.5c-0.9-3.3-2.3-6-5.3-7.4
			c-7.7-3.4-16-5.3-24.4-5.6c-1.4,3.2-0.6,5.6,1.2,7.9C199.7,389,213.3,391.5,222.4,386.5z M421.5,481.6c-2.8,5.9-3.1,9.5-0.3,13
			c4.9,6,11.2,9.2,18.9,9.2c3.7-7.3,2.8-11-3.9-14.6C431.5,486.5,426.6,484.2,421.5,481.6z M295.2,403.9c-6.6,3.3-9.3,8-8.5,14.7
			c0.8,6.4,1.9,12.8,2.9,19.1c0.3,1.1,0.6,2.2,1.1,3.3c6.4-7.2,7-15.7,8.1-24C299.4,412.2,297,408.1,295.2,403.9L295.2,403.9z
			 M235,866.1c3.3,1.9,1.6,6.9,6.3,7.5c0.2-1.3,0.7-2.5,0.5-3.6c-1.1-5-4.1-8.4-9.1-9.6c-6.3-1.4-12-3.5-16-10.7
			c-0.9,2.6-1.8,4-1.7,5.4c0.1,4.2,1.4,8.2,3.8,11.6c3,4.3,7.2,5.9,12.1,6.6c2,0.3,3.8,0.5,5.5-0.8
			C235.9,870.4,235.5,868.5,235,866.1z M395.8,899.9c9.3-9.7,7.7-23.9-3.2-31c-5.6,3.5-7.5,9.6-4.5,16.3
			C390.2,890.1,393.1,894.7,395.8,899.9L395.8,899.9z M378.1,697c-1.4-2.9-3.4-4.3-5.8-4.5c-6.2-0.6-12.5-1.1-18.8-1.1
			c-3.3-0.1-6.5,0.8-9.2,2.8c1.2,2,2.1,3.8,3.2,5.4c2.3,3.4,6.4,5.1,10.4,4.3C365.1,702.6,371.8,700.3,378.1,697z M244.3,622.4
			c1.8,8.9,13.5,15.6,24,13.6l1.6-6.2c0.2,3.1,0.4,5.2,0.5,7.3c2.4,0.5,3.4-0.6,4-3.4c-1.2-2.5-2.6-5.6-4.3-8.5
			c-1.2-2.6-4.2-3.8-6.9-2.9c-5.2,1.7-10.2,1.1-15.4,0.1C246.7,622.3,245.5,622.3,244.3,622.4z M473,644.8l1.3,0.2
			c3.3-6.5,3.8-13.6,0.7-20c-2.7-5.7-7.6-10.1-12.2-14.6c-6.4,8.3-4.3,17.8,5.8,26.7l3.4-3.9c-0.5,3-0.9,5.1-1.3,7.3l0.9,0.2
			l2.8-5.4l1.1,0.4L473,644.8z M533.7,985.3c4.4-7.1,4.3-12.2-0.4-16s-10.7-6.1-16.3-8.6c-3.1,6.9-2.2,11.9,3,15.7
			C524.2,979.6,528.9,982.3,533.7,985.3L533.7,985.3z M378.1,805.9c2.6-2.9,4.1-5.5,4.1-8.2c0-1.8-0.5-3.5-1.4-5
			c-1.1-1.9-13.2-9.6-15.8-10.6C358.6,792.8,364.1,803.1,378.1,805.9z M159.4,260.7c-4.8,4.9-5.8,9.7-3.5,16.2
			c2.3,6.6,7.9,11.6,13.9,12.4c4.2-7.1,3.8-10.9-1.7-16.6c-1.1-1.2-2-2.5-2.9-3.8C163.4,266.3,161.6,263.7,159.4,260.7z
			 M457.2,120.9c3.5,2,5.5,0.1,7.7-2c6.3-6.2,4.7-19.3-1-27.2C452.9,98.5,450.5,108.4,457.2,120.9z M473.5,510.7
			c-4.5,3.7-5.4,7.8-5.2,12.2c0.1,3.2,0.5,6.4,0.9,9.6c0.6,4.3,1.3,8.7,1.9,13.2c8.5-4.9,12.2-13.8,9.1-21.7
			C478.5,519.6,476,515.5,473.5,510.7L473.5,510.7z M504.2,692.7c-0.1-5.7-1.5-9.9-4.2-13.5c-7.3-1.4-19.9-1.1-24.3,0.6
			c1.6,4.4,4.3,7.9,8.9,9.4C490.7,691.3,497.1,692.1,504.2,692.7L504.2,692.7z M217.9,548.5c0.5-1.9,1-3.5,1.4-5.1l0.7,0.1l1.3,6.1
			c3.7-1.9,2-5.3,3.5-7.8l1.4,7.7c2.9-5.8,2.6-7.8-1.4-12c-5.1-5.3-11-10.1-10.9-19.3c-4.8,7.1-4.7,9.1-4.9,17.1
			C208.8,542.4,210.8,545.5,217.9,548.5z M260.9,586.9c5.8-6.8,6.5-10.2,2.6-17c-2.9-5.1-6.5-9.8-9.8-14.7
			c-8.2,7.5-6.3,21.1,2.9,24.8l2.2-5c1.7,3-0.1,5-1.3,7.2L260.9,586.9z M520.3,859c-3.5,3-5,6.1-5.2,10.1c-0.2,2.4,0.9,4.7,2.9,6
			c4.5,2.9,9,5.7,14,8.9l3.6-7.5C532.9,868.9,527.4,862.7,520.3,859z M450.8,440c4.4-4.5,5.6-8.6,3-12.7c-3.5-5.6-7.6-10.8-11.4-16
			c-8.6,5.6-6.8,15.5,1.9,23.5l3.3-2.5l-1.5,5.5L450.8,440z M197.8,151c-8.4,9.4-6.4,21.4,4,28.2C211.1,169,209.6,158.6,197.8,151
			L197.8,151z M382.4,884.2c-4.9,5.4-6.5,11.3-3.8,17.6c2.3,5.3,5.7,10.2,8.7,15.3C396.2,910,391.4,894.4,382.4,884.2z M456.7,821.3
			c0.5-8-3-13.9-9.3-18.1c-5-3.3-10.4-4.4-16-1.7c-0.3,6.2,2,10.3,7,11.6C445,814.6,451.2,817.4,456.7,821.3z M261.7,493.3
			c-3.4,5.5-3.2,10.2-0.8,15c3.1,6.3,8.8,10,14.1,14.2c4-6.8,3.4-13.1-1.8-18.6C269.7,500.2,265.8,497,261.7,493.3L261.7,493.3z
			 M463.3,217.3c2.9-5.5,2-9.3-2.6-11.3c-7.2-3.2-15-4.3-22.7-5.7c-2.1,10.2,4.9,16.6,16.5,15.4c0.2-1.5,0.4-3.1,0.6-4.8h0.9
			l1.9,5.4c2.8-1.8,1.7-4.8,3.1-7.7C461.9,211.7,462.6,214.2,463.3,217.3L463.3,217.3z M453.3,312.8c4.9-5.5,4.9-11.6,2.1-17.5
			c-2.1-4.5-5.3-8.5-8.1-12.6c-0.3-0.5-1.1-0.6-1.7-0.9c-4.9,7.7-5,15.4-0.1,21.7C447.9,306.6,450.5,309.5,453.3,312.8L453.3,312.8z
			 M517.8,999.8c-1.8,7,0.1,12.3,4.7,16.7c4.4,4.1,9.8,6.2,16,8.4c0.3-2.9,0.6-5.1,0.7-7.4c0.2-2.6-1-5.1-3.1-6.5
			C530.1,1007.2,524.2,1003.7,517.8,999.8L517.8,999.8z M323,280.2c-6.5,9.8-5.3,16.6,3.9,24.5l2.9-0.6c0.1,1.3,0.2,2.4,0.2,3.5
			l1,0.7l1.8-3.5c0.3,1,0.3,2.1,0,3.1c-0.2,0.9-0.3,1.8-0.5,3.4c3.7-3.6,4.5-6,3.5-10.6C334.1,292.5,329.5,286.1,323,280.2z
			 M432.6,562.6c-12.1,11.4-10.3,25.9,2.8,31.5c2.8-3.2,3.6-5.4,2.7-9.7c-1.2-5.8-2.6-11.5-4-17.3
			C433.8,565.6,433.1,564.2,432.6,562.6z M487.5,693.2c-1.1,4.2-0.5,7.2,2,9.6c5.4,5,11.5,9,18.8,10.9c1.1,0.2,2.3,0.3,3.4,0.2
			c1-8.4-1.4-12.7-8.6-15.4C498.1,696.6,493,695.1,487.5,693.2z M459.5,292.3c4.8-3.5,5.6-5.1,4.5-9.4c-1.5-5.7-3.2-11.3-5-17
			c-0.6-1.7-1.4-3.3-2.2-4.9c-9.1,7.9-10.5,17.9-3.7,23.6l2.3-2c0.8,2.3-0.6,4.9,1.5,6.8l2.6-3L459.5,292.3z M273.3,832.3
			c-2.6,5.3-3.8,10.4-0.3,14.7c4.5,5.6,10.4,9.5,16.6,13.2c2.1-4,2.1-4,1.3-7C288.4,843.6,281.4,837.9,273.3,832.3L273.3,832.3z
			 M374.5,935.1c9.7-6.2,7.8-25.8-1.8-33.2c-3.7,4-5,7.2-4.2,12.7C369.5,921.7,371.9,928.4,374.5,935.1z M163.7,58
			c2.7-7.4-0.2-15.1-6.7-16.7c-3.8-0.9-7.7-0.9-11.5-1.3C142.1,50.6,150.9,58.9,163.7,58z M262.8,781c-1.5,2.2-0.3,4,0.7,5.9
			c4.8,8.7,13.5,10.2,22.1,12.1c0.2,0,0.5-0.4,0.8-0.6C285.7,784.1,277.2,780.2,262.8,781L262.8,781z M282,948.2
			c0.5,3.1,2.8,5.7,5.9,6.4c5.9,1.5,11.8,2.8,17.7,4c1.7,0.2,3.5,0.2,5.2,0.1c-1.3-8.1-6.5-13.2-13.8-13.7c-3.2-0.2-6.4-0.1-9.6-0.1
			C285.2,944.8,283.2,945.3,282,948.2z M252.8,470c-1.1,3.7-0.1,7.7,2.6,10.4c4.4,5,9.1,9.6,13.8,14.3c1.8,1.5,3.6,3,5.6,4.3
			C277.1,487.7,266,473.2,252.8,470z M305.8,1033.1c-1.5,1.7-2.9,3.5-4.1,5.4c-1.5,2.6-3,5.5-1.8,8.6c2,5.9,6.6,10.6,12.4,12.9
			c3.6-3.3,4-4.1,3.7-7.6C315.4,1044.9,311.8,1039,305.8,1033.1L305.8,1033.1z M478.7,83.1c3.4,0.7,5-1.3,6.1-3.6
			c1.1-2.4,1.9-5,2.5-7.6c1.6-6,0.1-12.3-3.9-17C472.9,61.6,471.4,70.8,478.7,83.1z M330.3,105.1c-4.7,4.8-5.1,8-1.6,13
			c3.4,4.7,8.1,7.9,12.7,11.3C347.8,117.8,343.8,109.1,330.3,105.1L330.3,105.1z M227.3,667.7c3.9-6.5,5-12.7,0.8-19
			c-2.2-3.2-4.8-6.1-7.3-9.2c-0.6,0.3-1.1,0.6-1.6,1c-5.8,6.4-4.8,16.3,2.4,22.4C223.2,664.5,225,665.9,227.3,667.7L227.3,667.7z
			 M138.4,20.5c-3.2,4.2-3.2,7.9-0.2,11.3c4.7,5.3,10.7,7.6,17.6,7.7c0.8-0.1,1.6-0.4,2.3-0.9c2-6.2,1.4-8.6-3.3-12.6
			c0.2,3.5,2.4,6.9-0.5,11c-0.4-2.9-0.6-4.8-0.9-6.7c-0.6-4.1-2.7-6.9-7-7.8C143.8,21.9,141.1,21.2,138.4,20.5z M342.3,953.2
			c-1.9,2-3.9,3.5-4.9,5.4s-2.2,4.5-1.7,6.5c1.4,6.2,3.5,12.3,5.4,18.4c6.5-2.7,8.2-5,8.3-10.9C349.4,965.5,345.8,959.7,342.3,953.2
			z M476.3,258.6c3.8-4.4,6.7-9,5.2-14.4c-1.6-5.6-4.5-10.8-6.9-16.3C464.2,236.8,467.3,248.9,476.3,258.6z M322.1,369.8
			c1.2-7.6-1.3-14.9-6.4-21.6l-3.3,1.7c-0.2-1.2-0.4-2.1-0.6-3.2c-6.3,7.8-6.1,15.9,0,20.3l3.3-4c0.6,3.3-2.3,5.4-0.8,8.5
			c1.1-1.8,2.1-3.4,3-4.9l1,0.5c-0.9,2.2-1.7,4.5-2.7,6.7c-0.8,1.8-1.2,3.3,1.1,4.5L322.1,369.8z M230.7,709.4
			c-2.4-7.3-12.8-19.2-20-23.2C203.8,701,217.1,711.5,230.7,709.4z M466.2,529.1c-10,3.8-14.8,16.7-9.7,25.4l4.9-4.5
			c-1.8,3.8-3,6.3-4.3,8.9l0.9,0.5c1.6-1.9,3.2-3.8,4.8-5.7l1.9,1.4C469.5,546.5,468.5,537.9,466.2,529.1z M278.8,778.8
			c-1.3-5.8-3.9-9.5-8.5-11.4c-6.2-2.6-12.6-4.9-19-7.4c-1.1,5.5,0.3,9.9,4.6,12.4C262.7,776.5,270.3,778.3,278.8,778.8z
			 M247.1,726.8c-0.5-4.1-2.8-7.7-6.4-9.8c-4-2.5-15.5-4.6-20.9-3.8c-0.5,3.2,0.9,6.5,3.6,8.4C230.3,726.6,238.9,728.4,247.1,726.8
			L247.1,726.8z M157,286.3c-4.5,4.6-5.1,9.1-1.6,14.1c3.8,5.5,9.3,8.6,15.3,11.2c2.9-6.9,1.8-12.2-3.1-16.4
			C164.2,292.2,160.6,289.3,157,286.3z M506.8,148.6c3,2.5-0.8,7.3,3.6,9.1c2.4-7.6-0.1-13.8-6.5-15.4c-4.8-1.2-9.8-1.8-14.6-2.7
			c-2,5.7-1.6,8.9,1.9,10.8c4.7,2.6,9.7,4.5,15,5.6C506.4,153.4,506.6,151.1,506.8,148.6z M513,810.8c-4.1,11.8,4,23.8,16.3,24.1
			c0.3-3.3,0.4-6.6,0.4-9.9c-0.3-1.6-1.2-3-2.5-3.9C522.7,817.7,518,814.5,513,810.8z M278,670.7c3.8,2,1.9,7.7,6.8,9.1v-6.4l1-0.1
			c0.6,2.9,1.2,5.8,2,9.7c3.3-7.1,1.1-14.8-4.7-17.7c-5.9-2.8-12.4-4.3-19.6-5.8c1.5,9.5,8.4,12.9,15.5,17.6
			C278.4,674.4,278.2,672.8,278,670.7L278,670.7z M221.6,685.1c0.1-2.7,0.3-4.9,0.4-7.5c2.6,3,1,6.4,1.8,9.7l3.2-0.5
			c0.2-11.1-5.9-19-12-27C205.3,667.9,209.8,682.3,221.6,685.1L221.6,685.1z M421.5,603.6c-2.1,5.1-3.8,10.3,0.1,15.2
			c4.5,5.5,10.6,7.5,17.5,7C439.9,618.6,433.6,610.8,421.5,603.6L421.5,603.6z M427.2,1.1c-0.2,3.5-0.5,5.6-0.3,7.7
			c1.1,10.1,8,15.1,18.8,16.7c-0.5-2.7-1-5.2-1.4-7.7c0.3-0.2,0.6-0.4,0.9-0.6c0.3-0.4,0.6-0.8,0.9-1.2
			C441.3,9.6,434.4,6.2,427.2,1.1z M432.4,484.1c4.6-5.7,4.6-8,0.6-12.4c-1.3-1.5-3-2.5-4.3-4c-2.1-2.4-4-5-5.9-7.5
			c-0.6-0.8-1.1-1.7-1.7-2.6c-3.3,4.1-4.2,6.7-4.3,11c-0.1,3.1,0.9,5.6,3.5,7.4C424.3,478.6,428.3,481.3,432.4,484.1L432.4,484.1z
			 M259.9,742.2c-1.4-2.5-1.9-4.5-3.2-5.8c-2.9-3-6.4-5.4-10.6-6c-5.8-0.9-11.6-1.3-18-2c0.6,3.3,1.9,5.7,4.5,7.2
			c6.1,3.4,12.5,6.3,19.6,7C254.4,742.8,256.7,742.4,259.9,742.2L259.9,742.2z M294.7,938.9c-1.3-5-4.9-8.1-9.7-8.7
			c-7.1-0.9-14.3-0.7-21.4-1c-0.2,0-0.4,0.5-0.6,0.7c3.2,6.1,9.7,9.7,14.9,8.3c1.6,0.9,2.4,3.7,5,2.6c-0.2-1.5-0.4-2.7-0.7-4.5
			C290.3,943.3,290.9,943.4,294.7,938.9L294.7,938.9z M250.4,888.9c-2.5-5.1-3.3-6.1-8-7.9c-6.1-2.5-12.3-4.7-18.5-7
			c-0.8-0.2-1.7-0.3-2.5-0.4c0.3,6.5,1.7,9.8,5.7,12.1C234.3,889.8,242.1,890.5,250.4,888.9L250.4,888.9z M443.5,818.3
			c-5.2,7-2.9,20.7,4.5,28.6c4.9-5,6.8-10.8,4.8-17.7C451.4,824.3,449.5,819.7,443.5,818.3z M326.1,329.6l3.2-3.7
			c1.4,3-1.1,3.8-2.9,5.6l2.2,2.8c7.9-8.2,3.6-23.4-7.6-30.8c-5.1,8.6-4.3,15.1,2.7,21.5l2.4-1.9V329.6z M187.4,350.1
			c-3.4-8.4-10.3-10.8-18-11.7c-3.8,2-5.2,6.7-3.2,10.4c0.3,0.6,0.7,1.2,1.2,1.7C171.9,355.7,182.2,355.6,187.4,350.1z M534.9,947.2
			c1.9-0.5,1.8-2,1.8-3.4c-0.3-10.5-8.8-21.1-20.1-24.6c0.7,8.2,1.2,16.1,9.1,21.1c0.8-1.4,1.3-2.5,2-3.7c1.6,2.6-0.6,6.5,4,7.5
			v-7.2c1,1.5,1.7,3.2,1.8,5C533.8,943.7,532.6,945.9,534.9,947.2L534.9,947.2z M452.7,801.9c-0.4-7.8-5-13.1-12.8-15.6
			c-6.8-2.2-10.8-1.1-15.1,4.3c1.2,2.4,3.5,4.1,6.1,4.6c5.2,1.3,10.3,2.9,15.4,4.5C448.2,800.3,450.2,801,452.7,801.9z M184.3,1060
			c5.1-4,7-7.8,5.6-12.5c-1.7-5.6-4.5-10.8-7.4-16C174.5,1039.2,175.5,1052.9,184.3,1060z M486.9,236.9c5.5-6.2,3.3-24-3.7-30.6
			C475.1,215.3,476.8,230.3,486.9,236.9z M486.5,291.2c-4.3,4.3-4.6,8.1-0.8,11.5c3.1,2.7,6.6,5,10.2,6.8c3.1,1.7,6,0.6,7.5-1.9
			c1.8-3,1.4-6.9-1.5-8.6C496.9,296.1,491.5,293.7,486.5,291.2L486.5,291.2z M272,544.1c6.2-8.6,0.9-22.2-11-27.5
			c-0.6,1.5-1.9,3.1-1.8,4.6c0.1,3,0.7,6,1.8,8.8C263.4,535.6,267.2,540.4,272,544.1z M324.7,1020.6c3.8-4.7,6.6-9.1,5.1-14.3
			c-1.5-5.4-4.3-10.5-6.5-15.8c-6.5,3.5-8.8,9.3-6.1,15.5C319.3,1010.8,322,1015.2,324.7,1020.6L324.7,1020.6z M492.7,504.4
			c2.3-2,3.3-4.1,3.1-6.5c-0.5-7.8-1.8-15.3-7.1-21.5c-1.5-1.7-2.9-3.6-5.7-3.9c-1.5,4-3.6,7.8-1.5,11.9c2.6,5.2,5.6,10.2,8.8,15.8
			c0.6-0.8,1.2-1.5,1.8-2.3c0.4-0.3,0.8-0.6,1.2-0.8l0.5,0.6l-2.6,4.4L492.7,504.4z M153.1,113.1c-6.4,5.6-8.1,11.9-5.5,19.3
			c1.4,4.1,3.7,7.4,8.4,7.6c4.2-4.2,5.1-10.1,2.5-16C157,120.4,155.1,117,153.1,113.1z M506.7,178.1l1.8,0.3c1-2.4,1.8-4.9,2.5-7.5
			c0.9-3.2-0.4-6.7-3.2-8.5c-5-3.4-10.3-6.1-16-8.1c-2.6,5.4-2.5,7.9,1.2,11.3s7.6,6.3,11.7,9.7l2.1-5l0.8,0.2
			C507.4,173.1,507,175.6,506.7,178.1L506.7,178.1z M267.4,761.3c1.5-5-0.3-8.7-3.9-11.5c-4.4-3.4-9.5-4.9-15-5.4
			c-1.5,0-3.1,0-4.6,0.2C246.3,754.1,256.2,761.1,267.4,761.3z M338.7,205.7c3.9-9.6-4.5-22.9-15.1-24.8c-2.6,5.7,0.7,17.4,5.8,20.1
			l2.3-1l4,5.3c0.4-2.8,0.7-4.7,1-6.9C338.9,200.5,337.9,203,338.7,205.7L338.7,205.7z M363.7,949c5-8.3,4.4-25.3-0.8-30.9
			C353.7,926,354,938.8,363.7,949L363.7,949z M255.1,907.7c-0.7-12.3-10.1-16.9-22.3-14.7C233.7,903.2,243.8,909.8,255.1,907.7z
			 M459.8,630.7c-7.4,4.3-7.7,13.4-3.9,17.6c2.4,2.6,5,5,7.5,7.4c5.2-3.9,6.7-10.2,3.7-14.8C464.9,637.4,462.3,634.2,459.8,630.7z
			 M277.8,455.8c9-6.5,11.8-25.2,5.5-34.3c-3.5,2.1-5.1,5.3-5.8,9.2C276.1,438.8,277.2,447,277.8,455.8L277.8,455.8z M201.7,294.2
			c-4.5,7.5,0,19.8,9.1,25c0.8-0.9,1.6-1.8,2.3-2.9c3.8-6.4,2.6-12.5-3.4-16.8C207.1,297.6,204.4,295.9,201.7,294.2z M505.4,136
			c0.5-4.6-0.6-8-4.1-9.8c-5-2.5-10.5-2.7-16-3c-0.2,2.2-0.4,3.8-0.6,6.6c-1.1-2.8-1.8-4.4-2.7-6.5c-0.7,7.7,3.8,13.3,10.8,13.5
			C496.9,137,501,136.3,505.4,136z M417.1,699.4c-8.3,6.4-9.4,19.1-2.9,26.9c4.9-1.1,6.8-4.8,7.5-9.2
			C422.7,710.7,421.7,704.7,417.1,699.4z M531.3,922.2c3.3-4.9,3.1-10-1-13.7c-4.1-3.7-8.4-6.9-12.7-10.4
			C512.5,906.6,519.9,920,531.3,922.2z M456,200l1.3-0.3c0.3-0.8,0.4-1.6,0.4-2.4c-0.7-5.1-4.7-9.3-9.8-10.3c-4.5-1.1-8.9-2-13.6-3
			c-1.8,4.3-0.5,8,2.6,11.2c2.8,2.8,6.5,4.4,10.5,4.4l2.4-2.8c0.7,1.2,1.3,2.1,2.2,3.6l1.8-6.6C454.7,196.5,455.4,198.2,456,200z
			 M228.4,528.3c1.2-3.8,1-7.9-0.5-11.6c-2-4.7-2.4-9.8-1.1-14.8c0.8-3.2,1.3-6.4,2.1-10.2c-7.3,5.5-10.5,10.8-10.4,17.4
			c0,3.4,0.4,6.8,1.1,10.1C220.4,523.9,223.9,527.5,228.4,528.3z M322.7,4.7c-2.5,4.2-2.6,10.1,0,13.7c2.9,4,6.6,6.9,11.8,6.7
			c5.3-7.6,3.6-14.3-4.3-17.6C327.8,6.4,325.2,5.6,322.7,4.7z M498.4,712.4c-0.9,7.5,0.6,12.3,4.8,14.9c4.8,3,10.3,4.5,16,5.6
			c1.2-6.5-1.4-10.7-6.2-13.5C508.4,716.7,503.4,714.7,498.4,712.4z M207.6,970.8c-8.6,7.9-6.5,21,2.5,32c4-2.8,5.4-6.8,4.2-11.3
			C212.3,984.6,209.9,977.8,207.6,970.8z M172.1,231.3c0.7,5.2,3.2,8.8,7.6,10.7c4.1,1.8,8.3,3.4,12.5,5c1.2,0.4,2.7,0.2,4.2,0.3
			c-0.3-3.2-0.6-5.8-0.8-8.3C189.9,233.6,177.8,229.6,172.1,231.3z M341.5,105.6c2-7.8-4.3-18.3-13.4-23.4
			c-3.7,2.4-4.9,5.9-4.3,10.2c0.8,4.7,3.3,7.7,8.1,9.4c0.5-2.2,1-4,1.5-6.1c1.5,2.8-0.8,6.1,2.4,8.4c2.1-3,0.1-6.3,1.6-9.1
			C339.5,98.2,336.8,103,341.5,105.6z M290,819.8c1.5-6.3-1-14.1-6-16.8c-4.1-2.2-8.7-3.3-13.3-5C270.2,807.6,277.6,815.8,290,819.8
			z M488.3,256.2c-0.8,1.4-1.7,2.8-2.4,4.2s-1.5,3.2-2.1,4.6c3.4,5.3,9.6,8.1,17.8,8.1C505,263.2,499,255.1,488.3,256.2z
			 M326.4,141.3c-4,9.4-1.4,16.3,7.1,20.5c0.7-0.8,1.4-1.5,2.4-2.6c0.1,2,0.2,3.6,0.4,5.9l2.7-3.3c0.2,1.6,0.4,3.2,0.7,5.4
			c3.4-7.7,2.2-14.1-3.4-18.6C333.3,146.1,330,143.9,326.4,141.3z M353.4,937.1c-4.6,1.2-6,4.6-6.6,8.4c-0.8,5.3-0.1,10.8,2.2,15.7
			c0.7,1.5,0.8,3.4,2.7,4.2C361.2,954,359.5,946.9,353.4,937.1L353.4,937.1z M481.9,454.3c-1.6,4.7-2.4,8.9,0.8,12.6
			s7,7.1,10.5,10.5c4.4-4,5.4-12.5,2.2-16.3c-0.6-0.7-1.3-1.3-2.1-1.7C489.6,457.7,485.9,456.1,481.9,454.3z M164.6,76.2
			c1.6,9,14.4,16.1,24.1,13.7c0.1-7.2-3.6-12.1-10.1-12.9C174,76.5,169.3,76.5,164.6,76.2z M220.6,988.7c3.9-6.6,4.6-12.3,1.7-18.4
			c-1.6-3.4-2.9-7-4.4-10.4c-0.6-1.1-1.2-2.2-1.9-3.3c-4.5,4.7-6.7,9.6-4,15.4C214.4,977.4,217.4,982.5,220.6,988.7L220.6,988.7z
			 M438.3,135.3c-7.2,11.5-4.9,20.9,5.7,25.5c4.8-2.5,6.1-6.9,3.2-12C444.5,144.3,441.4,140.1,438.3,135.3z M363.2,1036.1l-19.5-9.8
			c-3.4,9.7,3.1,17.8,13.6,17.6c0.3-2.2,0.6-4.5,0.9-7.1c3.6,3.2-1.8,8.3,3.2,10.7C364.5,1044,361.9,1040.3,363.2,1036.1
			L363.2,1036.1z M269.8,693.9c-2.3,8.2,0.8,13.8,5.8,19.5l2-4.3l0.7,0.1l0.4,7.3l1.3,0.2l2.8-8.5c2.8,4.2-2.8,8.1,0.5,12.1
			c3.5-2.9,3.1-6.8,3.6-10.4c0.5-2.9-0.8-5.9-3.4-7.4C279.2,699.7,274.8,697,269.8,693.9z M427.6,626.4
			c3.4,11.4,13.7,17.3,22.6,13.7c0.4-2.4,0.9-5,1.3-7.7C444.3,626.9,435.8,629.2,427.6,626.4L427.6,626.4z M431.1,872.3
			c8.7-2.4,14.8-11.8,14.2-21.3c-0.2-3.4-1.5-6.7-3.7-9.4c-0.7-0.8-2-1.2-2.9-1.7c-2.4,2.1-2.1,4.5-2,6.8c0.4,7.9-1.2,15.8-4.5,23
			C431.7,870.5,431.5,871.3,431.1,872.3L431.1,872.3z M459,61.5c-0.1-3.7,1.1-7.6-2.2-10.2c-4.5-3.5-9.7-6-15.6-5.8
			c-2,5.2-1.5,9.4,1.9,12C447.5,61.1,453.4,62.6,459,61.5z M342.4,63.3c-1.8-8.3-2.6-9.8-7.8-15.3c-2.2-2.4-4.5-3.4-7.9-2
			c-0.5,0.6-1,1.3-1.4,2c-0.4,1.1-0.7,2.2-1,3.4c2.4,6.6,6.3,11.4,11.9,14.2c0.7-0.7,1.2-1.6,1.7-2.4c0.3-0.8,0.5-1.7,0.5-2.6
			c0.1-0.8,0.2-1.7,0.2-2.5l1.1,0.2c0,1.7-0.1,3.4-0.4,5.1c-0.6,1.7-1.4,3.3-2.3,4.8C340.8,67,340.8,67,342.4,63.3z M192.9,1040.4
			c5.2-6.6,3.5-21.2-3.7-31C181.9,1016.4,183.7,1031.2,192.9,1040.4z M443.3,695.2c5.9-2.7,7.7-5.6,7-11c-0.5-3.7-1.1-7.4-1.9-11.1
			c-0.7-2.3-1.5-4.6-2.4-6.8c-3.5,1.1-5.2,3.3-5.6,6c-0.6,3.7-0.8,7.4-0.5,11.1C440.4,687.3,442,691,443.3,695.2z M179.8,92.2
			c-0.1,6.6,1.9,10.2,6.9,11.8c5.2,1.7,10.7,2.5,16.5,3.8c-0.7-5.3-3.2-8.8-5.9-12.1c-0.7-0.8-1.7-1.3-2.8-1.5
			C189.8,93.5,185,92.9,179.8,92.2z M447.3,354c0.2-10.6-5.2-18.2-11.2-25.8C428.7,339.6,433.7,351.5,447.3,354z M494.3,114l1-0.5
			l2.6,9.2c1.9-6-1.7-13.6-6.6-14.3c-4.2-0.5-8.5-0.1-12.4-0.1c-2.8,4.3-3.1,6.8-0.5,9c3.3,2.8,7,4.9,11.6,3.4
			c0.3-1.3,0.5-2.3,0.8-3.7l2.6,5.4C495.1,118,495.1,118,494.3,114L494.3,114z M497.2,15.8c-6.3,8.4-3.5,18.9,6.2,24.8
			c1-1.2,1.9-2.5,2.7-3.9c2.8-5.8,2.1-9.6-1.7-13.2C502,21.2,499.8,18.6,497.2,15.8L497.2,15.8z M232.1,511c8.6-6.3,13-22.7,8.8-31
			C234,483.4,228.4,502.7,232.1,511z M473.4,389.8c8.8-5.6,7.1-16.7-0.8-25.8C464.4,372,464.6,379,473.4,389.8z M224.8,807.1
			c-4.5,4.9-6.4,9.9-4.4,15.8c1.5,5,5.7,8.8,10.8,9.8C235.9,822.5,230.2,815.2,224.8,807.1z M228.8,966.9c3.5-3.2,4.8-6.7,3.7-10.6
			c-1.7-6.1-3.9-12.1-6.1-18.7c-3.6,2.8-6.1,5.7-6,9.7C220.6,954.7,222.6,961.5,228.8,966.9L228.8,966.9z M269.4,867.2
			c-6.9,6.7-4.5,21.6,3.7,30.1C278.4,890.2,276.7,873.9,269.4,867.2L269.4,867.2z M171.6,268.3c5.2-7.7,2.4-18.4-6.5-24.3
			C157.5,250.3,161.3,264.4,171.6,268.3z M319.8,349.1l3.8,4.2c3.6-3.8,5.1-7.8,3.4-12.6c-2.1-5.8-6.1-10-10.5-14.1
			c-6,7.4-5.1,13.6,2.3,18.8l3.1-1.8L319.8,349.1z M143.5,153c-5.7,13.5,2,24.5,15.5,22.9C158,165.5,149.2,160.7,143.5,153z
			 M380.9,787.9c1.2-4.1,3.4-7.4,1.1-10.5c-3.7-4.9-7.7-9.5-12-13.8l-4.8,7.6C368,779.2,373.7,783.7,380.9,787.9z M454,421.4
			c4.6-3.9,6-6.4,4.9-10.1c-1.7-5.2-4.1-10.2-7-14.8C442.7,402.5,443.5,412.7,454,421.4z M264.8,915.8l1.1-1.1
			c1.6,1.7,3.1,3.4,4.7,5.1c1.4,1.5,2,4.5,5.3,3c-2.9-6.6-6.3-9.3-12.6-10.3c-4.1-0.6-8.2-1.3-12.3-1.8c-1.4-0.1-2.8-0.1-4.2,0
			c2.3,8.5,6.9,12.1,15,12.1c-0.1-1.4-0.2-2.9-0.3-4.6c3,1.5,3.9,5.9,8.5,4.5L264.8,915.8z M324.6,22.9c-2,4.5-2.8,8.2,0,11.1
			c3.9,4.1,8.3,7.7,12.5,11.5c5.4-5.3,5.8-8.1,1-12.6C334.1,29.3,329.5,26.5,324.6,22.9L324.6,22.9z M198.1,132.1
			c-3.3,7.8,3.3,18.9,13.1,21.9C215.9,144.9,211.2,136.9,198.1,132.1z M198,1016.2c2.1,1,4.6,0.2,5.9-1.7c1.6-2.2,3-4.8,2-7.5
			c-1.8-5-3.9-9.9-5.9-14.7C190.9,995.5,192.4,1007.9,198,1016.2z M441.4,474.6c2.9-5.7,2-11-3.2-14.6c-4.6-3.2-8.8-6.7-11.9-11.3
			c-0.1-0.2-0.6-0.1-1-0.1c-2.3,4.1-2.5,4.9-0.6,8.4C428.7,464.2,433.9,470.5,441.4,474.6z M236.8,949.7c7.4-5.6,7.8-16.4,1.4-26.3
			c-4.6,2.7-6,4-6.4,7.2C230.8,937.5,232.6,944.3,236.8,949.7z M189.8,192.6c-2.3-0.9-3.7-0.1-4.8,1.6c-3.6,5.4-2.6,16.6,2.1,21.2
			c0.8,0.6,1.7,1.2,2.6,1.7C196.1,210.3,195.5,201,189.8,192.6L189.8,192.6z M363.9,1072c2.8-10.3-2.5-18.6-13.4-22.1
			c-3,5.9-2.2,11.3,2.8,15.2C356.4,1067.7,360,1069.6,363.9,1072z M349.7,1019.6c-4-1.2-1.2-5.4-3.5-7c-3,0.8-0.7,3.8-2.6,5.6
			l-2.4-5.8c-2.1,1.9-2.1,1.9-1.9,2.8c0.9,3,2.9,5.4,5.6,6.9c4.2,2.3,8.5,4.6,12.8,6.8c1.1,0.5,2.2,0.8,3.3,1.1
			c2.8-10-3.3-18.6-11.3-16.6V1019.6z M334.6,227.6c4.4-6.3,3.5-12.7-1.1-17.3c-2.5-2.5-5-5.1-7.5-7.7c-0.7-0.7-1.5-1.2-2.3-1.9
			c-3.1,7.5-1.5,14.3,4.5,19.5l2-1.3c1,2-1.3,4.3,1.7,5.6l2.1-3.4C334.2,223.8,334.4,225.7,334.6,227.6L334.6,227.6z M486.1,316
			c2.5,5.6,9.8,13.2,15.4,16.5c5.4-8.6-1.8-20.8-13.2-21.7C487.7,312.5,486.9,314.2,486.1,316z M149.9,177.9
			c-2.9,6.2-2.5,8.6,2.3,12.1c4.3,3,9.2,4.9,14.4,5.5c1.5-3.3,1.3-6.5-0.9-8.8C161.4,182.2,156.5,178.7,149.9,177.9z M476,431.6
			c-2.2,11.9,2.7,19.2,13.1,20.1c1.9-3.5,1.7-7.2,0.5-10.8c-0.4-1.5-1.3-2.9-2.6-3.9C483.6,435,479.8,433.4,476,431.6z M460.4,372.1
			c1.4-4.6,0.9-7.3-2.5-9.3c-6.2-3.5-13-5.9-20-6.9c1,4.2,2.2,7.6,5.4,10C447.7,369.3,456.9,372.6,460.4,372.1L460.4,372.1z
			 M427.9,518.5c-1.9,6.5-0.1,10.8,5.1,11.7s10.2,0.8,15.2,1.1c1.3-3.4,1.1-6-1.8-7.5C440.7,520.9,434.9,518,427.9,518.5z
			 M285.2,698.6h0.9c0.3-0.9,0.5-1.8,0.7-2.8c0.2-7.8-8.4-17.2-17.4-19.1c-3.5,6.7-0.9,12.5,6.9,15.9l1.6-1.1
			c1.2,1.8,2.3,3.3,3.7,5.4c0.9-1.7,1.6-2.8,2.4-4.2C284.5,695,284.9,696.8,285.2,698.6z M473.3,593.5c5.7-5.2,5.4-10.9-0.6-14.2
			c-3.3-1.8-7.1-2.9-10.6-4.2c-3.9,5.9-3.7,8.4,1,11.9C466.5,589.3,470,591.4,473.3,593.5z M443.5,518.2c1-6,0-9.2-4-10.8
			c-4.9-2-10-3.4-15-5c-2.8,7-1.6,10.2,4.5,12.1C433.7,516.1,438.6,517,443.5,518.2z M483.4,520c7.8-6.5,6.4-18.8-3.1-25.4
			C475,503.7,476.1,513.3,483.4,520z M232.3,784.7c-6.8,11.1-3.2,26.6,6.7,31.5c2.3-3.7,2.1-7.2,0.5-11.2c-2.3-5.4-4-11-5.9-16.6
			C233.1,787.4,232.8,786.4,232.3,784.7z M326.6,120.5c-2.7,5.7-3.9,11.1-0.5,16.6c1.4,2.2,3.2,4.8,6.6,3.3l1.8,2.7l2.1-1.8l2.7,3.5
			C338.6,134.1,334.8,126.4,326.6,120.5L326.6,120.5z M434.6,25.3c-3,12.7,3.2,16,15.5,16.4c0.4-2,0.9-4,1.3-5.7
			C448.3,30.6,443.3,27.5,434.6,25.3L434.6,25.3z M401.1,847.8c-2.3,1.4-3.9,3.8-4.2,6.5c-1.4,7.4-0.3,14.3,4.8,20.1
			c0.9,0.8,1.8,1.5,2.9,2.2C407.3,867.9,405.9,856.6,401.1,847.8z M318.4,973c-2.1-4.6-6-7.1-8.5-10.5c-10-2.4-10-2.4-13.1-1.3
			C297.4,971.4,306.6,976.8,318.4,973z M335.9,246.2c4.3-7.4-0.2-16.1-9.9-20.7c-0.6,0.6-1.3,1.1-1.9,1.8c-0.6,0.6-1.4,1.6-1.9,2.3
			c-0.4,7.1,3.6,14.2,7,12.5c0.6-1.2,1.3-2.4,2.2-4c0.8,2.8-0.8,5.4,1.6,8c0.6-2.3,1.2-4.2,1.7-6.1l0.8,0.1L335.9,246.2z M163.5,123
			c4.7-7.3,3.6-17.8-2.8-25.7C152.5,104.4,153.8,116.5,163.5,123z M230.5,600.5c3.6,0.2,5.9,1.9,6.5,5.4l5.3,0.7
			c-3.5-9.4-13.6-13.9-26.1-12.1c-0.5,6.5,3.2,10.2,9.5,9.9l-0.4-3.5l0.8-0.2l3.5,5.1l5.4-0.3L230.5,600.5z M491.8,674.8
			c-3.3-8.3-7.7-11-15.5-9.9c-3.1,0.5-4.6,2-4.9,5.4c-0.3,2.9,0.9,5,3.8,5.7C480.6,677.3,486.1,677.4,491.8,674.8L491.8,674.8z
			 M330.2,247.1l-8.1,4.9c0.4,8.1,6.8,10.2,11.4,13.7C340.3,259.8,337.4,250,330.2,247.1z M153.4,195.6c-2,5.3-1.2,9,2.4,12.4
			c2.7,2.6,6.2,3.6,9.8,4.1c1.5,0.1,2.9,0,4.4-0.2C169.7,202.7,166,199.2,153.4,195.6z M255.7,599.6c2.8-8.4,0.2-16.1-7.5-22.9
			C240.7,585.7,243.3,593.8,255.7,599.6L255.7,599.6z M520.7,1042.8c-3.3,10.3,2.8,17.8,14.3,19c2.1-7,1.3-9.5-4.3-13
			C527.5,1046.8,524.3,1044.9,520.7,1042.8L520.7,1042.8z M421.4,587.9c-2.5,3.5-2.4,6.3-0.9,8.9c3.5,6,9.1,10.4,15.7,12.4
			c1.7-4.9,0.4-8.9-2.9-11.9C429.7,594,425.6,591.2,421.4,587.9z M302.2,402.3l1.1,0.3c0.4,4,0.4,4-1.1,8.3
			c-0.7,1.9-0.7,1.9,1.1,4.1c6-14.3,4.2-20.9-3.3-28.4c-5.8,6.5-5.4,16.3,0.9,22.8C301.4,407,301.8,404.7,302.2,402.3z M465.2,276.5
			c4.2-4.7,7.5-8.6,5.8-13.8c-1.5-4.7-4.2-9-6.5-13.6c-5,3.9-5.4,8.7-4.1,13.6C461.5,267,463.3,271.1,465.2,276.5L465.2,276.5z
			 M219.3,831.5c-4.7,11.8,2.1,23,13.2,22.2C232.1,844.1,226.1,838,219.3,831.5z M499.7,192.3c6.2-7.1,3.2-15.8-7.7-22.3
			C487.5,176.3,487.8,182.5,499.7,192.3z M331.7,178.9l2.1-2.4c0.1,2.1,0.2,3.8,0.3,6.1l3-4.2c-0.1,3-0.2,5-0.4,7.9
			c2.7-4.5,3.5-7,2.2-9.8c-2.8-6.2-7-11.6-12.3-15.8C321.5,169.1,322.9,173.7,331.7,178.9L331.7,178.9z M279.4,873.7
			c5.9-7.8,2.9-16.8-7.6-22.6C267.3,857.8,270.7,867.8,279.4,873.7z M156.4,398.3c-3,3.1-5.3,6-5.2,10.1c0.1,7.1,2.4,13.6,5.5,20.5
			c3.6-4.4,4.7-8.7,3.8-13.4C159.5,410,157.9,404.5,156.4,398.3z M151.4,59.8c2.4,8.4,14.4,13.7,23.7,10.9c-0.2-2.1-0.5-4.3-0.7-6.7
			C166.8,61.8,159.4,61,151.4,59.8z M339,834.2c3.4-2.8,6-6,9.5-7.6c3.6-1.7,7.8-1.9,12-2.8c-4.8-6-11.3-7-20.6-3.3
			C337.8,824.8,337,829.4,339,834.2z M212.9,579.4c4.8,10.8,12.7,14.6,19.9,9c-5.9-5.2-9.7-13-18.8-13.9
			C213.6,576.3,213.2,577.9,212.9,579.4z M201.2,44.7c4.3-7.7,2.5-15.9-4.7-22C189.7,30.4,191.8,40.9,201.2,44.7z M204,334.3
			c4.7-6.1,0.1-21-7-25.9C193.1,317.5,195.8,327.3,204,334.3z M201.1,0.4c-6.4,8.4-3.1,22,6.1,28.6c2.3-2.4,2.2-5.4,1.3-8.1
			C206.4,14.2,203.8,7.7,201.1,0.4z M196,199.9c4.5-3.4,5.6-4.8,5.2-8c-1-6.8-4.1-12.6-8.6-18.1c-2.3,4.4-3,6.1-2.4,9.2
			C191.1,188.7,192.6,194.4,196,199.9z M164.6,214.1c-1.7,4.9-0.4,8,4.2,10.5c4.1,2.2,8.8,2.9,13.4,2c0.8-5.5-0.9-8.7-5.7-10
			C172.7,215.5,168.8,215,164.6,214.1z M174.5,398.8c8-7.6,7.6-21.5-0.5-27.1C169.3,380.7,171.7,389.5,174.5,398.8z M309.7,393.7
			c3-5.8,4.5-11.3,2.1-17.8l-6-6C300.5,378.2,302,386.7,309.7,393.7z M205.9,132c2.9-3.6,4.9-7.4,2.4-11.2
			c-2.7-4.3-7.2-7.2-12.2-7.9c-2.3,4.4-2.2,8.3,1.2,11.6C200,127.1,202.9,129.4,205.9,132z M325.6,263.4c-2.4,3.3-4.3,6.5-2.6,10.1
			c2,4.1,4.9,7.7,8.6,10.5c5.3-3.1,6.5-8.3,2.7-12.5C331.8,268.6,328.7,266.2,325.6,263.4L325.6,263.4z M274.3,733.1
			c1.4-1.9,2.8-3.5,3.9-5.3c1.4-2,1.2-4.7-0.4-6.5c-2.7-3.2-5.6-6.4-8.4-9.6C263.8,719,265.4,726.2,274.3,733.1z M463.6,82.2
			c0.3-3.2,1-6,0.8-8.8c-0.1-1.8-1.1-4.2-2.4-5c-4-2.2-8.5-3.5-13.1-3.7c0.9,7.5,2,9.6,6,12.5l1.7-2.2c0.3,1.7,0.6,3.2,0.9,4.9
			L463.6,82.2z M191.2,36.9c-5.7,8.1-4.7,18.2,2.1,26.2c4.3-3.8,4.8-8.7,3.3-13.8C195.3,45.2,193.1,41.2,191.2,36.9z M222.4,570.9
			c3.2-9.9-0.6-17-10-18.9c-1.8,5.4-0.7,11.3,3,15.6C217.2,569.8,218.8,572.1,222.4,570.9L222.4,570.9z M142.3,440.4
			c-1.6,6.6-1.6,8.7,0.6,13.2c4.5,8.9,5.7,18,2.4,27.6c-0.6,1.6-1.6,3.5-0.6,5.5c0.4,0,0.8,0.1,0.8,0c4.1-9.1,8.2-18.1,3.3-28.3
			c-0.2-0.5-0.4-1-0.4-1.6C148.8,450.8,144.6,446.6,142.3,440.4z M212.4,282.7c2.5-11.4-4.4-19.3-15.3-18.5
			C198.1,273.6,205.4,277.5,212.4,282.7z M439.2,303.3c-5.3,10.9-2.4,21.9,6.4,25.2C447.5,319.2,445,311.2,439.2,303.3z
			 M402.9,794.3c9.5-0.2,15.4-5.4,21.1-11.7C414.4,777.9,404.8,783.3,402.9,794.3L402.9,794.3z M374.9,717.5
			c3.1,5.4,6.3,7.4,10.2,6.7c4.4-0.8,9.3-6.1,10.4-11.1C388,711.8,381.5,714.5,374.9,717.5L374.9,717.5z M149.2,416.7
			c-4.6,10-5.2,21-0.4,25.7c5.5-3,7.1-5.3,5.8-10C153.3,427.4,151.3,422.6,149.2,416.7z M229.7,634.5c2,3.7,0.5,6.6-1.2,9.8l1.6,2.3
			c4.5-7.6,4-17.3-1.5-24.3c-7.6,5.9-8.1,14.1-1,19.7C228.4,639.5,229,637.2,229.7,634.5z M155.6,160c2.6-10.6-4.4-16.4-9.7-23.4
			C140.6,145.3,145.1,154,155.6,160z M208.4,263.2c1.5-5.5,0-9.1-5.2-10.6c-4.4-1.3-9-1.6-14.6-2.4
			C193.2,259.3,200.3,261.9,208.4,263.2z M193.3,329.4c-4.9,8.9-0.5,19,9.6,22.3C204,342.3,199.6,335.6,193.3,329.4L193.3,329.4z
			 M362.2,706.9c2.3,4.6,6,5.8,10.1,5.2c5.2-0.8,10.4-2.3,15.8-3.5c-1-3.2-2.9-4.2-5.4-4.4C375.8,703.5,369.1,703.8,362.2,706.9z
			 M352.8,798.5c-6.2,4.2-9.9,8.9-10.4,16.2l14.8,3C353.2,809.5,353.2,809.5,352.8,798.5z M470.6,97c4.4-3,5.8-4.8,5.5-8.3
			c-0.4-4.6-1.6-9.1-3.5-13.3C464.8,79.9,464.2,87.4,470.6,97z M404.4,764c-0.7,4.3,2,7,4.9,9.3c4.3,3.5,9.1,3.5,14.1,1.7
			C420.3,768.1,413.3,764,404.4,764z M236.7,609.8c-0.4,2.8-0.1,5.3,2.4,6.2c6.2,2.3,12.6,2.3,19.4,1.2
			C254.9,610.5,247.3,608.1,236.7,609.8z M166.4,387.4c-6.7,7.1-6.4,17.3,0.6,25.2C172.1,404.1,169,396.1,166.4,387.4z
			 M174.9,1077.8c5.8-8.3,2.1-16.2-0.3-24.5C167.7,1060.2,167.9,1070.7,174.9,1077.8z M429.3,846.9l-1.6-0.2
			c-2.8,6.9-5.7,13.8-8.3,20.8c-0.5,1.4,0.2,3.3,0.3,5c4.6-1.2,4.9-1.5,7.6-7.9C429.8,858.8,431.8,853,429.3,846.9z M381.4,734.6
			c1.2,4.6,2.6,8.6,6.2,11.5c5.6-4.8,6.3-10.2,2.5-18.2C386.2,728.5,383.6,730.8,381.4,734.6z M351.6,686.6l-0.1-1
			c-3.5-0.3-7.1-0.5-10.6-1s-7-1.4-10.9-2.2l-5.3,5.7c3.3,3,7.9,4.2,12.3,3.1C342,690.1,346.8,688.2,351.6,686.6z M358.9,791.1
			c-6.7,12-5.9,17.1,3.7,25.8V801L358.9,791.1z M187.5,73.3c1.8-8.8,0.5-15.5-4.1-22.1c-0.8,0.7-1.6,1.4-2.4,2.2
			c-3.8,4.6-3.8,8,0,12.5C182.8,68.2,184.7,70.3,187.5,73.3z M406.1,747.9c4.7,5.1,9.8,9.7,15.3,13.8c1.9-8.3-6.5-19-13.2-17.1
			L406.1,747.9z M410.4,837.8c-0.5,2-1.3,3.6-1.3,5.2c0.1,4.6,0.3,9.3,0.9,13.9c0.2,2,0,4.3,2.2,6.2c2.7-6,4.8-11.8,3.9-18.2
			C415.7,841.9,414.5,839.4,410.4,837.8L410.4,837.8z M142.7,480.6c3.7-8.3,1.7-21.9-3.9-26.8V477L142.7,480.6z M469,422.5
			c3.2,5.5,7.8,6.9,13.3,6.8c0.6-6.3-2.4-10.5-9.3-13.1C469.9,417.1,469.1,419.5,469,422.5z M203.1,282.1
			c-0.7,7.2,4.6,14.1,11.9,15.7C217.7,290.7,212.5,283.9,203.1,282.1z M425.6,840.2c3.2-8.5,7.5-16.6,5.9-26.1l-10.3-13l-1.2,0.7
			c0.8,1.8,1.5,3.8,2.5,5.5c0.7,1.3,1.8,2.2,2.5,3.5c1.6,3,2.9,6.1,3.9,9.3c1.2,4.6-0.8,8.8-3.2,12.2L425.6,840.2z M272.5,435.2
			c-3.5,3.7-6.6,6.9-5.7,10.9c1.2,5,0,11.1,5.5,15.4C274.6,452.5,272.2,444.4,272.5,435.2L272.5,435.2z M479.6,400.2
			c2,5.5,3.9,10.6,5.8,15.8l4.9,1.5C492.5,408.1,487.9,400.5,479.6,400.2L479.6,400.2z M170.3,105c3-10.5,0.8-17-5.9-18.2
			C162.9,92.8,164.9,99.5,170.3,105z M249.3,934.9c4.8-7.5,2.4-14.7-6.5-20C242.1,919.6,244.8,928.3,249.3,934.9L249.3,934.9z
			 M213,568.5c-0.1-0.8-0.3-1.5-0.5-2.2c-2.6-4.7-3.6-9.6-2.2-15c0.7-2.3-0.3-4.7-2.3-5.9C201.5,553.6,203.2,562.3,213,568.5z
			 M240.5,795.5c5.5-8.3,4.8-15.8-1.9-19.8C236.1,782,236.8,789,240.5,795.5L240.5,795.5z M327.5,64c-4.1,7.5-2.6,12.6,4.1,15.7
			c0.4-1,0.7-2,1.1-3s0.8-1.9,1.3-3c0.5,0.3,1,0.5,1.5,0.7c0.7,0,1.5-0.2,2.2-0.4L327.5,64z M466.2,229.4c2.5-7.4-4.6-11.8-13.8-8.5
			C454.9,226.9,459.1,229.5,466.2,229.4z M344,670c5,4.3,10.3,8.2,16,11.5c-2.2-5.5-8.1-12.8-13.5-17C345.6,666.3,344.9,668,344,670
			z M489.3,103c-0.5-4.2-2.4-6.8-6-8.1c-5,3.8-5.4,4.7-4,9.9C482.6,104.6,486,105.6,489.3,103z M369.8,808
			c-5.8,4.7-4.7,9.7,2.7,13.4c0.5-4,1-8,1.5-12.2L369.8,808z M250.9,486.8l-5.2-3.8c-0.5,5.9-3.2,10.5-1.6,16.1
			C249.3,495.4,250.4,493.5,250.9,486.8z M394.5,795.1l7.9-12.3c-3.9-1-6.9-0.8-8.8,2.1S391.2,791.2,394.5,795.1z M467.3,560.7
			c-4.7,7.6-4.1,11.2,2,13.5C473.3,568.2,473,565.5,467.3,560.7L467.3,560.7z M452.3,540c-5.8-5.1-8-5.4-11.5-1.8
			c0.5,4,0.5,4,3.8,6.5L452.3,540z M260.9,884l-1.7,0.3c0.2,2.4-0.3,5.2,0.8,7.1c1.9,3.3,4.9,5.9,7.4,8.8
			C267.5,894.1,265.2,888.3,260.9,884z M419.8,839.7c2.4-5.6,2.2-9.7-1-14.4C413.8,829.4,414,832.4,419.8,839.7L419.8,839.7z
			 M449.5,333.4c3.9-7.6,3.2-13.2-2-17.9C447.4,321.4,447.3,327,449.5,333.4L449.5,333.4z M136.5,486.5c-1.2-0.1-1.9-0.2-2.6-0.3
			c-0.9-0.2-1.7-0.4-2.4-0.6c-1.4-4.3-1.4-4.3-4.6-4.1c-0.6,6.9,3.6,10.1,11.6,8.5C137.9,488.8,137.3,487.7,136.5,486.5L136.5,486.5
			z M216.7,589.8c-3.6-5.5-6.9-10-6.4-16.1c0.1-0.7-1.2-1.4-2-2.3C206.1,580.6,208.6,586.4,216.7,589.8z M322.9,979.2
			c-4-0.7-7.4-1.1-10.7,1.4c0.4,2.8,2,4,4.4,3.9C319.8,984.3,321.6,982.3,322.9,979.2z M135.5,472.4c2.5-6.3,2.2-10.6-0.8-15.1
			C134.2,462.4,130.6,467.1,135.5,472.4z M475.1,657.7c3.2-0.2,5.6,0.4,8.1-1c-1.5-3.4-2.9-6.2-7.2-7.4
			C475.7,652.3,475.5,654.7,475.1,657.7z M125.5,469.4l5-17c-4.6,5.3-7.5,10.3-7.5,17H125.5z M239.2,597.9c2.4,2.6,4.7,5.2,7.3,8.1
			l4.6-1.2C248.4,599.9,244.5,598,239.2,597.9z M447.9,852.6c6.4-3.8,9.7-11.7,8.4-17.6C453.6,840.6,450.8,846.6,447.9,852.6z
			 M447.4,340.4c1.3,11.9,2,13.8,6.3,15.5C453.4,350.2,451.2,344.8,447.4,340.4L447.4,340.4z M406.2,882.2c5.2-4,6-9.8,2.3-17.2
			C407.7,871.1,407,876.4,406.2,882.2z M349.4,998.7l7,11.5C359.3,1005.8,356.9,1001.7,349.4,998.7z M234.9,825.4l-1.8,10.2l4.6,2.7
			C238.1,833.5,238.1,829.5,234.9,825.4z M500.6,471.6c-0.5,4.9-0.1,9.5-2.7,13.7c-0.4,0.6,0.5,2,1,3.6
			C502.8,482.5,503.4,476.5,500.6,471.6z M291.1,446.3c4.6-4.6,8-9.8,7.8-16.5C297.6,436,292,440.1,291.1,446.3z M397.8,765.8
			l-1.1-0.4c-2.5,3.5-5.5,6.8-4.4,12.2l4.2-2.2L397.8,765.8z M466.7,235.9c-3-0.6-5.3-2.1-7.5,0.2c0,2.9,1.5,5.5,4.1,6.9
			L466.7,235.9z M267,733.9c-0.2,4.3,1.1,8.5,3.8,11.9C273.5,740.2,272.9,738,267,733.9z M235.1,710.9l1.1-0.9
			c-1.8-5.5-4.7-10.3-10.5-12.7L235.1,710.9z M130.5,470.2l2.5-13.6C127.3,462.1,126.6,465.7,130.5,470.2z M251.4,788.3
			c3.4-5.3,3.2-7.1-1.4-11C248.8,781,249.3,785.1,251.4,788.3z M423,814.1c-2.4,5.1-2.1,6.5,2.5,10.1
			C427.1,820.1,426.2,816.9,423,814.1z M337.8,87c3.6-6.3,3.5-9-0.6-11.7C338.3,79.4,333.8,82.8,337.8,87z M393.7,705.8
			c-4-4.7-8.3-6-13.4-4.7l11,6L393.7,705.8z M284.7,862c-0.9,5.1-1.7,9.7-2.6,14.7C286.9,872.6,287.6,868.3,284.7,862z M344.9,681.9
			c-7.1-3.8-8.3-4-12.2-1.7C338.7,683.2,341,683.5,344.9,681.9L344.9,681.9z M122.2,473.3c0.7,4.7,1.3,5,7.4,5.2
			C128,473.3,127.2,472.7,122.2,473.3z M246.8,757.7c-2,7.2,1,13.7,5.6,14.9c-1.4-2.2-2.6-4.5-3.6-6.9
			C248,763.1,247.3,760.4,246.8,757.7z M475.3,395.5c3.4-2.9,6.3-5.7,6.5-10.9l-8.1,8.6c0.1,0.4,0.2,0.7,0.4,1.1
			C474.5,394.7,474.9,395.2,475.3,395.5z M487.9,664c4.4,8.3,5.5,9.7,8.9,10.6C494.9,670.4,493.7,666.1,487.9,664z M175.8,323.7
			c-0.5,4-2.9,7.8-2,12.4C177.6,332.9,178.3,328.7,175.8,323.7z M327.9,670.9l9.2-3v-3.5C331.7,665.2,330.8,665.8,327.9,670.9z
			 M283.3,884.6c5-5.9,6.5-10,5.6-15.7c-1,5.3-2.5,9.6-7,12.2L283.3,884.6z M455.2,379.3c-2.1-0.9-3.6-2.4-5.8-1.9
			c-0.7,3.5,0.6,5.7,3.3,7.9L455.2,379.3z M456.9,92l4.1-5.5l-7.8-3.5C454.7,86.6,455.6,88.9,456.9,92z M438.9,830.2
			c0-2.1-0.1-4.2,0-6.3s1.8-4.4-0.6-6.3C435.3,822.6,435.3,825.2,438.9,830.2L438.9,830.2z M342.3,671.4c1.3,6.1,3.5,7.7,10,7.8
			L342.3,671.4z M265.7,907c-2-5.7-2.7-6.5-7.1-8.9C261.4,905.5,262.1,906.3,265.7,907z M509.4,696.2c0.9-4.2,0-7.3-3.8-10.3
			l1.1,9.3L509.4,696.2z M234.7,621.9c0.5,4.9,1.8,7,5.8,9.2C240.1,627.3,239.4,623.7,234.7,621.9z"/>
		<path class="st0" d="M463.2,110.5l2.5,3.4l-5.4,5c-0.8-1.7-1.4-3-2.2-4.7L463.2,110.5z"/>
	</g>
</g>
</svg>
