<?xml version="1.0" encoding="utf-8"?>
<!-- Generator: Adobe Illustrator 23.1.0, SVG Export Plug-In . SVG Version: 6.00 Build 0)  -->
<svg version="1.1" id="Capa_1" xmlns="http://www.w3.org/2000/svg" xmlns:xlink="http://www.w3.org/1999/xlink" x="0px" y="0px"
	 viewBox="0 0 729.4 693.7" style="enable-background:new 0 0 729.4 693.7;" xml:space="preserve">
<style type="text/css">
	.st0{fill:#602112;}
</style>
<g>
	<g id="Capa_1-2">
		<path class="st0" d="M129.2,180.7l-4.8,3.4l-3,6.2l-5.2,1.5l-4.2-2.6c-0.9-4.8,0.3-8.1,4.6-10.3c1.3-0.6,1.9-2.5,3.1-4.2
			c-12.1-7.8-23.6-16.6-34.1-26.5l-4.4,3c-1,3.9-2.7,7.4-8.2,7.9c-1.2-1-2.9-2.3-4.4-3.6c0-4,1.1-6.9,4.4-9.2c2.1-1.4,3.2-4.1,5-6.5
			c-3.5-3.7-6.9-7.1-10.1-10.6c-3.4-3.5-6.5-7.4-9.2-11.6c-3.5-5.7-4.8-12.5-3.7-19.1c0.2-1.6,0.5-3.3,0.9-4.9
			c0.9-3.8,0.5-7.6-0.1-11.3c-1.1-6.4,0.2-11.8,5.4-16c0.4-0.3,0.7-0.7,1.1-1.1c4.8-2,9.9-2.8,15-3c1.4-0.2,2.8-0.6,4.1-1.3
			c2.9-1.2,5.6-2.8,8.5-3.9c6.1-2.5,13-2,18.7,1.3c5.7,3.2,11.5,6.2,17.2,9.4c0.9,0.5,1.8,0.9,2.6,1.2c1.9-0.9,3.3-2.6,3.9-4.6
			c0.9-2.9,3.1-5.3,6-6.6l5.3,1.6l1.3,4.6c-0.2,4.7-6.4,5.4-6.6,10.4c13.1,7.7,25.6,16,36.4,26.4c1.7-2.1,3.5-4.3,5.4-6.6l6.8,1.9
			c0.3,2.3,0.5,4.4,0.8,6.3l-5.7,5.7c7.7,8.5,13.6,18.4,20.4,27.7c2.4,3.5,5,6.9,7.9,10.1c2.6,2.8,5.7,5,8.6,7.5
			c14.5,12.6,29,25.2,43.5,37.8c11.8,10.2,23.6,20.3,35.4,30.5c13.5,11.7,27,23.4,40.5,35.2c13.6,11.8,27.3,23.7,40.9,35.5
			c9.7,8.5,19.4,17,29.1,25.5c0.4,0.3,0.8,0.6,1.1,0.8c7.8-3.7,15.4-7.1,23.6-8.5c4.3-0.8,8.4-1.8,12.6-2.8c1-0.2,2-0.3,2.9-0.4
			c1.8-0.3,3.7-0.4,5.3-1.1c10-4.7,19.7-3.2,29,1.5c7.1,3.7,12.7,9.5,17.6,15.8c6.5,8.2,11.1,17.4,16.2,26.5
			c4.3,7.8,9.5,15.1,16.7,20.7c4.6,3.6,10.3,5.7,16.1,6.1c5.7,0.4,11.5,0.5,17.2,0.2c8.2-0.6,16.5-0.3,24.6,0.9
			c8.2,1.3,16.2,3.7,23.8,7c7.9,3.4,14.8,8.1,21.4,13.5c10.6,8.6,18.4,19.3,24.6,31.3c2.4,4.7,4.4,9.6,6.5,14.5
			c1.7,4.1,3.2,8.4,4.4,12.7c3.3,11.9,4.8,24.3,4.5,36.7c-0.3,16.5-3.7,32.5-8.9,48.1c-5.4,16.4-13.3,31.7-22.3,46.3
			c-5.8,9.3-11.3,18.7-18.7,27c-7.8,8.8-16.9,15.6-27,21.3c-6,1.2-11,5-17.4,5.5c-5.5,0.4-11.1,1.7-16.7,1.5
			c-0.8,0.1-1.7,0.3-2.4,0.6c-5.9,1.9-12,2.3-18.1,2.9c-7.7,0.9-15.4,0.5-23.2,0c-17.6-1.1-34-5.9-48.7-15.8
			c-4.7-3.3-9.2-7.1-13.3-11.2c-6.2-5.8-11.6-12.3-16.2-19.4c-3.3-5.3-6.2-10.8-8.9-16.5c-3.4-7.2-5-14.8-7.2-22.3
			c-0.8-2.7-1-5.5-1.5-8.3s-1.9-5.3-1.5-8.3c0.1-1.1-0.5-2.3-0.9-3.4c-1.8-6.4-3.7-12.9-5.6-19.3c-2-6.7-5.5-12.8-10.2-17.9
			c-1.7-2-3.9-3.6-6.2-4.8c-5.8-2.8-12-4.9-17.7-7.9c-6.3-3.3-13-5.8-19-9.9c-5.4-3.7-10.5-7.5-14.8-12.4c-3.5-4-6.2-8.6-7.8-13.6
			c-3-9.1-4.4-18.7-3.9-28.4c0.5-12.3,3.5-24.3,8.7-35.5c1.1-2.2,1.9-4.6,3.1-6.8c4.2-8.2,9.7-15.5,15.2-22.8c1-1.3,1.9-2.7,3-4.2
			c-5.2-4.9-10.2-9.6-15.3-14.3c-8-7.4-16-14.8-24.1-22.2c-10.8-10-21.6-20-32.4-30c-7.8-7.2-15.5-14.4-23.3-21.6
			c-10.7-9.9-21.3-19.8-32-29.7c-9.4-8.7-18.6-17.4-28.1-26c-8.7-7.9-17.5-15.7-26.2-23.6c-3.3-3-7-4.8-11.7-4.7
			c-6.4,0.1-12.9,0.1-19.2-0.3c-8.2-0.6-16.5-1-24.3-4.3C130.7,181,130,180.8,129.2,180.7z M559.5,498.1l-6.2,7l3.1,4.3l-3.8-2
			c-2.6,2.2-4.4,4.8-3.6,8.7l2.7,0.6c1.5-1.8,2.9-3.4,4.2-5.1c0.3-0.7,0.5-1.4,0.5-2.2c2.4-1.7,5.3-5.6,6-8c0.1-0.3-0.1-0.6-0.2-1
			c2.6-2,5.2-6.3,5.6-9.5c0-0.2-0.1-0.3-0.1-0.5l2,0.2l4.7-9.5l7.1-11.9c-1.5-1.7-2.3-3.4-4.5-3.4c-1.7,3.1-3.4,6.2-5.2,9.2
			c-0.7,1.2-0.7,2.6-0.1,3.8c-0.7,0.4-1.6,0.7-2,1.3c-1.5,2.4-2.7,4.9-4,7.2l2,3.1l-3.1-1L559.5,498.1z M560.5,484.2l-2.5-0.7
			c-1.7,2.9-3.2,5.4-4.7,8.1c1.2,1.1,1.8,3.1,4.3,2.9l3.9-8.2C561.4,485.8,560.9,485,560.5,484.2l2,0.3l4.7-8.3
			c-1-1-2.1-2.1-3.2-3.3l-5.1,8.5L560.5,484.2z M155.3,150.4c-1.4-0.8-2.8-1.5-4.2-2.3l-13.7-7.9c0.5-0.4,0.6-0.6,0.7-0.5
			c21.4,11.4,42.7,22.9,64,34.3l5-6.1c-18.3-17.6-36.6-35.2-54.8-52.7c-1.2-1.1-2.2-2.4-3.3-3.6c-0.1-0.1-0.2-0.3-0.1-0.5
			c0.1-0.3,0.2-0.6,0.4-0.9l19.1,17.9c-1.2-3.3-1.6-5.8-0.5-7.8c2-3.1,5-3.7,8.4-4.1l3.9,2l1.9,6.6c-0.8,1.8-1.5,3.5-2.1,5.1
			l-8.3,1.4l36.9,34.9l4.5-6c-1.4-1.4-2.6-2.7-3.9-3.9c-4.3-3.9-8.6-7.7-12.9-11.6c-0.7-0.7-1.2-1.5-1.7-2.4l0.6-0.4l19.3,17
			c0.3-0.6,0.6-1,1-1.6c-2.3-1.9-4.6-3.7-6.7-5.8c-5.1-5-9.1-10.9-13.2-16.7c-5-6.9-9.6-14.2-15.2-20.7
			C168,99.7,152.7,89,136.7,79.3c-7.1-4.3-14.5-8.3-22-12.1c-5-2.6-10.1-5-16.3-3.7c-1.7,0.9-3.2,2-4.7,3.1
			c-3.2,2.9-7.2,4.8-11.5,5.6c-1.3,0.3-2.6,0.6-3.9,1c-5.4,1.6-7.8,5.1-7.4,10.8c0.4,5.4,0.6,10.8-1.2,16.1
			c-1.3,3.9-0.9,8.1,1.1,11.6c2,3.6,4.3,7.2,7.2,10c13.2,12.3,26.4,24.6,40.8,35.6c8.4,6.4,17.5,11.6,27.7,14.5
			c7.7,2.1,15.4,3.8,23.2,5.3c6.4,1.3,12.4,4,17.5,8c1.3,1,2.7,1.7,4.1,2.6c1.2-1.7,2.3-3,3.3-4.4c-5.5-3.4-10.8-6.6-16-9.9
			c-0.7-0.4-1.2-1.2-2.4-2.5c7.7,2.8,12.7,8.4,19.7,10.8l4.5-5.8c-1.5-0.9-2.6-1.6-3.8-2.2c-8.5-4.7-17-9.4-25.5-14.1
			C165.9,156.6,160.7,153.5,155.3,150.4z M394.8,382.9c-0.5,0.9-1,1.5-1.3,2.2c-5.2,10.4-9.4,21.2-11.5,32.7
			c-2.2,12.2-2.6,24.2,3.4,35.7c3.3,6.3,8.3,11.7,14.3,15.5c6.6,4.2,13.8,7.4,21.3,9.6c9.6,2.9,18.7,7,27.3,12.2
			c8.3,5,14.1,11.9,16.9,21.2c1.9,6.4,3.7,12.9,5.5,19.3c0.3,1,0.5,1.9,0.7,2.9c1,5.5,1.7,11.1,2.9,16.6c1.1,5,2.9,10,4.3,15
			c1.7,6.3,4.6,12.1,7.6,17.8c5.9,10.9,13.4,20.9,22.3,29.5c6.1,6,13.1,10.7,20.4,15.1c4,2.4,8.4,3.9,12.8,5.6c13,5,26.4,5.5,40,3.1
			c5.7-1.1,11.3-3.1,16.4-5.9c12.2-6.5,22.7-15.7,30.7-26.9c2.7-3.8,5-7.9,7.5-11.8c3.3-5.2,6.8-10.2,9.9-15.6
			c5.3-9.3,9.8-18.9,13.6-28.9c6.6-16.8,10.8-34.1,11.5-52.1c0.6-13.1-0.4-26.1-4.6-38.7c-1.8-5.4-3.2-10.8-5.5-16
			c-2-4.7-4.2-9.3-6.7-13.8c-4.1-7.3-9.2-14.1-15.2-20.1c-9.3-9.6-20.8-16.8-33.4-21c-10.5-3.6-21.6-5.3-32.7-5
			c-7.4,0.2-14.8,0.9-22.2,0.2c-10.8-1-20.1-4.9-27.5-13.2c-4.8-5.6-9-11.8-12.5-18.3c-4.4-7.7-8.4-15.7-13.8-22.7
			c-4.3-5.5-9-10.7-14.9-14.4c-11.1-6.8-22.2-6.4-33.2,0.4c-7.5,4.6-14.2,10.3-19.8,17c-0.9,1.1-1.7,2.2-2.4,3.2
			c0.3,0.8,0.4,1.2,0.6,1.4c10.6,9.2,21.4,18.3,31.9,27.7c4.1,3.6,8.7,6.7,11.7,11.2c0,1.7-0.1,3.2-0.1,4.6
			c-1.1,2.1-2.1,4.2-3.2,6.2c5.6,4.3,10,9.6,15.7,13.2l4.9-1.4l1.2-5l3.2-2.7c9.9,2.4,17.5,8.2,23.4,16c6.9,9.1,10.1,19.5,8.7,31.1
			c11.1,11.1,34.7,31.9,37.7,33.2c4.2-6,8.4-11.9,12.6-17.9c3.3-4.6,6.3-5.1,11.4-2.1c0.9,1.5,1.6,2.9,2.3,4.1
			c-0.2,3.6,1.2,6.7,2,9.7l4.9,5.5c-0.9,9.2-4.6,17.1-8.3,24.9c-4.9,10.4-10.5,20.5-17.8,29.5c-3.3,4-6.1,8.7-11.2,11.4
			c-1.8-0.4-3.7-0.9-5.6-1.3c-1.8-0.5-3.7-0.3-5.3,0.5c-2.6,1.2-5.1,2.4-7.1,3.3L534,535l-2.8-4.1c0.4-3.3-0.4-6.6,1.1-9.8
			c1.4-2.8,2.4-5.8,4-8.4c2.5-4.3,5.3-8.5,8.2-13c-6.5-5.7-12.7-11.3-19-16.8s-12.2-11.5-18.9-16.6c-1.1,0.7-1.7,1.3-2.4,1.7
			c-0.7,0.4-1.5,0.7-2.3,1c-10.5,3.6-20.4,1.3-29.6-3.8c-5.5-2.9-10.2-7.1-13.9-12.1l-2.1-7.2l5.1-7.5c-0.8-1.8-1.6-3.6-2.6-6.1
			c0.5-1.8,1.2-4.3,2-7.2l-12.9-11.6c-0.8,1.3-1.3,2.2-1.8,3c-3.5,5.6-8.5,6.4-13.3,2c-7.5-6.9-15-14-22.5-21
			C405.2,392.4,400,387.7,394.8,382.9L394.8,382.9z M475.8,608.6c8.2,7,16.7,13.5,26.2,18.9c9.5,5.3,18.9,10.1,29.8,11.2
			c-14.5-4.9-27.5-12.1-38.6-22.7c-11.9-11.4-23.1-28.9-23.4-37c5.4,10.4,12.3,19.9,20.4,28.4c8.2,8.4,17.2,15.8,28.1,20.5
			c-0.3-0.7-0.8-1.3-1.5-1.8c-5.5-3.7-10.5-8-15.1-12.8c-11.9-12.2-20.6-26.6-26.8-42.4c-3.8-9.6-6.4-19.7-7.7-30
			c-0.7-6-2.7-11.6-3.5-17.5c-0.5-4.3-2.4-8.2-4.2-12.2c-3.1-7.2-8.4-13.2-15.1-17.2c-9.3-5.7-19.7-8.9-29.9-12.4
			c-7.3-2.4-14.1-5.9-20.4-10.3c-11.2-8.3-17-19.5-18.5-33.1c-1-10.6,0.4-21.2,3.9-31.2c3.2-9.4,7-18.6,10.6-28.1l-16.5-15.3
			c-9.7,15.9-17.2,33-22.3,50.9c-0.5-0.6-0.9-0.9-0.9-1.1c-0.1-0.6-0.1-1.3,0-1.9c1.4-11.2,5-22.1,10.4-32
			c2.9-5.4,6.9-10.1,10.4-15.2c0.4-0.7,0.6-1.5,0.8-2.4c-1.2,0.6-2.3,1.6-3.1,2.7c-2.6,3.6-5.4,7.2-7.8,11
			c-3.7,6-7.6,11.9-10.5,18.2c-4.7,10.3-7.4,21.3-8,32.6c-0.3,5.4-0.1,10.8,0.6,16.2c0.4,2.6,1,5.2,1.8,7.8c0.8,2.7,1.7,5.2,2.7,7.8
			c0.5,1.1,1,2.1,1.6,3.1c4.1,7.3,10.5,12.3,17.4,16.6c8.9,5.7,18.7,9.4,28.3,13.6c6.5,2.9,13.2,5.8,17.6,11.8
			c4.4,6.1,8.1,12.4,10.3,19.6c1.7,5.8,3.5,11.5,4.9,17.4c1.5,6.3,2.3,12.7,3.7,19c0.9,4.1,2.3,8,3.4,12.1
			c2.6,10.2,7.8,19.2,13.4,28c5.1,7.8,11.3,14.8,18.3,20.8c3.1,2.7,6.2,5.8,10.9,7.5c-0.5-1-0.7-1.5-1-1.7
			c-6.6-4.4-11.8-10.2-16.7-16.3c-7.6-9.5-12.5-20.5-16.7-31.8c-1.8-5-3.1-10.2-4.5-15.4c-0.1-0.7-0.1-1.4,0-2.1
			c0.9,0.2,1.6,0.8,1.9,1.7c2.7,9.4,6.4,18.4,11.1,27c6,11.3,13.2,21.7,23.1,30c4.8,4.1,9.8,8,15.5,10.8c5.5,2.8,11.3,4.9,17.2,6.4
			c0.8,0.2,1.6,0.3,2.4,0.4C496.9,629.5,484.6,621.3,475.8,608.6L475.8,608.6z M577.5,462.5c5.1,2.6,5.3,2.9,6.8,6.7
			c-2.2,6.3-5.5,12-9.1,17.6c-3.6,5.6-6.9,11.4-9.8,17.4c-2.8,1.4-2.7,5.3-5.2,6.8c0.1,0.9,0.2,1.6,0.2,2.1c-3.9,1-4.7,5.4-8.3,7.3
			l-5.4-1.8c-1.6-4.5-1.6-5.4,0.1-8.5c0.9-1.6,1.8-3.2,2.7-4.8c0.1-0.4,0.1-0.9,0.1-1.3l-2.9-1.3c-4.1,5.4-7.8,10.7-10.4,16.7
			c-1.8,4.1-2.7,8.5-0.1,12.9c3,1.1,6.4,0.7,9-1.2c3.1-2,6.4-2.6,9.9-0.9c0.4,0.1,0.8,0.2,1.2,0.3l3.9-1.1
			c15.3-17.8,26.9-37.3,32.5-59.8c-0.5-0.7-1-1.3-1.5-1.8c-3-2.6-5.1-5.4-5-9.7c0.1-2.4-1.3-4.8-1.9-7.1c-0.9-0.2-1.5-0.4-2.2-0.6
			c-0.4,0-0.8-0.1-1.2-0.1c-6.9,5.7-10.5,14.1-16,21.3l3.3,3.6C571.5,470.8,571.3,464.2,577.5,462.5z M159.2,180
			c-4.2-1-8.4-1.9-12.5-3c-12.8-3.7-24.7-10.1-34.7-18.9c-11.4-9.8-22.9-19.5-34-29.7c-4.6-4.2-8.7-8.8-11.5-14.8
			c-2.1-4.5-2.6-9.5-1.5-14.3c1-4.6,1.4-9.4,1.1-14.2C65.6,74.8,72,68.4,80.6,67.6c2.8-0.1,5.4-1.3,7.4-3.2
			c-6.8,2.1-13.6,4.1-20.6,3.9c-0.5,0.5-1.1,0.9-1.7,1.3c-4.2,2.5-5.8,5.9-5.4,10.8c0.4,4.5,1.9,9,0.5,13.7
			c-0.9,3.2-1.2,6.5-1.8,10.1c0.3,1,0.7,2.3,1,3.6c1.3,5.7,4.2,10.9,8.3,15c3.2,3.1,6.2,6.4,9.2,9.8c4.9,5.6,9.7,11.3,15.3,16.1
			c11.3,9.5,22.9,18.6,35.9,25.8C138.3,179.8,148.5,180.4,159.2,180z M522,448.3l34.1,31c2-3.1,3.7-5.7,5.4-8.3l-36.6-32.4
			C523.9,441.7,523,444.8,522,448.3z M555.6,480.6l-34.8-30.7l-4.2,8.1c10.8,9.9,21.7,20,32.6,30c0.5,0.4,1.1,0.6,1.7,0.9
			L555.6,480.6z M509.2,465c6.2,6.7,33.2,31,36.4,32.8l3.9-7.6l-34.5-31L509.2,465z M512.5,442.5l-29.2-26l-8.7,3.1l33.5,30.7
			L512.5,442.5z M471.9,431.2l28.3,25.9l6.6-5c-10.3-9.4-20.2-18.5-30.7-27.6c-0.1,1.7-0.2,2.6-0.3,3.6L471.9,431.2z M512.6,439.6
			l1.1-0.4c0.2-3.2,0.4-6.5,0.6-9.9l-22.6-19.9l-8,1.3c-0.1,1-0.2,1.9-0.2,2.6L512.6,439.6z M501.2,460.8
			c-12.8,3.3-26.6-1.6-33.6-11.4c-2-2.8-2.5-5.3-1.7-7.2l3.1-4.6l-2.2-7.7l-2.9-1.3c-2.6,3.4,0.2,5.5,1.2,7.8
			c-0.7,4.8-0.7,5-4.3,9.1c-0.1,1.1-0.3,2.4-0.4,3.4c5.6,9.1,11.9,12.5,20.3,15.9c7.5,3.3,16.2,2.9,23.4-1.1L501.2,460.8z
			 M228.5,199.4l-23.2-21.1c-2.1,2.6-3.9,4.8-5.8,7.1l23.8,21.2c0.9-1.1,1.8-2.2,2.7-3.4C226.9,202,227.6,200.7,228.5,199.4
			L228.5,199.4z M497.4,457.5l-25.2-22.5c1.5,4.3-1.8,6.3-2.8,9.7c2.3,5.3,6.9,8.5,12,11C486.3,458.1,491.3,459.5,497.4,457.5z
			 M492.1,400.2c5.5-0.4,9.4,2.6,13,5.6c7.4,5.8,12.1,14.4,12.8,23.8l2.9,2.4c2.4-14.2-10.7-34.9-27.3-39.2
			c-0.7,1.8-1.4,3.6-2.3,5.8l-4.6,3l3,2.5L492.1,400.2z M216.8,163.3l-4.7,6.3c8.1,6.8,15.3,13.9,23.4,20.3l4-6L216.8,163.3z
			 M233.8,192c-8-6.7-15.1-14.1-23.2-20.5c-1.5,1.9-2.7,3.4-3.9,4.9l23.5,21.1C231.5,195.5,232.7,193.7,233.8,192L233.8,192z
			 M246.8,216.3L230.2,201c-1.9,2.7-3.4,4.9-5.1,7.4c6,4.7,11,10.4,17.2,14.8L246.8,216.3z M243.6,224.8l17,15.1l4.8-6.7
			c-3.1-2.8-5.7-5.5-8.6-7.8c-2.9-2.3-4.9-5.8-8.8-7.2L243.6,224.8z M222.3,208.5l-23.7-21.7l-3.4,4.4l23.6,21.8L222.3,208.5z
			 M262.4,241.4l15.6,14.1c1.4-2.2,2.8-4.3,4.4-6.8c-5-4.7-9.9-9.4-15.3-13.9L262.4,241.4z M237.1,191.7l16.7,14.9
			c1.5-2,2.7-3.7,4.4-5.9c-6-4.8-11-10.5-17.3-15.1L237.1,191.7z M276.7,217.4c-6-5.1-11.1-10.3-17-15c-1.5,2.2-2.8,4-4,5.9
			l16.7,14.8L276.7,217.4z M439,313.7c-9.1,2.8-17.8,4.3-25.8,8.9l9.1,7.6L439,313.7z M298.6,263.4l-14.5-13l-4.4,6.7
			c5,4.5,9.6,8.6,14.4,12.9C295.8,267.7,297.2,265.7,298.6,263.4z M274.1,224.7c5.3,4.8,10.5,9.4,15.7,14l4.3-5.9
			c-5.8-4.3-10.2-9.7-15.9-13.7L274.1,224.7z M231.7,198.8l16.9,15.3l3.5-5.3c-5.7-5.3-10.9-10.3-16.7-14.9L231.7,198.8z
			 M250.2,215.5c5.7,5.2,11.3,10.2,17.2,15.6l3.1-5.6L254,210.4C252.6,212.3,251.5,213.8,250.2,215.5L250.2,215.5z M461.7,392.7
			c3.3,4.3,10.6,10.7,12.8,11.5l3.8-6.8l-12.5-11L461.7,392.7z M255.9,247.4c1.1-1.8,2.1-3.5,3.1-5.4c-2.8-2.5-5.6-4.7-8.2-7.3
			c-2.6-2.7-5.4-5.2-8.3-7.4c-2.2,0.9-2.7,2.6-3.5,4.5L255.9,247.4z M295.8,271.6l13.2,11.8c1.4-2.4,2.7-4.5,4-6.8
			c-4.3-3.9-8.5-7.8-12.8-11.6L295.8,271.6z M309.7,247.1l-13.9-12.5l-4.2,5.7l14.4,12.8L309.7,247.1z M463.7,413.2l-9.5-8.5
			c-0.7,0.9-1.5,1.7-2.2,2.6c-0.7,0.9-1.6,2.1-2.1,2.9c3,4.3,11.9,12.3,15.3,14C464.7,420.3,464.2,416.8,463.7,413.2L463.7,413.2z
			 M220.4,214.5l16.7,15.4l3.4-4.8L224,210L220.4,214.5z M288,241l-15.7-14l-3.2,5.5l15.7,13.9L288,241z M327.5,289.7l-12.7-11.4
			l-4.3,6.4c4.3,3.6,8,8,12.6,11.1C324.6,293.7,325.9,292,327.5,289.7z M419.4,399.4c4.1,3.1,7,7.2,11.1,9.5l4.2-7.6l-10.2-9.1
			L419.4,399.4z M257.6,248.8c5,4.8,9.6,9.6,15,13.6l3.6-4.8l-15.3-13.9C259.7,245.7,258.7,247.2,257.6,248.8z M292.2,272.3
			L278,259.5l-3.9,4.8l14.4,13.3c1.1-1.4,2.1-2.6,3.1-3.9C291.8,273.3,292,272.8,292.2,272.3z M304.1,255.8l-14.4-13l-3.7,5.1
			l14.2,12.8L304.1,255.8z M307.7,254.8l13,11.5l3.4-6.2l-12.7-11.3C310.1,251,309,252.8,307.7,254.8L307.7,254.8z M407.8,388.3
			l10.1,9.5l4.9-7.2l-10.1-9.2L407.8,388.3z M338.4,272.9l-12.3-11l-3.9,5.9l12.6,11.3C336.1,276.9,337.2,275,338.4,272.9z
			 M464.5,410.1l8.8-2.6l-13.3-12l-4.3,6.5L464.5,410.1z M493,407l19.8,17.9c-1.4-7.8-5.7-13.2-11.7-17.4c-2.1-1.6-4.6-2.8-7.2-3.6
			L493,407z M307.1,285.8l-12.9-11.6c-1.7,1.8-3.4,3.1-3.4,5.7l12.3,11.3L307.1,285.8z M340.2,301.4l-11.1-10.3l-4.3,6.4l11.2,10.2
			L340.2,301.4z M304.8,292.6c4.4,4.2,8.1,8.3,12.9,11.5l3.3-5.7c-4.2-3.7-8.2-7.3-12.3-11L304.8,292.6z M338,309.5
			c3.5,3.3,6.7,6.6,10.7,9.4c1.5-2.2,2.9-4,4.3-6l-11.4-10.1C340.3,305.3,339.2,307.3,338,309.5L338,309.5z M452.7,374.6l-10.9-9.4
			l-4.3,6.4l10.6,9.5L452.7,374.6z M425.9,389.4l11.3,10l3.8-6.6l-10.6-9.7L425.9,389.4z M302.1,262.3l12.8,11.8l3.8-5.2
			c-4.3-4.1-8.6-7.8-12.9-11.6L302.1,262.3z M446.9,383.9l-10.8-9.6l-4.3,6l10.8,9.8L446.9,383.9z M332.9,281.7l-12.7-11.2l-3.6,5.2
			l12.5,11.2L332.9,281.7z M336.4,280.3c1.8,1.7,3.6,3.5,5.6,5.3c2,1.8,3.9,3.3,5.5,4.7c1.3-2.1,2.4-3.9,3.7-6l-11-9.8L336.4,280.3z
			 M364.9,323.7c-3.6-3.2-6.7-6-10.2-9.2l-4.6,6.1l10.9,9.6L364.9,323.7z M355.1,339.3c1.3-2.2,2.5-4.1,3.8-6.3l-10.8-9.7
			c-1.2,2.5-2.4,4.7-3.4,6.8L355.1,339.3z M401.8,371.5l-4.7,6.8l9,8.5l4.9-6.9C407.8,377.1,404.9,374.4,401.8,371.5L401.8,371.5z
			 M346.7,321.7c-3.5-3.1-7.1-6.3-10.9-9.7l-3.9,5.9l10.9,10L346.7,321.7z M330.5,316.3l3.6-6.1l-10.7-9.4l-3.9,5.6L330.5,316.3z
			 M426.1,361.2c3.3,2.9,6.4,5.8,9.7,8.8c1.5-2.3,2.8-4.3,4.2-6.4l-10.1-8.9L426.1,361.2z M428.5,381.7c-3.3-3.3-6.4-6.4-10.2-9.2
			l-4,6.2l9.9,9L428.5,381.7z M395.2,376.8l4.8-6.8l-9.3-8.4l-4.3,6.6L395.2,376.8z M365.9,297.4l-3.7,6.2l10,9.1l4.2-5.9
			L365.9,297.4z M360,301.6c1.4-2.2,2.5-4,3.7-6.1l-10.2-9c-1.3,2.2-2.4,4-3.7,6L360,301.6z M430.2,378.9l4-6.3l-10.2-9.1
			c-1.4,2.1-2.6,4-3.9,6.1L430.2,378.9z M428.1,352.9c-3.1-2.8-6.3-5.7-9.4-8.3l-4,6.4l9.5,8.6L428.1,352.9z M345.9,293.3
			l-11.3-10.1l-3.8,5l11.2,10.2C343.4,296.7,344.6,295,345.9,293.3L345.9,293.3z M375.7,333.7c-2.8-2.7-5.9-5.5-9-8.4
			c-1.4,2.5-2.6,4.6-3.8,6.8l9,8.1L375.7,333.7z M403.3,368.7c3.6,2.6,5.8,6.3,9.9,8l3.5-5.9l-9.6-8.7
			C405.8,364.3,404.6,366.3,403.3,368.7L403.3,368.7z M370.4,343.1c-3.5-2.7-5.9-6.2-10-8.2l-3.4,5.9c2.9,3.2,6.1,6.1,9.6,8.7
			L370.4,343.1z M343.7,300.1l10.9,9.8c2.4-2.9,2.4-2.9,3.1-6c-3.5-2.7-6.2-6.5-10.4-8.6L343.7,300.1z M360.1,306l-3.6,5.8
			c3.8,2.9,6.5,6.7,10.7,8.8c1.2-1.8,2.2-3.4,3.3-5.1L360.1,306z M383.6,322.8l3.9-5.9l-9.3-8.5c-2,1.6-3.4,3.7-4,6.1L383.6,322.8z
			 M392.5,358.7l9.1,8.3c1.4-2.2,2.7-4.3,4-6.4c-1.6-1.5-3-3-4.5-4.3c-1.5-1.3-3-2.4-4.8-3.8L392.5,358.7z M422.4,361.9l-9.7-8.4
			l-3.4,6.2c3.2,2.5,5.5,6.3,9.8,7.8C420.2,365.6,421.2,363.9,422.4,361.9L422.4,361.9z M407.4,334.6l-3.6,6.6l8.7,7.7l3.8-6.5
			L407.4,334.6z M378,331.1c1.4-2.3,2.3-4,3.4-5.9c-3.1-2.7-6.1-5.4-9.4-8.3l-3.5,5.8L378,331.1z M432.4,410.8c0.8,1,1.7,2,2.6,2.9
			c1,0.9,2.1,1.7,3.2,2.4c3.5-0.5,4.9-3,6.1-6.2l-7.2-6.3L432.4,410.8z M407.4,357.9c1.1-2.2,2.2-4.4,3.3-6.7
			c-3.3-1.8-5.4-5.4-8.8-7.2l-3.3,6.1L407.4,357.9z M380.3,352.2l-8.3-7.6c-1.4,2.5-2.6,4.7-3.8,6.9l8,7.2L380.3,352.2z
			 M462.3,383.3l-8-7.1l-4.4,6.5l7.8,7.1L462.3,383.3z M374.2,342.3c1.2,1.1,2.6,2.2,3.9,3.4c1.3,1.2,2,3.1,4.3,3.1l3.7-5.7
			l-8.4-7.8C376.4,337.9,375.4,340,374.2,342.3z M397.5,325.8c-2.6-2.7-5.5-5.2-8.7-7.3c-1.3,2.3-2.4,4.3-3.4,6.1l8,7.1
			C394.8,329.7,396.1,327.8,397.5,325.8L397.5,325.8z M442.8,394.3l-4.1,6.6l7.6,7l4-6.9L442.8,394.3z M457.2,367.1l-10.5-9l-3.5,4
			l10.7,9.8L457.2,367.1z M444.1,391.6l8,7.3l3.9-6.9c-2.7-2.3-4.7-4.7-7.6-6.2L444.1,391.6z M391.7,334.9c-2.6-2.9-5.4-5.4-8.6-7.6
			c-1.1,2.3-2,4.2-3,6.1c2.4,2.1,5,4.3,7.7,6.7L391.7,334.9z M389.1,360.2l-7.4-6.6l-3.9,6.7l6.6,6.7
			C386,364.7,387.4,362.7,389.1,360.2L389.1,360.2z M431.7,351.9l9.8,8.8l3.4-4.4l-10.6-9.1L431.7,351.9z M242.1,180.1
			c-5.3-4.6-10.5-9.2-15.7-13.6c-2-1.7-4-3.4-6.1-5c-0.5-0.3-1.3-0.1-3.2-0.1c8.6,7.2,15.6,14.4,23.8,20.5L242.1,180.1z
			 M394.8,351.1c-2.6-2.1-3.9-4.9-7.1-5.9l-3.9,5.8l6.9,6.2L394.8,351.1z M430.2,350.7l2.4-4.9c-3.2-2.6-6-5.8-10-8l-2.1,4.3
			L430.2,350.7z M405.8,333.2l-6.7-6.2l-4,6.3l7,6.1L405.8,333.2z M389.6,341.8l6.6,6l3.7-6.1l-6.8-5.6L389.6,341.8z M421.3,335.8
			l-9.3-7.9l-2.6,4.2l9.2,8.2L421.3,335.8z M177.8,127.9c0.6-2.1,1.1-3.9,1.6-5.6l-3.8-2.9L172,119c-0.1,0.6-0.3,1.3-0.6,1.8
			c-0.4,0.6-0.8,1.3-1.3,1.9C171.7,128.2,172.3,128.6,177.8,127.9z M463.9,380.8c1-2,1.8-3.6,2.7-5.5l-8.1-6.9
			c-1,1.9-1.8,3.5-2.7,5.2L463.9,380.8z M262.5,198.4l-1.1,0.9c0.4,0.8,0.6,1.8,1.2,2.4c4.9,4.4,9.9,8.7,14.9,13
			c0.2,0.2,0.6,0,1,0.1c0.3-0.5,0.7-1,1.2-1.8C273.7,208.4,268.8,202.6,262.5,198.4z M280,216.7c5.1,4.8,10.3,9.4,16,14
			c0.4-1.1,0.7-2,1.1-3c-2.7-2.3-5.1-4.5-7.7-6.5c-2.6-2-4.7-5-7.9-6.4L280,216.7z M328,259.4c4.3,3.6,7.9,7.7,12.8,10.8
			c0.4-1.4,0.7-2.4,1-3.4l-11.9-10.5L328,259.4z M380.6,300.2c-3.9-2.7-6.8-6.2-10.9-8.6l-2,3.2l10.1,9L380.6,300.2z M298,232.9
			l13.7,12c0.7-1.1,1.2-2,1.6-2.8l-14.2-12.3c-0.4,0.4-0.7,0.8-1,1.3C298.1,231.7,298,232.3,298,232.9L298,232.9z M367.9,290
			c-5.5-6-9.6-9.3-11.6-8.8l-1.3,2.2l11,9.8C366.8,291.9,367.4,290.9,367.9,290L367.9,290z M313.3,246.3l13.4,11.8l1.3-3.3
			l-12.8-11.3C314.5,244.6,314,245.2,313.3,246.3L313.3,246.3z M342.2,272.1l11.3,9.9c0.7-1.3,1.2-2.1,1.9-3.3
			c-3.7-3.1-7.3-6.2-10.9-9.2c-0.2-0.1-0.6,0-1,0C343.2,270.2,342.8,270.9,342.2,272.1L342.2,272.1z M243.9,182
			c-1.8,2.3,0.3,3.3,1.3,4.2c4.2,3.9,8.6,7.7,12.9,11.4c0.7,0.4,1.5,0.6,2.3,0.7c0-0.9,0.3-1.6,0-1.8
			C255.2,191.3,249.7,186.5,243.9,182z M389.4,314l2.4-4l-10.1-8.4c-0.8,1.4-1.3,2.4-2,3.7L389.4,314z M83.1,145.9l-3.6-3.3
			c-0.7,4.8-4.7,6.2-7.4,8.9l1.4,4.9c1.1-0.8,2.2-1.1,2.6-1.9C77.8,151.4,79.4,148.1,83.1,145.9z M401.5,318.8l-7.9-6.8l-2.3,3.8
			l7.8,7L401.5,318.8z M126.3,178.9l-3.3-2l-8.1,8l1.4,3.8l3-0.9C120,183.9,122.3,181.1,126.3,178.9L126.3,178.9z M136.7,62.8
			c-1.6,3.1-3,5.8-4.5,8.7l2.1,1l7.1-7.9l-0.9-2.9L136.7,62.8z M410.2,326.4c-2.1-2-3.9-3.6-5.8-5.2c-0.3-0.3-0.9-0.2-1.8-0.5
			c-0.6,1.1-1.2,2.3-1.9,3.6l7,6.1C408.8,328.8,409.4,327.7,410.2,326.4L410.2,326.4z M480.1,410.4c0.9-4.1,5-2.8,7.3-4.7l-5-4.4
			l-3.1,1.2c-0.3,2.2-0.6,4.2-0.9,6L480.1,410.4z M556,496.3l-3.3-3l-4.3,8l2.7,2L556,496.3z M477.9,411.3l-10.2,1.5
			c1.6,1.7,2.7,2.8,3.5,3.7l8.3-2.4L477.9,411.3z M518.4,445c1.6-2.8,2.3-5.4,2.6-9.7l-2.8-2.3c-0.6,3.6-1.1,6.9-1.6,10.2L518.4,445
			z M179.2,105.6c2-1.5,4.4-2.3,5-5.1c0-0.7-0.1-1.3-0.3-1.9l-2.5-0.5C177.6,101.5,177.5,101.7,179.2,105.6L179.2,105.6z
			 M503.1,459.9l3.4,2.2l5.5-5.2l-2.3-2.4L503.1,459.9z M517.9,447.8l-2.1-2.4l-4.8,7.6l2.7,2.1L517.9,447.8z M468.3,418.3
			c2.4,3.3-0.3,6.5-0.3,10.3l4.6-3.2C470.8,423.1,472,419.6,468.3,418.3L468.3,418.3z"/>
		<path class="st0" d="M155.3,150.4c2.7,3.9,2.6,7.7-0.9,11.5c-2.5,1.2-5.3,2.2-8.6,0.9c-3.3-2.4-4.4-5.7-3.3-9.2
			c1.8-4.3,5.6-4.1,8.6-5.4C152.5,148.9,153.9,149.6,155.3,150.4z M154.3,157.1l-1.1-3.8l-3.4-2.3l-4.9,3.8l1.2,4.1l4.3,2.4
			L154.3,157.1z"/>
		<path class="st0" d="M177.8,127.9c-5.6,0.7-6.1,0.3-7.7-5.2c0.5-0.6,0.9-1.2,1.3-1.9c0.2-0.6,0.4-1.2,0.6-1.8l3.6,0.4l3.8,2.9
			C179,124,178.4,125.8,177.8,127.9z"/>
		<path class="st0" d="M603.4,622.1c-2,1.3-3.9,3-6.1,4c-6.2,2.7-12.4,5.1-19.3,6c-14,1.8-27.3-0.5-40.3-5.3
			c-13.9-5.2-25.3-14-34.4-25.5c-5.7-7-10.4-14.9-13.9-23.2c-2.6-6.4-5.4-12.8-7.4-19.5c-1.8-5.9-2.9-11.9-4.2-17.9
			c-0.2-1.4,0-2.7,0.6-4c0.4,1.2,0.9,2.3,1.3,3.4c1.2,4.2,2.5,8.3,3.7,12.5c2.9,10.1,7.4,19.4,12.3,28.6c4.3,8.3,9.9,16,16.4,22.8
			c4.6,4.8,9.9,8.9,15.6,12.3c9.9,5.8,20.3,9.9,31.6,11.7c8.7,1.3,17.3,1.6,26-0.3c5.6-1.3,11-3.2,16.1-5.9c0.6-0.2,1.2-0.4,1.9-0.5
			L603.4,622.1z"/>
		<path class="st0" d="M662,465.1c-12.4-39.6-36.8-66.4-77.7-76.4c13.6,0.1,26.1,4.3,37.4,11.4c16.7,10.6,28.8,25.2,35.7,43.7
			C662.7,458.1,663.1,461.9,662,465.1z"/>
		<path class="st0" d="M663.8,492.3c6.7,35.9-13.5,84-40.6,102.8c12.5-14.3,22.6-30,29.6-47.8C659.9,529.5,663,511.2,663.8,492.3z"
			/>
		<path class="st0" d="M501.1,343.3c-2.6-3.6-5.2-7.1-7.5-10.9c-3.3-5.2-7.9-9.5-13.3-12.4c-9-4.9-18.4-5.5-27.9-0.2
			c-4.7,2.7-9.2,5.7-13.5,9c-0.4,0.3-0.8,0.5-1.3,0.6c0-0.4-0.2-0.8-0.1-0.9c5.2-6,11-11.4,18.4-14.6c7.1-3.1,15.2-2.9,22.2,0.4
			c9.8,4.4,16.5,11.9,20.8,21.7c1,2.2,2.1,4.4,3.1,6.6L501.1,343.3z"/>
		<path class="st0" d="M571.3,622.7l0.2,1.2c-11.1,2-22.5,0.2-32.4-5c-13.9-7.1-24-17.8-31.3-31.4c-0.6-0.8-0.9-1.8-1-2.8
			c0.9,0.7,1.8,1.5,2.6,2.4c5.2,6.7,10.9,12.8,17.3,18.4c11.7,10.2,25.1,16.3,40.7,17.3C568.7,622.9,570,622.7,571.3,622.7z"/>
		<path class="st0" d="M415.2,470.6c-7-1.8-12.3-6-17.2-10.6c-5-4.6-8.8-10.3-11.2-16.7c-3.3-9.7-3.1-19.5,1.8-28.8
			c0.1-0.2,0.5-0.3,0.9-0.5c-0.6,3-1,6.1-1.3,9.2c-0.1,3.1,0.1,6.2,0.5,9.3c1.7,14,9.9,24,20.2,32.7L415.2,470.6z"/>
		<path class="st0" d="M554.7,387.7c-4.6,0.1-8.5,0.4-12.4,0.1c-7.4-0.7-13.4-4.6-18.7-9.5c-4.6-4.3-8-9.6-10.9-15.1
			c-0.2-0.7-0.3-1.4-0.3-2.2c2.2,2.3,3.8,4.1,5.6,5.9c4.3,4.1,8.5,8.4,13.1,12.1c5.4,4.3,12,6.2,18.9,6.8c1.2,0.1,2.3,0.2,3.4,0.4
			C553.7,386.2,553.9,386.6,554.7,387.7z"/>
		<path class="st0" d="M379.3,396.3c-0.8,2.8-1.5,5.6-2.4,8.4c-3.2,9.9-4.7,20.3-4.5,30.7c0,5.3,0.7,10.5,2,15.6
			c2.3,8.4,6.7,15.7,14.6,20.5c0.4,0.2,0.6,0.7,1.2,1.4c-1.2,0.3-2.4,0.1-3.4-0.5c-6.1-4.1-11.6-8.8-14.2-16
			c-1.1-2.9-2.9-5.7-3.3-8.8c-1-5.5-1.3-11.1-1-16.7c0.9-11.7,3.6-22.8,9.2-33.2c0.3-0.6,0.7-1.1,1-1.7L379.3,396.3z"/>
		<path class="st0" d="M418.1,487.8c10.2,2.7,20.2,5.9,28.3,13.3c4.3,4,7.7,8.5,9.4,14.2c2,7,3.1,14.2,3.3,21.4
			c0.1,1.9,1.7,3.8-0.4,6.1c-0.5-1.1-1-2.3-1.2-3.5c-0.9-8.9-3.8-17.2-6.7-25.5c-1.8-5.3-6-9.4-10.6-12.8
			c-5.1-3.7-10.4-7.1-16.4-9.3c-2.2-0.8-4.1-2.1-6.2-3.2L418.1,487.8z"/>
		<path class="st0" d="M365.1,424.2c0.4,8.8,0.1,17.5,1.2,26.3c0,0.4-0.5,0.9-0.9,1.5C361.3,442.6,359.8,433.5,365.1,424.2z"/>
		<path class="st0" d="M448.8,520.8c-3.7-8-10.6-12.8-16.6-18.8c1.1,0.4,2.1,0.8,3.2,1.3c1,0.5,2,1.1,3.1,1.6
			c3.7,1.8,6.8,4.8,8.8,8.4C448.8,515.4,449.3,518.1,448.8,520.8z"/>
		<path class="st0" d="M92.5,78.3l-9.2,4.3l-1.4,2.2c1.7,6.4-0.9,11.7-2.8,17.2c-0.6,1.7-1,3.5-1.5,5.2c-0.9,3-1,5.9,1.4,8.3
			c0.2,0.2,0,0.6,0,0.9c-2.8-1.4-4.8-4-4.6-7.1c0.2-3,0.7-5.9,1.3-8.8c0.6-2.7,1.6-5.4,2.1-8.1c0.3-1.8,0.3-3.6,0.1-5.4
			c-0.4-4.4,1.1-7.2,5.2-9.1c5.6-2.4,11-5.2,16.2-8.4c3.9-2.5,6.8-2.6,11.4-0.6C102.5,68.8,98,74.4,92.5,78.3z"/>
		<path class="st0" d="M119.2,95.3c-1.8-6-0.5-8.8,6.8-13.9c5-0.4,9.8,0.1,12.5,5c2.6,4.7,2,9.3-1.8,13.6l-4.4,2.6
			C127.1,103,122.6,102,119.2,95.3z M123.5,88.4c-3.1,5.4-1.9,8,5,11c3-0.6,6-1.1,7.8-4.3c1.3-3.8,0.3-7.2-3.2-9.8
			c-0.9-0.2-1.7-0.7-2.5-0.6C127.9,85.1,124.4,84.5,123.5,88.4L123.5,88.4z"/>
		<path class="st0" d="M104.9,113.9c5.9-0.4,9.2,3,11.5,7.8c0.2,7.1-2,11.1-6.9,12.7c-6,2-9.3,0.6-14-6.1c-0.1-3.3-0.7-6.7,1.7-9.7
			C99.3,115.9,101.6,114.2,104.9,113.9z M111.6,119.9c-5.2-4.7-11.4-3.5-13.3,4c1.2,4.8,1.2,4.8,4.1,7.5c6.1,1.2,8.5,0,10.9-5.6
			L111.6,119.9z"/>
		<path class="st0" d="M154.3,157.1l-4,4.1l-4.3-2.4l-1.2-4.1l4.9-3.8l3.4,2.3L154.3,157.1z"/>
		<path class="st0" d="M123.4,88.4c2.7-2,5.5-3.7,9.5-1.7l2,2.8c0.7,3.7-0.7,6.5-4.5,8.4l-5.1-1.4C123.1,93.7,123.5,91,123.4,88.4
			L123.4,88.4z"/>
		<path class="st0" d="M110.7,120.3l1.4,4.9l-2.1,3.7l-5.6,1.6l-3.7-2.6l-1.2-4l2.1-4.2l5.4-1.6L110.7,120.3z"/>
	</g>
</g>
</svg>
