<svg xmlns="http://www.w3.org/2000/svg" viewBox="0 0 458.87 315.07"><defs><style>.cls-1{fill:#6b280d;}.cls-2{fill:#ef5b0d;}.cls-3{fill:#fda016;}</style></defs><g id="Capa_2" data-name="Capa 2"><g id="Capa_1-2" data-name="Capa 1"><path class="cls-1" d="M348,111.42l-.07,0a9,9,0,0,1-.92-.5Z"/><path class="cls-1" d="M115.19,36.93a.43.43,0,0,1,.31-.17.27.27,0,0,1,.25.17,2.4,2.4,0,0,0,2.59,1.77c6.49,0,12.72-14,18.44-19.16-.28,0-.59,0-.9,0-4.4,0-10.53,1.67-11.26,6.07a2.14,2.14,0,0,0,.21,1.49c.06.14-.07.48-.49.48-1.63,0-3-2-2.63-4.12,1-4.82,8.18-6.31,13.82-6.31,3.57,0,6.48.59,6.9,1.28a1,1,0,0,1,.17.63c-.07,1.73-4.92,13.34-5.51,16.39,2.46-4.09,8.49-13.76,11.16-16.53a3.64,3.64,0,0,1,3.12-1.25c1.7,0,2.46.87,2,2.05-1.29,4.12-5.24,13.1-6.14,18-.27,1.73-.38,3.67.73,5.09a.45.45,0,0,1-.42.73c-3.36,0-5.12-1.94-4.6-5.09.79-5.41,5.37-13.9,6.34-15.77.17-.38,0-.76-.28-.76s-.55.13-.9.58c-1.53,2.05-8.49,13.17-9.88,16-.9,1.94-1.21,2.21-2.22,2.21-1.69,0-3.77-2-3.7-3.46.1-3,5.23-12.24,6.16-14.7.11-.27.07-.65-.31-.65-.66,0-1.24.72-2.25,2.11-5.2,7.24-9.91,19.51-16.6,19.51C113.49,43.45,114.43,37.84,115.19,36.93Z"/><path class="cls-1" d="M157.23,35.31a1.11,1.11,0,0,1,.76-.42c.52,0,.8.55.38,1.07-2.32,3-5,5.93-5.89,5.93s-3.33-1-3.33-2.81c0-2.63,3.4-8,4.33-9.46a1.07,1.07,0,0,1,.91-.55c.72,0,2.42.69,1.76,1.73-.86,1.39-4.19,8.73-3.36,8.73C153.38,39.53,155.29,37.45,157.23,35.31ZM156.71,28c-.73,0-2.08-.69-1.84-1.39a39.15,39.15,0,0,1,1.49-3.77,1.2,1.2,0,0,1,1.14-.63c1.22,0,2.81,1.21,2.33,1.94-.63,1-2.29,3-2.71,3.68A.47.47,0,0,1,156.71,28Z"/><path class="cls-1" d="M104.3,66.23c1.29-6.68,11.18-18.37,32.34-18.37,32.61,0,36.31,34.42,3.6,43.32,2.22,5.85,4.62,12.81,7.67,18.37,1.76,3.16,4.34,6.78,6.75,7.8.74.37,1,1.3.46,1.67a12.36,12.36,0,0,1-6.28,1.39c-2.68,0-5.36-.56-6.93-2-4.25-3.62-7.49-15.31-10.63-25.61a57,57,0,0,1-7.11.47c-2.41,5.66-4.53,11-5.64,14.47-.83,2.69-2,6.78-2.22,8-.18.93-.46,1.21-1.38,1.21-2.78-.75-7.49-3.34-7.49-7.33,0-8.35,21.72-47.13,21.72-47.13a4.69,4.69,0,0,1,4.52-2.42c2.22,0,5.08,1.3,3.79,3.9-.28.46-5.45,11.41-10.44,22.73,31.05-.46,35.57-33.31,9.42-33.31C120.29,53.42,113,66.69,112.06,72a6,6,0,0,0,.56,4c.18.37-.19,1.3-1.3,1.3C107,77.27,103.19,71.89,104.3,66.23Z"/><path class="cls-1" d="M177.57,78.47c4.62,0,6.75,2,7.58,4.55.83-1.3,1.48-2.32,1.94-3.06a2.8,2.8,0,0,1,2.4-1.49c1.94,0,6.47,1.86,4.71,4.64-2.31,3.71-11.18,23.38-9,23.38,1.57,0,6.65-5.56,11.83-11.32a3,3,0,0,1,2-1.11c1.29,0,2.12,1.49,1,2.88-6.29,8-13.31,15.86-15.71,15.86-2,0-8.78-2.6-8.87-7.42-3.61,4.17-7.58,7.42-10.63,7.42-4.06,0-8.59-2.87-8.59-7.51C156.32,95.82,165.1,78.47,177.57,78.47Zm-10.9,28c7.57,0,19.77-22.82,12.56-22.82C170.55,83.67,162.23,106.49,166.67,106.49Z"/><path class="cls-1" d="M215.82,105.29c0-5,11.27-19.67,8.23-19.67-3.79,0-20.79,22.64-21.26,26-.09.92-.46,1.2-1.38,1.2-2.77-.74-7.49-3.34-7.49-7.33,0-7,9.15-21.61,11.65-25.51a2.79,2.79,0,0,1,2.4-1.49c1.94,0,6.47,1.86,4.71,4.64a110.77,110.77,0,0,0-7.3,16.24c5.36-7.7,18.39-20.88,23.29-20.88A6.67,6.67,0,0,1,235,85c0,3.71-9.52,18.65-9.52,20.87,0,.47.19.65.56.65,1.57,0,6.65-5.56,11.82-11.32a3,3,0,0,1,2-1.11c1.38,0,2.12,1.49,1,2.88-6.19,8-13.3,15.86-15.89,15.86C222.94,112.8,215.82,110.11,215.82,105.29Z"/><path class="cls-1" d="M236.43,101.67c0-8.07,9.14-23.2,18.66-23.2,11.36,0,10.63,12.07,5,15.13a1.79,1.79,0,0,1-.74.18c-1.39,0-3.33-1.76-2.22-2.41,2.41-1.58,4.16-7.7.74-7.7-4.16,0-11.73,10.48-11.73,17.91,0,1.76.74,4.91,5.36,4.91,5,0,10.07-5.56,15.24-11.32a3,3,0,0,1,2-1.11c1.39,0,2.13,1.49,1,2.88-6.19,8-13.3,15.86-21,15.86C238,112.8,236.43,105.75,236.43,101.67Z"/><path class="cls-1" d="M309.51,94.06a3,3,0,0,0-2,1.06l0,0c-5.17,5.75-10.26,11.32-11.83,11.32-.37,0-.55-.18-.55-.65,0-2.22,9.51-17.16,9.51-20.87a6.67,6.67,0,0,0-6.28-6.5c-4.62,0-16.45,11.69-22.27,19.49,5.55-14.11,19.13-40.46,19.5-41.2,1.3-2.5-2.49-3.89-4.53-3.89s-3,.55-4.16,2.41c0,0-13.67,24.58-20.06,39.82-.79,1.87-1.46,3.6-2,5.13a28.4,28.4,0,0,0-1.09,3.91,7.93,7.93,0,0,0-.14,1.34c0,4,4.71,6.58,7.48,7.32.93,0,1.3-.28,1.39-1.2.46-3.35,17.46-26,21.25-26,3.05,0-8.22,14.66-8.22,19.67,0,4.82,7.11,7.51,9.14,7.51s6.63-4.63,11.48-10.39c1.47-1.75,3-3.61,4.42-5.47C311.64,95.54,310.9,94.06,309.51,94.06Z"/><path class="cls-1" d="M309.51,94.06a3,3,0,0,0-2,1.06,18.71,18.71,0,0,0-1.44,6.55c0,.24,0,.49,0,.74,1.47-1.75,3-3.61,4.42-5.47C311.64,95.54,310.9,94.06,309.51,94.06Z"/><path class="cls-1" d="M374.22,60.24c0-.82-1.67-1.12-4.11-.16-.8.32-3,.11-5.6-.3a42.74,42.74,0,0,0-7.91-20l-.06-.08c-.84-1.14-1.72-2.22-2.6-3.25-19.74-22.94-47.92-19-63.42-14.34,0,0-2.81-1.46-6.65-3.33l-1.78-.85-6-2.74h0l-1.05-.48-.09,0-1-.44-.79-.35q-8-3.54-15.11-6.06-2.84-1-5.54-1.86l-.37-.12-.08,0-1.3-.41-.12,0h0A118.7,118.7,0,0,0,224.36.2c-31.49-2.18-41.57,14-41.57,14h0a28.3,28.3,0,0,0-5.95,17.4c0,.22,0,.44,0,.65v.09a28.34,28.34,0,0,0,3.81,13.51l.11.17.08.14a33.64,33.64,0,0,0,9.46,9.51,31.52,31.52,0,0,0,9.87,4,43.67,43.67,0,0,0,13.73.73c.64-.06,1.26-.13,1.89-.21,1.85-.24,3.62-.56,5.27-.93,2.87-.76,6.8-2,12.13-3.91h0l1.38-.5h0C252,47,263.74,42.22,270.36,39.64l1.55-.72,2.07-.77c1-.34,2-.67,2.93-1h0a114.92,114.92,0,0,1,13.59-3.55h0l.33-.07.81-.15C302,38.25,338.11,62.7,353.18,65.07a33.37,33.37,0,0,1,.59,5c0,.49,0,1,0,1.48a34,34,0,0,1-16.58,29.23,26,26,0,0,0,1.32-2.5c2-4.4,2.74-9.06,1.57-12.75a9.44,9.44,0,0,0-1.93-3.46c-2-2.23-5.15-3.64-9.82-3.64-10.05,0-17.77,8.87-20.83,16.65a3,3,0,0,1,2-1.06c1.39,0,2.13,1.48,1,2.88-1.44,1.86-2.95,3.72-4.42,5.47,0,.06,0,.12,0,.19.24,4.13,2.32,10.2,12.35,10.2,5.71,0,10.88-2.76,14.82-6.81a21.28,21.28,0,0,0,11.64-4.32,38.67,38.67,0,0,0,12.48-12.34l.14-.22.15-.23h0c3.5-5.58,6.07-12.74,6.89-21.92,0-.17,0-.35,0-.52l.18.14C367.69,66.19,374.89,63.17,374.22,60.24Zm-95-33.89c-4.75,1.79-10.26,4.15-18.45,8l-.09,0-.09.05s0,0-.08,0l-.16.08-.2.09-.37.18-.22.1c-4.46,2.05-20.23,9.17-31.65,12.17h0a34.8,34.8,0,0,1-8,1.34h0a31.53,31.53,0,0,1-12-.75,15.53,15.53,0,0,1-5.7-2.93,17,17,0,0,1-2.33-2,14.94,14.94,0,0,1-3.11-4.82A20.41,20.41,0,0,1,196,26.73,17.34,17.34,0,0,1,197.41,23h0C197.59,22.49,203.52,8.11,227,8a70.42,70.42,0,0,1,12.42,1.12h0l.06,0h0l1.64.36,5.45,1.33h0a165.21,165.21,0,0,1,35.06,14.42C280.08,25.92,279.22,26.35,279.22,26.35Zm24,5.71,1.3-.05h.71c26.95-.42,39.3,14.65,43.72,22h0c.71,1.18,1.21,2.17,1.54,2.86A308.1,308.1,0,0,1,303.24,32.06Zm22.94,72.52c-.28.2-.55.38-.83.55a8.13,8.13,0,0,1-4.2,1.36,5.82,5.82,0,0,1-3.63-1,4.8,4.8,0,0,1-1.73-3.89,19.35,19.35,0,0,1,2.31-8.26,12.84,12.84,0,0,0,7.28,10.83h0c.28.13.56.27.84.39Zm3.66-3.75h0l-.31-.1-.21-.07c-.18-.06-.35-.13-.51-.2l-.25-.1c-.25-.11-.5-.23-.73-.36l-.16-.08-.16-.09-.15-.08-.24-.15h0l-.24-.15-.06,0-.07-.05a8.28,8.28,0,0,1-3.91-6.87c0-5.84,4.71-8.81,7.11-8.81C337.6,83.67,335.1,94.06,329.84,100.83Z"/><path class="cls-2" d="M24.92,129.16l9.32,61.12,37-9q3.22,18.36,4.34,23.17L15.67,221.1,0,138.39Z"/><path class="cls-2" d="M90.5,115.28q-2.9,47.66-.72,60.44,1.41,8.28,5.67,7.55a7,7,0,0,0,4.72-3.82l11.14,10.7q-3.77,12.3-18.1,14.43-12.84,2.19-17.46-6.47-3.44-5.66-5.13-15.62-5-26.06-1.6-62.08Z"/><path class="cls-2" d="M133.81,135.17q15.24-2.26,21.15,20.24,5,20.18,7.72,35.24l-19.31,7.89-1.06-3.74a47.86,47.86,0,0,1-17.46,5.07q-15.6-1.12-18.4-16.74-1.38-13.26,15.77-17.2a54.68,54.68,0,0,1,14.22-1.54q-1.59-10.42-4.83-10.51-5.72.41-13.89,11.79l-14.15-9Q114.15,136.79,133.81,135.17Zm-9,47.13c.79,1.31,2.7,1.82,5.73,1.55a57.39,57.39,0,0,0,8.9-2.1l-1.23-5.86-5.26.61Q123.92,177.51,124.85,182.3Z"/><path class="cls-2" d="M176.39,130.22l.78,4.65a61.91,61.91,0,0,1,16.51-3.69q11.16,0,17.69,7.58,4.09,6.31,4.39,15.93l.52,38.18-19.33,1-1.23-31.75q-.25-8.76-5.94-9-6.76-.21-8.59,6.09-.88,6.57.68,35.44l-20.42,1L159,156.13q-.45-8.92-2.2-20.79Z"/><path class="cls-2" d="M265.34,136.28q9.53,8,9.52,21.18l-35.23,15.22q2.26,2.73,10.45,3.06t20.55-9.9L275,181.51Q256.86,198.94,236,193.8q-17.1-7.2-19.51-27.7-.18-13,4.06-21.54,9.52-13.81,24.42-13.36Q257.1,130.65,265.34,136.28Zm-30.42,21.46,20.68-8.68q-5-6.18-14.67-3.32Q234.24,149.21,234.92,157.74Z"/><path class="cls-2" d="M301.84,132.77l-1.93,15.91q12-9.88,19-9.85L326.23,156q-19.2,3.34-27.78,16.86L297.19,196l-24.5-2,7.12-58.41Z"/><path class="cls-2" d="M352.5,148.15q-7.11,14.64-7.6,25.63.24,7.83,7.36,4.18l5.65,17.4q-7,5.56-17.91,4.91-18.9-1.56-17.07-23.9.38-15.56,9.27-35.73Zm1.33-31q7,1.13,7.31,6.88-1.36,15.22-18.84,13.19-6.33-1.27-6.12-8.37Q336.69,116.8,353.83,117.13Z"/><path class="cls-2" d="M403.4,122l-6.75,20.86,7,1.82-1.2,15.87L390,158.67q-11.88,25.64-4.47,29.13a6.58,6.58,0,0,0,5.11-.56l6.67,15.12A27.25,27.25,0,0,1,376.07,207q-13.23-2.38-14.43-13.55-.83-15.31,7.5-38.73l-9.94-2.17,5.56-15.32,10.3,1.18,5.65-18.21Z"/><path class="cls-2" d="M439.77,155.87q17.14,4.19,19.05,20.3a26.93,26.93,0,0,1-1.2,9q-4.15,17.1-21.92,28-8.73,5-21.72,1.48-19.5-5.31-15.77-29.39,4.11-21.56,23.23-28.3Q431.73,153.92,439.77,155.87ZM418.3,187.48q-.51,6.45,4.7,7.72,11.81.87,14.79-9,2.4-8.06-3.69-9.8Q421.49,175.42,418.3,187.48Z"/><path class="cls-3" d="M375.43,227.22a166.3,166.3,0,0,1-293.27,0,797.88,797.88,0,0,1,293.27,0Z"/></g></g></svg>